<?xml version="1.0" encoding="UTF-8"?>
<svg xmlns="http://www.w3.org/2000/svg" viewBox="0 0 800 800" width="800" height="800">
<defs><filter id="glow"><feGaussianBlur stdDeviation="1.5" result="coloredBlur"/><feMerge><feMergeNode in="coloredBlur"/><feMergeNode in="SourceGraphic"/></feMerge></filter></defs>
<rect width="800" height="800" fill="#0d1117"/>
<line x1="667.5" y1="400.0" x2="174.3" y2="428.5" stroke="#30363d" stroke-opacity="0.4" stroke-width="0.6"/>
<line x1="667.5" y1="400.0" x2="356.9" y2="625.9" stroke="#30363d" stroke-opacity="0.4" stroke-width="0.6"/>
<line x1="667.5" y1="400.0" x2="304.2" y2="196.4" stroke="#30363d" stroke-opacity="0.4" stroke-width="0.6"/>
<line x1="667.5" y1="400.0" x2="330.5" y2="186.0" stroke="#30363d" stroke-opacity="0.4" stroke-width="0.6"/>
<line x1="667.5" y1="400.0" x2="357.8" y2="179.0" stroke="#30363d" stroke-opacity="0.4" stroke-width="0.6"/>
<line x1="667.5" y1="400.0" x2="385.9" y2="175.4" stroke="#30363d" stroke-opacity="0.4" stroke-width="0.6"/>
<line x1="667.5" y1="400.0" x2="172.5" y2="400.0" stroke="#30363d" stroke-opacity="0.4" stroke-width="0.6"/>
<line x1="667.5" y1="400.0" x2="328.9" y2="618.7" stroke="#30363d" stroke-opacity="0.4" stroke-width="0.6"/>
<line x1="667.5" y1="400.0" x2="174.3" y2="371.5" stroke="#30363d" stroke-opacity="0.4" stroke-width="0.6"/>
<line x1="667.5" y1="400.0" x2="179.6" y2="343.4" stroke="#30363d" stroke-opacity="0.4" stroke-width="0.6"/>
<line x1="667.5" y1="400.0" x2="443.6" y2="628.4" stroke="#30363d" stroke-opacity="0.4" stroke-width="0.6"/>
<line x1="667.5" y1="400.0" x2="188.5" y2="316.3" stroke="#30363d" stroke-opacity="0.4" stroke-width="0.6"/>
<line x1="667.5" y1="400.0" x2="525.9" y2="598.4" stroke="#30363d" stroke-opacity="0.4" stroke-width="0.6"/>
<line x1="667.5" y1="400.0" x2="500.1" y2="612.6" stroke="#30363d" stroke-opacity="0.4" stroke-width="0.6"/>
<line x1="443.6" y1="628.4" x2="174.3" y2="428.5" stroke="#30363d" stroke-opacity="0.4" stroke-width="0.6"/>
<line x1="525.9" y1="598.4" x2="174.3" y2="428.5" stroke="#30363d" stroke-opacity="0.4" stroke-width="0.6"/>
<line x1="174.3" y1="371.5" x2="356.9" y2="625.9" stroke="#30363d" stroke-opacity="0.4" stroke-width="0.6"/>
<line x1="179.6" y1="343.4" x2="356.9" y2="625.9" stroke="#30363d" stroke-opacity="0.4" stroke-width="0.6"/>
<line x1="188.5" y1="316.3" x2="356.9" y2="625.9" stroke="#30363d" stroke-opacity="0.4" stroke-width="0.6"/>
<line x1="443.6" y1="628.4" x2="304.2" y2="196.4" stroke="#30363d" stroke-opacity="0.4" stroke-width="0.6"/>
<line x1="500.1" y1="612.6" x2="330.5" y2="186.0" stroke="#30363d" stroke-opacity="0.4" stroke-width="0.6"/>
<line x1="443.6" y1="628.4" x2="357.8" y2="179.0" stroke="#30363d" stroke-opacity="0.4" stroke-width="0.6"/>
<line x1="328.9" y1="618.7" x2="385.9" y2="175.4" stroke="#30363d" stroke-opacity="0.4" stroke-width="0.6"/>
<line x1="328.9" y1="618.7" x2="172.5" y2="400.0" stroke="#30363d" stroke-opacity="0.4" stroke-width="0.6"/>
<line x1="525.9" y1="598.4" x2="172.5" y2="400.0" stroke="#30363d" stroke-opacity="0.4" stroke-width="0.6"/>
<line x1="525.9" y1="598.4" x2="328.9" y2="618.7" stroke="#30363d" stroke-opacity="0.4" stroke-width="0.6"/>
<line x1="500.1" y1="612.6" x2="174.3" y2="371.5" stroke="#30363d" stroke-opacity="0.4" stroke-width="0.6"/>
<line x1="500.1" y1="612.6" x2="179.6" y2="343.4" stroke="#30363d" stroke-opacity="0.4" stroke-width="0.6"/>
<line x1="500.1" y1="612.6" x2="443.6" y2="628.4" stroke="#30363d" stroke-opacity="0.4" stroke-width="0.6"/>
<line x1="525.9" y1="598.4" x2="188.5" y2="316.3" stroke="#30363d" stroke-opacity="0.4" stroke-width="0.6"/>
<line x1="500.1" y1="612.6" x2="525.9" y2="598.4" stroke="#30363d" stroke-opacity="0.4" stroke-width="0.6"/>
<line x1="662.9" y1="433.2" x2="253.4" y2="577.2" stroke="#30363d" stroke-opacity="0.4" stroke-width="0.6"/>
<line x1="662.9" y1="433.2" x2="623.2" y2="371.8" stroke="#30363d" stroke-opacity="0.4" stroke-width="0.6"/>
<line x1="662.9" y1="433.2" x2="656.7" y2="465.9" stroke="#30363d" stroke-opacity="0.4" stroke-width="0.6"/>
<line x1="662.9" y1="433.2" x2="644.1" y2="496.6" stroke="#30363d" stroke-opacity="0.4" stroke-width="0.6"/>
<line x1="662.9" y1="433.2" x2="625.6" y2="524.1" stroke="#30363d" stroke-opacity="0.4" stroke-width="0.6"/>
<line x1="662.9" y1="433.2" x2="469.5" y2="186.0" stroke="#30363d" stroke-opacity="0.4" stroke-width="0.6"/>
<line x1="662.9" y1="433.2" x2="232.3" y2="557.4" stroke="#30363d" stroke-opacity="0.4" stroke-width="0.6"/>
<line x1="575.0" y1="564.3" x2="414.1" y2="175.4" stroke="#30363d" stroke-opacity="0.4" stroke-width="0.6"/>
<line x1="575.0" y1="564.3" x2="302.1" y2="608.1" stroke="#30363d" stroke-opacity="0.4" stroke-width="0.6"/>
<line x1="575.0" y1="564.3" x2="442.2" y2="179.0" stroke="#30363d" stroke-opacity="0.4" stroke-width="0.6"/>
<line x1="625.6" y1="524.1" x2="575.0" y2="564.3" stroke="#30363d" stroke-opacity="0.4" stroke-width="0.6"/>
<line x1="186.2" y1="484.7" x2="575.0" y2="564.3" stroke="#30363d" stroke-opacity="0.4" stroke-width="0.6"/>
<line x1="644.1" y1="496.6" x2="575.0" y2="564.3" stroke="#30363d" stroke-opacity="0.4" stroke-width="0.6"/>
<line x1="625.6" y1="524.1" x2="414.1" y2="175.4" stroke="#30363d" stroke-opacity="0.4" stroke-width="0.6"/>
<line x1="625.6" y1="524.1" x2="302.1" y2="608.1" stroke="#30363d" stroke-opacity="0.4" stroke-width="0.6"/>
<line x1="186.2" y1="484.7" x2="302.1" y2="608.1" stroke="#30363d" stroke-opacity="0.4" stroke-width="0.6"/>
<line x1="644.1" y1="496.6" x2="302.1" y2="608.1" stroke="#30363d" stroke-opacity="0.4" stroke-width="0.6"/>
<line x1="625.6" y1="524.1" x2="442.2" y2="179.0" stroke="#30363d" stroke-opacity="0.4" stroke-width="0.6"/>
<line x1="625.6" y1="524.1" x2="604.3" y2="548.4" stroke="#30363d" stroke-opacity="0.4" stroke-width="0.6"/>
<line x1="625.6" y1="524.1" x2="469.5" y2="186.0" stroke="#30363d" stroke-opacity="0.4" stroke-width="0.6"/>
<line x1="200.6" y1="290.4" x2="625.6" y2="524.1" stroke="#30363d" stroke-opacity="0.4" stroke-width="0.6"/>
<line x1="276.8" y1="594.2" x2="625.6" y2="524.1" stroke="#30363d" stroke-opacity="0.4" stroke-width="0.6"/>
<line x1="253.4" y1="577.2" x2="625.6" y2="524.1" stroke="#30363d" stroke-opacity="0.4" stroke-width="0.6"/>
<line x1="232.3" y1="557.4" x2="625.6" y2="524.1" stroke="#30363d" stroke-opacity="0.4" stroke-width="0.6"/>
<line x1="213.9" y1="535.2" x2="625.6" y2="524.1" stroke="#30363d" stroke-opacity="0.4" stroke-width="0.6"/>
<line x1="644.1" y1="496.6" x2="625.6" y2="524.1" stroke="#30363d" stroke-opacity="0.4" stroke-width="0.6"/>
<line x1="200.6" y1="290.4" x2="604.3" y2="548.4" stroke="#30363d" stroke-opacity="0.4" stroke-width="0.6"/>
<line x1="276.8" y1="594.2" x2="604.3" y2="548.4" stroke="#30363d" stroke-opacity="0.4" stroke-width="0.6"/>
<line x1="253.4" y1="577.2" x2="604.3" y2="548.4" stroke="#30363d" stroke-opacity="0.4" stroke-width="0.6"/>
<line x1="232.3" y1="557.4" x2="604.3" y2="548.4" stroke="#30363d" stroke-opacity="0.4" stroke-width="0.6"/>
<line x1="213.9" y1="535.2" x2="604.3" y2="548.4" stroke="#30363d" stroke-opacity="0.4" stroke-width="0.6"/>
<line x1="644.1" y1="496.6" x2="604.3" y2="548.4" stroke="#30363d" stroke-opacity="0.4" stroke-width="0.6"/>
<line x1="414.6" y1="632.0" x2="495.8" y2="196.4" stroke="#30363d" stroke-opacity="0.4" stroke-width="0.6"/>
<line x1="414.6" y1="632.0" x2="520.6" y2="210.0" stroke="#30363d" stroke-opacity="0.4" stroke-width="0.6"/>
<line x1="472.6" y1="623.5" x2="414.6" y2="632.0" stroke="#30363d" stroke-opacity="0.4" stroke-width="0.6"/>
<line x1="472.6" y1="623.5" x2="495.8" y2="196.4" stroke="#30363d" stroke-opacity="0.4" stroke-width="0.6"/>
<line x1="472.6" y1="623.5" x2="520.6" y2="210.0" stroke="#30363d" stroke-opacity="0.4" stroke-width="0.6"/>
<line x1="215.9" y1="266.3" x2="543.4" y2="226.6" stroke="#30363d" stroke-opacity="0.4" stroke-width="0.6"/>
<line x1="198.4" y1="510.8" x2="543.4" y2="226.6" stroke="#30363d" stroke-opacity="0.4" stroke-width="0.6"/>
<line x1="656.7" y1="465.9" x2="564.0" y2="246.0" stroke="#30363d" stroke-opacity="0.4" stroke-width="0.6"/>
<line x1="656.7" y1="465.9" x2="582.0" y2="267.7" stroke="#30363d" stroke-opacity="0.4" stroke-width="0.6"/>
<line x1="656.7" y1="465.9" x2="597.2" y2="291.6" stroke="#30363d" stroke-opacity="0.4" stroke-width="0.6"/>
<line x1="656.7" y1="465.9" x2="609.2" y2="317.2" stroke="#30363d" stroke-opacity="0.4" stroke-width="0.6"/>
<line x1="656.7" y1="465.9" x2="617.9" y2="344.0" stroke="#30363d" stroke-opacity="0.4" stroke-width="0.6"/>
<line x1="656.7" y1="465.9" x2="276.8" y2="594.2" stroke="#30363d" stroke-opacity="0.4" stroke-width="0.6"/>
<line x1="656.7" y1="465.9" x2="213.9" y2="535.2" stroke="#30363d" stroke-opacity="0.4" stroke-width="0.6"/>
<line x1="644.1" y1="496.6" x2="215.9" y2="266.3" stroke="#30363d" stroke-opacity="0.4" stroke-width="0.6"/>
<line x1="644.1" y1="496.6" x2="234.2" y2="244.3" stroke="#30363d" stroke-opacity="0.4" stroke-width="0.6"/>
<line x1="644.1" y1="496.6" x2="198.4" y2="510.8" stroke="#30363d" stroke-opacity="0.4" stroke-width="0.6"/>
<line x1="644.1" y1="496.6" x2="472.6" y2="623.5" stroke="#30363d" stroke-opacity="0.4" stroke-width="0.6"/>
<line x1="644.1" y1="496.6" x2="186.2" y2="484.7" stroke="#30363d" stroke-opacity="0.4" stroke-width="0.6"/>
<line x1="551.4" y1="583.0" x2="255.0" y2="224.7" stroke="#30363d" stroke-opacity="0.4" stroke-width="0.6"/>
<line x1="385.4" y1="632.0" x2="177.2" y2="457.2" stroke="#30363d" stroke-opacity="0.4" stroke-width="0.6"/>
<line x1="385.4" y1="632.0" x2="278.1" y2="207.9" stroke="#30363d" stroke-opacity="0.4" stroke-width="0.6"/>
<circle cx="667.5" cy="400.0" r="8.2" fill="#96CEB4" opacity="0.8" filter="url(#glow)"/>
<text x="667.5" y="415.2" text-anchor="middle" fill="#8b949e" font-size="6" font-family="monospace">deploy.mjs</text>
<circle cx="662.9" cy="433.2" r="8.0" fill="#45B7D1" opacity="0.8" filter="url(#glow)"/>
<text x="662.9" y="448.2" text-anchor="middle" fill="#8b949e" font-size="6" font-family="monospace">App.jsx</text>
<circle cx="656.7" cy="465.9" r="8.0" fill="#FF6B6B" opacity="0.8" filter="url(#glow)"/>
<text x="656.7" y="480.9" text-anchor="middle" fill="#8b949e" font-size="6" font-family="monospace">Home.jsx</text>
<circle cx="644.1" cy="496.6" r="7.8" fill="#4ECDC4" opacity="0.8" filter="url(#glow)"/>
<text x="644.1" y="511.4" text-anchor="middle" fill="#8b949e" font-size="6" font-family="monospace">Dashboard.jsx</text>
<circle cx="625.6" cy="524.1" r="7.2" fill="#FFEAA7" opacity="0.8" filter="url(#glow)"/>
<text x="625.6" y="538.3" text-anchor="middle" fill="#8b949e" font-size="6" font-family="monospace">AuthContext.jsx</text>
<circle cx="604.3" cy="548.4" r="6.8" fill="#FFEAA7" opacity="0.8" filter="url(#glow)"/>
<text x="604.3" y="562.2" text-anchor="middle" fill="#8b949e" font-size="6" font-family="monospace">useAuth()</text>
<circle cx="575.0" cy="564.3" r="5.5" fill="#4ECDC4" opacity="0.8" filter="url(#glow)"/>
<circle cx="551.4" cy="583.0" r="5.2" fill="#DDA0DD" opacity="0.8" filter="url(#glow)"/>
<circle cx="525.9" cy="598.4" r="5.0" fill="#96CEB4" opacity="0.8" filter="url(#glow)"/>
<circle cx="500.1" cy="612.6" r="5.0" fill="#96CEB4" opacity="0.8" filter="url(#glow)"/>
<circle cx="472.6" cy="623.5" r="5.0" fill="#F7DC6F" opacity="0.8" filter="url(#glow)"/>
<circle cx="443.6" cy="628.4" r="4.8" fill="#96CEB4" opacity="0.8" filter="url(#glow)"/>
<circle cx="414.6" cy="632.0" r="4.8" fill="#F7DC6F" opacity="0.8" filter="url(#glow)"/>
<circle cx="385.4" cy="632.0" r="4.8" fill="#98D8C8" opacity="0.8" filter="url(#glow)"/>
<circle cx="356.9" cy="625.9" r="4.5" fill="#96CEB4" opacity="0.8" filter="url(#glow)"/>
<circle cx="328.9" cy="618.7" r="4.5" fill="#96CEB4" opacity="0.8" filter="url(#glow)"/>
<circle cx="302.1" cy="608.1" r="4.5" fill="#4ECDC4" opacity="0.8" filter="url(#glow)"/>
<circle cx="276.8" cy="594.2" r="4.5" fill="#FFEAA7" opacity="0.8" filter="url(#glow)"/>
<circle cx="253.4" cy="577.2" r="4.5" fill="#FFEAA7" opacity="0.8" filter="url(#glow)"/>
<circle cx="232.3" cy="557.4" r="4.5" fill="#FFEAA7" opacity="0.8" filter="url(#glow)"/>
<circle cx="213.9" cy="535.2" r="4.5" fill="#FFEAA7" opacity="0.8" filter="url(#glow)"/>
<circle cx="198.4" cy="510.8" r="4.5" fill="#555" opacity="0.8" filter="url(#glow)"/>
<circle cx="186.2" cy="484.7" r="4.5" fill="#4ECDC4" opacity="0.8" filter="url(#glow)"/>
<circle cx="177.2" cy="457.2" r="4.5" fill="#98D8C8" opacity="0.8" filter="url(#glow)"/>
<circle cx="174.3" cy="428.5" r="4.2" fill="#96CEB4" opacity="0.8" filter="url(#glow)"/>
<circle cx="172.5" cy="400.0" r="4.2" fill="#96CEB4" opacity="0.8" filter="url(#glow)"/>
<circle cx="174.3" cy="371.5" r="4.2" fill="#96CEB4" opacity="0.8" filter="url(#glow)"/>
<circle cx="179.6" cy="343.4" r="4.2" fill="#96CEB4" opacity="0.8" filter="url(#glow)"/>
<circle cx="188.5" cy="316.3" r="4.2" fill="#96CEB4" opacity="0.8" filter="url(#glow)"/>
<circle cx="200.6" cy="290.4" r="4.2" fill="#FFEAA7" opacity="0.8" filter="url(#glow)"/>
<circle cx="215.9" cy="266.3" r="4.2" fill="#555" opacity="0.8" filter="url(#glow)"/>
<circle cx="234.2" cy="244.3" r="4.2" fill="#4ECDC4" opacity="0.8" filter="url(#glow)"/>
<circle cx="255.0" cy="224.7" r="4.2" fill="#DDA0DD" opacity="0.8" filter="url(#glow)"/>
<circle cx="278.1" cy="207.9" r="4.2" fill="#98D8C8" opacity="0.8" filter="url(#glow)"/>
<circle cx="304.2" cy="196.4" r="4.0" fill="#96CEB4" opacity="0.8" filter="url(#glow)"/>
<circle cx="330.5" cy="186.0" r="4.0" fill="#96CEB4" opacity="0.8" filter="url(#glow)"/>
<circle cx="357.8" cy="179.0" r="4.0" fill="#96CEB4" opacity="0.8" filter="url(#glow)"/>
<circle cx="385.9" cy="175.4" r="4.0" fill="#96CEB4" opacity="0.8" filter="url(#glow)"/>
<circle cx="414.1" cy="175.4" r="4.0" fill="#4ECDC4" opacity="0.8" filter="url(#glow)"/>
<circle cx="442.2" cy="179.0" r="4.0" fill="#4ECDC4" opacity="0.8" filter="url(#glow)"/>
<circle cx="469.5" cy="186.0" r="4.0" fill="#FFEAA7" opacity="0.8" filter="url(#glow)"/>
<circle cx="495.8" cy="196.4" r="4.0" fill="#F7DC6F" opacity="0.8" filter="url(#glow)"/>
<circle cx="520.6" cy="210.0" r="4.0" fill="#F7DC6F" opacity="0.8" filter="url(#glow)"/>
<circle cx="543.4" cy="226.6" r="4.0" fill="#555" opacity="0.8" filter="url(#glow)"/>
<circle cx="564.0" cy="246.0" r="4.0" fill="#FF6B6B" opacity="0.8" filter="url(#glow)"/>
<circle cx="582.0" cy="267.7" r="4.0" fill="#FF6B6B" opacity="0.8" filter="url(#glow)"/>
<circle cx="597.2" cy="291.6" r="4.0" fill="#FF6B6B" opacity="0.8" filter="url(#glow)"/>
<circle cx="609.2" cy="317.2" r="4.0" fill="#FF6B6B" opacity="0.8" filter="url(#glow)"/>
<circle cx="617.9" cy="344.0" r="4.0" fill="#FF6B6B" opacity="0.8" filter="url(#glow)"/>
<circle cx="623.2" cy="371.8" r="4.0" fill="#45B7D1" opacity="0.8" filter="url(#glow)"/>
<text x="400" y="28" text-anchor="middle" fill="#e6edf3" font-size="13" font-family="sans-serif" font-weight="bold">Adaptenza</text>
<text x="400" y="46" text-anchor="middle" fill="#484f58" font-size="9" font-family="monospace">158 nodes · 193 links · 15 communities</text>
<rect x="15" y="697" width="8" height="8" fill="#FF6B6B" rx="1.5" alpha="0.8"/>
<text x="28" y="704" fill="#6e7681" font-size="7" font-family="monospace">C0: StandOut.jsx (30)</text>
<rect x="15" y="709" width="8" height="8" fill="#4ECDC4" rx="1.5" alpha="0.8"/>
<text x="28" y="716" fill="#6e7681" font-size="7" font-family="monospace">C1: firebase.js (24)</text>
<rect x="15" y="721" width="8" height="8" fill="#45B7D1" rx="1.5" alpha="0.8"/>
<text x="28" y="728" fill="#6e7681" font-size="7" font-family="monospace">C2: main.jsx (21)</text>
<rect x="15" y="733" width="8" height="8" fill="#96CEB4" rx="1.5" alpha="0.8"/>
<text x="28" y="740" fill="#6e7681" font-size="7" font-family="monospace">C3: deploy.mjs (20)</text>
<rect x="15" y="745" width="8" height="8" fill="#FFEAA7" rx="1.5" alpha="0.8"/>
<text x="28" y="752" fill="#6e7681" font-size="7" font-family="monospace">C4: AuthContext.jsx (16)</text>
<rect x="15" y="757" width="8" height="8" fill="#DDA0DD" rx="1.5" alpha="0.8"/>
<text x="28" y="764" fill="#6e7681" font-size="7" font-family="monospace">C5: README.md (12)</text>
<rect x="15" y="769" width="8" height="8" fill="#98D8C8" rx="1.5" alpha="0.8"/>
<text x="28" y="776" fill="#6e7681" font-size="7" font-family="monospace">C6: DOCUMENTATION.md (11)</text>
<rect x="15" y="781" width="8" height="8" fill="#F7DC6F" rx="1.5" alpha="0.8"/>
<text x="28" y="788" fill="#6e7681" font-size="7" font-family="monospace">C7: studioData.js (8)</text>
</svg>