<?xml version="1.0" encoding="UTF-8"?>
<svg xmlns="http://www.w3.org/2000/svg" viewBox="0 0 800 800" width="800" height="800">
<defs><filter id="glow"><feGaussianBlur stdDeviation="1.5" result="coloredBlur"/><feMerge><feMergeNode in="coloredBlur"/><feMergeNode in="SourceGraphic"/></feMerge></filter></defs>
<rect width="800" height="800" fill="#0d1117"/>
<line x1="717.5" y1="400.0" x2="165.2" y2="307.0" stroke="#30363d" stroke-opacity="0.4" stroke-width="0.6"/>
<line x1="702.6" y1="438.2" x2="165.2" y2="307.0" stroke="#30363d" stroke-opacity="0.4" stroke-width="0.6"/>
<line x1="669.6" y1="506.8" x2="165.2" y2="307.0" stroke="#30363d" stroke-opacity="0.4" stroke-width="0.6"/>
<line x1="717.5" y1="400.0" x2="556.2" y2="211.2" stroke="#30363d" stroke-opacity="0.4" stroke-width="0.6"/>
<line x1="702.6" y1="438.2" x2="556.2" y2="211.2" stroke="#30363d" stroke-opacity="0.4" stroke-width="0.6"/>
<line x1="240.6" y1="207.4" x2="634.9" y2="339.7" stroke="#30363d" stroke-opacity="0.4" stroke-width="0.6"/>
<line x1="717.5" y1="400.0" x2="240.6" y2="207.4" stroke="#30363d" stroke-opacity="0.4" stroke-width="0.6"/>
<line x1="598.2" y1="256.0" x2="240.6" y2="207.4" stroke="#30363d" stroke-opacity="0.4" stroke-width="0.6"/>
<line x1="669.6" y1="506.8" x2="240.6" y2="207.4" stroke="#30363d" stroke-opacity="0.4" stroke-width="0.6"/>
<line x1="215.9" y1="227.2" x2="240.6" y2="207.4" stroke="#30363d" stroke-opacity="0.4" stroke-width="0.6"/>
<line x1="717.5" y1="400.0" x2="634.9" y2="339.7" stroke="#30363d" stroke-opacity="0.4" stroke-width="0.6"/>
<line x1="669.6" y1="506.8" x2="634.9" y2="339.7" stroke="#30363d" stroke-opacity="0.4" stroke-width="0.6"/>
<line x1="215.9" y1="227.2" x2="634.9" y2="339.7" stroke="#30363d" stroke-opacity="0.4" stroke-width="0.6"/>
<line x1="266.0" y1="188.9" x2="546.0" y2="630.1" stroke="#30363d" stroke-opacity="0.4" stroke-width="0.6"/>
<line x1="266.0" y1="188.9" x2="350.3" y2="660.3" stroke="#30363d" stroke-opacity="0.4" stroke-width="0.6"/>
<line x1="266.0" y1="188.9" x2="318.1" y2="652.0" stroke="#30363d" stroke-opacity="0.4" stroke-width="0.6"/>
<line x1="266.0" y1="188.9" x2="513.9" y2="642.0" stroke="#30363d" stroke-opacity="0.4" stroke-width="0.6"/>
<line x1="266.0" y1="188.9" x2="482.7" y2="654.4" stroke="#30363d" stroke-opacity="0.4" stroke-width="0.6"/>
<line x1="266.0" y1="188.9" x2="174.4" y2="524.1" stroke="#30363d" stroke-opacity="0.4" stroke-width="0.6"/>
<line x1="178.7" y1="278.4" x2="546.0" y2="630.1" stroke="#30363d" stroke-opacity="0.4" stroke-width="0.6"/>
<line x1="178.7" y1="278.4" x2="350.3" y2="660.3" stroke="#30363d" stroke-opacity="0.4" stroke-width="0.6"/>
<line x1="178.7" y1="278.4" x2="318.1" y2="652.0" stroke="#30363d" stroke-opacity="0.4" stroke-width="0.6"/>
<line x1="178.7" y1="278.4" x2="513.9" y2="642.0" stroke="#30363d" stroke-opacity="0.4" stroke-width="0.6"/>
<line x1="178.7" y1="278.4" x2="482.7" y2="654.4" stroke="#30363d" stroke-opacity="0.4" stroke-width="0.6"/>
<line x1="178.7" y1="278.4" x2="174.4" y2="524.1" stroke="#30363d" stroke-opacity="0.4" stroke-width="0.6"/>
<line x1="178.7" y1="278.4" x2="293.6" y2="173.8" stroke="#30363d" stroke-opacity="0.4" stroke-width="0.6"/>
<line x1="384.5" y1="153.0" x2="546.0" y2="630.1" stroke="#30363d" stroke-opacity="0.4" stroke-width="0.6"/>
<line x1="384.5" y1="153.0" x2="350.3" y2="660.3" stroke="#30363d" stroke-opacity="0.4" stroke-width="0.6"/>
<line x1="384.5" y1="153.0" x2="318.1" y2="652.0" stroke="#30363d" stroke-opacity="0.4" stroke-width="0.6"/>
<line x1="384.5" y1="153.0" x2="153.0" y2="463.4" stroke="#30363d" stroke-opacity="0.4" stroke-width="0.6"/>
<line x1="717.5" y1="400.0" x2="546.0" y2="630.1" stroke="#30363d" stroke-opacity="0.4" stroke-width="0.6"/>
<line x1="717.5" y1="400.0" x2="350.3" y2="660.3" stroke="#30363d" stroke-opacity="0.4" stroke-width="0.6"/>
<line x1="717.5" y1="400.0" x2="318.1" y2="652.0" stroke="#30363d" stroke-opacity="0.4" stroke-width="0.6"/>
<line x1="717.5" y1="400.0" x2="153.0" y2="463.4" stroke="#30363d" stroke-opacity="0.4" stroke-width="0.6"/>
<line x1="717.5" y1="400.0" x2="513.9" y2="642.0" stroke="#30363d" stroke-opacity="0.4" stroke-width="0.6"/>
<line x1="717.5" y1="400.0" x2="482.7" y2="654.4" stroke="#30363d" stroke-opacity="0.4" stroke-width="0.6"/>
<line x1="717.5" y1="400.0" x2="174.4" y2="524.1" stroke="#30363d" stroke-opacity="0.4" stroke-width="0.6"/>
<line x1="416.6" y1="664.5" x2="546.0" y2="630.1" stroke="#30363d" stroke-opacity="0.4" stroke-width="0.6"/>
<line x1="416.6" y1="664.5" x2="350.3" y2="660.3" stroke="#30363d" stroke-opacity="0.4" stroke-width="0.6"/>
<line x1="416.6" y1="664.5" x2="318.1" y2="652.0" stroke="#30363d" stroke-opacity="0.4" stroke-width="0.6"/>
<line x1="416.6" y1="664.5" x2="513.9" y2="642.0" stroke="#30363d" stroke-opacity="0.4" stroke-width="0.6"/>
<line x1="416.6" y1="664.5" x2="482.7" y2="654.4" stroke="#30363d" stroke-opacity="0.4" stroke-width="0.6"/>
<line x1="416.6" y1="664.5" x2="174.4" y2="524.1" stroke="#30363d" stroke-opacity="0.4" stroke-width="0.6"/>
<line x1="575.3" y1="611.9" x2="546.0" y2="630.1" stroke="#30363d" stroke-opacity="0.4" stroke-width="0.6"/>
<line x1="575.3" y1="611.9" x2="350.3" y2="660.3" stroke="#30363d" stroke-opacity="0.4" stroke-width="0.6"/>
<line x1="575.3" y1="611.9" x2="318.1" y2="652.0" stroke="#30363d" stroke-opacity="0.4" stroke-width="0.6"/>
<line x1="575.3" y1="611.9" x2="513.9" y2="642.0" stroke="#30363d" stroke-opacity="0.4" stroke-width="0.6"/>
<line x1="575.3" y1="611.9" x2="482.7" y2="654.4" stroke="#30363d" stroke-opacity="0.4" stroke-width="0.6"/>
<line x1="575.3" y1="611.9" x2="174.4" y2="524.1" stroke="#30363d" stroke-opacity="0.4" stroke-width="0.6"/>
<line x1="578.6" y1="232.3" x2="546.0" y2="630.1" stroke="#30363d" stroke-opacity="0.4" stroke-width="0.6"/>
<line x1="578.6" y1="232.3" x2="350.3" y2="660.3" stroke="#30363d" stroke-opacity="0.4" stroke-width="0.6"/>
<line x1="578.6" y1="232.3" x2="318.1" y2="652.0" stroke="#30363d" stroke-opacity="0.4" stroke-width="0.6"/>
<line x1="578.6" y1="232.3" x2="513.9" y2="642.0" stroke="#30363d" stroke-opacity="0.4" stroke-width="0.6"/>
<line x1="578.6" y1="232.3" x2="482.7" y2="654.4" stroke="#30363d" stroke-opacity="0.4" stroke-width="0.6"/>
<line x1="578.6" y1="232.3" x2="174.4" y2="524.1" stroke="#30363d" stroke-opacity="0.4" stroke-width="0.6"/>
<line x1="702.6" y1="438.2" x2="546.0" y2="630.1" stroke="#30363d" stroke-opacity="0.4" stroke-width="0.6"/>
<line x1="702.6" y1="438.2" x2="350.3" y2="660.3" stroke="#30363d" stroke-opacity="0.4" stroke-width="0.6"/>
<line x1="702.6" y1="438.2" x2="318.1" y2="652.0" stroke="#30363d" stroke-opacity="0.4" stroke-width="0.6"/>
<line x1="702.6" y1="438.2" x2="153.0" y2="463.4" stroke="#30363d" stroke-opacity="0.4" stroke-width="0.6"/>
<line x1="702.6" y1="438.2" x2="513.9" y2="642.0" stroke="#30363d" stroke-opacity="0.4" stroke-width="0.6"/>
<line x1="702.6" y1="438.2" x2="482.7" y2="654.4" stroke="#30363d" stroke-opacity="0.4" stroke-width="0.6"/>
<line x1="702.6" y1="438.2" x2="174.4" y2="524.1" stroke="#30363d" stroke-opacity="0.4" stroke-width="0.6"/>
<line x1="383.4" y1="664.5" x2="546.0" y2="630.1" stroke="#30363d" stroke-opacity="0.4" stroke-width="0.6"/>
<line x1="383.4" y1="664.5" x2="350.3" y2="660.3" stroke="#30363d" stroke-opacity="0.4" stroke-width="0.6"/>
<line x1="383.4" y1="664.5" x2="318.1" y2="652.0" stroke="#30363d" stroke-opacity="0.4" stroke-width="0.6"/>
<line x1="383.4" y1="664.5" x2="513.9" y2="642.0" stroke="#30363d" stroke-opacity="0.4" stroke-width="0.6"/>
<line x1="383.4" y1="664.5" x2="482.7" y2="654.4" stroke="#30363d" stroke-opacity="0.4" stroke-width="0.6"/>
<line x1="383.4" y1="664.5" x2="174.4" y2="524.1" stroke="#30363d" stroke-opacity="0.4" stroke-width="0.6"/>
<line x1="383.4" y1="664.5" x2="195.7" y2="251.6" stroke="#30363d" stroke-opacity="0.4" stroke-width="0.6"/>
<line x1="191.7" y1="551.4" x2="546.0" y2="630.1" stroke="#30363d" stroke-opacity="0.4" stroke-width="0.6"/>
<line x1="191.7" y1="551.4" x2="350.3" y2="660.3" stroke="#30363d" stroke-opacity="0.4" stroke-width="0.6"/>
<line x1="191.7" y1="551.4" x2="318.1" y2="652.0" stroke="#30363d" stroke-opacity="0.4" stroke-width="0.6"/>
<line x1="191.7" y1="551.4" x2="513.9" y2="642.0" stroke="#30363d" stroke-opacity="0.4" stroke-width="0.6"/>
<line x1="191.7" y1="551.4" x2="482.7" y2="654.4" stroke="#30363d" stroke-opacity="0.4" stroke-width="0.6"/>
<line x1="191.7" y1="551.4" x2="174.4" y2="524.1" stroke="#30363d" stroke-opacity="0.4" stroke-width="0.6"/>
<line x1="191.7" y1="551.4" x2="626.5" y2="564.6" stroke="#30363d" stroke-opacity="0.4" stroke-width="0.6"/>
<line x1="415.5" y1="153.0" x2="546.0" y2="630.1" stroke="#30363d" stroke-opacity="0.4" stroke-width="0.6"/>
<line x1="415.5" y1="153.0" x2="350.3" y2="660.3" stroke="#30363d" stroke-opacity="0.4" stroke-width="0.6"/>
<line x1="415.5" y1="153.0" x2="318.1" y2="652.0" stroke="#30363d" stroke-opacity="0.4" stroke-width="0.6"/>
<line x1="415.5" y1="153.0" x2="513.9" y2="642.0" stroke="#30363d" stroke-opacity="0.4" stroke-width="0.6"/>
<line x1="415.5" y1="153.0" x2="482.7" y2="654.4" stroke="#30363d" stroke-opacity="0.4" stroke-width="0.6"/>
<line x1="415.5" y1="153.0" x2="174.4" y2="524.1" stroke="#30363d" stroke-opacity="0.4" stroke-width="0.6"/>
<line x1="288.2" y1="637.5" x2="195.7" y2="251.6" stroke="#30363d" stroke-opacity="0.4" stroke-width="0.6"/>
<line x1="546.0" y1="630.1" x2="350.3" y2="660.3" stroke="#30363d" stroke-opacity="0.4" stroke-width="0.6"/>
<line x1="546.0" y1="630.1" x2="318.1" y2="652.0" stroke="#30363d" stroke-opacity="0.4" stroke-width="0.6"/>
<line x1="647.6" y1="536.1" x2="546.0" y2="630.1" stroke="#30363d" stroke-opacity="0.4" stroke-width="0.6"/>
<line x1="288.2" y1="637.5" x2="546.0" y2="630.1" stroke="#30363d" stroke-opacity="0.4" stroke-width="0.6"/>
<line x1="145.0" y1="400.0" x2="546.0" y2="630.1" stroke="#30363d" stroke-opacity="0.4" stroke-width="0.6"/>
<line x1="318.1" y1="652.0" x2="350.3" y2="660.3" stroke="#30363d" stroke-opacity="0.4" stroke-width="0.6"/>
<line x1="288.2" y1="637.5" x2="350.3" y2="660.3" stroke="#30363d" stroke-opacity="0.4" stroke-width="0.6"/>
<line x1="145.0" y1="400.0" x2="350.3" y2="660.3" stroke="#30363d" stroke-opacity="0.4" stroke-width="0.6"/>
<line x1="647.6" y1="536.1" x2="318.1" y2="652.0" stroke="#30363d" stroke-opacity="0.4" stroke-width="0.6"/>
<line x1="288.2" y1="637.5" x2="318.1" y2="652.0" stroke="#30363d" stroke-opacity="0.4" stroke-width="0.6"/>
<line x1="145.0" y1="400.0" x2="318.1" y2="652.0" stroke="#30363d" stroke-opacity="0.4" stroke-width="0.6"/>
<line x1="513.9" y1="642.0" x2="174.4" y2="524.1" stroke="#30363d" stroke-opacity="0.4" stroke-width="0.6"/>
<line x1="513.9" y1="642.0" x2="482.7" y2="654.4" stroke="#30363d" stroke-opacity="0.4" stroke-width="0.6"/>
<line x1="640.6" y1="369.6" x2="513.9" y2="642.0" stroke="#30363d" stroke-opacity="0.4" stroke-width="0.6"/>
<line x1="647.6" y1="536.1" x2="513.9" y2="642.0" stroke="#30363d" stroke-opacity="0.4" stroke-width="0.6"/>
<line x1="288.2" y1="637.5" x2="513.9" y2="642.0" stroke="#30363d" stroke-opacity="0.4" stroke-width="0.6"/>
<line x1="145.0" y1="400.0" x2="513.9" y2="642.0" stroke="#30363d" stroke-opacity="0.4" stroke-width="0.6"/>
<line x1="288.2" y1="637.5" x2="174.4" y2="524.1" stroke="#30363d" stroke-opacity="0.4" stroke-width="0.6"/>
<line x1="145.0" y1="400.0" x2="174.4" y2="524.1" stroke="#30363d" stroke-opacity="0.4" stroke-width="0.6"/>
<line x1="640.6" y1="369.6" x2="482.7" y2="654.4" stroke="#30363d" stroke-opacity="0.4" stroke-width="0.6"/>
<line x1="647.6" y1="536.1" x2="482.7" y2="654.4" stroke="#30363d" stroke-opacity="0.4" stroke-width="0.6"/>
<line x1="288.2" y1="637.5" x2="482.7" y2="654.4" stroke="#30363d" stroke-opacity="0.4" stroke-width="0.6"/>
<line x1="145.0" y1="400.0" x2="482.7" y2="654.4" stroke="#30363d" stroke-opacity="0.4" stroke-width="0.6"/>
<line x1="626.5" y1="564.6" x2="147.0" y2="432.0" stroke="#30363d" stroke-opacity="0.4" stroke-width="0.6"/>
<line x1="234.3" y1="600.3" x2="147.0" y2="432.0" stroke="#30363d" stroke-opacity="0.4" stroke-width="0.6"/>
<line x1="234.3" y1="600.3" x2="626.5" y2="564.6" stroke="#30363d" stroke-opacity="0.4" stroke-width="0.6"/>
<line x1="234.3" y1="600.3" x2="210.5" y2="578.0" stroke="#30363d" stroke-opacity="0.4" stroke-width="0.6"/>
<line x1="234.3" y1="600.3" x2="160.6" y2="494.8" stroke="#30363d" stroke-opacity="0.4" stroke-width="0.6"/>
<line x1="626.5" y1="564.6" x2="210.5" y2="578.0" stroke="#30363d" stroke-opacity="0.4" stroke-width="0.6"/>
<line x1="160.6" y1="494.8" x2="626.5" y2="564.6" stroke="#30363d" stroke-opacity="0.4" stroke-width="0.6"/>
<line x1="647.6" y1="536.1" x2="626.5" y2="564.6" stroke="#30363d" stroke-opacity="0.4" stroke-width="0.6"/>
<line x1="680.9" y1="472.1" x2="532.6" y2="191.0" stroke="#30363d" stroke-opacity="0.4" stroke-width="0.6"/>
<line x1="680.9" y1="472.1" x2="669.6" y2="506.8" stroke="#30363d" stroke-opacity="0.4" stroke-width="0.6"/>
<line x1="680.9" y1="472.1" x2="353.2" y2="154.4" stroke="#30363d" stroke-opacity="0.4" stroke-width="0.6"/>
<line x1="680.9" y1="472.1" x2="215.9" y2="227.2" stroke="#30363d" stroke-opacity="0.4" stroke-width="0.6"/>
<line x1="680.9" y1="472.1" x2="147.0" y2="368.0" stroke="#30363d" stroke-opacity="0.4" stroke-width="0.6"/>
<line x1="259.3" y1="621.6" x2="614.7" y2="282.0" stroke="#30363d" stroke-opacity="0.4" stroke-width="0.6"/>
<line x1="259.3" y1="621.6" x2="627.8" y2="309.8" stroke="#30363d" stroke-opacity="0.4" stroke-width="0.6"/>
<line x1="259.3" y1="621.6" x2="602.3" y2="590.0" stroke="#30363d" stroke-opacity="0.4" stroke-width="0.6"/>
<line x1="450.1" y1="662.8" x2="259.3" y2="621.6" stroke="#30363d" stroke-opacity="0.4" stroke-width="0.6"/>
<line x1="532.6" y1="191.0" x2="259.3" y2="621.6" stroke="#30363d" stroke-opacity="0.4" stroke-width="0.6"/>
<line x1="669.6" y1="506.8" x2="259.3" y2="621.6" stroke="#30363d" stroke-opacity="0.4" stroke-width="0.6"/>
<line x1="215.9" y1="227.2" x2="259.3" y2="621.6" stroke="#30363d" stroke-opacity="0.4" stroke-width="0.6"/>
<line x1="450.1" y1="662.8" x2="602.3" y2="590.0" stroke="#30363d" stroke-opacity="0.4" stroke-width="0.6"/>
<line x1="532.6" y1="191.0" x2="602.3" y2="590.0" stroke="#30363d" stroke-opacity="0.4" stroke-width="0.6"/>
<line x1="669.6" y1="506.8" x2="602.3" y2="590.0" stroke="#30363d" stroke-opacity="0.4" stroke-width="0.6"/>
<line x1="215.9" y1="227.2" x2="602.3" y2="590.0" stroke="#30363d" stroke-opacity="0.4" stroke-width="0.6"/>
<line x1="450.1" y1="662.8" x2="614.7" y2="282.0" stroke="#30363d" stroke-opacity="0.4" stroke-width="0.6"/>
<line x1="450.1" y1="662.8" x2="627.8" y2="309.8" stroke="#30363d" stroke-opacity="0.4" stroke-width="0.6"/>
<line x1="450.1" y1="662.8" x2="322.7" y2="162.2" stroke="#30363d" stroke-opacity="0.4" stroke-width="0.6"/>
<line x1="450.1" y1="662.8" x2="476.5" y2="164.6" stroke="#30363d" stroke-opacity="0.4" stroke-width="0.6"/>
<line x1="353.2" y1="154.4" x2="450.1" y2="662.8" stroke="#30363d" stroke-opacity="0.4" stroke-width="0.6"/>
<line x1="669.6" y1="506.8" x2="450.1" y2="662.8" stroke="#30363d" stroke-opacity="0.4" stroke-width="0.6"/>
<line x1="353.2" y1="154.4" x2="476.5" y2="164.6" stroke="#30363d" stroke-opacity="0.4" stroke-width="0.6"/>
<line x1="669.6" y1="506.8" x2="476.5" y2="164.6" stroke="#30363d" stroke-opacity="0.4" stroke-width="0.6"/>
<line x1="322.7" y1="162.2" x2="614.7" y2="282.0" stroke="#30363d" stroke-opacity="0.4" stroke-width="0.6"/>
<line x1="322.7" y1="162.2" x2="627.8" y2="309.8" stroke="#30363d" stroke-opacity="0.4" stroke-width="0.6"/>
<line x1="353.2" y1="154.4" x2="322.7" y2="162.2" stroke="#30363d" stroke-opacity="0.4" stroke-width="0.6"/>
<line x1="598.2" y1="256.0" x2="614.7" y2="282.0" stroke="#30363d" stroke-opacity="0.4" stroke-width="0.6"/>
<line x1="598.2" y1="256.0" x2="627.8" y2="309.8" stroke="#30363d" stroke-opacity="0.4" stroke-width="0.6"/>
<line x1="669.6" y1="506.8" x2="598.2" y2="256.0" stroke="#30363d" stroke-opacity="0.4" stroke-width="0.6"/>
<line x1="215.9" y1="227.2" x2="598.2" y2="256.0" stroke="#30363d" stroke-opacity="0.4" stroke-width="0.6"/>
<line x1="614.7" y1="282.0" x2="627.8" y2="309.8" stroke="#30363d" stroke-opacity="0.4" stroke-width="0.6"/>
<line x1="532.6" y1="191.0" x2="614.7" y2="282.0" stroke="#30363d" stroke-opacity="0.4" stroke-width="0.6"/>
<line x1="532.6" y1="191.0" x2="627.8" y2="309.8" stroke="#30363d" stroke-opacity="0.4" stroke-width="0.6"/>
<circle cx="717.5" cy="400.0" r="10.0" fill="#4ECDC4" opacity="0.8" filter="url(#glow)"/>
<text x="717.5" y="417.0" text-anchor="middle" fill="#8b949e" font-size="6" font-family="monospace">index.ts</text>
<circle cx="702.6" cy="438.2" r="10.0" fill="#4ECDC4" opacity="0.8" filter="url(#glow)"/>
<text x="702.6" y="455.2" text-anchor="middle" fill="#8b949e" font-size="6" font-family="monospace">index.ts</text>
<circle cx="680.9" cy="472.1" r="10.0" fill="#96CEB4" opacity="0.8" filter="url(#glow)"/>
<text x="680.9" y="489.1" text-anchor="middle" fill="#8b949e" font-size="6" font-family="monospace">App.jsx</text>
<circle cx="669.6" cy="506.8" r="10.0" fill="#FFEAA7" opacity="0.8" filter="url(#glow)"/>
<text x="669.6" y="523.8" text-anchor="middle" fill="#8b949e" font-size="6" font-family="monospace">Billing.jsx</text>
<circle cx="647.6" cy="536.1" r="9.8" fill="#555" opacity="0.8" filter="url(#glow)"/>
<text x="647.6" y="552.8" text-anchor="middle" fill="#8b949e" font-size="6" font-family="monospace">index.ts</text>
<circle cx="626.5" cy="564.6" r="9.5" fill="#45B7D1" opacity="0.8" filter="url(#glow)"/>
<text x="626.5" y="581.1" text-anchor="middle" fill="#8b949e" font-size="6" font-family="monospace">digitalocean-api.ts</text>
<circle cx="602.3" cy="590.0" r="9.2" fill="#FF6B6B" opacity="0.8" filter="url(#glow)"/>
<text x="602.3" y="606.2" text-anchor="middle" fill="#8b949e" font-size="6" font-family="monospace">useAuth()</text>
<circle cx="575.3" cy="611.9" r="9.0" fill="#555" opacity="0.8" filter="url(#glow)"/>
<text x="575.3" y="627.9" text-anchor="middle" fill="#8b949e" font-size="6" font-family="monospace">index.ts</text>
<circle cx="546.0" cy="630.1" r="8.8" fill="#555" opacity="0.8" filter="url(#glow)"/>
<text x="546.0" y="645.8" text-anchor="middle" fill="#8b949e" font-size="6" font-family="monospace">cors.ts</text>
<circle cx="513.9" cy="642.0" r="8.2" fill="#555" opacity="0.8" filter="url(#glow)"/>
<text x="513.9" y="657.3" text-anchor="middle" fill="#8b949e" font-size="6" font-family="monospace">supabase.ts</text>
<circle cx="482.7" cy="654.4" r="8.2" fill="#555" opacity="0.8" filter="url(#glow)"/>
<text x="482.7" y="669.7" text-anchor="middle" fill="#8b949e" font-size="6" font-family="monospace">createAdminClient()</text>
<circle cx="450.1" cy="662.8" r="8.2" fill="#FF6B6B" opacity="0.8" filter="url(#glow)"/>
<text x="450.1" y="678.0" text-anchor="middle" fill="#8b949e" font-size="6" font-family="monospace">DashboardContext.jsx</text>
<circle cx="416.6" cy="664.5" r="8.0" fill="#555" opacity="0.8" filter="url(#glow)"/>
<text x="416.6" y="679.5" text-anchor="middle" fill="#8b949e" font-size="6" font-family="monospace">index.ts</text>
<circle cx="383.4" cy="664.5" r="8.0" fill="#F7DC6F" opacity="0.8" filter="url(#glow)"/>
<text x="383.4" y="679.5" text-anchor="middle" fill="#8b949e" font-size="6" font-family="monospace">index.ts</text>
<circle cx="350.3" cy="660.3" r="8.0" fill="#555" opacity="0.8" filter="url(#glow)"/>
<text x="350.3" y="675.3" text-anchor="middle" fill="#8b949e" font-size="6" font-family="monospace">getCorsHeaders()</text>
<circle cx="318.1" cy="652.0" r="8.0" fill="#555" opacity="0.8" filter="url(#glow)"/>
<text x="318.1" y="667.0" text-anchor="middle" fill="#8b949e" font-size="6" font-family="monospace">jsonResponse()</text>
<circle cx="288.2" cy="637.5" r="7.8" fill="#F7DC6F" opacity="0.8" filter="url(#glow)"/>
<text x="288.2" y="652.3" text-anchor="middle" fill="#8b949e" font-size="6" font-family="monospace">index.ts</text>
<circle cx="259.3" cy="621.6" r="7.8" fill="#FF6B6B" opacity="0.8" filter="url(#glow)"/>
<text x="259.3" y="636.4" text-anchor="middle" fill="#8b949e" font-size="6" font-family="monospace">AuthContext.jsx</text>
<circle cx="234.3" cy="600.3" r="7.5" fill="#45B7D1" opacity="0.8" filter="url(#glow)"/>
<text x="234.3" y="614.8" text-anchor="middle" fill="#8b949e" font-size="6" font-family="monospace">digitalocean-api.test.</text>
<circle cx="210.5" cy="578.0" r="7.5" fill="#45B7D1" opacity="0.8" filter="url(#glow)"/>
<text x="210.5" y="592.5" text-anchor="middle" fill="#8b949e" font-size="6" font-family="monospace">digitalocean-k8s.ts</text>
<circle cx="191.7" cy="551.4" r="7.2" fill="#555" opacity="0.8" filter="url(#glow)"/>
<text x="191.7" y="565.6" text-anchor="middle" fill="#8b949e" font-size="6" font-family="monospace">index.ts</text>
<circle cx="174.4" cy="524.1" r="7.2" fill="#555" opacity="0.8" filter="url(#glow)"/>
<text x="174.4" y="538.3" text-anchor="middle" fill="#8b949e" font-size="6" font-family="monospace">createUserClient()</text>
<circle cx="160.6" cy="494.8" r="7.2" fill="#45B7D1" opacity="0.8" filter="url(#glow)"/>
<text x="160.6" y="509.0" text-anchor="middle" fill="#8b949e" font-size="6" font-family="monospace">digitalocean-db.ts</text>
<circle cx="153.0" cy="463.4" r="7.0" fill="#4ECDC4" opacity="0.8" filter="url(#glow)"/>
<text x="153.0" y="477.4" text-anchor="middle" fill="#8b949e" font-size="6" font-family="monospace">security.ts</text>
<circle cx="147.0" cy="432.0" r="7.0" fill="#45B7D1" opacity="0.8" filter="url(#glow)"/>
<text x="147.0" y="446.0" text-anchor="middle" fill="#8b949e" font-size="6" font-family="monospace">digitalocean-droplet.t</text>
<circle cx="145.0" cy="400.0" r="7.0" fill="#555" opacity="0.8" filter="url(#glow)"/>
<text x="145.0" y="414.0" text-anchor="middle" fill="#8b949e" font-size="6" font-family="monospace">index.ts</text>
<circle cx="147.0" cy="368.0" r="7.0" fill="#98D8C8" opacity="0.8" filter="url(#glow)"/>
<text x="147.0" y="382.0" text-anchor="middle" fill="#8b949e" font-size="6" font-family="monospace">Home.jsx</text>
<circle cx="153.0" cy="336.6" r="7.0" fill="#555" opacity="0.8" filter="url(#glow)"/>
<text x="153.0" y="350.6" text-anchor="middle" fill="#8b949e" font-size="6" font-family="monospace">DigitalOcean Real Rese</text>
<circle cx="165.2" cy="307.0" r="6.8" fill="#FFEAA7" opacity="0.8" filter="url(#glow)"/>
<text x="165.2" y="320.8" text-anchor="middle" fill="#8b949e" font-size="6" font-family="monospace">catalog.js</text>
<circle cx="178.7" cy="278.4" r="6.8" fill="#555" opacity="0.8" filter="url(#glow)"/>
<text x="178.7" y="292.1" text-anchor="middle" fill="#8b949e" font-size="6" font-family="monospace">index.ts</text>
<circle cx="195.7" cy="251.6" r="6.8" fill="#F7DC6F" opacity="0.8" filter="url(#glow)"/>
<text x="195.7" y="265.3" text-anchor="middle" fill="#8b949e" font-size="6" font-family="monospace">reseller-security.ts</text>
<circle cx="215.9" cy="227.2" r="6.8" fill="#FFEAA7" opacity="0.8" filter="url(#glow)"/>
<text x="215.9" y="240.9" text-anchor="middle" fill="#8b949e" font-size="6" font-family="monospace">Settings.jsx</text>
<circle cx="240.6" cy="207.4" r="6.5" fill="#FFEAA7" opacity="0.8" filter="url(#glow)"/>
<text x="240.6" y="220.9" text-anchor="middle" fill="#8b949e" font-size="6" font-family="monospace">customer.js</text>
<circle cx="266.0" cy="188.9" r="6.5" fill="#555" opacity="0.8" filter="url(#glow)"/>
<text x="266.0" y="202.4" text-anchor="middle" fill="#8b949e" font-size="6" font-family="monospace">index.ts</text>
<circle cx="293.6" cy="173.8" r="6.5" fill="#555" opacity="0.8" filter="url(#glow)"/>
<text x="293.6" y="187.3" text-anchor="middle" fill="#8b949e" font-size="6" font-family="monospace">digitalocean.ts</text>
<circle cx="322.7" cy="162.2" r="6.5" fill="#FF6B6B" opacity="0.8" filter="url(#glow)"/>
<text x="322.7" y="175.7" text-anchor="middle" fill="#8b949e" font-size="6" font-family="monospace">resellerApi.js</text>
<circle cx="353.2" cy="154.4" r="6.5" fill="#FF6B6B" opacity="0.8" filter="url(#glow)"/>
<text x="353.2" y="167.9" text-anchor="middle" fill="#8b949e" font-size="6" font-family="monospace">NewService.jsx</text>
<circle cx="384.5" cy="153.0" r="6.2" fill="#4ECDC4" opacity="0.8" filter="url(#glow)"/>
<text x="384.5" y="166.2" text-anchor="middle" fill="#8b949e" font-size="6" font-family="monospace">index.ts</text>
<circle cx="415.5" cy="153.0" r="6.2" fill="#555" opacity="0.8" filter="url(#glow)"/>
<text x="415.5" y="166.2" text-anchor="middle" fill="#8b949e" font-size="6" font-family="monospace">index.ts</text>
<circle cx="446.4" cy="156.9" r="6.2" fill="#555" opacity="0.8" filter="url(#glow)"/>
<text x="446.4" y="170.1" text-anchor="middle" fill="#8b949e" font-size="6" font-family="monospace">digitalocean.ts</text>
<circle cx="476.5" cy="164.6" r="6.2" fill="#FF6B6B" opacity="0.8" filter="url(#glow)"/>
<text x="476.5" y="177.9" text-anchor="middle" fill="#8b949e" font-size="6" font-family="monospace">useDashboard()</text>
<circle cx="505.4" cy="176.1" r="6.2" fill="#96CEB4" opacity="0.8" filter="url(#glow)"/>
<text x="505.4" y="189.3" text-anchor="middle" fill="#8b949e" font-size="6" font-family="monospace">getServicePlans()</text>
<circle cx="532.6" cy="191.0" r="6.2" fill="#FF6B6B" opacity="0.8" filter="url(#glow)"/>
<text x="532.6" y="204.3" text-anchor="middle" fill="#8b949e" font-size="6" font-family="monospace">AdminObservability.jsx</text>
<circle cx="556.2" cy="211.2" r="6.0" fill="#4ECDC4" opacity="0.8" filter="url(#glow)"/>
<text x="556.2" y="224.2" text-anchor="middle" fill="#8b949e" font-size="6" font-family="monospace">safepay-server.js</text>
<circle cx="578.6" cy="232.3" r="6.0" fill="#555" opacity="0.8" filter="url(#glow)"/>
<text x="578.6" y="245.3" text-anchor="middle" fill="#8b949e" font-size="6" font-family="monospace">index.ts</text>
<circle cx="598.2" cy="256.0" r="6.0" fill="#FFEAA7" opacity="0.8" filter="url(#glow)"/>
<text x="598.2" y="269.0" text-anchor="middle" fill="#8b949e" font-size="6" font-family="monospace">profileService.js</text>
<circle cx="614.7" cy="282.0" r="6.0" fill="#FF6B6B" opacity="0.8" filter="url(#glow)"/>
<text x="614.7" y="295.0" text-anchor="middle" fill="#8b949e" font-size="6" font-family="monospace">supabaseClient.js</text>
<circle cx="627.8" cy="309.8" r="6.0" fill="#FF6B6B" opacity="0.8" filter="url(#glow)"/>
<text x="627.8" y="322.8" text-anchor="middle" fill="#8b949e" font-size="6" font-family="monospace">supabase</text>
<circle cx="634.9" cy="339.7" r="5.8" fill="#FFEAA7" opacity="0.8" filter="url(#glow)"/>
<text x="634.9" y="352.4" text-anchor="middle" fill="#8b949e" font-size="6" font-family="monospace">normalizeCustomerProfi</text>
<circle cx="640.6" cy="369.6" r="5.8" fill="#555" opacity="0.8" filter="url(#glow)"/>
<text x="640.6" y="382.4" text-anchor="middle" fill="#8b949e" font-size="6" font-family="monospace">provider-guard.ts</text>
<text x="400" y="28" text-anchor="middle" fill="#e6edf3" font-size="13" font-family="sans-serif" font-weight="bold">cloudbase</text>
<text x="400" y="46" text-anchor="middle" fill="#484f58" font-size="9" font-family="monospace">664 nodes · 1,024 links · 50 communities</text>
<rect x="15" y="697" width="8" height="8" fill="#FF6B6B" rx="1.5" alpha="0.8"/>
<text x="28" y="704" fill="#6e7681" font-size="7" font-family="monospace">C0: OAuthButton() (64)</text>
<rect x="15" y="709" width="8" height="8" fill="#4ECDC4" rx="1.5" alpha="0.8"/>
<text x="28" y="716" fill="#6e7681" font-size="7" font-family="monospace">C1: index.ts (60)</text>
<rect x="15" y="721" width="8" height="8" fill="#45B7D1" rx="1.5" alpha="0.8"/>
<text x="28" y="728" fill="#6e7681" font-size="7" font-family="monospace">C2: getToken() (50)</text>
<rect x="15" y="733" width="8" height="8" fill="#96CEB4" rx="1.5" alpha="0.8"/>
<text x="28" y="740" fill="#6e7681" font-size="7" font-family="monospace">C3: fadeInUp (46)</text>
<rect x="15" y="745" width="8" height="8" fill="#FFEAA7" rx="1.5" alpha="0.8"/>
<text x="28" y="752" fill="#6e7681" font-size="7" font-family="monospace">C4: formatMissingField (45)</text>
<rect x="15" y="757" width="8" height="8" fill="#DDA0DD" rx="1.5" alpha="0.8"/>
<text x="28" y="764" fill="#6e7681" font-size="7" font-family="monospace">C5: code:json ({) (29)</text>
<rect x="15" y="769" width="8" height="8" fill="#98D8C8" rx="1.5" alpha="0.8"/>
<text x="28" y="776" fill="#6e7681" font-size="7" font-family="monospace">C6: TiltCard.jsx (23)</text>
<rect x="15" y="781" width="8" height="8" fill="#F7DC6F" rx="1.5" alpha="0.8"/>
<text x="28" y="788" fill="#6e7681" font-size="7" font-family="monospace">C7: index.ts (22)</text>
</svg>