<?xml version="1.0" encoding="UTF-8"?>
<svg xmlns="http://www.w3.org/2000/svg" viewBox="0 0 800 800" width="800" height="800">
<defs><filter id="glow"><feGaussianBlur stdDeviation="1.5" result="coloredBlur"/><feMerge><feMergeNode in="coloredBlur"/><feMergeNode in="SourceGraphic"/></feMerge></filter></defs>
<rect width="800" height="800" fill="#0d1117"/>
<line x1="523.2" y1="594.2" x2="256.6" y2="573.4" stroke="#30363d" stroke-opacity="0.4" stroke-width="0.6"/>
<line x1="523.2" y1="594.2" x2="236.0" y2="554.0" stroke="#30363d" stroke-opacity="0.4" stroke-width="0.6"/>
<line x1="523.2" y1="594.2" x2="184.5" y2="344.7" stroke="#30363d" stroke-opacity="0.4" stroke-width="0.6"/>
<line x1="523.2" y1="594.2" x2="193.1" y2="318.1" stroke="#30363d" stroke-opacity="0.4" stroke-width="0.6"/>
<line x1="236.0" y1="554.0" x2="256.6" y2="573.4" stroke="#30363d" stroke-opacity="0.4" stroke-width="0.6"/>
<line x1="635.6" y1="429.8" x2="205.0" y2="292.8" stroke="#30363d" stroke-opacity="0.4" stroke-width="0.6"/>
<line x1="635.6" y1="429.8" x2="278.1" y2="592.1" stroke="#30363d" stroke-opacity="0.4" stroke-width="0.6"/>
<line x1="635.6" y1="429.8" x2="329.7" y2="616.4" stroke="#30363d" stroke-opacity="0.4" stroke-width="0.6"/>
<line x1="635.6" y1="429.8" x2="303.1" y2="605.8" stroke="#30363d" stroke-opacity="0.4" stroke-width="0.6"/>
<line x1="635.6" y1="429.8" x2="220.0" y2="269.2" stroke="#30363d" stroke-opacity="0.4" stroke-width="0.6"/>
<line x1="635.6" y1="429.8" x2="237.8" y2="247.7" stroke="#30363d" stroke-opacity="0.4" stroke-width="0.6"/>
<line x1="635.6" y1="429.8" x2="258.2" y2="228.6" stroke="#30363d" stroke-opacity="0.4" stroke-width="0.6"/>
<line x1="280.8" y1="212.1" x2="218.0" y2="532.3" stroke="#30363d" stroke-opacity="0.4" stroke-width="0.6"/>
<line x1="218.0" y1="532.3" x2="303.1" y2="605.8" stroke="#30363d" stroke-opacity="0.4" stroke-width="0.6"/>
<line x1="202.8" y1="508.4" x2="305.3" y2="198.7" stroke="#30363d" stroke-opacity="0.4" stroke-width="0.6"/>
<line x1="202.8" y1="508.4" x2="331.2" y2="188.4" stroke="#30363d" stroke-opacity="0.4" stroke-width="0.6"/>
<line x1="329.7" y1="616.4" x2="303.1" y2="605.8" stroke="#30363d" stroke-opacity="0.4" stroke-width="0.6"/>
<line x1="329.7" y1="616.4" x2="358.3" y2="181.4" stroke="#30363d" stroke-opacity="0.4" stroke-width="0.6"/>
<line x1="386.0" y1="177.9" x2="414.0" y2="177.9" stroke="#30363d" stroke-opacity="0.4" stroke-width="0.6"/>
<line x1="497.9" y1="608.1" x2="471.1" y2="618.7" stroke="#30363d" stroke-opacity="0.4" stroke-width="0.6"/>
<line x1="497.9" y1="608.1" x2="190.8" y2="482.8" stroke="#30363d" stroke-opacity="0.4" stroke-width="0.6"/>
<line x1="497.9" y1="608.1" x2="182.1" y2="456.0" stroke="#30363d" stroke-opacity="0.4" stroke-width="0.6"/>
<line x1="497.9" y1="608.1" x2="176.8" y2="428.2" stroke="#30363d" stroke-opacity="0.4" stroke-width="0.6"/>
<line x1="190.8" y1="482.8" x2="471.1" y2="618.7" stroke="#30363d" stroke-opacity="0.4" stroke-width="0.6"/>
<line x1="182.1" y1="456.0" x2="471.1" y2="618.7" stroke="#30363d" stroke-opacity="0.4" stroke-width="0.6"/>
<line x1="176.8" y1="428.2" x2="471.1" y2="618.7" stroke="#30363d" stroke-opacity="0.4" stroke-width="0.6"/>
<line x1="443.1" y1="625.9" x2="441.7" y2="181.4" stroke="#30363d" stroke-opacity="0.4" stroke-width="0.6"/>
<line x1="443.1" y1="625.9" x2="468.8" y2="188.4" stroke="#30363d" stroke-opacity="0.4" stroke-width="0.6"/>
<line x1="443.1" y1="625.9" x2="494.7" y2="198.7" stroke="#30363d" stroke-opacity="0.4" stroke-width="0.6"/>
<line x1="443.1" y1="625.9" x2="519.2" y2="212.1" stroke="#30363d" stroke-opacity="0.4" stroke-width="0.6"/>
<line x1="414.4" y1="629.5" x2="541.8" y2="228.6" stroke="#30363d" stroke-opacity="0.4" stroke-width="0.6"/>
<line x1="414.4" y1="629.5" x2="562.2" y2="247.7" stroke="#30363d" stroke-opacity="0.4" stroke-width="0.6"/>
<line x1="414.4" y1="629.5" x2="580.0" y2="269.2" stroke="#30363d" stroke-opacity="0.4" stroke-width="0.6"/>
<line x1="414.4" y1="629.5" x2="595.0" y2="292.8" stroke="#30363d" stroke-opacity="0.4" stroke-width="0.6"/>
<line x1="175.0" y1="400.0" x2="606.9" y2="318.1" stroke="#30363d" stroke-opacity="0.4" stroke-width="0.6"/>
<line x1="175.0" y1="400.0" x2="615.5" y2="344.7" stroke="#30363d" stroke-opacity="0.4" stroke-width="0.6"/>
<line x1="176.8" y1="371.8" x2="620.7" y2="372.1" stroke="#30363d" stroke-opacity="0.4" stroke-width="0.6"/>
<line x1="620.8" y1="487.4" x2="608.1" y2="514.4" stroke="#30363d" stroke-opacity="0.4" stroke-width="0.6"/>
<circle cx="640.0" cy="400.0" r="5.5" fill="#45B7D1" opacity="0.8" filter="url(#glow)"/>
<circle cx="635.6" cy="429.8" r="5.2" fill="#4ECDC4" opacity="0.8" filter="url(#glow)"/>
<circle cx="630.0" cy="459.1" r="5.2" fill="#96CEB4" opacity="0.8" filter="url(#glow)"/>
<circle cx="620.8" cy="487.4" r="5.2" fill="#FF6B6B" opacity="0.8" filter="url(#glow)"/>
<circle cx="608.1" cy="514.4" r="5.2" fill="#FF6B6B" opacity="0.8" filter="url(#glow)"/>
<circle cx="590.1" cy="538.1" r="5.0" fill="#FFEAA7" opacity="0.8" filter="url(#glow)"/>
<circle cx="569.5" cy="559.2" r="4.8" fill="#DDA0DD" opacity="0.8" filter="url(#glow)"/>
<circle cx="548.2" cy="579.1" r="4.8" fill="#98D8C8" opacity="0.8" filter="url(#glow)"/>
<circle cx="523.2" cy="594.2" r="4.5" fill="#F7DC6F" opacity="0.8" filter="url(#glow)"/>
<circle cx="497.9" cy="608.1" r="4.5" fill="#555" opacity="0.8" filter="url(#glow)"/>
<circle cx="471.1" cy="618.7" r="4.5" fill="#555" opacity="0.8" filter="url(#glow)"/>
<circle cx="443.1" cy="625.9" r="4.5" fill="#555" opacity="0.8" filter="url(#glow)"/>
<circle cx="414.4" cy="629.5" r="4.5" fill="#555" opacity="0.8" filter="url(#glow)"/>
<circle cx="385.6" cy="629.5" r="4.5" fill="#555" opacity="0.8" filter="url(#glow)"/>
<circle cx="356.9" cy="625.9" r="4.5" fill="#555" opacity="0.8" filter="url(#glow)"/>
<circle cx="329.7" cy="616.4" r="4.2" fill="#4ECDC4" opacity="0.8" filter="url(#glow)"/>
<circle cx="303.1" cy="605.8" r="4.2" fill="#4ECDC4" opacity="0.8" filter="url(#glow)"/>
<circle cx="278.1" cy="592.1" r="4.2" fill="#4ECDC4" opacity="0.8" filter="url(#glow)"/>
<circle cx="256.6" cy="573.4" r="4.0" fill="#F7DC6F" opacity="0.8" filter="url(#glow)"/>
<circle cx="236.0" cy="554.0" r="4.0" fill="#F7DC6F" opacity="0.8" filter="url(#glow)"/>
<circle cx="218.0" cy="532.3" r="4.0" fill="#4ECDC4" opacity="0.8" filter="url(#glow)"/>
<circle cx="202.8" cy="508.4" r="4.0" fill="#555" opacity="0.8" filter="url(#glow)"/>
<circle cx="190.8" cy="482.8" r="4.0" fill="#555" opacity="0.8" filter="url(#glow)"/>
<circle cx="182.1" cy="456.0" r="4.0" fill="#555" opacity="0.8" filter="url(#glow)"/>
<circle cx="176.8" cy="428.2" r="4.0" fill="#555" opacity="0.8" filter="url(#glow)"/>
<circle cx="175.0" cy="400.0" r="4.0" fill="#555" opacity="0.8" filter="url(#glow)"/>
<circle cx="176.8" cy="371.8" r="4.0" fill="#555" opacity="0.8" filter="url(#glow)"/>
<circle cx="184.5" cy="344.7" r="3.8" fill="#F7DC6F" opacity="0.8" filter="url(#glow)"/>
<circle cx="193.1" cy="318.1" r="3.8" fill="#F7DC6F" opacity="0.8" filter="url(#glow)"/>
<circle cx="205.0" cy="292.8" r="3.8" fill="#4ECDC4" opacity="0.8" filter="url(#glow)"/>
<circle cx="220.0" cy="269.2" r="3.8" fill="#4ECDC4" opacity="0.8" filter="url(#glow)"/>
<circle cx="237.8" cy="247.7" r="3.8" fill="#4ECDC4" opacity="0.8" filter="url(#glow)"/>
<circle cx="258.2" cy="228.6" r="3.8" fill="#4ECDC4" opacity="0.8" filter="url(#glow)"/>
<circle cx="280.8" cy="212.1" r="3.8" fill="#4ECDC4" opacity="0.8" filter="url(#glow)"/>
<circle cx="305.3" cy="198.7" r="3.8" fill="#555" opacity="0.8" filter="url(#glow)"/>
<circle cx="331.2" cy="188.4" r="3.8" fill="#555" opacity="0.8" filter="url(#glow)"/>
<circle cx="358.3" cy="181.4" r="3.8" fill="#4ECDC4" opacity="0.8" filter="url(#glow)"/>
<circle cx="386.0" cy="177.9" r="3.8" fill="#555" opacity="0.8" filter="url(#glow)"/>
<circle cx="414.0" cy="177.9" r="3.8" fill="#555" opacity="0.8" filter="url(#glow)"/>
<circle cx="441.7" cy="181.4" r="3.8" fill="#555" opacity="0.8" filter="url(#glow)"/>
<circle cx="468.8" cy="188.4" r="3.8" fill="#555" opacity="0.8" filter="url(#glow)"/>
<circle cx="494.7" cy="198.7" r="3.8" fill="#555" opacity="0.8" filter="url(#glow)"/>
<circle cx="519.2" cy="212.1" r="3.8" fill="#555" opacity="0.8" filter="url(#glow)"/>
<circle cx="541.8" cy="228.6" r="3.8" fill="#555" opacity="0.8" filter="url(#glow)"/>
<circle cx="562.2" cy="247.7" r="3.8" fill="#555" opacity="0.8" filter="url(#glow)"/>
<circle cx="580.0" cy="269.2" r="3.8" fill="#555" opacity="0.8" filter="url(#glow)"/>
<circle cx="595.0" cy="292.8" r="3.8" fill="#555" opacity="0.8" filter="url(#glow)"/>
<circle cx="606.9" cy="318.1" r="3.8" fill="#555" opacity="0.8" filter="url(#glow)"/>
<circle cx="615.5" cy="344.7" r="3.8" fill="#555" opacity="0.8" filter="url(#glow)"/>
<circle cx="620.7" cy="372.1" r="3.8" fill="#555" opacity="0.8" filter="url(#glow)"/>
<text x="400" y="28" text-anchor="middle" fill="#e6edf3" font-size="13" font-family="sans-serif" font-weight="bold">hostevra.com</text>
<text x="400" y="46" text-anchor="middle" fill="#484f58" font-size="9" font-family="monospace">132 nodes · 93 links · 44 communities</text>
<rect x="15" y="697" width="8" height="8" fill="#FF6B6B" rx="1.5" alpha="0.8"/>
<text x="28" y="704" fill="#6e7681" font-size="7" font-family="monospace">C0: DESIGN.md (14)</text>
<rect x="15" y="709" width="8" height="8" fill="#4ECDC4" rx="1.5" alpha="0.8"/>
<text x="28" y="716" fill="#6e7681" font-size="7" font-family="monospace">C1: App.vue (13)</text>
<rect x="15" y="721" width="8" height="8" fill="#45B7D1" rx="1.5" alpha="0.8"/>
<text x="28" y="728" fill="#6e7681" font-size="7" font-family="monospace">C2: AdminDashboard.vue (9)</text>
<rect x="15" y="733" width="8" height="8" fill="#96CEB4" rx="1.5" alpha="0.8"/>
<text x="28" y="740" fill="#6e7681" font-size="7" font-family="monospace">C3: LandingView.vue (8)</text>
<rect x="15" y="745" width="8" height="8" fill="#FFEAA7" rx="1.5" alpha="0.8"/>
<text x="28" y="752" fill="#6e7681" font-size="7" font-family="monospace">C4: AdminUsers.vue (7)</text>
<rect x="15" y="757" width="8" height="8" fill="#DDA0DD" rx="1.5" alpha="0.8"/>
<text x="28" y="764" fill="#6e7681" font-size="7" font-family="monospace">C5: AccountDashboard.v (6)</text>
<rect x="15" y="769" width="8" height="8" fill="#98D8C8" rx="1.5" alpha="0.8"/>
<text x="28" y="776" fill="#6e7681" font-size="7" font-family="monospace">C6: AccountBilling.vue (6)</text>
<rect x="15" y="781" width="8" height="8" fill="#F7DC6F" rx="1.5" alpha="0.8"/>
<text x="28" y="788" fill="#6e7681" font-size="7" font-family="monospace">C7: send-email.php (5)</text>
</svg>