<?xml version="1.0" encoding="UTF-8"?>
<svg xmlns="http://www.w3.org/2000/svg" viewBox="0 0 800 800" width="800" height="800">
<defs><filter id="glow"><feGaussianBlur stdDeviation="1.5" result="coloredBlur"/><feMerge><feMergeNode in="coloredBlur"/><feMergeNode in="SourceGraphic"/></feMerge></filter></defs>
<rect width="800" height="800" fill="#0d1117"/>
<line x1="182.4" y1="446.3" x2="178.0" y2="415.5" stroke="#30363d" stroke-opacity="0.4" stroke-width="0.6"/>
<line x1="660.0" y1="400.0" x2="555.6" y2="572.8" stroke="#30363d" stroke-opacity="0.4" stroke-width="0.6"/>
<line x1="660.0" y1="400.0" x2="238.1" y2="556.3" stroke="#30363d" stroke-opacity="0.4" stroke-width="0.6"/>
<line x1="660.0" y1="400.0" x2="578.1" y2="549.4" stroke="#30363d" stroke-opacity="0.4" stroke-width="0.6"/>
<line x1="660.0" y1="400.0" x2="345.0" y2="620.7" stroke="#30363d" stroke-opacity="0.4" stroke-width="0.6"/>
<line x1="660.0" y1="400.0" x2="530.0" y2="592.8" stroke="#30363d" stroke-opacity="0.4" stroke-width="0.6"/>
<line x1="660.0" y1="400.0" x2="314.8" y2="610.9" stroke="#30363d" stroke-opacity="0.4" stroke-width="0.6"/>
<line x1="660.0" y1="400.0" x2="614.7" y2="495.6" stroke="#30363d" stroke-opacity="0.4" stroke-width="0.6"/>
<line x1="660.0" y1="400.0" x2="218.0" y2="532.3" stroke="#30363d" stroke-opacity="0.4" stroke-width="0.6"/>
<line x1="660.0" y1="400.0" x2="471.8" y2="621.1" stroke="#30363d" stroke-opacity="0.4" stroke-width="0.6"/>
<line x1="660.0" y1="400.0" x2="259.9" y2="579.3" stroke="#30363d" stroke-opacity="0.4" stroke-width="0.6"/>
<line x1="660.0" y1="400.0" x2="599.3" y2="524.5" stroke="#30363d" stroke-opacity="0.4" stroke-width="0.6"/>
<line x1="660.0" y1="400.0" x2="286.3" y2="597.0" stroke="#30363d" stroke-opacity="0.4" stroke-width="0.6"/>
<line x1="660.0" y1="400.0" x2="501.9" y2="609.0" stroke="#30363d" stroke-opacity="0.4" stroke-width="0.6"/>
<line x1="660.0" y1="400.0" x2="201.3" y2="505.6" stroke="#30363d" stroke-opacity="0.4" stroke-width="0.6"/>
<line x1="660.0" y1="400.0" x2="178.0" y2="384.5" stroke="#30363d" stroke-opacity="0.4" stroke-width="0.6"/>
<line x1="182.4" y1="353.7" x2="660.0" y2="400.0" stroke="#30363d" stroke-opacity="0.4" stroke-width="0.6"/>
<line x1="578.1" y1="549.4" x2="440.4" y2="629.0" stroke="#30363d" stroke-opacity="0.4" stroke-width="0.6"/>
<line x1="578.1" y1="549.4" x2="640.1" y2="433.7" stroke="#30363d" stroke-opacity="0.4" stroke-width="0.6"/>
<line x1="578.1" y1="549.4" x2="190.9" y2="323.9" stroke="#30363d" stroke-opacity="0.4" stroke-width="0.6"/>
<line x1="578.1" y1="549.4" x2="345.0" y2="620.7" stroke="#30363d" stroke-opacity="0.4" stroke-width="0.6"/>
<line x1="345.0" y1="620.7" x2="640.1" y2="433.7" stroke="#30363d" stroke-opacity="0.4" stroke-width="0.6"/>
<line x1="555.6" y1="572.8" x2="408.0" y2="629.9" stroke="#30363d" stroke-opacity="0.4" stroke-width="0.6"/>
<line x1="555.6" y1="572.8" x2="376.0" y2="628.7" stroke="#30363d" stroke-opacity="0.4" stroke-width="0.6"/>
<line x1="555.6" y1="572.8" x2="203.5" y2="295.5" stroke="#30363d" stroke-opacity="0.4" stroke-width="0.6"/>
<line x1="555.6" y1="572.8" x2="238.1" y2="556.3" stroke="#30363d" stroke-opacity="0.4" stroke-width="0.6"/>
<line x1="614.7" y1="495.6" x2="220.0" y2="269.2" stroke="#30363d" stroke-opacity="0.4" stroke-width="0.6"/>
<line x1="614.7" y1="495.6" x2="239.9" y2="245.4" stroke="#30363d" stroke-opacity="0.4" stroke-width="0.6"/>
<line x1="614.7" y1="495.6" x2="263.0" y2="224.7" stroke="#30363d" stroke-opacity="0.4" stroke-width="0.6"/>
<line x1="614.7" y1="495.6" x2="288.7" y2="207.3" stroke="#30363d" stroke-opacity="0.4" stroke-width="0.6"/>
<line x1="614.7" y1="495.6" x2="218.0" y2="532.3" stroke="#30363d" stroke-opacity="0.4" stroke-width="0.6"/>
<line x1="530.0" y1="592.8" x2="440.4" y2="629.0" stroke="#30363d" stroke-opacity="0.4" stroke-width="0.6"/>
<line x1="530.0" y1="592.8" x2="640.1" y2="433.7" stroke="#30363d" stroke-opacity="0.4" stroke-width="0.6"/>
<line x1="530.0" y1="592.8" x2="316.7" y2="193.7" stroke="#30363d" stroke-opacity="0.4" stroke-width="0.6"/>
<line x1="530.0" y1="592.8" x2="314.8" y2="610.9" stroke="#30363d" stroke-opacity="0.4" stroke-width="0.6"/>
<line x1="314.8" y1="610.9" x2="640.1" y2="433.7" stroke="#30363d" stroke-opacity="0.4" stroke-width="0.6"/>
<line x1="501.9" y1="609.0" x2="408.0" y2="629.9" stroke="#30363d" stroke-opacity="0.4" stroke-width="0.6"/>
<line x1="501.9" y1="609.0" x2="376.0" y2="628.7" stroke="#30363d" stroke-opacity="0.4" stroke-width="0.6"/>
<line x1="501.9" y1="609.0" x2="346.2" y2="184.1" stroke="#30363d" stroke-opacity="0.4" stroke-width="0.6"/>
<line x1="501.9" y1="609.0" x2="201.3" y2="505.6" stroke="#30363d" stroke-opacity="0.4" stroke-width="0.6"/>
<line x1="599.3" y1="524.5" x2="440.4" y2="629.0" stroke="#30363d" stroke-opacity="0.4" stroke-width="0.6"/>
<line x1="599.3" y1="524.5" x2="640.1" y2="433.7" stroke="#30363d" stroke-opacity="0.4" stroke-width="0.6"/>
<line x1="599.3" y1="524.5" x2="408.0" y2="629.9" stroke="#30363d" stroke-opacity="0.4" stroke-width="0.6"/>
<line x1="599.3" y1="524.5" x2="376.0" y2="628.7" stroke="#30363d" stroke-opacity="0.4" stroke-width="0.6"/>
<line x1="599.3" y1="524.5" x2="286.3" y2="597.0" stroke="#30363d" stroke-opacity="0.4" stroke-width="0.6"/>
<line x1="286.3" y1="597.0" x2="640.1" y2="433.7" stroke="#30363d" stroke-opacity="0.4" stroke-width="0.6"/>
<line x1="408.0" y1="629.9" x2="376.0" y2="628.7" stroke="#30363d" stroke-opacity="0.4" stroke-width="0.6"/>
<line x1="471.8" y1="621.1" x2="440.4" y2="629.0" stroke="#30363d" stroke-opacity="0.4" stroke-width="0.6"/>
<line x1="471.8" y1="621.1" x2="640.1" y2="433.7" stroke="#30363d" stroke-opacity="0.4" stroke-width="0.6"/>
<line x1="471.8" y1="621.1" x2="376.7" y2="178.7" stroke="#30363d" stroke-opacity="0.4" stroke-width="0.6"/>
<line x1="471.8" y1="621.1" x2="259.9" y2="579.3" stroke="#30363d" stroke-opacity="0.4" stroke-width="0.6"/>
<line x1="259.9" y1="579.3" x2="640.1" y2="433.7" stroke="#30363d" stroke-opacity="0.4" stroke-width="0.6"/>
<line x1="440.4" y1="629.0" x2="640.1" y2="433.7" stroke="#30363d" stroke-opacity="0.4" stroke-width="0.6"/>
<line x1="407.8" y1="177.6" x2="188.6" y2="477.0" stroke="#30363d" stroke-opacity="0.4" stroke-width="0.6"/>
<line x1="188.6" y1="477.0" x2="438.6" y2="180.9" stroke="#30363d" stroke-opacity="0.4" stroke-width="0.6"/>
<line x1="633.1" y1="466.8" x2="468.8" y2="188.4" stroke="#30363d" stroke-opacity="0.4" stroke-width="0.6"/>
<line x1="633.1" y1="466.8" x2="497.5" y2="200.0" stroke="#30363d" stroke-opacity="0.4" stroke-width="0.6"/>
<line x1="633.1" y1="466.8" x2="524.4" y2="215.5" stroke="#30363d" stroke-opacity="0.4" stroke-width="0.6"/>
<line x1="633.1" y1="466.8" x2="548.9" y2="234.7" stroke="#30363d" stroke-opacity="0.4" stroke-width="0.6"/>
<line x1="633.1" y1="466.8" x2="570.4" y2="257.0" stroke="#30363d" stroke-opacity="0.4" stroke-width="0.6"/>
<line x1="633.1" y1="466.8" x2="588.7" y2="282.1" stroke="#30363d" stroke-opacity="0.4" stroke-width="0.6"/>
<line x1="633.1" y1="466.8" x2="603.3" y2="309.5" stroke="#30363d" stroke-opacity="0.4" stroke-width="0.6"/>
<line x1="633.1" y1="466.8" x2="613.9" y2="338.7" stroke="#30363d" stroke-opacity="0.4" stroke-width="0.6"/>
<line x1="633.1" y1="466.8" x2="620.3" y2="369.0" stroke="#30363d" stroke-opacity="0.4" stroke-width="0.6"/>
<circle cx="660.0" cy="400.0" r="7.5" fill="#45B7D1" opacity="0.8" filter="url(#glow)"/>
<text x="660.0" y="414.5" text-anchor="middle" fill="#8b949e" font-size="6" font-family="monospace">App.tsx</text>
<circle cx="640.1" cy="433.7" r="5.8" fill="#FFEAA7" opacity="0.8" filter="url(#glow)"/>
<text x="640.1" y="446.5" text-anchor="middle" fill="#8b949e" font-size="6" font-family="monospace">fadeUp()</text>
<circle cx="633.1" cy="466.8" r="5.8" fill="#FF6B6B" opacity="0.8" filter="url(#glow)"/>
<text x="633.1" y="479.6" text-anchor="middle" fill="#8b949e" font-size="6" font-family="monospace">brief.md</text>
<circle cx="614.7" cy="495.6" r="5.0" fill="#96CEB4" opacity="0.8" filter="url(#glow)"/>
<circle cx="599.3" cy="524.5" r="5.0" fill="#FFEAA7" opacity="0.8" filter="url(#glow)"/>
<circle cx="578.1" cy="549.4" r="4.8" fill="#45B7D1" opacity="0.8" filter="url(#glow)"/>
<circle cx="555.6" cy="572.8" r="4.8" fill="#4ECDC4" opacity="0.8" filter="url(#glow)"/>
<circle cx="530.0" cy="592.8" r="4.8" fill="#DDA0DD" opacity="0.8" filter="url(#glow)"/>
<circle cx="501.9" cy="609.0" r="4.8" fill="#4ECDC4" opacity="0.8" filter="url(#glow)"/>
<circle cx="471.8" cy="621.1" r="4.8" fill="#98D8C8" opacity="0.8" filter="url(#glow)"/>
<circle cx="440.4" cy="629.0" r="4.8" fill="#FFEAA7" opacity="0.8" filter="url(#glow)"/>
<circle cx="408.0" cy="629.9" r="4.5" fill="#4ECDC4" opacity="0.8" filter="url(#glow)"/>
<circle cx="376.0" cy="628.7" r="4.5" fill="#4ECDC4" opacity="0.8" filter="url(#glow)"/>
<circle cx="345.0" cy="620.7" r="4.2" fill="#45B7D1" opacity="0.8" filter="url(#glow)"/>
<circle cx="314.8" cy="610.9" r="4.2" fill="#DDA0DD" opacity="0.8" filter="url(#glow)"/>
<circle cx="286.3" cy="597.0" r="4.2" fill="#FFEAA7" opacity="0.8" filter="url(#glow)"/>
<circle cx="259.9" cy="579.3" r="4.2" fill="#98D8C8" opacity="0.8" filter="url(#glow)"/>
<circle cx="238.1" cy="556.3" r="4.0" fill="#4ECDC4" opacity="0.8" filter="url(#glow)"/>
<circle cx="218.0" cy="532.3" r="4.0" fill="#96CEB4" opacity="0.8" filter="url(#glow)"/>
<circle cx="201.3" cy="505.6" r="4.0" fill="#4ECDC4" opacity="0.8" filter="url(#glow)"/>
<circle cx="188.6" cy="477.0" r="4.0" fill="#F7DC6F" opacity="0.8" filter="url(#glow)"/>
<circle cx="182.4" cy="446.3" r="3.8" fill="#555" opacity="0.8" filter="url(#glow)"/>
<circle cx="178.0" cy="415.5" r="3.8" fill="#555" opacity="0.8" filter="url(#glow)"/>
<circle cx="178.0" cy="384.5" r="3.8" fill="#45B7D1" opacity="0.8" filter="url(#glow)"/>
<circle cx="182.4" cy="353.7" r="3.8" fill="#45B7D1" opacity="0.8" filter="url(#glow)"/>
<circle cx="190.9" cy="323.9" r="3.8" fill="#45B7D1" opacity="0.8" filter="url(#glow)"/>
<circle cx="203.5" cy="295.5" r="3.8" fill="#4ECDC4" opacity="0.8" filter="url(#glow)"/>
<circle cx="220.0" cy="269.2" r="3.8" fill="#96CEB4" opacity="0.8" filter="url(#glow)"/>
<circle cx="239.9" cy="245.4" r="3.8" fill="#96CEB4" opacity="0.8" filter="url(#glow)"/>
<circle cx="263.0" cy="224.7" r="3.8" fill="#96CEB4" opacity="0.8" filter="url(#glow)"/>
<circle cx="288.7" cy="207.3" r="3.8" fill="#96CEB4" opacity="0.8" filter="url(#glow)"/>
<circle cx="316.7" cy="193.7" r="3.8" fill="#DDA0DD" opacity="0.8" filter="url(#glow)"/>
<circle cx="346.2" cy="184.1" r="3.8" fill="#4ECDC4" opacity="0.8" filter="url(#glow)"/>
<circle cx="376.7" cy="178.7" r="3.8" fill="#98D8C8" opacity="0.8" filter="url(#glow)"/>
<circle cx="407.8" cy="177.6" r="3.8" fill="#F7DC6F" opacity="0.8" filter="url(#glow)"/>
<circle cx="438.6" cy="180.9" r="3.8" fill="#F7DC6F" opacity="0.8" filter="url(#glow)"/>
<circle cx="468.8" cy="188.4" r="3.8" fill="#FF6B6B" opacity="0.8" filter="url(#glow)"/>
<circle cx="497.5" cy="200.0" r="3.8" fill="#FF6B6B" opacity="0.8" filter="url(#glow)"/>
<circle cx="524.4" cy="215.5" r="3.8" fill="#FF6B6B" opacity="0.8" filter="url(#glow)"/>
<circle cx="548.9" cy="234.7" r="3.8" fill="#FF6B6B" opacity="0.8" filter="url(#glow)"/>
<circle cx="570.4" cy="257.0" r="3.8" fill="#FF6B6B" opacity="0.8" filter="url(#glow)"/>
<circle cx="588.7" cy="282.1" r="3.8" fill="#FF6B6B" opacity="0.8" filter="url(#glow)"/>
<circle cx="603.3" cy="309.5" r="3.8" fill="#FF6B6B" opacity="0.8" filter="url(#glow)"/>
<circle cx="613.9" cy="338.7" r="3.8" fill="#FF6B6B" opacity="0.8" filter="url(#glow)"/>
<circle cx="620.3" cy="369.0" r="3.8" fill="#FF6B6B" opacity="0.8" filter="url(#glow)"/>
<text x="400" y="28" text-anchor="middle" fill="#e6edf3" font-size="13" font-family="sans-serif" font-weight="bold">pathenza</text>
<text x="400" y="46" text-anchor="middle" fill="#484f58" font-size="9" font-family="monospace">45 nodes · 64 links · 9 communities</text>
<rect x="15" y="697" width="8" height="8" fill="#FF6B6B" rx="1.5" alpha="0.8"/>
<text x="28" y="704" fill="#6e7681" font-size="7" font-family="monospace">C0: brief.md (10)</text>
<rect x="15" y="709" width="8" height="8" fill="#4ECDC4" rx="1.5" alpha="0.8"/>
<text x="28" y="716" fill="#6e7681" font-size="7" font-family="monospace">C1: Navbar.tsx (8)</text>
<rect x="15" y="721" width="8" height="8" fill="#45B7D1" rx="1.5" alpha="0.8"/>
<text x="28" y="728" fill="#6e7681" font-size="7" font-family="monospace">C3: App.tsx (6)</text>
<rect x="15" y="733" width="8" height="8" fill="#96CEB4" rx="1.5" alpha="0.8"/>
<text x="28" y="740" fill="#6e7681" font-size="7" font-family="monospace">C2: Mission.tsx (6)</text>
<rect x="15" y="745" width="8" height="8" fill="#FFEAA7" rx="1.5" alpha="0.8"/>
<text x="28" y="752" fill="#6e7681" font-size="7" font-family="monospace">C4: CTA.tsx (4)</text>
<rect x="15" y="757" width="8" height="8" fill="#DDA0DD" rx="1.5" alpha="0.8"/>
<text x="28" y="764" fill="#6e7681" font-size="7" font-family="monospace">C6: SearchChanged.tsx (3)</text>
<rect x="15" y="769" width="8" height="8" fill="#98D8C8" rx="1.5" alpha="0.8"/>
<text x="28" y="776" fill="#6e7681" font-size="7" font-family="monospace">C5: Solution.tsx (3)</text>
<rect x="15" y="781" width="8" height="8" fill="#F7DC6F" rx="1.5" alpha="0.8"/>
<text x="28" y="788" fill="#6e7681" font-size="7" font-family="monospace">C7: README.md (3)</text>
</svg>