<?xml version="1.0" encoding="UTF-8"?>
<svg xmlns="http://www.w3.org/2000/svg" viewBox="0 0 800 800" width="800" height="800">
<defs><filter id="glow"><feGaussianBlur stdDeviation="1.5" result="coloredBlur"/><feMerge><feMergeNode in="coloredBlur"/><feMergeNode in="SourceGraphic"/></feMerge></filter></defs>
<rect width="800" height="800" fill="#0d1117"/>
<line x1="165.2" y1="307.0" x2="323.5" y2="164.6" stroke="#30363d" stroke-opacity="0.4" stroke-width="0.6"/>
<line x1="165.2" y1="307.0" x2="556.2" y2="211.2" stroke="#30363d" stroke-opacity="0.4" stroke-width="0.6"/>
<line x1="165.2" y1="307.0" x2="678.9" y2="510.4" stroke="#30363d" stroke-opacity="0.4" stroke-width="0.6"/>
<line x1="165.2" y1="307.0" x2="206.8" y2="581.4" stroke="#30363d" stroke-opacity="0.4" stroke-width="0.6"/>
<line x1="757.5" y1="400.0" x2="165.2" y2="307.0" stroke="#30363d" stroke-opacity="0.4" stroke-width="0.6"/>
<line x1="217.8" y1="228.9" x2="323.5" y2="164.6" stroke="#30363d" stroke-opacity="0.4" stroke-width="0.6"/>
<line x1="217.8" y1="228.9" x2="556.2" y2="211.2" stroke="#30363d" stroke-opacity="0.4" stroke-width="0.6"/>
<line x1="217.8" y1="228.9" x2="240.6" y2="207.4" stroke="#30363d" stroke-opacity="0.4" stroke-width="0.6"/>
<line x1="217.8" y1="228.9" x2="206.8" y2="581.4" stroke="#30363d" stroke-opacity="0.4" stroke-width="0.6"/>
<line x1="757.5" y1="400.0" x2="217.8" y2="228.9" stroke="#30363d" stroke-opacity="0.4" stroke-width="0.6"/>
<line x1="323.5" y1="164.6" x2="556.2" y2="211.2" stroke="#30363d" stroke-opacity="0.4" stroke-width="0.6"/>
<line x1="353.6" y1="156.9" x2="323.5" y2="164.6" stroke="#30363d" stroke-opacity="0.4" stroke-width="0.6"/>
<line x1="384.5" y1="153.0" x2="323.5" y2="164.6" stroke="#30363d" stroke-opacity="0.4" stroke-width="0.6"/>
<line x1="678.9" y1="510.4" x2="323.5" y2="164.6" stroke="#30363d" stroke-opacity="0.4" stroke-width="0.6"/>
<line x1="353.6" y1="156.9" x2="556.2" y2="211.2" stroke="#30363d" stroke-opacity="0.4" stroke-width="0.6"/>
<line x1="384.5" y1="153.0" x2="556.2" y2="211.2" stroke="#30363d" stroke-opacity="0.4" stroke-width="0.6"/>
<line x1="678.9" y1="510.4" x2="556.2" y2="211.2" stroke="#30363d" stroke-opacity="0.4" stroke-width="0.6"/>
<line x1="353.6" y1="156.9" x2="286.1" y2="642.0" stroke="#30363d" stroke-opacity="0.4" stroke-width="0.6"/>
<line x1="353.6" y1="156.9" x2="240.6" y2="207.4" stroke="#30363d" stroke-opacity="0.4" stroke-width="0.6"/>
<line x1="353.6" y1="156.9" x2="678.9" y2="510.4" stroke="#30363d" stroke-opacity="0.4" stroke-width="0.6"/>
<line x1="206.8" y1="581.4" x2="240.6" y2="207.4" stroke="#30363d" stroke-opacity="0.4" stroke-width="0.6"/>
<line x1="384.5" y1="153.0" x2="240.6" y2="207.4" stroke="#30363d" stroke-opacity="0.4" stroke-width="0.6"/>
<line x1="678.9" y1="510.4" x2="240.6" y2="207.4" stroke="#30363d" stroke-opacity="0.4" stroke-width="0.6"/>
<line x1="286.1" y1="642.0" x2="240.6" y2="207.4" stroke="#30363d" stroke-opacity="0.4" stroke-width="0.6"/>
<line x1="678.9" y1="510.4" x2="206.8" y2="581.4" stroke="#30363d" stroke-opacity="0.4" stroke-width="0.6"/>
<line x1="757.5" y1="400.0" x2="384.5" y2="153.0" stroke="#30363d" stroke-opacity="0.4" stroke-width="0.6"/>
<line x1="757.5" y1="400.0" x2="678.9" y2="510.4" stroke="#30363d" stroke-opacity="0.4" stroke-width="0.6"/>
<line x1="678.9" y1="510.4" x2="286.1" y2="642.0" stroke="#30363d" stroke-opacity="0.4" stroke-width="0.6"/>
<line x1="660.7" y1="543.3" x2="614.7" y2="282.0" stroke="#30363d" stroke-opacity="0.4" stroke-width="0.6"/>
<line x1="660.7" y1="543.3" x2="178.7" y2="278.4" stroke="#30363d" stroke-opacity="0.4" stroke-width="0.6"/>
<line x1="660.7" y1="543.3" x2="266.0" y2="188.9" stroke="#30363d" stroke-opacity="0.4" stroke-width="0.6"/>
<line x1="256.7" y1="625.9" x2="616.9" y2="603.7" stroke="#30363d" stroke-opacity="0.4" stroke-width="0.6"/>
<line x1="348.9" y1="667.7" x2="256.7" y2="625.9" stroke="#30363d" stroke-opacity="0.4" stroke-width="0.6"/>
<line x1="578.6" y1="232.3" x2="693.0" y2="475.2" stroke="#30363d" stroke-opacity="0.4" stroke-width="0.6"/>
<line x1="578.6" y1="232.3" x2="153.6" y2="497.6" stroke="#30363d" stroke-opacity="0.4" stroke-width="0.6"/>
<line x1="578.6" y1="232.3" x2="167.8" y2="527.7" stroke="#30363d" stroke-opacity="0.4" stroke-width="0.6"/>
<line x1="578.6" y1="232.3" x2="637.3" y2="339.1" stroke="#30363d" stroke-opacity="0.4" stroke-width="0.6"/>
<line x1="578.6" y1="232.3" x2="588.0" y2="627.3" stroke="#30363d" stroke-opacity="0.4" stroke-width="0.6"/>
<line x1="578.6" y1="232.3" x2="382.7" y2="674.5" stroke="#30363d" stroke-opacity="0.4" stroke-width="0.6"/>
<line x1="640.7" y1="574.9" x2="693.0" y2="475.2" stroke="#30363d" stroke-opacity="0.4" stroke-width="0.6"/>
<line x1="640.7" y1="574.9" x2="153.6" y2="497.6" stroke="#30363d" stroke-opacity="0.4" stroke-width="0.6"/>
<line x1="640.7" y1="574.9" x2="167.8" y2="527.7" stroke="#30363d" stroke-opacity="0.4" stroke-width="0.6"/>
<line x1="640.7" y1="574.9" x2="616.9" y2="603.7" stroke="#30363d" stroke-opacity="0.4" stroke-width="0.6"/>
<line x1="640.7" y1="574.9" x2="588.0" y2="627.3" stroke="#30363d" stroke-opacity="0.4" stroke-width="0.6"/>
<line x1="640.7" y1="574.9" x2="382.7" y2="674.5" stroke="#30363d" stroke-opacity="0.4" stroke-width="0.6"/>
<line x1="640.7" y1="574.9" x2="293.6" y2="173.8" stroke="#30363d" stroke-opacity="0.4" stroke-width="0.6"/>
<line x1="640.7" y1="574.9" x2="446.4" y2="156.9" stroke="#30363d" stroke-opacity="0.4" stroke-width="0.6"/>
<line x1="640.7" y1="574.9" x2="476.5" y2="164.6" stroke="#30363d" stroke-opacity="0.4" stroke-width="0.6"/>
<line x1="640.7" y1="574.9" x2="552.7" y2="640.6" stroke="#30363d" stroke-opacity="0.4" stroke-width="0.6"/>
<line x1="148.2" y1="464.7" x2="693.0" y2="475.2" stroke="#30363d" stroke-opacity="0.4" stroke-width="0.6"/>
<line x1="148.2" y1="464.7" x2="637.3" y2="339.1" stroke="#30363d" stroke-opacity="0.4" stroke-width="0.6"/>
<line x1="148.2" y1="464.7" x2="588.0" y2="627.3" stroke="#30363d" stroke-opacity="0.4" stroke-width="0.6"/>
<line x1="148.2" y1="464.7" x2="643.1" y2="369.3" stroke="#30363d" stroke-opacity="0.4" stroke-width="0.6"/>
<line x1="148.2" y1="464.7" x2="142.1" y2="432.6" stroke="#30363d" stroke-opacity="0.4" stroke-width="0.6"/>
<line x1="147.0" y1="368.0" x2="693.0" y2="475.2" stroke="#30363d" stroke-opacity="0.4" stroke-width="0.6"/>
<line x1="147.0" y1="368.0" x2="153.6" y2="497.6" stroke="#30363d" stroke-opacity="0.4" stroke-width="0.6"/>
<line x1="147.0" y1="368.0" x2="167.8" y2="527.7" stroke="#30363d" stroke-opacity="0.4" stroke-width="0.6"/>
<line x1="147.0" y1="368.0" x2="637.3" y2="339.1" stroke="#30363d" stroke-opacity="0.4" stroke-width="0.6"/>
<line x1="147.0" y1="368.0" x2="588.0" y2="627.3" stroke="#30363d" stroke-opacity="0.4" stroke-width="0.6"/>
<line x1="147.0" y1="368.0" x2="382.7" y2="674.5" stroke="#30363d" stroke-opacity="0.4" stroke-width="0.6"/>
<line x1="142.5" y1="400.0" x2="693.0" y2="475.2" stroke="#30363d" stroke-opacity="0.4" stroke-width="0.6"/>
<line x1="142.5" y1="400.0" x2="153.6" y2="497.6" stroke="#30363d" stroke-opacity="0.4" stroke-width="0.6"/>
<line x1="142.5" y1="400.0" x2="167.8" y2="527.7" stroke="#30363d" stroke-opacity="0.4" stroke-width="0.6"/>
<line x1="142.5" y1="400.0" x2="637.3" y2="339.1" stroke="#30363d" stroke-opacity="0.4" stroke-width="0.6"/>
<line x1="142.5" y1="400.0" x2="588.0" y2="627.3" stroke="#30363d" stroke-opacity="0.4" stroke-width="0.6"/>
<line x1="142.5" y1="400.0" x2="382.7" y2="674.5" stroke="#30363d" stroke-opacity="0.4" stroke-width="0.6"/>
<line x1="142.5" y1="400.0" x2="293.6" y2="173.8" stroke="#30363d" stroke-opacity="0.4" stroke-width="0.6"/>
<line x1="142.5" y1="400.0" x2="552.7" y2="640.6" stroke="#30363d" stroke-opacity="0.4" stroke-width="0.6"/>
<line x1="178.7" y1="278.4" x2="693.0" y2="475.2" stroke="#30363d" stroke-opacity="0.4" stroke-width="0.6"/>
<line x1="178.7" y1="278.4" x2="153.6" y2="497.6" stroke="#30363d" stroke-opacity="0.4" stroke-width="0.6"/>
<line x1="178.7" y1="278.4" x2="167.8" y2="527.7" stroke="#30363d" stroke-opacity="0.4" stroke-width="0.6"/>
<line x1="178.7" y1="278.4" x2="446.4" y2="156.9" stroke="#30363d" stroke-opacity="0.4" stroke-width="0.6"/>
<line x1="178.7" y1="278.4" x2="476.5" y2="164.6" stroke="#30363d" stroke-opacity="0.4" stroke-width="0.6"/>
<line x1="178.7" y1="278.4" x2="588.0" y2="627.3" stroke="#30363d" stroke-opacity="0.4" stroke-width="0.6"/>
<line x1="178.7" y1="278.4" x2="266.0" y2="188.9" stroke="#30363d" stroke-opacity="0.4" stroke-width="0.6"/>
<line x1="710.0" y1="439.2" x2="693.0" y2="475.2" stroke="#30363d" stroke-opacity="0.4" stroke-width="0.6"/>
<line x1="710.0" y1="439.2" x2="167.8" y2="527.7" stroke="#30363d" stroke-opacity="0.4" stroke-width="0.6"/>
<line x1="710.0" y1="439.2" x2="637.3" y2="339.1" stroke="#30363d" stroke-opacity="0.4" stroke-width="0.6"/>
<line x1="710.0" y1="439.2" x2="588.0" y2="627.3" stroke="#30363d" stroke-opacity="0.4" stroke-width="0.6"/>
<line x1="710.0" y1="439.2" x2="382.7" y2="674.5" stroke="#30363d" stroke-opacity="0.4" stroke-width="0.6"/>
<line x1="710.0" y1="439.2" x2="293.6" y2="173.8" stroke="#30363d" stroke-opacity="0.4" stroke-width="0.6"/>
<line x1="710.0" y1="439.2" x2="552.7" y2="640.6" stroke="#30363d" stroke-opacity="0.4" stroke-width="0.6"/>
<line x1="153.0" y1="336.6" x2="693.0" y2="475.2" stroke="#30363d" stroke-opacity="0.4" stroke-width="0.6"/>
<line x1="153.0" y1="336.6" x2="153.6" y2="497.6" stroke="#30363d" stroke-opacity="0.4" stroke-width="0.6"/>
<line x1="153.0" y1="336.6" x2="167.8" y2="527.7" stroke="#30363d" stroke-opacity="0.4" stroke-width="0.6"/>
<line x1="153.0" y1="336.6" x2="588.0" y2="627.3" stroke="#30363d" stroke-opacity="0.4" stroke-width="0.6"/>
<line x1="153.0" y1="336.6" x2="382.7" y2="674.5" stroke="#30363d" stroke-opacity="0.4" stroke-width="0.6"/>
<line x1="153.0" y1="336.6" x2="293.6" y2="173.8" stroke="#30363d" stroke-opacity="0.4" stroke-width="0.6"/>
<line x1="153.0" y1="336.6" x2="552.7" y2="640.6" stroke="#30363d" stroke-opacity="0.4" stroke-width="0.6"/>
<line x1="417.3" y1="674.5" x2="693.0" y2="475.2" stroke="#30363d" stroke-opacity="0.4" stroke-width="0.6"/>
<line x1="417.3" y1="674.5" x2="153.6" y2="497.6" stroke="#30363d" stroke-opacity="0.4" stroke-width="0.6"/>
<line x1="417.3" y1="674.5" x2="167.8" y2="527.7" stroke="#30363d" stroke-opacity="0.4" stroke-width="0.6"/>
<line x1="417.3" y1="674.5" x2="142.1" y2="432.6" stroke="#30363d" stroke-opacity="0.4" stroke-width="0.6"/>
<line x1="417.3" y1="674.5" x2="588.0" y2="627.3" stroke="#30363d" stroke-opacity="0.4" stroke-width="0.6"/>
<line x1="417.3" y1="674.5" x2="293.6" y2="173.8" stroke="#30363d" stroke-opacity="0.4" stroke-width="0.6"/>
<line x1="417.3" y1="674.5" x2="382.7" y2="674.5" stroke="#30363d" stroke-opacity="0.4" stroke-width="0.6"/>
<line x1="417.3" y1="674.5" x2="195.7" y2="251.6" stroke="#30363d" stroke-opacity="0.4" stroke-width="0.6"/>
<line x1="185.6" y1="555.8" x2="693.0" y2="475.2" stroke="#30363d" stroke-opacity="0.4" stroke-width="0.6"/>
<line x1="185.6" y1="555.8" x2="153.6" y2="497.6" stroke="#30363d" stroke-opacity="0.4" stroke-width="0.6"/>
<line x1="185.6" y1="555.8" x2="167.8" y2="527.7" stroke="#30363d" stroke-opacity="0.4" stroke-width="0.6"/>
<line x1="185.6" y1="555.8" x2="588.0" y2="627.3" stroke="#30363d" stroke-opacity="0.4" stroke-width="0.6"/>
<line x1="185.6" y1="555.8" x2="382.7" y2="674.5" stroke="#30363d" stroke-opacity="0.4" stroke-width="0.6"/>
<line x1="185.6" y1="555.8" x2="195.7" y2="251.6" stroke="#30363d" stroke-opacity="0.4" stroke-width="0.6"/>
<line x1="185.6" y1="555.8" x2="142.1" y2="432.6" stroke="#30363d" stroke-opacity="0.4" stroke-width="0.6"/>
<line x1="598.2" y1="256.0" x2="616.9" y2="603.7" stroke="#30363d" stroke-opacity="0.4" stroke-width="0.6"/>
<line x1="348.9" y1="667.7" x2="693.0" y2="475.2" stroke="#30363d" stroke-opacity="0.4" stroke-width="0.6"/>
<line x1="348.9" y1="667.7" x2="153.6" y2="497.6" stroke="#30363d" stroke-opacity="0.4" stroke-width="0.6"/>
<line x1="348.9" y1="667.7" x2="167.8" y2="527.7" stroke="#30363d" stroke-opacity="0.4" stroke-width="0.6"/>
<line x1="348.9" y1="667.7" x2="616.9" y2="603.7" stroke="#30363d" stroke-opacity="0.4" stroke-width="0.6"/>
<line x1="348.9" y1="667.7" x2="446.4" y2="156.9" stroke="#30363d" stroke-opacity="0.4" stroke-width="0.6"/>
<line x1="348.9" y1="667.7" x2="476.5" y2="164.6" stroke="#30363d" stroke-opacity="0.4" stroke-width="0.6"/>
<line x1="614.7" y1="282.0" x2="693.0" y2="475.2" stroke="#30363d" stroke-opacity="0.4" stroke-width="0.6"/>
<line x1="614.7" y1="282.0" x2="153.6" y2="497.6" stroke="#30363d" stroke-opacity="0.4" stroke-width="0.6"/>
<line x1="614.7" y1="282.0" x2="167.8" y2="527.7" stroke="#30363d" stroke-opacity="0.4" stroke-width="0.6"/>
<line x1="614.7" y1="282.0" x2="616.9" y2="603.7" stroke="#30363d" stroke-opacity="0.4" stroke-width="0.6"/>
<line x1="614.7" y1="282.0" x2="446.4" y2="156.9" stroke="#30363d" stroke-opacity="0.4" stroke-width="0.6"/>
<line x1="520.3" y1="655.6" x2="266.0" y2="188.9" stroke="#30363d" stroke-opacity="0.4" stroke-width="0.6"/>
<line x1="520.3" y1="655.6" x2="693.0" y2="475.2" stroke="#30363d" stroke-opacity="0.4" stroke-width="0.6"/>
<line x1="520.3" y1="655.6" x2="153.6" y2="497.6" stroke="#30363d" stroke-opacity="0.4" stroke-width="0.6"/>
<line x1="520.3" y1="655.6" x2="167.8" y2="527.7" stroke="#30363d" stroke-opacity="0.4" stroke-width="0.6"/>
<line x1="520.3" y1="655.6" x2="637.3" y2="339.1" stroke="#30363d" stroke-opacity="0.4" stroke-width="0.6"/>
<line x1="520.3" y1="655.6" x2="588.0" y2="627.3" stroke="#30363d" stroke-opacity="0.4" stroke-width="0.6"/>
<line x1="520.3" y1="655.6" x2="382.7" y2="674.5" stroke="#30363d" stroke-opacity="0.4" stroke-width="0.6"/>
<line x1="520.3" y1="655.6" x2="293.6" y2="173.8" stroke="#30363d" stroke-opacity="0.4" stroke-width="0.6"/>
<line x1="520.3" y1="655.6" x2="552.7" y2="640.6" stroke="#30363d" stroke-opacity="0.4" stroke-width="0.6"/>
<line x1="627.8" y1="309.8" x2="588.0" y2="627.3" stroke="#30363d" stroke-opacity="0.4" stroke-width="0.6"/>
<line x1="627.8" y1="309.8" x2="643.1" y2="369.3" stroke="#30363d" stroke-opacity="0.4" stroke-width="0.6"/>
<line x1="627.8" y1="309.8" x2="195.7" y2="251.6" stroke="#30363d" stroke-opacity="0.4" stroke-width="0.6"/>
<line x1="627.8" y1="309.8" x2="142.1" y2="432.6" stroke="#30363d" stroke-opacity="0.4" stroke-width="0.6"/>
<line x1="229.5" y1="606.1" x2="627.8" y2="309.8" stroke="#30363d" stroke-opacity="0.4" stroke-width="0.6"/>
<line x1="229.5" y1="606.1" x2="588.0" y2="627.3" stroke="#30363d" stroke-opacity="0.4" stroke-width="0.6"/>
<line x1="229.5" y1="606.1" x2="643.1" y2="369.3" stroke="#30363d" stroke-opacity="0.4" stroke-width="0.6"/>
<line x1="229.5" y1="606.1" x2="293.6" y2="173.8" stroke="#30363d" stroke-opacity="0.4" stroke-width="0.6"/>
<line x1="229.5" y1="606.1" x2="693.0" y2="475.2" stroke="#30363d" stroke-opacity="0.4" stroke-width="0.6"/>
<line x1="229.5" y1="606.1" x2="153.6" y2="497.6" stroke="#30363d" stroke-opacity="0.4" stroke-width="0.6"/>
<line x1="229.5" y1="606.1" x2="446.4" y2="156.9" stroke="#30363d" stroke-opacity="0.4" stroke-width="0.6"/>
<line x1="229.5" y1="606.1" x2="476.5" y2="164.6" stroke="#30363d" stroke-opacity="0.4" stroke-width="0.6"/>
<line x1="229.5" y1="606.1" x2="142.1" y2="432.6" stroke="#30363d" stroke-opacity="0.4" stroke-width="0.6"/>
<line x1="229.5" y1="606.1" x2="415.5" y2="153.0" stroke="#30363d" stroke-opacity="0.4" stroke-width="0.6"/>
<line x1="229.5" y1="606.1" x2="195.7" y2="251.6" stroke="#30363d" stroke-opacity="0.4" stroke-width="0.6"/>
<line x1="415.5" y1="153.0" x2="693.0" y2="475.2" stroke="#30363d" stroke-opacity="0.4" stroke-width="0.6"/>
<line x1="415.5" y1="153.0" x2="167.8" y2="527.7" stroke="#30363d" stroke-opacity="0.4" stroke-width="0.6"/>
<line x1="415.5" y1="153.0" x2="142.1" y2="432.6" stroke="#30363d" stroke-opacity="0.4" stroke-width="0.6"/>
<line x1="415.5" y1="153.0" x2="588.0" y2="627.3" stroke="#30363d" stroke-opacity="0.4" stroke-width="0.6"/>
<line x1="415.5" y1="153.0" x2="293.6" y2="173.8" stroke="#30363d" stroke-opacity="0.4" stroke-width="0.6"/>
<line x1="693.0" y1="475.2" x2="167.8" y2="527.7" stroke="#30363d" stroke-opacity="0.4" stroke-width="0.6"/>
<line x1="693.0" y1="475.2" x2="153.6" y2="497.6" stroke="#30363d" stroke-opacity="0.4" stroke-width="0.6"/>
<line x1="693.0" y1="475.2" x2="637.3" y2="339.1" stroke="#30363d" stroke-opacity="0.4" stroke-width="0.6"/>
<line x1="142.1" y1="432.6" x2="552.7" y2="640.6" stroke="#30363d" stroke-opacity="0.4" stroke-width="0.6"/>
<line x1="142.1" y1="432.6" x2="588.0" y2="627.3" stroke="#30363d" stroke-opacity="0.4" stroke-width="0.6"/>
<line x1="142.1" y1="432.6" x2="293.6" y2="173.8" stroke="#30363d" stroke-opacity="0.4" stroke-width="0.6"/>
<line x1="588.0" y1="627.3" x2="293.6" y2="173.8" stroke="#30363d" stroke-opacity="0.4" stroke-width="0.6"/>
<line x1="588.0" y1="627.3" x2="382.7" y2="674.5" stroke="#30363d" stroke-opacity="0.4" stroke-width="0.6"/>
<line x1="588.0" y1="627.3" x2="643.1" y2="369.3" stroke="#30363d" stroke-opacity="0.4" stroke-width="0.6"/>
<line x1="552.7" y1="640.6" x2="588.0" y2="627.3" stroke="#30363d" stroke-opacity="0.4" stroke-width="0.6"/>
<line x1="552.7" y1="640.6" x2="293.6" y2="173.8" stroke="#30363d" stroke-opacity="0.4" stroke-width="0.6"/>
<line x1="643.1" y1="369.3" x2="382.7" y2="674.5" stroke="#30363d" stroke-opacity="0.4" stroke-width="0.6"/>
<line x1="446.4" y1="156.9" x2="476.5" y2="164.6" stroke="#30363d" stroke-opacity="0.4" stroke-width="0.6"/>
<line x1="485.8" y1="663.9" x2="505.4" y2="176.1" stroke="#30363d" stroke-opacity="0.4" stroke-width="0.6"/>
<line x1="452.0" y1="672.6" x2="532.6" y2="191.0" stroke="#30363d" stroke-opacity="0.4" stroke-width="0.6"/>
<circle cx="757.5" cy="400.0" r="10.0" fill="#DDA0DD" opacity="0.8" filter="url(#glow)"/>
<text x="757.5" y="417.0" text-anchor="middle" fill="#8b949e" font-size="6" font-family="monospace">index.ts</text>
<circle cx="710.0" cy="439.2" r="10.0" fill="#98D8C8" opacity="0.8" filter="url(#glow)"/>
<text x="710.0" y="456.2" text-anchor="middle" fill="#8b949e" font-size="6" font-family="monospace">AdminBackoffice.tsx</text>
<circle cx="693.0" cy="475.2" r="10.0" fill="#555" opacity="0.8" filter="url(#glow)"/>
<text x="693.0" y="492.2" text-anchor="middle" fill="#8b949e" font-size="6" font-family="monospace">firebase.ts</text>
<circle cx="678.9" cy="510.4" r="10.0" fill="#555" opacity="0.8" filter="url(#glow)"/>
<text x="678.9" y="527.4" text-anchor="middle" fill="#8b949e" font-size="6" font-family="monospace">arrears.ts</text>
<circle cx="660.7" cy="543.3" r="10.0" fill="#96CEB4" opacity="0.8" filter="url(#glow)"/>
<text x="660.7" y="560.3" text-anchor="middle" fill="#8b949e" font-size="6" font-family="monospace">App.tsx</text>
<circle cx="640.7" cy="574.9" r="10.0" fill="#555" opacity="0.8" filter="url(#glow)"/>
<text x="640.7" y="591.9" text-anchor="middle" fill="#8b949e" font-size="6" font-family="monospace">Dashboard.tsx</text>
<circle cx="616.9" cy="603.7" r="10.0" fill="#555" opacity="0.8" filter="url(#glow)"/>
<text x="616.9" y="620.7" text-anchor="middle" fill="#8b949e" font-size="6" font-family="monospace">learningData.ts</text>
<circle cx="588.0" cy="627.3" r="10.0" fill="#FF6B6B" opacity="0.8" filter="url(#glow)"/>
<text x="588.0" y="644.3" text-anchor="middle" fill="#8b949e" font-size="6" font-family="monospace">money.ts</text>
<circle cx="552.7" cy="640.6" r="10.0" fill="#555" opacity="0.8" filter="url(#glow)"/>
<text x="552.7" y="657.6" text-anchor="middle" fill="#8b949e" font-size="6" font-family="monospace">arrearsTypes.ts</text>
<circle cx="520.3" cy="655.6" r="9.8" fill="#555" opacity="0.8" filter="url(#glow)"/>
<text x="520.3" y="672.4" text-anchor="middle" fill="#8b949e" font-size="6" font-family="monospace">CreditsTopUp.tsx</text>
<circle cx="485.8" cy="663.9" r="9.2" fill="#555" opacity="0.8" filter="url(#glow)"/>
<text x="485.8" y="680.2" text-anchor="middle" fill="#8b949e" font-size="6" font-family="monospace">Design Language: Prepl</text>
<circle cx="452.0" cy="672.6" r="9.2" fill="#555" opacity="0.8" filter="url(#glow)"/>
<text x="452.0" y="688.8" text-anchor="middle" fill="#8b949e" font-size="6" font-family="monospace">Design Language: Prepl</text>
<circle cx="417.3" cy="674.5" r="9.0" fill="#FF6B6B" opacity="0.8" filter="url(#glow)"/>
<text x="417.3" y="690.5" text-anchor="middle" fill="#8b949e" font-size="6" font-family="monospace">TutorOnboarding.tsx</text>
<circle cx="382.7" cy="674.5" r="9.0" fill="#FF6B6B" opacity="0.8" filter="url(#glow)"/>
<text x="382.7" y="690.5" text-anchor="middle" fill="#8b949e" font-size="6" font-family="monospace">formatMinorAmount()</text>
<circle cx="348.9" cy="667.7" r="8.8" fill="#555" opacity="0.8" filter="url(#glow)"/>
<text x="348.9" y="683.4" text-anchor="middle" fill="#8b949e" font-size="6" font-family="monospace">CourseDetail.tsx</text>
<circle cx="317.3" cy="654.4" r="8.2" fill="#555" opacity="0.8" filter="url(#glow)"/>
<text x="317.3" y="669.7" text-anchor="middle" fill="#8b949e" font-size="6" font-family="monospace">deploy.mjs</text>
<circle cx="286.1" cy="642.0" r="8.2" fill="#555" opacity="0.8" filter="url(#glow)"/>
<text x="286.1" y="657.3" text-anchor="middle" fill="#8b949e" font-size="6" font-family="monospace">safepayServer.ts</text>
<circle cx="256.7" cy="625.9" r="8.2" fill="#555" opacity="0.8" filter="url(#glow)"/>
<text x="256.7" y="641.1" text-anchor="middle" fill="#8b949e" font-size="6" font-family="monospace">CourseStudio.tsx</text>
<circle cx="229.5" cy="606.1" r="8.2" fill="#FF6B6B" opacity="0.8" filter="url(#glow)"/>
<text x="229.5" y="621.4" text-anchor="middle" fill="#8b949e" font-size="6" font-family="monospace">TutorSearch.tsx</text>
<circle cx="206.8" cy="581.4" r="8.0" fill="#555" opacity="0.8" filter="url(#glow)"/>
<text x="206.8" y="596.4" text-anchor="middle" fill="#8b949e" font-size="6" font-family="monospace">arrearsTypes.ts</text>
<circle cx="185.6" cy="555.8" r="8.0" fill="#FF6B6B" opacity="0.8" filter="url(#glow)"/>
<text x="185.6" y="570.8" text-anchor="middle" fill="#8b949e" font-size="6" font-family="monospace">TutorPublicProfile.tsx</text>
<circle cx="167.8" cy="527.7" r="8.0" fill="#555" opacity="0.8" filter="url(#glow)"/>
<text x="167.8" y="542.7" text-anchor="middle" fill="#8b949e" font-size="6" font-family="monospace">db</text>
<circle cx="153.6" cy="497.6" r="8.0" fill="#555" opacity="0.8" filter="url(#glow)"/>
<text x="153.6" y="512.6" text-anchor="middle" fill="#8b949e" font-size="6" font-family="monospace">auth</text>
<circle cx="148.2" cy="464.7" r="7.5" fill="#FF6B6B" opacity="0.8" filter="url(#glow)"/>
<text x="148.2" y="479.2" text-anchor="middle" fill="#8b949e" font-size="6" font-family="monospace">BookingModal.tsx</text>
<circle cx="142.1" cy="432.6" r="7.5" fill="#FF6B6B" opacity="0.8" filter="url(#glow)"/>
<text x="142.1" y="447.1" text-anchor="middle" fill="#8b949e" font-size="6" font-family="monospace">tutorTypes.ts</text>
<circle cx="142.5" cy="400.0" r="7.2" fill="#555" opacity="0.8" filter="url(#glow)"/>
<text x="142.5" y="414.2" text-anchor="middle" fill="#8b949e" font-size="6" font-family="monospace">TutorEarningsDashboard</text>
<circle cx="147.0" cy="368.0" r="7.0" fill="#555" opacity="0.8" filter="url(#glow)"/>
<text x="147.0" y="382.0" text-anchor="middle" fill="#8b949e" font-size="6" font-family="monospace">StudentLessons.tsx</text>
<circle cx="153.0" cy="336.6" r="7.0" fill="#555" opacity="0.8" filter="url(#glow)"/>
<text x="153.0" y="350.6" text-anchor="middle" fill="#8b949e" font-size="6" font-family="monospace">StudentArrearsBanner.t</text>
<circle cx="165.2" cy="307.0" r="6.8" fill="#555" opacity="0.8" filter="url(#glow)"/>
<text x="165.2" y="320.8" text-anchor="middle" fill="#8b949e" font-size="6" font-family="monospace">schedulers.ts</text>
<circle cx="178.7" cy="278.4" r="6.8" fill="#555" opacity="0.8" filter="url(#glow)"/>
<text x="178.7" y="292.1" text-anchor="middle" fill="#8b949e" font-size="6" font-family="monospace">AppShell.tsx</text>
<circle cx="195.7" cy="251.6" r="6.8" fill="#FF6B6B" opacity="0.8" filter="url(#glow)"/>
<text x="195.7" y="265.3" text-anchor="middle" fill="#8b949e" font-size="6" font-family="monospace">toTutorHourlyMarketing</text>
<circle cx="217.8" cy="228.9" r="6.5" fill="#555" opacity="0.8" filter="url(#glow)"/>
<text x="217.8" y="242.4" text-anchor="middle" fill="#8b949e" font-size="6" font-family="monospace">credits.ts</text>
<circle cx="240.6" cy="207.4" r="6.5" fill="#555" opacity="0.8" filter="url(#glow)"/>
<text x="240.6" y="220.9" text-anchor="middle" fill="#8b949e" font-size="6" font-family="monospace">money.ts</text>
<circle cx="266.0" cy="188.9" r="6.5" fill="#96CEB4" opacity="0.8" filter="url(#glow)"/>
<text x="266.0" y="202.4" text-anchor="middle" fill="#8b949e" font-size="6" font-family="monospace">theme.tsx</text>
<circle cx="293.6" cy="173.8" r="6.5" fill="#FF6B6B" opacity="0.8" filter="url(#glow)"/>
<text x="293.6" y="187.3" text-anchor="middle" fill="#8b949e" font-size="6" font-family="monospace">Currency</text>
<circle cx="323.5" cy="164.6" r="6.2" fill="#555" opacity="0.8" filter="url(#glow)"/>
<text x="323.5" y="177.9" text-anchor="middle" fill="#8b949e" font-size="6" font-family="monospace">firebaseAdmin.ts</text>
<circle cx="353.6" cy="156.9" r="6.2" fill="#555" opacity="0.8" filter="url(#glow)"/>
<text x="353.6" y="170.1" text-anchor="middle" fill="#8b949e" font-size="6" font-family="monospace">sweepHelper.ts</text>
<circle cx="384.5" cy="153.0" r="6.2" fill="#555" opacity="0.8" filter="url(#glow)"/>
<text x="384.5" y="166.2" text-anchor="middle" fill="#8b949e" font-size="6" font-family="monospace">bookings.ts</text>
<circle cx="415.5" cy="153.0" r="6.2" fill="#FF6B6B" opacity="0.8" filter="url(#glow)"/>
<text x="415.5" y="166.2" text-anchor="middle" fill="#8b949e" font-size="6" font-family="monospace">tutorSearch.ts</text>
<circle cx="446.4" cy="156.9" r="6.2" fill="#555" opacity="0.8" filter="url(#glow)"/>
<text x="446.4" y="170.1" text-anchor="middle" fill="#8b949e" font-size="6" font-family="monospace">previewSession.ts</text>
<circle cx="476.5" cy="164.6" r="6.2" fill="#555" opacity="0.8" filter="url(#glow)"/>
<text x="476.5" y="177.9" text-anchor="middle" fill="#8b949e" font-size="6" font-family="monospace">isLocalPreviewEnabled(</text>
<circle cx="505.4" cy="176.1" r="6.2" fill="#555" opacity="0.8" filter="url(#glow)"/>
<text x="505.4" y="189.3" text-anchor="middle" fill="#8b949e" font-size="6" font-family="monospace">Component Patterns</text>
<circle cx="532.6" cy="191.0" r="6.2" fill="#555" opacity="0.8" filter="url(#glow)"/>
<text x="532.6" y="204.3" text-anchor="middle" fill="#8b949e" font-size="6" font-family="monospace">Component Patterns</text>
<circle cx="556.2" cy="211.2" r="6.0" fill="#555" opacity="0.8" filter="url(#glow)"/>
<text x="556.2" y="224.2" text-anchor="middle" fill="#8b949e" font-size="6" font-family="monospace">db</text>
<circle cx="578.6" cy="232.3" r="6.0" fill="#555" opacity="0.8" filter="url(#glow)"/>
<text x="578.6" y="245.3" text-anchor="middle" fill="#8b949e" font-size="6" font-family="monospace">TutorInbox.tsx</text>
<circle cx="598.2" cy="256.0" r="6.0" fill="#555" opacity="0.8" filter="url(#glow)"/>
<text x="598.2" y="269.0" text-anchor="middle" fill="#8b949e" font-size="6" font-family="monospace">CourseCatalog.tsx</text>
<circle cx="614.7" cy="282.0" r="6.0" fill="#555" opacity="0.8" filter="url(#glow)"/>
<text x="614.7" y="295.0" text-anchor="middle" fill="#8b949e" font-size="6" font-family="monospace">HeroSection.tsx</text>
<circle cx="627.8" cy="309.8" r="6.0" fill="#FF6B6B" opacity="0.8" filter="url(#glow)"/>
<text x="627.8" y="322.8" text-anchor="middle" fill="#8b949e" font-size="6" font-family="monospace">TutorCard.tsx</text>
<circle cx="637.3" cy="339.1" r="6.0" fill="#555" opacity="0.8" filter="url(#glow)"/>
<text x="637.3" y="352.1" text-anchor="middle" fill="#8b949e" font-size="6" font-family="monospace">functions</text>
<circle cx="643.1" cy="369.3" r="6.0" fill="#FF6B6B" opacity="0.8" filter="url(#glow)"/>
<text x="643.1" y="382.3" text-anchor="middle" fill="#8b949e" font-size="6" font-family="monospace">formatCreditsAndCurren</text>
<text x="400" y="28" text-anchor="middle" fill="#e6edf3" font-size="13" font-family="sans-serif" font-weight="bold">teachenza</text>
<text x="400" y="46" text-anchor="middle" fill="#484f58" font-size="9" font-family="monospace">870 nodes · 1,259 links · 65 communities</text>
<rect x="15" y="697" width="8" height="8" fill="#FF6B6B" rx="1.5" alpha="0.8"/>
<text x="28" y="704" fill="#6e7681" font-size="7" font-family="monospace">C0: BookingModal.tsx (73)</text>
<rect x="15" y="709" width="8" height="8" fill="#4ECDC4" rx="1.5" alpha="0.8"/>
<text x="28" y="716" fill="#6e7681" font-size="7" font-family="monospace">C1: code:bash (npx tsx (43)</text>
<rect x="15" y="721" width="8" height="8" fill="#45B7D1" rx="1.5" alpha="0.8"/>
<text x="28" y="728" fill="#6e7681" font-size="7" font-family="monospace">C2: code:tsx (// BEFOR (42)</text>
<rect x="15" y="733" width="8" height="8" fill="#96CEB4" rx="1.5" alpha="0.8"/>
<text x="28" y="740" fill="#6e7681" font-size="7" font-family="monospace">C3: App.tsx (41)</text>
<rect x="15" y="745" width="8" height="8" fill="#FFEAA7" rx="1.5" alpha="0.8"/>
<text x="28" y="752" fill="#6e7681" font-size="7" font-family="monospace">C4: data-model.md (30)</text>
<rect x="15" y="757" width="8" height="8" fill="#DDA0DD" rx="1.5" alpha="0.8"/>
<text x="28" y="764" fill="#6e7681" font-size="7" font-family="monospace">C5: index.ts (29)</text>
<rect x="15" y="769" width="8" height="8" fill="#98D8C8" rx="1.5" alpha="0.8"/>
<text x="28" y="776" fill="#6e7681" font-size="7" font-family="monospace">C6: AdminBackoffice.ts (27)</text>
<rect x="15" y="781" width="8" height="8" fill="#F7DC6F" rx="1.5" alpha="0.8"/>
<text x="28" y="788" fill="#6e7681" font-size="7" font-family="monospace">C7: 3. Deep Dive — Fir (27)</text>
</svg>