<?xml version="1.0" encoding="UTF-8"?>
<svg xmlns="http://www.w3.org/2000/svg" viewBox="0 0 800 800" width="800" height="800">
<defs><filter id="glow"><feGaussianBlur stdDeviation="1.5" result="coloredBlur"/><feMerge><feMergeNode in="coloredBlur"/><feMergeNode in="SourceGraphic"/></feMerge></filter></defs>
<rect width="800" height="800" fill="#0d1117"/>
<line x1="616.4" y1="557.2" x2="470.3" y2="183.6" stroke="#30363d" stroke-opacity="0.4" stroke-width="0.6"/>
<line x1="616.4" y1="557.2" x2="171.8" y2="371.2" stroke="#30363d" stroke-opacity="0.4" stroke-width="0.6"/>
<line x1="616.4" y1="557.2" x2="496.9" y2="194.2" stroke="#30363d" stroke-opacity="0.4" stroke-width="0.6"/>
<line x1="616.4" y1="557.2" x2="177.2" y2="342.8" stroke="#30363d" stroke-opacity="0.4" stroke-width="0.6"/>
<line x1="616.4" y1="557.2" x2="521.9" y2="207.9" stroke="#30363d" stroke-opacity="0.4" stroke-width="0.6"/>
<line x1="616.4" y1="557.2" x2="545.0" y2="224.7" stroke="#30363d" stroke-opacity="0.4" stroke-width="0.6"/>
<line x1="616.4" y1="557.2" x2="211.9" y2="536.7" stroke="#30363d" stroke-opacity="0.4" stroke-width="0.6"/>
<line x1="616.4" y1="557.2" x2="565.8" y2="244.3" stroke="#30363d" stroke-opacity="0.4" stroke-width="0.6"/>
<line x1="616.4" y1="557.2" x2="250.2" y2="581.1" stroke="#30363d" stroke-opacity="0.4" stroke-width="0.6"/>
<line x1="616.4" y1="557.2" x2="228.7" y2="560.9" stroke="#30363d" stroke-opacity="0.4" stroke-width="0.6"/>
<line x1="211.9" y1="536.7" x2="470.3" y2="183.6" stroke="#30363d" stroke-opacity="0.4" stroke-width="0.6"/>
<line x1="250.2" y1="581.1" x2="470.3" y2="183.6" stroke="#30363d" stroke-opacity="0.4" stroke-width="0.6"/>
<line x1="521.9" y1="207.9" x2="171.8" y2="371.2" stroke="#30363d" stroke-opacity="0.4" stroke-width="0.6"/>
<line x1="545.0" y1="224.7" x2="171.8" y2="371.2" stroke="#30363d" stroke-opacity="0.4" stroke-width="0.6"/>
<line x1="565.8" y1="244.3" x2="171.8" y2="371.2" stroke="#30363d" stroke-opacity="0.4" stroke-width="0.6"/>
<line x1="177.2" y1="342.8" x2="496.9" y2="194.2" stroke="#30363d" stroke-opacity="0.4" stroke-width="0.6"/>
<line x1="250.2" y1="581.1" x2="496.9" y2="194.2" stroke="#30363d" stroke-opacity="0.4" stroke-width="0.6"/>
<line x1="250.2" y1="581.1" x2="177.2" y2="342.8" stroke="#30363d" stroke-opacity="0.4" stroke-width="0.6"/>
<line x1="228.7" y1="560.9" x2="521.9" y2="207.9" stroke="#30363d" stroke-opacity="0.4" stroke-width="0.6"/>
<line x1="228.7" y1="560.9" x2="545.0" y2="224.7" stroke="#30363d" stroke-opacity="0.4" stroke-width="0.6"/>
<line x1="228.7" y1="560.9" x2="211.9" y2="536.7" stroke="#30363d" stroke-opacity="0.4" stroke-width="0.6"/>
<line x1="250.2" y1="581.1" x2="565.8" y2="244.3" stroke="#30363d" stroke-opacity="0.4" stroke-width="0.6"/>
<line x1="228.7" y1="560.9" x2="250.2" y2="581.1" stroke="#30363d" stroke-opacity="0.4" stroke-width="0.6"/>
<line x1="658.0" y1="502.2" x2="685.2" y2="436.0" stroke="#30363d" stroke-opacity="0.4" stroke-width="0.6"/>
<line x1="658.0" y1="502.2" x2="584.1" y2="266.3" stroke="#30363d" stroke-opacity="0.4" stroke-width="0.6"/>
<line x1="658.0" y1="502.2" x2="700.0" y2="400.0" stroke="#30363d" stroke-opacity="0.4" stroke-width="0.6"/>
<line x1="658.0" y1="502.2" x2="476.5" y2="635.4" stroke="#30363d" stroke-opacity="0.4" stroke-width="0.6"/>
<line x1="658.0" y1="502.2" x2="196.3" y2="512.0" stroke="#30363d" stroke-opacity="0.4" stroke-width="0.6"/>
<line x1="658.0" y1="502.2" x2="595.0" y2="583.1" stroke="#30363d" stroke-opacity="0.4" stroke-width="0.6"/>
<line x1="658.0" y1="502.2" x2="298.9" y2="614.9" stroke="#30363d" stroke-opacity="0.4" stroke-width="0.6"/>
<line x1="658.0" y1="502.2" x2="415.4" y2="644.5" stroke="#30363d" stroke-opacity="0.4" stroke-width="0.6"/>
<line x1="658.0" y1="502.2" x2="445.9" y2="640.7" stroke="#30363d" stroke-opacity="0.4" stroke-width="0.6"/>
<line x1="658.0" y1="502.2" x2="354.6" y2="638.2" stroke="#30363d" stroke-opacity="0.4" stroke-width="0.6"/>
<line x1="658.0" y1="502.2" x2="678.5" y2="471.5" stroke="#30363d" stroke-opacity="0.4" stroke-width="0.6"/>
<line x1="658.0" y1="502.2" x2="325.1" y2="630.6" stroke="#30363d" stroke-opacity="0.4" stroke-width="0.6"/>
<line x1="658.0" y1="502.2" x2="507.5" y2="628.5" stroke="#30363d" stroke-opacity="0.4" stroke-width="0.6"/>
<line x1="658.0" y1="502.2" x2="174.8" y2="457.8" stroke="#30363d" stroke-opacity="0.4" stroke-width="0.6"/>
<line x1="658.0" y1="502.2" x2="356.9" y2="174.1" stroke="#30363d" stroke-opacity="0.4" stroke-width="0.6"/>
<line x1="658.0" y1="502.2" x2="636.6" y2="530.1" stroke="#30363d" stroke-opacity="0.4" stroke-width="0.6"/>
<line x1="658.0" y1="502.2" x2="169.3" y2="429.1" stroke="#30363d" stroke-opacity="0.4" stroke-width="0.6"/>
<line x1="685.2" y1="436.0" x2="536.6" y2="615.3" stroke="#30363d" stroke-opacity="0.4" stroke-width="0.6"/>
<line x1="685.2" y1="436.0" x2="384.6" y2="644.5" stroke="#30363d" stroke-opacity="0.4" stroke-width="0.6"/>
<line x1="685.2" y1="436.0" x2="186.2" y2="315.3" stroke="#30363d" stroke-opacity="0.4" stroke-width="0.6"/>
<line x1="685.2" y1="436.0" x2="198.4" y2="289.2" stroke="#30363d" stroke-opacity="0.4" stroke-width="0.6"/>
<line x1="685.2" y1="436.0" x2="476.5" y2="635.4" stroke="#30363d" stroke-opacity="0.4" stroke-width="0.6"/>
<line x1="685.2" y1="436.0" x2="564.1" y2="598.4" stroke="#30363d" stroke-opacity="0.4" stroke-width="0.6"/>
<line x1="685.2" y1="436.0" x2="584.1" y2="266.3" stroke="#30363d" stroke-opacity="0.4" stroke-width="0.6"/>
<line x1="685.2" y1="436.0" x2="700.0" y2="400.0" stroke="#30363d" stroke-opacity="0.4" stroke-width="0.6"/>
<line x1="599.4" y1="290.4" x2="685.2" y2="436.0" stroke="#30363d" stroke-opacity="0.4" stroke-width="0.6"/>
<line x1="232.3" y1="242.6" x2="685.2" y2="436.0" stroke="#30363d" stroke-opacity="0.4" stroke-width="0.6"/>
<line x1="253.4" y1="222.8" x2="685.2" y2="436.0" stroke="#30363d" stroke-opacity="0.4" stroke-width="0.6"/>
<line x1="276.8" y1="205.8" x2="685.2" y2="436.0" stroke="#30363d" stroke-opacity="0.4" stroke-width="0.6"/>
<line x1="302.1" y1="191.9" x2="685.2" y2="436.0" stroke="#30363d" stroke-opacity="0.4" stroke-width="0.6"/>
<line x1="196.3" y1="512.0" x2="685.2" y2="436.0" stroke="#30363d" stroke-opacity="0.4" stroke-width="0.6"/>
<line x1="354.6" y1="638.2" x2="685.2" y2="436.0" stroke="#30363d" stroke-opacity="0.4" stroke-width="0.6"/>
<line x1="415.4" y1="644.5" x2="685.2" y2="436.0" stroke="#30363d" stroke-opacity="0.4" stroke-width="0.6"/>
<line x1="507.5" y1="628.5" x2="685.2" y2="436.0" stroke="#30363d" stroke-opacity="0.4" stroke-width="0.6"/>
<line x1="325.1" y1="630.6" x2="685.2" y2="436.0" stroke="#30363d" stroke-opacity="0.4" stroke-width="0.6"/>
<line x1="169.3" y1="429.1" x2="685.2" y2="436.0" stroke="#30363d" stroke-opacity="0.4" stroke-width="0.6"/>
<line x1="678.5" y1="471.5" x2="685.2" y2="436.0" stroke="#30363d" stroke-opacity="0.4" stroke-width="0.6"/>
<line x1="595.0" y1="583.1" x2="685.2" y2="436.0" stroke="#30363d" stroke-opacity="0.4" stroke-width="0.6"/>
<line x1="298.9" y1="614.9" x2="685.2" y2="436.0" stroke="#30363d" stroke-opacity="0.4" stroke-width="0.6"/>
<line x1="584.1" y1="266.3" x2="564.1" y2="598.4" stroke="#30363d" stroke-opacity="0.4" stroke-width="0.6"/>
<line x1="599.4" y1="290.4" x2="700.0" y2="400.0" stroke="#30363d" stroke-opacity="0.4" stroke-width="0.6"/>
<line x1="232.3" y1="242.6" x2="700.0" y2="400.0" stroke="#30363d" stroke-opacity="0.4" stroke-width="0.6"/>
<line x1="253.4" y1="222.8" x2="700.0" y2="400.0" stroke="#30363d" stroke-opacity="0.4" stroke-width="0.6"/>
<line x1="276.8" y1="205.8" x2="700.0" y2="400.0" stroke="#30363d" stroke-opacity="0.4" stroke-width="0.6"/>
<line x1="302.1" y1="191.9" x2="700.0" y2="400.0" stroke="#30363d" stroke-opacity="0.4" stroke-width="0.6"/>
<line x1="196.3" y1="512.0" x2="700.0" y2="400.0" stroke="#30363d" stroke-opacity="0.4" stroke-width="0.6"/>
<line x1="354.6" y1="638.2" x2="700.0" y2="400.0" stroke="#30363d" stroke-opacity="0.4" stroke-width="0.6"/>
<line x1="415.4" y1="644.5" x2="700.0" y2="400.0" stroke="#30363d" stroke-opacity="0.4" stroke-width="0.6"/>
<line x1="507.5" y1="628.5" x2="700.0" y2="400.0" stroke="#30363d" stroke-opacity="0.4" stroke-width="0.6"/>
<line x1="325.1" y1="630.6" x2="700.0" y2="400.0" stroke="#30363d" stroke-opacity="0.4" stroke-width="0.6"/>
<line x1="169.3" y1="429.1" x2="700.0" y2="400.0" stroke="#30363d" stroke-opacity="0.4" stroke-width="0.6"/>
<line x1="678.5" y1="471.5" x2="700.0" y2="400.0" stroke="#30363d" stroke-opacity="0.4" stroke-width="0.6"/>
<line x1="595.0" y1="583.1" x2="700.0" y2="400.0" stroke="#30363d" stroke-opacity="0.4" stroke-width="0.6"/>
<line x1="298.9" y1="614.9" x2="700.0" y2="400.0" stroke="#30363d" stroke-opacity="0.4" stroke-width="0.6"/>
<line x1="476.5" y1="635.4" x2="564.1" y2="598.4" stroke="#30363d" stroke-opacity="0.4" stroke-width="0.6"/>
<line x1="354.6" y1="638.2" x2="476.5" y2="635.4" stroke="#30363d" stroke-opacity="0.4" stroke-width="0.6"/>
<line x1="445.9" y1="640.7" x2="476.5" y2="635.4" stroke="#30363d" stroke-opacity="0.4" stroke-width="0.6"/>
<line x1="415.4" y1="644.5" x2="476.5" y2="635.4" stroke="#30363d" stroke-opacity="0.4" stroke-width="0.6"/>
<line x1="507.5" y1="628.5" x2="476.5" y2="635.4" stroke="#30363d" stroke-opacity="0.4" stroke-width="0.6"/>
<line x1="325.1" y1="630.6" x2="476.5" y2="635.4" stroke="#30363d" stroke-opacity="0.4" stroke-width="0.6"/>
<line x1="678.5" y1="471.5" x2="476.5" y2="635.4" stroke="#30363d" stroke-opacity="0.4" stroke-width="0.6"/>
<line x1="354.6" y1="638.2" x2="564.1" y2="598.4" stroke="#30363d" stroke-opacity="0.4" stroke-width="0.6"/>
<line x1="445.9" y1="640.7" x2="564.1" y2="598.4" stroke="#30363d" stroke-opacity="0.4" stroke-width="0.6"/>
<line x1="415.4" y1="644.5" x2="564.1" y2="598.4" stroke="#30363d" stroke-opacity="0.4" stroke-width="0.6"/>
<line x1="507.5" y1="628.5" x2="564.1" y2="598.4" stroke="#30363d" stroke-opacity="0.4" stroke-width="0.6"/>
<line x1="325.1" y1="630.6" x2="564.1" y2="598.4" stroke="#30363d" stroke-opacity="0.4" stroke-width="0.6"/>
<line x1="678.5" y1="471.5" x2="564.1" y2="598.4" stroke="#30363d" stroke-opacity="0.4" stroke-width="0.6"/>
<line x1="186.2" y1="315.3" x2="198.4" y2="289.2" stroke="#30363d" stroke-opacity="0.4" stroke-width="0.6"/>
<line x1="445.9" y1="640.7" x2="186.2" y2="315.3" stroke="#30363d" stroke-opacity="0.4" stroke-width="0.6"/>
<line x1="415.4" y1="644.5" x2="186.2" y2="315.3" stroke="#30363d" stroke-opacity="0.4" stroke-width="0.6"/>
<line x1="445.9" y1="640.7" x2="198.4" y2="289.2" stroke="#30363d" stroke-opacity="0.4" stroke-width="0.6"/>
<line x1="415.4" y1="644.5" x2="198.4" y2="289.2" stroke="#30363d" stroke-opacity="0.4" stroke-width="0.6"/>
<line x1="354.6" y1="638.2" x2="213.9" y2="264.8" stroke="#30363d" stroke-opacity="0.4" stroke-width="0.6"/>
<line x1="325.1" y1="630.6" x2="213.9" y2="264.8" stroke="#30363d" stroke-opacity="0.4" stroke-width="0.6"/>
<line x1="169.3" y1="429.1" x2="213.9" y2="264.8" stroke="#30363d" stroke-opacity="0.4" stroke-width="0.6"/>
<line x1="595.0" y1="583.1" x2="232.3" y2="242.6" stroke="#30363d" stroke-opacity="0.4" stroke-width="0.6"/>
<line x1="595.0" y1="583.1" x2="253.4" y2="222.8" stroke="#30363d" stroke-opacity="0.4" stroke-width="0.6"/>
<line x1="595.0" y1="583.1" x2="611.5" y2="316.3" stroke="#30363d" stroke-opacity="0.4" stroke-width="0.6"/>
<line x1="595.0" y1="583.1" x2="276.8" y2="205.8" stroke="#30363d" stroke-opacity="0.4" stroke-width="0.6"/>
<line x1="595.0" y1="583.1" x2="620.4" y2="343.4" stroke="#30363d" stroke-opacity="0.4" stroke-width="0.6"/>
<line x1="595.0" y1="583.1" x2="302.1" y2="191.9" stroke="#30363d" stroke-opacity="0.4" stroke-width="0.6"/>
<line x1="445.9" y1="640.7" x2="196.3" y2="512.0" stroke="#30363d" stroke-opacity="0.4" stroke-width="0.6"/>
<line x1="636.6" y1="530.1" x2="625.7" y2="371.5" stroke="#30363d" stroke-opacity="0.4" stroke-width="0.6"/>
<line x1="678.5" y1="471.5" x2="625.7" y2="371.5" stroke="#30363d" stroke-opacity="0.4" stroke-width="0.6"/>
<line x1="636.6" y1="530.1" x2="183.8" y2="485.6" stroke="#30363d" stroke-opacity="0.4" stroke-width="0.6"/>
<line x1="678.5" y1="471.5" x2="183.8" y2="485.6" stroke="#30363d" stroke-opacity="0.4" stroke-width="0.6"/>
<line x1="636.6" y1="530.1" x2="328.9" y2="181.3" stroke="#30363d" stroke-opacity="0.4" stroke-width="0.6"/>
<line x1="678.5" y1="471.5" x2="328.9" y2="181.3" stroke="#30363d" stroke-opacity="0.4" stroke-width="0.6"/>
<line x1="354.6" y1="638.2" x2="536.6" y2="615.3" stroke="#30363d" stroke-opacity="0.4" stroke-width="0.6"/>
<line x1="354.6" y1="638.2" x2="384.6" y2="644.5" stroke="#30363d" stroke-opacity="0.4" stroke-width="0.6"/>
<line x1="445.9" y1="640.7" x2="536.6" y2="615.3" stroke="#30363d" stroke-opacity="0.4" stroke-width="0.6"/>
<line x1="445.9" y1="640.7" x2="384.6" y2="644.5" stroke="#30363d" stroke-opacity="0.4" stroke-width="0.6"/>
<line x1="636.6" y1="530.1" x2="536.6" y2="615.3" stroke="#30363d" stroke-opacity="0.4" stroke-width="0.6"/>
<line x1="636.6" y1="530.1" x2="384.6" y2="644.5" stroke="#30363d" stroke-opacity="0.4" stroke-width="0.6"/>
<line x1="415.4" y1="644.5" x2="536.6" y2="615.3" stroke="#30363d" stroke-opacity="0.4" stroke-width="0.6"/>
<line x1="415.4" y1="644.5" x2="384.6" y2="644.5" stroke="#30363d" stroke-opacity="0.4" stroke-width="0.6"/>
<line x1="507.5" y1="628.5" x2="536.6" y2="615.3" stroke="#30363d" stroke-opacity="0.4" stroke-width="0.6"/>
<line x1="507.5" y1="628.5" x2="384.6" y2="644.5" stroke="#30363d" stroke-opacity="0.4" stroke-width="0.6"/>
<line x1="325.1" y1="630.6" x2="536.6" y2="615.3" stroke="#30363d" stroke-opacity="0.4" stroke-width="0.6"/>
<line x1="325.1" y1="630.6" x2="384.6" y2="644.5" stroke="#30363d" stroke-opacity="0.4" stroke-width="0.6"/>
<line x1="678.5" y1="471.5" x2="536.6" y2="615.3" stroke="#30363d" stroke-opacity="0.4" stroke-width="0.6"/>
<line x1="678.5" y1="471.5" x2="384.6" y2="644.5" stroke="#30363d" stroke-opacity="0.4" stroke-width="0.6"/>
<line x1="298.9" y1="614.9" x2="536.6" y2="615.3" stroke="#30363d" stroke-opacity="0.4" stroke-width="0.6"/>
<line x1="298.9" y1="614.9" x2="384.6" y2="644.5" stroke="#30363d" stroke-opacity="0.4" stroke-width="0.6"/>
<line x1="536.6" y1="615.3" x2="384.6" y2="644.5" stroke="#30363d" stroke-opacity="0.4" stroke-width="0.6"/>
<line x1="167.5" y1="400.0" x2="385.6" y2="170.5" stroke="#30363d" stroke-opacity="0.4" stroke-width="0.6"/>
<circle cx="700.0" cy="400.0" r="10.0" fill="#96CEB4" opacity="0.8" filter="url(#glow)"/>
<text x="700.0" y="417.0" text-anchor="middle" fill="#8b949e" font-size="6" font-family="monospace">useAuth()</text>
<circle cx="685.2" cy="436.0" r="10.0" fill="#4ECDC4" opacity="0.8" filter="url(#glow)"/>
<text x="685.2" y="453.0" text-anchor="middle" fill="#8b949e" font-size="6" font-family="monospace">AuthContext.jsx</text>
<circle cx="678.5" cy="471.5" r="10.0" fill="#FF6B6B" opacity="0.8" filter="url(#glow)"/>
<text x="678.5" y="488.5" text-anchor="middle" fill="#8b949e" font-size="6" font-family="monospace">ResumeBuilder.jsx</text>
<circle cx="658.0" cy="502.2" r="9.2" fill="#96CEB4" opacity="0.8" filter="url(#glow)"/>
<text x="658.0" y="518.4" text-anchor="middle" fill="#8b949e" font-size="6" font-family="monospace">App.jsx</text>
<circle cx="636.6" cy="530.1" r="8.5" fill="#FF6B6B" opacity="0.8" filter="url(#glow)"/>
<text x="636.6" y="545.6" text-anchor="middle" fill="#8b949e" font-size="6" font-family="monospace">PublicResume.jsx</text>
<circle cx="616.4" cy="557.2" r="8.2" fill="#FFEAA7" opacity="0.8" filter="url(#glow)"/>
<text x="616.4" y="572.5" text-anchor="middle" fill="#8b949e" font-size="6" font-family="monospace">deploy.mjs</text>
<circle cx="595.0" cy="583.1" r="8.2" fill="#45B7D1" opacity="0.8" filter="url(#glow)"/>
<text x="595.0" y="598.4" text-anchor="middle" fill="#8b949e" font-size="6" font-family="monospace">LandingPage.jsx</text>
<circle cx="564.1" cy="598.4" r="7.2" fill="#4ECDC4" opacity="0.8" filter="url(#glow)"/>
<text x="564.1" y="612.7" text-anchor="middle" fill="#8b949e" font-size="6" font-family="monospace">useToast()</text>
<circle cx="536.6" cy="615.3" r="7.0" fill="#4ECDC4" opacity="0.8" filter="url(#glow)"/>
<text x="536.6" y="629.3" text-anchor="middle" fill="#8b949e" font-size="6" font-family="monospace">firebase.js</text>
<circle cx="507.5" cy="628.5" r="6.8" fill="#4ECDC4" opacity="0.8" filter="url(#glow)"/>
<text x="507.5" y="642.2" text-anchor="middle" fill="#8b949e" font-size="6" font-family="monospace">CoverLetterBuilder.jsx</text>
<circle cx="476.5" cy="635.4" r="6.2" fill="#4ECDC4" opacity="0.8" filter="url(#glow)"/>
<text x="476.5" y="648.6" text-anchor="middle" fill="#8b949e" font-size="6" font-family="monospace">ToastContext.jsx</text>
<circle cx="445.9" cy="640.7" r="6.0" fill="#4ECDC4" opacity="0.8" filter="url(#glow)"/>
<text x="445.9" y="653.7" text-anchor="middle" fill="#8b949e" font-size="6" font-family="monospace">AdminPanel.jsx</text>
<circle cx="415.4" cy="644.5" r="6.0" fill="#4ECDC4" opacity="0.8" filter="url(#glow)"/>
<text x="415.4" y="657.5" text-anchor="middle" fill="#8b949e" font-size="6" font-family="monospace">CreditRefinery.jsx</text>
<circle cx="384.6" cy="644.5" r="6.0" fill="#4ECDC4" opacity="0.8" filter="url(#glow)"/>
<text x="384.6" y="657.5" text-anchor="middle" fill="#8b949e" font-size="6" font-family="monospace">db</text>
<circle cx="354.6" cy="638.2" r="5.8" fill="#4ECDC4" opacity="0.8" filter="url(#glow)"/>
<text x="354.6" y="651.0" text-anchor="middle" fill="#8b949e" font-size="6" font-family="monospace">Documents.jsx</text>
<circle cx="325.1" cy="630.6" r="5.8" fill="#4ECDC4" opacity="0.8" filter="url(#glow)"/>
<text x="325.1" y="643.4" text-anchor="middle" fill="#8b949e" font-size="6" font-family="monospace">CoverLetters.jsx</text>
<circle cx="298.9" cy="614.9" r="5.2" fill="#4ECDC4" opacity="0.8" filter="url(#glow)"/>
<circle cx="272.7" cy="600.5" r="5.2" fill="#DDA0DD" opacity="0.8" filter="url(#glow)"/>
<circle cx="250.2" cy="581.1" r="5.0" fill="#FFEAA7" opacity="0.8" filter="url(#glow)"/>
<circle cx="228.7" cy="560.9" r="5.0" fill="#FFEAA7" opacity="0.8" filter="url(#glow)"/>
<circle cx="211.9" cy="536.7" r="4.8" fill="#FFEAA7" opacity="0.8" filter="url(#glow)"/>
<circle cx="196.3" cy="512.0" r="4.8" fill="#96CEB4" opacity="0.8" filter="url(#glow)"/>
<circle cx="183.8" cy="485.6" r="4.8" fill="#FF6B6B" opacity="0.8" filter="url(#glow)"/>
<circle cx="174.8" cy="457.8" r="4.8" fill="#555" opacity="0.8" filter="url(#glow)"/>
<circle cx="169.3" cy="429.1" r="4.8" fill="#96CEB4" opacity="0.8" filter="url(#glow)"/>
<circle cx="167.5" cy="400.0" r="4.8" fill="#98D8C8" opacity="0.8" filter="url(#glow)"/>
<circle cx="171.8" cy="371.2" r="4.5" fill="#FFEAA7" opacity="0.8" filter="url(#glow)"/>
<circle cx="177.2" cy="342.8" r="4.5" fill="#FFEAA7" opacity="0.8" filter="url(#glow)"/>
<circle cx="186.2" cy="315.3" r="4.5" fill="#4ECDC4" opacity="0.8" filter="url(#glow)"/>
<circle cx="198.4" cy="289.2" r="4.5" fill="#4ECDC4" opacity="0.8" filter="url(#glow)"/>
<circle cx="213.9" cy="264.8" r="4.5" fill="#4ECDC4" opacity="0.8" filter="url(#glow)"/>
<circle cx="232.3" cy="242.6" r="4.5" fill="#96CEB4" opacity="0.8" filter="url(#glow)"/>
<circle cx="253.4" cy="222.8" r="4.5" fill="#96CEB4" opacity="0.8" filter="url(#glow)"/>
<circle cx="276.8" cy="205.8" r="4.5" fill="#96CEB4" opacity="0.8" filter="url(#glow)"/>
<circle cx="302.1" cy="191.9" r="4.5" fill="#96CEB4" opacity="0.8" filter="url(#glow)"/>
<circle cx="328.9" cy="181.3" r="4.5" fill="#FF6B6B" opacity="0.8" filter="url(#glow)"/>
<circle cx="356.9" cy="174.1" r="4.5" fill="#555" opacity="0.8" filter="url(#glow)"/>
<circle cx="385.6" cy="170.5" r="4.5" fill="#98D8C8" opacity="0.8" filter="url(#glow)"/>
<circle cx="414.4" cy="170.5" r="4.5" fill="#F7DC6F" opacity="0.8" filter="url(#glow)"/>
<circle cx="442.6" cy="176.5" r="4.2" fill="#555" opacity="0.8" filter="url(#glow)"/>
<circle cx="470.3" cy="183.6" r="4.2" fill="#FFEAA7" opacity="0.8" filter="url(#glow)"/>
<circle cx="496.9" cy="194.2" r="4.2" fill="#FFEAA7" opacity="0.8" filter="url(#glow)"/>
<circle cx="521.9" cy="207.9" r="4.2" fill="#FFEAA7" opacity="0.8" filter="url(#glow)"/>
<circle cx="545.0" cy="224.7" r="4.2" fill="#FFEAA7" opacity="0.8" filter="url(#glow)"/>
<circle cx="565.8" cy="244.3" r="4.2" fill="#FFEAA7" opacity="0.8" filter="url(#glow)"/>
<circle cx="584.1" cy="266.3" r="4.2" fill="#4ECDC4" opacity="0.8" filter="url(#glow)"/>
<circle cx="599.4" cy="290.4" r="4.2" fill="#96CEB4" opacity="0.8" filter="url(#glow)"/>
<circle cx="611.5" cy="316.3" r="4.2" fill="#45B7D1" opacity="0.8" filter="url(#glow)"/>
<circle cx="620.4" cy="343.4" r="4.2" fill="#45B7D1" opacity="0.8" filter="url(#glow)"/>
<circle cx="625.7" cy="371.5" r="4.2" fill="#FF6B6B" opacity="0.8" filter="url(#glow)"/>
<text x="400" y="28" text-anchor="middle" fill="#e6edf3" font-size="13" font-family="sans-serif" font-weight="bold">cvantra</text>
<text x="400" y="46" text-anchor="middle" fill="#484f58" font-size="9" font-family="monospace">198 nodes · 316 links · 15 communities</text>
<rect x="15" y="697" width="8" height="8" fill="#FF6B6B" rx="1.5" alpha="0.8"/>
<text x="28" y="704" fill="#6e7681" font-size="7" font-family="monospace">C0: OnyxTemplate.jsx (41)</text>
<rect x="15" y="709" width="8" height="8" fill="#4ECDC4" rx="1.5" alpha="0.8"/>
<text x="28" y="716" fill="#6e7681" font-size="7" font-family="monospace">C1: AuthContext.jsx (38)</text>
<rect x="15" y="721" width="8" height="8" fill="#45B7D1" rx="1.5" alpha="0.8"/>
<text x="28" y="728" fill="#6e7681" font-size="7" font-family="monospace">C2: Stats.jsx (26)</text>
<rect x="15" y="733" width="8" height="8" fill="#96CEB4" rx="1.5" alpha="0.8"/>
<text x="28" y="740" fill="#6e7681" font-size="7" font-family="monospace">C3: main.jsx (22)</text>
<rect x="15" y="745" width="8" height="8" fill="#FFEAA7" rx="1.5" alpha="0.8"/>
<text x="28" y="752" fill="#6e7681" font-size="7" font-family="monospace">C4: deploy.mjs (20)</text>
<rect x="15" y="757" width="8" height="8" fill="#DDA0DD" rx="1.5" alpha="0.8"/>
<text x="28" y="764" fill="#6e7681" font-size="7" font-family="monospace">C5: README.md (12)</text>
<rect x="15" y="769" width="8" height="8" fill="#98D8C8" rx="1.5" alpha="0.8"/>
<text x="28" y="776" fill="#6e7681" font-size="7" font-family="monospace">C6: DOCUMENTATION.md (11)</text>
<rect x="15" y="781" width="8" height="8" fill="#F7DC6F" rx="1.5" alpha="0.8"/>
<text x="28" y="788" fill="#6e7681" font-size="7" font-family="monospace">C7: 2026-05-10-reactiv (10)</text>
</svg>