<?xml version="1.0" encoding="UTF-8"?>
<svg xmlns="http://www.w3.org/2000/svg" viewBox="0 0 800 800" width="800" height="800">
<defs><filter id="glow"><feGaussianBlur stdDeviation="1.5" result="coloredBlur"/><feMerge><feMergeNode in="coloredBlur"/><feMergeNode in="SourceGraphic"/></feMerge></filter></defs>
<rect width="800" height="800" fill="#0d1117"/>
<line x1="658.0" y1="502.2" x2="297.8" y2="182.8" stroke="#30363d" stroke-opacity="0.4" stroke-width="0.6"/>
<line x1="658.0" y1="502.2" x2="355.5" y2="166.7" stroke="#30363d" stroke-opacity="0.4" stroke-width="0.6"/>
<line x1="414.9" y1="163.0" x2="658.0" y2="502.2" stroke="#30363d" stroke-opacity="0.4" stroke-width="0.6"/>
<line x1="448.7" y1="655.4" x2="658.0" y2="502.2" stroke="#30363d" stroke-opacity="0.4" stroke-width="0.6"/>
<line x1="322.7" y1="637.8" x2="658.0" y2="502.2" stroke="#30363d" stroke-opacity="0.4" stroke-width="0.6"/>
<line x1="183.1" y1="519.2" x2="658.0" y2="502.2" stroke="#30363d" stroke-opacity="0.4" stroke-width="0.6"/>
<line x1="551.4" y1="217.0" x2="658.0" y2="502.2" stroke="#30363d" stroke-opacity="0.4" stroke-width="0.6"/>
<line x1="414.9" y1="163.0" x2="355.5" y2="166.7" stroke="#30363d" stroke-opacity="0.4" stroke-width="0.6"/>
<line x1="322.7" y1="637.8" x2="355.5" y2="166.7" stroke="#30363d" stroke-opacity="0.4" stroke-width="0.6"/>
<line x1="551.4" y1="217.0" x2="355.5" y2="166.7" stroke="#30363d" stroke-opacity="0.4" stroke-width="0.6"/>
<line x1="725.0" y1="400.0" x2="641.0" y2="532.5" stroke="#30363d" stroke-opacity="0.4" stroke-width="0.6"/>
<line x1="725.0" y1="400.0" x2="567.3" y2="602.3" stroke="#30363d" stroke-opacity="0.4" stroke-width="0.6"/>
<line x1="725.0" y1="400.0" x2="671.2" y2="469.6" stroke="#30363d" stroke-opacity="0.4" stroke-width="0.6"/>
<line x1="725.0" y1="400.0" x2="187.5" y2="283.2" stroke="#30363d" stroke-opacity="0.4" stroke-width="0.6"/>
<line x1="414.9" y1="163.0" x2="297.8" y2="182.8" stroke="#30363d" stroke-opacity="0.4" stroke-width="0.6"/>
<line x1="641.0" y1="532.5" x2="480.3" y2="647.3" stroke="#30363d" stroke-opacity="0.4" stroke-width="0.6"/>
<line x1="641.0" y1="532.5" x2="203.8" y2="257.5" stroke="#30363d" stroke-opacity="0.4" stroke-width="0.6"/>
<line x1="641.0" y1="532.5" x2="671.2" y2="469.6" stroke="#30363d" stroke-opacity="0.4" stroke-width="0.6"/>
<line x1="641.0" y1="532.5" x2="695.2" y2="437.3" stroke="#30363d" stroke-opacity="0.4" stroke-width="0.6"/>
<line x1="641.0" y1="532.5" x2="567.3" y2="602.3" stroke="#30363d" stroke-opacity="0.4" stroke-width="0.6"/>
<line x1="187.5" y1="283.2" x2="641.0" y2="532.5" stroke="#30363d" stroke-opacity="0.4" stroke-width="0.6"/>
<line x1="384.1" y1="652.0" x2="641.0" y2="532.5" stroke="#30363d" stroke-opacity="0.4" stroke-width="0.6"/>
<line x1="448.7" y1="655.4" x2="641.0" y2="532.5" stroke="#30363d" stroke-opacity="0.4" stroke-width="0.6"/>
<line x1="551.4" y1="217.0" x2="641.0" y2="532.5" stroke="#30363d" stroke-opacity="0.4" stroke-width="0.6"/>
<line x1="187.5" y1="283.2" x2="567.3" y2="602.3" stroke="#30363d" stroke-opacity="0.4" stroke-width="0.6"/>
<line x1="384.1" y1="652.0" x2="567.3" y2="602.3" stroke="#30363d" stroke-opacity="0.4" stroke-width="0.6"/>
<line x1="448.7" y1="655.4" x2="567.3" y2="602.3" stroke="#30363d" stroke-opacity="0.4" stroke-width="0.6"/>
<line x1="551.4" y1="217.0" x2="567.3" y2="602.3" stroke="#30363d" stroke-opacity="0.4" stroke-width="0.6"/>
<line x1="671.2" y1="469.6" x2="480.3" y2="647.3" stroke="#30363d" stroke-opacity="0.4" stroke-width="0.6"/>
<line x1="671.2" y1="469.6" x2="473.4" y2="174.1" stroke="#30363d" stroke-opacity="0.4" stroke-width="0.6"/>
<line x1="671.2" y1="469.6" x2="203.8" y2="257.5" stroke="#30363d" stroke-opacity="0.4" stroke-width="0.6"/>
<line x1="671.2" y1="469.6" x2="695.2" y2="437.3" stroke="#30363d" stroke-opacity="0.4" stroke-width="0.6"/>
<line x1="627.6" y1="341.6" x2="671.2" y2="469.6" stroke="#30363d" stroke-opacity="0.4" stroke-width="0.6"/>
<line x1="444.5" y1="166.7" x2="671.2" y2="469.6" stroke="#30363d" stroke-opacity="0.4" stroke-width="0.6"/>
<line x1="384.1" y1="652.0" x2="671.2" y2="469.6" stroke="#30363d" stroke-opacity="0.4" stroke-width="0.6"/>
<line x1="219.6" y1="569.4" x2="671.2" y2="469.6" stroke="#30363d" stroke-opacity="0.4" stroke-width="0.6"/>
<line x1="540.7" y1="621.6" x2="671.2" y2="469.6" stroke="#30363d" stroke-opacity="0.4" stroke-width="0.6"/>
<line x1="448.7" y1="655.4" x2="671.2" y2="469.6" stroke="#30363d" stroke-opacity="0.4" stroke-width="0.6"/>
<line x1="511.8" y1="637.5" x2="671.2" y2="469.6" stroke="#30363d" stroke-opacity="0.4" stroke-width="0.6"/>
<line x1="293.6" y1="626.2" x2="671.2" y2="469.6" stroke="#30363d" stroke-opacity="0.4" stroke-width="0.6"/>
<line x1="183.1" y1="519.2" x2="671.2" y2="469.6" stroke="#30363d" stroke-opacity="0.4" stroke-width="0.6"/>
<line x1="325.8" y1="171.7" x2="671.2" y2="469.6" stroke="#30363d" stroke-opacity="0.4" stroke-width="0.6"/>
<line x1="627.6" y1="341.6" x2="695.2" y2="437.3" stroke="#30363d" stroke-opacity="0.4" stroke-width="0.6"/>
<line x1="444.5" y1="166.7" x2="695.2" y2="437.3" stroke="#30363d" stroke-opacity="0.4" stroke-width="0.6"/>
<line x1="384.1" y1="652.0" x2="695.2" y2="437.3" stroke="#30363d" stroke-opacity="0.4" stroke-width="0.6"/>
<line x1="219.6" y1="569.4" x2="695.2" y2="437.3" stroke="#30363d" stroke-opacity="0.4" stroke-width="0.6"/>
<line x1="540.7" y1="621.6" x2="695.2" y2="437.3" stroke="#30363d" stroke-opacity="0.4" stroke-width="0.6"/>
<line x1="448.7" y1="655.4" x2="695.2" y2="437.3" stroke="#30363d" stroke-opacity="0.4" stroke-width="0.6"/>
<line x1="511.8" y1="637.5" x2="695.2" y2="437.3" stroke="#30363d" stroke-opacity="0.4" stroke-width="0.6"/>
<line x1="293.6" y1="626.2" x2="695.2" y2="437.3" stroke="#30363d" stroke-opacity="0.4" stroke-width="0.6"/>
<line x1="183.1" y1="519.2" x2="695.2" y2="437.3" stroke="#30363d" stroke-opacity="0.4" stroke-width="0.6"/>
<line x1="325.8" y1="171.7" x2="695.2" y2="437.3" stroke="#30363d" stroke-opacity="0.4" stroke-width="0.6"/>
<line x1="199.8" y1="545.5" x2="627.6" y2="341.6" stroke="#30363d" stroke-opacity="0.4" stroke-width="0.6"/>
<line x1="199.8" y1="545.5" x2="385.1" y2="163.0" stroke="#30363d" stroke-opacity="0.4" stroke-width="0.6"/>
<line x1="501.1" y1="185.1" x2="385.1" y2="163.0" stroke="#30363d" stroke-opacity="0.4" stroke-width="0.6"/>
<line x1="527.3" y1="199.5" x2="385.1" y2="163.0" stroke="#30363d" stroke-opacity="0.4" stroke-width="0.6"/>
<line x1="199.8" y1="545.5" x2="633.1" y2="370.5" stroke="#30363d" stroke-opacity="0.4" stroke-width="0.6"/>
<line x1="199.8" y1="545.5" x2="414.9" y2="163.0" stroke="#30363d" stroke-opacity="0.4" stroke-width="0.6"/>
<line x1="444.5" y1="166.7" x2="480.3" y2="647.3" stroke="#30363d" stroke-opacity="0.4" stroke-width="0.6"/>
<line x1="444.5" y1="166.7" x2="473.4" y2="174.1" stroke="#30363d" stroke-opacity="0.4" stroke-width="0.6"/>
<line x1="480.3" y1="647.3" x2="473.4" y2="174.1" stroke="#30363d" stroke-opacity="0.4" stroke-width="0.6"/>
<line x1="480.3" y1="647.3" x2="203.8" y2="257.5" stroke="#30363d" stroke-opacity="0.4" stroke-width="0.6"/>
<line x1="223.2" y1="234.0" x2="480.3" y2="647.3" stroke="#30363d" stroke-opacity="0.4" stroke-width="0.6"/>
<line x1="384.1" y1="652.0" x2="480.3" y2="647.3" stroke="#30363d" stroke-opacity="0.4" stroke-width="0.6"/>
<line x1="293.6" y1="626.2" x2="480.3" y2="647.3" stroke="#30363d" stroke-opacity="0.4" stroke-width="0.6"/>
<line x1="325.8" y1="171.7" x2="480.3" y2="647.3" stroke="#30363d" stroke-opacity="0.4" stroke-width="0.6"/>
<line x1="384.1" y1="652.0" x2="473.4" y2="174.1" stroke="#30363d" stroke-opacity="0.4" stroke-width="0.6"/>
<line x1="223.2" y1="234.0" x2="203.8" y2="257.5" stroke="#30363d" stroke-opacity="0.4" stroke-width="0.6"/>
<line x1="384.1" y1="652.0" x2="203.8" y2="257.5" stroke="#30363d" stroke-opacity="0.4" stroke-width="0.6"/>
<line x1="293.6" y1="626.2" x2="203.8" y2="257.5" stroke="#30363d" stroke-opacity="0.4" stroke-width="0.6"/>
<line x1="325.8" y1="171.7" x2="203.8" y2="257.5" stroke="#30363d" stroke-opacity="0.4" stroke-width="0.6"/>
<line x1="219.6" y1="569.4" x2="223.2" y2="234.0" stroke="#30363d" stroke-opacity="0.4" stroke-width="0.6"/>
<line x1="540.7" y1="621.6" x2="223.2" y2="234.0" stroke="#30363d" stroke-opacity="0.4" stroke-width="0.6"/>
<line x1="448.7" y1="655.4" x2="223.2" y2="234.0" stroke="#30363d" stroke-opacity="0.4" stroke-width="0.6"/>
<line x1="511.8" y1="637.5" x2="223.2" y2="234.0" stroke="#30363d" stroke-opacity="0.4" stroke-width="0.6"/>
<line x1="183.1" y1="519.2" x2="223.2" y2="234.0" stroke="#30363d" stroke-opacity="0.4" stroke-width="0.6"/>
<line x1="352.7" y1="648.0" x2="270.1" y2="195.3" stroke="#30363d" stroke-opacity="0.4" stroke-width="0.6"/>
<line x1="352.7" y1="648.0" x2="162.7" y2="339.1" stroke="#30363d" stroke-opacity="0.4" stroke-width="0.6"/>
<line x1="352.7" y1="648.0" x2="172.2" y2="309.8" stroke="#30363d" stroke-opacity="0.4" stroke-width="0.6"/>
<circle cx="725.0" cy="400.0" r="10.0" fill="#96CEB4" opacity="0.8" filter="url(#glow)"/>
<text x="725.0" y="417.0" text-anchor="middle" fill="#8b949e" font-size="6" font-family="monospace">App.tsx</text>
<circle cx="695.2" cy="437.3" r="10.0" fill="#FF6B6B" opacity="0.8" filter="url(#glow)"/>
<text x="695.2" y="454.3" text-anchor="middle" fill="#8b949e" font-size="6" font-family="monospace">useAuth()</text>
<circle cx="671.2" cy="469.6" r="9.5" fill="#FF6B6B" opacity="0.8" filter="url(#glow)"/>
<text x="671.2" y="486.1" text-anchor="middle" fill="#8b949e" font-size="6" font-family="monospace">AuthContext.tsx</text>
<circle cx="658.0" cy="502.2" r="9.2" fill="#4ECDC4" opacity="0.8" filter="url(#glow)"/>
<text x="658.0" y="518.4" text-anchor="middle" fill="#8b949e" font-size="6" font-family="monospace">data.ts</text>
<circle cx="641.0" cy="532.5" r="9.0" fill="#555" opacity="0.8" filter="url(#glow)"/>
<text x="641.0" y="548.5" text-anchor="middle" fill="#8b949e" font-size="6" font-family="monospace">AccessContext.tsx</text>
<circle cx="616.4" cy="557.2" r="8.2" fill="#555" opacity="0.8" filter="url(#glow)"/>
<text x="616.4" y="572.5" text-anchor="middle" fill="#8b949e" font-size="6" font-family="monospace">audit-kitchen-content.</text>
<circle cx="593.2" cy="581.4" r="8.0" fill="#555" opacity="0.8" filter="url(#glow)"/>
<text x="593.2" y="596.4" text-anchor="middle" fill="#8b949e" font-size="6" font-family="monospace">index.ts</text>
<circle cx="567.3" cy="602.3" r="7.8" fill="#555" opacity="0.8" filter="url(#glow)"/>
<text x="567.3" y="617.0" text-anchor="middle" fill="#8b949e" font-size="6" font-family="monospace">useAccess()</text>
<circle cx="540.7" cy="621.6" r="7.8" fill="#45B7D1" opacity="0.8" filter="url(#glow)"/>
<text x="540.7" y="636.4" text-anchor="middle" fill="#8b949e" font-size="6" font-family="monospace">MealPlanner.tsx</text>
<circle cx="511.8" cy="637.5" r="7.8" fill="#45B7D1" opacity="0.8" filter="url(#glow)"/>
<text x="511.8" y="652.3" text-anchor="middle" fill="#8b949e" font-size="6" font-family="monospace">Community.tsx</text>
<circle cx="480.3" cy="647.3" r="7.5" fill="#FF6B6B" opacity="0.8" filter="url(#glow)"/>
<text x="480.3" y="661.8" text-anchor="middle" fill="#8b949e" font-size="6" font-family="monospace">firebase.ts</text>
<circle cx="448.7" cy="655.4" r="7.5" fill="#45B7D1" opacity="0.8" filter="url(#glow)"/>
<text x="448.7" y="669.9" text-anchor="middle" fill="#8b949e" font-size="6" font-family="monospace">RecipeList.tsx</text>
<circle cx="416.2" cy="657.0" r="7.2" fill="#555" opacity="0.8" filter="url(#glow)"/>
<text x="416.2" y="671.2" text-anchor="middle" fill="#8b949e" font-size="6" font-family="monospace">Quickstart - Complianc</text>
<circle cx="384.1" cy="652.0" r="6.8" fill="#FF6B6B" opacity="0.8" filter="url(#glow)"/>
<text x="384.1" y="665.8" text-anchor="middle" fill="#8b949e" font-size="6" font-family="monospace">Settings.tsx</text>
<circle cx="352.7" cy="648.0" r="6.8" fill="#555" opacity="0.8" filter="url(#glow)"/>
<text x="352.7" y="661.8" text-anchor="middle" fill="#8b949e" font-size="6" font-family="monospace">Compliance &amp; UX Fixes </text>
<circle cx="322.7" cy="637.8" r="6.5" fill="#4ECDC4" opacity="0.8" filter="url(#glow)"/>
<text x="322.7" y="651.3" text-anchor="middle" fill="#8b949e" font-size="6" font-family="monospace">CookingMode.tsx</text>
<circle cx="293.6" cy="626.2" r="6.5" fill="#FF6B6B" opacity="0.8" filter="url(#glow)"/>
<text x="293.6" y="639.7" text-anchor="middle" fill="#8b949e" font-size="6" font-family="monospace">AdminCommunity.tsx</text>
<circle cx="266.0" cy="611.1" r="6.5" fill="#F7DC6F" opacity="0.8" filter="url(#glow)"/>
<text x="266.0" y="624.6" text-anchor="middle" fill="#8b949e" font-size="6" font-family="monospace">CookFlow Deployment Gu</text>
<circle cx="240.6" cy="592.6" r="6.5" fill="#DDA0DD" opacity="0.8" filter="url(#glow)"/>
<text x="240.6" y="606.1" text-anchor="middle" fill="#8b949e" font-size="6" font-family="monospace">Compliance &amp; UX Fixes </text>
<circle cx="219.6" cy="569.4" r="6.2" fill="#45B7D1" opacity="0.8" filter="url(#glow)"/>
<text x="219.6" y="582.7" text-anchor="middle" fill="#8b949e" font-size="6" font-family="monospace">ShoppingList.tsx</text>
<circle cx="199.8" cy="545.5" r="6.2" fill="#4ECDC4" opacity="0.8" filter="url(#glow)"/>
<text x="199.8" y="558.7" text-anchor="middle" fill="#8b949e" font-size="6" font-family="monospace">LandingPage.tsx</text>
<circle cx="183.1" cy="519.2" r="6.2" fill="#45B7D1" opacity="0.8" filter="url(#glow)"/>
<text x="183.1" y="532.5" text-anchor="middle" fill="#8b949e" font-size="6" font-family="monospace">ChefProfile.tsx</text>
<circle cx="169.9" cy="491.1" r="6.2" fill="#98D8C8" opacity="0.8" filter="url(#glow)"/>
<text x="169.9" y="504.4" text-anchor="middle" fill="#8b949e" font-size="6" font-family="monospace">Tasks: Compliance, Pol</text>
<circle cx="160.3" cy="461.6" r="6.2" fill="#555" opacity="0.8" filter="url(#glow)"/>
<text x="160.3" y="474.8" text-anchor="middle" fill="#8b949e" font-size="6" font-family="monospace">Phase 1 Data Model - C</text>
<circle cx="154.5" cy="431.0" r="6.2" fill="#555" opacity="0.8" filter="url(#glow)"/>
<text x="154.5" y="444.3" text-anchor="middle" fill="#8b949e" font-size="6" font-family="monospace">Implementation Plan: C</text>
<circle cx="155.0" cy="400.0" r="6.0" fill="#FFEAA7" opacity="0.8" filter="url(#glow)"/>
<text x="155.0" y="413.0" text-anchor="middle" fill="#8b949e" font-size="6" font-family="monospace">User Flows</text>
<circle cx="156.9" cy="369.3" r="6.0" fill="#555" opacity="0.8" filter="url(#glow)"/>
<text x="156.9" y="382.3" text-anchor="middle" fill="#8b949e" font-size="6" font-family="monospace">Phase 0 Research - Com</text>
<circle cx="162.7" cy="339.1" r="6.0" fill="#555" opacity="0.8" filter="url(#glow)"/>
<text x="162.7" y="352.1" text-anchor="middle" fill="#8b949e" font-size="6" font-family="monospace">Task 9: Implement Inli</text>
<circle cx="172.2" cy="309.8" r="6.0" fill="#555" opacity="0.8" filter="url(#glow)"/>
<text x="172.2" y="322.8" text-anchor="middle" fill="#8b949e" font-size="6" font-family="monospace">Task 10: Fix AI Recipe</text>
<circle cx="187.5" cy="283.2" r="5.8" fill="#555" opacity="0.8" filter="url(#glow)"/>
<text x="187.5" y="295.9" text-anchor="middle" fill="#8b949e" font-size="6" font-family="monospace">PremiumGate.tsx</text>
<circle cx="203.8" cy="257.5" r="5.8" fill="#FF6B6B" opacity="0.8" filter="url(#glow)"/>
<text x="203.8" y="270.2" text-anchor="middle" fill="#8b949e" font-size="6" font-family="monospace">db</text>
<circle cx="223.2" cy="234.0" r="5.8" fill="#45B7D1" opacity="0.8" filter="url(#glow)"/>
<text x="223.2" y="246.7" text-anchor="middle" fill="#8b949e" font-size="6" font-family="monospace">user-app-data.ts</text>
<circle cx="245.4" cy="213.2" r="5.8" fill="#555" opacity="0.8" filter="url(#glow)"/>
<text x="245.4" y="225.9" text-anchor="middle" fill="#8b949e" font-size="6" font-family="monospace">Contract: Compliance a</text>
<circle cx="270.1" cy="195.3" r="5.8" fill="#555" opacity="0.8" filter="url(#glow)"/>
<text x="270.1" y="208.0" text-anchor="middle" fill="#8b949e" font-size="6" font-family="monospace">Task 1: Add Refund Pol</text>
<circle cx="297.8" cy="182.8" r="5.5" fill="#4ECDC4" opacity="0.8" filter="url(#glow)"/>
<circle cx="325.8" cy="171.7" r="5.5" fill="#FF6B6B" opacity="0.8" filter="url(#glow)"/>
<circle cx="355.5" cy="166.7" r="5.2" fill="#4ECDC4" opacity="0.8" filter="url(#glow)"/>
<circle cx="385.1" cy="163.0" r="5.2" fill="#555" opacity="0.8" filter="url(#glow)"/>
<circle cx="414.9" cy="163.0" r="5.2" fill="#4ECDC4" opacity="0.8" filter="url(#glow)"/>
<circle cx="444.5" cy="166.7" r="5.2" fill="#FF6B6B" opacity="0.8" filter="url(#glow)"/>
<circle cx="473.4" cy="174.1" r="5.2" fill="#FF6B6B" opacity="0.8" filter="url(#glow)"/>
<circle cx="501.1" cy="185.1" r="5.2" fill="#555" opacity="0.8" filter="url(#glow)"/>
<circle cx="527.3" cy="199.5" r="5.2" fill="#555" opacity="0.8" filter="url(#glow)"/>
<circle cx="551.4" cy="217.0" r="5.2" fill="#555" opacity="0.8" filter="url(#glow)"/>
<circle cx="573.1" cy="237.4" r="5.2" fill="#555" opacity="0.8" filter="url(#glow)"/>
<circle cx="592.1" cy="260.4" r="5.2" fill="#555" opacity="0.8" filter="url(#glow)"/>
<circle cx="608.1" cy="285.6" r="5.2" fill="#555" opacity="0.8" filter="url(#glow)"/>
<circle cx="618.5" cy="313.5" r="5.0" fill="#555" opacity="0.8" filter="url(#glow)"/>
<circle cx="627.6" cy="341.6" r="5.0" fill="#FF6B6B" opacity="0.8" filter="url(#glow)"/>
<circle cx="633.1" cy="370.5" r="5.0" fill="#555" opacity="0.8" filter="url(#glow)"/>
<text x="400" y="28" text-anchor="middle" fill="#e6edf3" font-size="13" font-family="sans-serif" font-weight="bold">eurocookflow</text>
<text x="400" y="46" text-anchor="middle" fill="#484f58" font-size="9" font-family="monospace">659 nodes · 795 links · 49 communities</text>
<rect x="15" y="697" width="8" height="8" fill="#FF6B6B" rx="1.5" alpha="0.8"/>
<text x="28" y="704" fill="#6e7681" font-size="7" font-family="monospace">C0: NAV_ITEMS (54)</text>
<rect x="15" y="709" width="8" height="8" fill="#4ECDC4" rx="1.5" alpha="0.8"/>
<text x="28" y="716" fill="#6e7681" font-size="7" font-family="monospace">C1: data.ts (52)</text>
<rect x="15" y="721" width="8" height="8" fill="#45B7D1" rx="1.5" alpha="0.8"/>
<text x="28" y="728" fill="#6e7681" font-size="7" font-family="monospace">C2: user-app-data.ts (48)</text>
<rect x="15" y="733" width="8" height="8" fill="#96CEB4" rx="1.5" alpha="0.8"/>
<text x="28" y="740" fill="#6e7681" font-size="7" font-family="monospace">C3: App.tsx (31)</text>
<rect x="15" y="745" width="8" height="8" fill="#FFEAA7" rx="1.5" alpha="0.8"/>
<text x="28" y="752" fill="#6e7681" font-size="7" font-family="monospace">C4: USER_FLOWS.md (30)</text>
<rect x="15" y="757" width="8" height="8" fill="#DDA0DD" rx="1.5" alpha="0.8"/>
<text x="28" y="764" fill="#6e7681" font-size="7" font-family="monospace">C5: 2026-05-08-complia (25)</text>
<rect x="15" y="769" width="8" height="8" fill="#98D8C8" rx="1.5" alpha="0.8"/>
<text x="28" y="776" fill="#6e7681" font-size="7" font-family="monospace">C6: tasks.md (24)</text>
<rect x="15" y="781" width="8" height="8" fill="#F7DC6F" rx="1.5" alpha="0.8"/>
<text x="28" y="788" fill="#6e7681" font-size="7" font-family="monospace">C7: Local Development (24)</text>
</svg>