<?xml version="1.0" encoding="UTF-8"?>
<svg xmlns="http://www.w3.org/2000/svg" viewBox="0 0 800 800" width="800" height="800">
<defs><filter id="glow"><feGaussianBlur stdDeviation="1.5" result="coloredBlur"/><feMerge><feMergeNode in="coloredBlur"/><feMergeNode in="SourceGraphic"/></feMerge></filter></defs>
<rect width="800" height="800" fill="#0d1117"/>
<line x1="675.3" y1="434.8" x2="253.4" y2="222.8" stroke="#30363d" stroke-opacity="0.4" stroke-width="0.6"/>
<line x1="675.3" y1="434.8" x2="250.2" y2="581.1" stroke="#30363d" stroke-opacity="0.4" stroke-width="0.6"/>
<line x1="675.3" y1="434.8" x2="385.7" y2="172.9" stroke="#30363d" stroke-opacity="0.4" stroke-width="0.6"/>
<line x1="675.3" y1="434.8" x2="414.3" y2="172.9" stroke="#30363d" stroke-opacity="0.4" stroke-width="0.6"/>
<line x1="675.3" y1="434.8" x2="442.6" y2="176.5" stroke="#30363d" stroke-opacity="0.4" stroke-width="0.6"/>
<line x1="675.3" y1="434.8" x2="213.9" y2="264.8" stroke="#30363d" stroke-opacity="0.4" stroke-width="0.6"/>
<line x1="675.3" y1="434.8" x2="232.3" y2="242.6" stroke="#30363d" stroke-opacity="0.4" stroke-width="0.6"/>
<line x1="250.2" y1="581.1" x2="385.7" y2="172.9" stroke="#30363d" stroke-opacity="0.4" stroke-width="0.6"/>
<line x1="250.2" y1="581.1" x2="442.6" y2="176.5" stroke="#30363d" stroke-opacity="0.4" stroke-width="0.6"/>
<line x1="250.2" y1="581.1" x2="232.3" y2="242.6" stroke="#30363d" stroke-opacity="0.4" stroke-width="0.6"/>
<line x1="385.7" y1="172.9" x2="414.3" y2="172.9" stroke="#30363d" stroke-opacity="0.4" stroke-width="0.6"/>
<line x1="414.3" y1="172.9" x2="213.9" y2="264.8" stroke="#30363d" stroke-opacity="0.4" stroke-width="0.6"/>
<line x1="442.6" y1="176.5" x2="213.9" y2="264.8" stroke="#30363d" stroke-opacity="0.4" stroke-width="0.6"/>
<line x1="169.3" y1="429.1" x2="172.4" y2="458.4" stroke="#30363d" stroke-opacity="0.4" stroke-width="0.6"/>
<line x1="169.3" y1="429.1" x2="557.8" y2="590.7" stroke="#30363d" stroke-opacity="0.4" stroke-width="0.6"/>
<line x1="169.3" y1="429.1" x2="228.7" y2="560.9" stroke="#30363d" stroke-opacity="0.4" stroke-width="0.6"/>
<line x1="474.2" y1="628.3" x2="470.3" y2="183.6" stroke="#30363d" stroke-opacity="0.4" stroke-width="0.6"/>
<line x1="298.9" y1="614.9" x2="474.2" y2="628.3" stroke="#30363d" stroke-opacity="0.4" stroke-width="0.6"/>
<line x1="663.9" y1="467.8" x2="474.2" y2="628.3" stroke="#30363d" stroke-opacity="0.4" stroke-width="0.6"/>
<line x1="298.9" y1="614.9" x2="470.3" y2="183.6" stroke="#30363d" stroke-opacity="0.4" stroke-width="0.6"/>
<line x1="328.9" y1="181.3" x2="470.3" y2="183.6" stroke="#30363d" stroke-opacity="0.4" stroke-width="0.6"/>
<line x1="445.0" y1="635.7" x2="531.3" y2="606.9" stroke="#30363d" stroke-opacity="0.4" stroke-width="0.6"/>
<line x1="445.0" y1="635.7" x2="174.8" y2="342.2" stroke="#30363d" stroke-opacity="0.4" stroke-width="0.6"/>
<line x1="445.0" y1="635.7" x2="326.6" y2="625.9" stroke="#30363d" stroke-opacity="0.4" stroke-width="0.6"/>
<line x1="445.0" y1="635.7" x2="565.8" y2="244.3" stroke="#30363d" stroke-opacity="0.4" stroke-width="0.6"/>
<line x1="445.0" y1="635.7" x2="276.8" y2="205.8" stroke="#30363d" stroke-opacity="0.4" stroke-width="0.6"/>
<line x1="690.0" y1="400.0" x2="445.0" y2="635.7" stroke="#30363d" stroke-opacity="0.4" stroke-width="0.6"/>
<line x1="582.2" y1="571.1" x2="445.0" y2="635.7" stroke="#30363d" stroke-opacity="0.4" stroke-width="0.6"/>
<line x1="627.8" y1="525.3" x2="445.0" y2="635.7" stroke="#30363d" stroke-opacity="0.4" stroke-width="0.6"/>
<line x1="690.0" y1="400.0" x2="276.8" y2="205.8" stroke="#30363d" stroke-opacity="0.4" stroke-width="0.6"/>
<line x1="582.2" y1="571.1" x2="276.8" y2="205.8" stroke="#30363d" stroke-opacity="0.4" stroke-width="0.6"/>
<line x1="627.8" y1="525.3" x2="276.8" y2="205.8" stroke="#30363d" stroke-opacity="0.4" stroke-width="0.6"/>
<line x1="167.5" y1="400.0" x2="531.3" y2="606.9" stroke="#30363d" stroke-opacity="0.4" stroke-width="0.6"/>
<line x1="167.5" y1="400.0" x2="174.8" y2="342.2" stroke="#30363d" stroke-opacity="0.4" stroke-width="0.6"/>
<line x1="167.5" y1="400.0" x2="496.9" y2="194.2" stroke="#30363d" stroke-opacity="0.4" stroke-width="0.6"/>
<line x1="663.9" y1="467.8" x2="167.5" y2="400.0" stroke="#30363d" stroke-opacity="0.4" stroke-width="0.6"/>
<line x1="582.2" y1="571.1" x2="167.5" y2="400.0" stroke="#30363d" stroke-opacity="0.4" stroke-width="0.6"/>
<line x1="663.9" y1="467.8" x2="496.9" y2="194.2" stroke="#30363d" stroke-opacity="0.4" stroke-width="0.6"/>
<line x1="582.2" y1="571.1" x2="496.9" y2="194.2" stroke="#30363d" stroke-opacity="0.4" stroke-width="0.6"/>
<line x1="557.8" y1="590.7" x2="531.3" y2="606.9" stroke="#30363d" stroke-opacity="0.4" stroke-width="0.6"/>
<line x1="557.8" y1="590.7" x2="174.8" y2="342.2" stroke="#30363d" stroke-opacity="0.4" stroke-width="0.6"/>
<line x1="557.8" y1="590.7" x2="326.6" y2="625.9" stroke="#30363d" stroke-opacity="0.4" stroke-width="0.6"/>
<line x1="557.8" y1="590.7" x2="521.9" y2="207.9" stroke="#30363d" stroke-opacity="0.4" stroke-width="0.6"/>
<line x1="557.8" y1="590.7" x2="228.7" y2="560.9" stroke="#30363d" stroke-opacity="0.4" stroke-width="0.6"/>
<line x1="690.0" y1="400.0" x2="557.8" y2="590.7" stroke="#30363d" stroke-opacity="0.4" stroke-width="0.6"/>
<line x1="627.8" y1="525.3" x2="557.8" y2="590.7" stroke="#30363d" stroke-opacity="0.4" stroke-width="0.6"/>
<line x1="172.4" y1="458.4" x2="557.8" y2="590.7" stroke="#30363d" stroke-opacity="0.4" stroke-width="0.6"/>
<line x1="690.0" y1="400.0" x2="228.7" y2="560.9" stroke="#30363d" stroke-opacity="0.4" stroke-width="0.6"/>
<line x1="627.8" y1="525.3" x2="228.7" y2="560.9" stroke="#30363d" stroke-opacity="0.4" stroke-width="0.6"/>
<line x1="172.4" y1="458.4" x2="228.7" y2="560.9" stroke="#30363d" stroke-opacity="0.4" stroke-width="0.6"/>
<line x1="209.9" y1="538.1" x2="531.3" y2="606.9" stroke="#30363d" stroke-opacity="0.4" stroke-width="0.6"/>
<line x1="209.9" y1="538.1" x2="174.8" y2="342.2" stroke="#30363d" stroke-opacity="0.4" stroke-width="0.6"/>
<line x1="209.9" y1="538.1" x2="326.6" y2="625.9" stroke="#30363d" stroke-opacity="0.4" stroke-width="0.6"/>
<line x1="209.9" y1="538.1" x2="545.0" y2="224.7" stroke="#30363d" stroke-opacity="0.4" stroke-width="0.6"/>
<line x1="627.8" y1="525.3" x2="209.9" y2="538.1" stroke="#30363d" stroke-opacity="0.4" stroke-width="0.6"/>
<line x1="326.6" y1="625.9" x2="302.1" y2="191.9" stroke="#30363d" stroke-opacity="0.4" stroke-width="0.6"/>
<line x1="326.6" y1="625.9" x2="521.9" y2="207.9" stroke="#30363d" stroke-opacity="0.4" stroke-width="0.6"/>
<line x1="326.6" y1="625.9" x2="545.0" y2="224.7" stroke="#30363d" stroke-opacity="0.4" stroke-width="0.6"/>
<line x1="326.6" y1="625.9" x2="565.8" y2="244.3" stroke="#30363d" stroke-opacity="0.4" stroke-width="0.6"/>
<line x1="521.9" y1="207.9" x2="302.1" y2="191.9" stroke="#30363d" stroke-opacity="0.4" stroke-width="0.6"/>
<line x1="545.0" y1="224.7" x2="302.1" y2="191.9" stroke="#30363d" stroke-opacity="0.4" stroke-width="0.6"/>
<line x1="565.8" y1="244.3" x2="302.1" y2="191.9" stroke="#30363d" stroke-opacity="0.4" stroke-width="0.6"/>
<line x1="415.1" y1="639.5" x2="169.3" y2="370.9" stroke="#30363d" stroke-opacity="0.4" stroke-width="0.6"/>
<line x1="415.1" y1="639.5" x2="194.1" y2="513.2" stroke="#30363d" stroke-opacity="0.4" stroke-width="0.6"/>
<line x1="690.0" y1="400.0" x2="415.1" y2="639.5" stroke="#30363d" stroke-opacity="0.4" stroke-width="0.6"/>
<line x1="663.9" y1="467.8" x2="415.1" y2="639.5" stroke="#30363d" stroke-opacity="0.4" stroke-width="0.6"/>
<line x1="582.2" y1="571.1" x2="415.1" y2="639.5" stroke="#30363d" stroke-opacity="0.4" stroke-width="0.6"/>
<line x1="627.8" y1="525.3" x2="415.1" y2="639.5" stroke="#30363d" stroke-opacity="0.4" stroke-width="0.6"/>
<line x1="690.0" y1="400.0" x2="169.3" y2="370.9" stroke="#30363d" stroke-opacity="0.4" stroke-width="0.6"/>
<line x1="663.9" y1="467.8" x2="169.3" y2="370.9" stroke="#30363d" stroke-opacity="0.4" stroke-width="0.6"/>
<line x1="582.2" y1="571.1" x2="169.3" y2="370.9" stroke="#30363d" stroke-opacity="0.4" stroke-width="0.6"/>
<line x1="627.8" y1="525.3" x2="169.3" y2="370.9" stroke="#30363d" stroke-opacity="0.4" stroke-width="0.6"/>
<line x1="690.0" y1="400.0" x2="194.1" y2="513.2" stroke="#30363d" stroke-opacity="0.4" stroke-width="0.6"/>
<line x1="663.9" y1="467.8" x2="194.1" y2="513.2" stroke="#30363d" stroke-opacity="0.4" stroke-width="0.6"/>
<line x1="627.8" y1="525.3" x2="194.1" y2="513.2" stroke="#30363d" stroke-opacity="0.4" stroke-width="0.6"/>
<line x1="531.3" y1="606.9" x2="174.8" y2="342.2" stroke="#30363d" stroke-opacity="0.4" stroke-width="0.6"/>
<line x1="690.0" y1="400.0" x2="531.3" y2="606.9" stroke="#30363d" stroke-opacity="0.4" stroke-width="0.6"/>
<line x1="298.9" y1="614.9" x2="328.9" y2="181.3" stroke="#30363d" stroke-opacity="0.4" stroke-width="0.6"/>
<line x1="641.7" y1="495.7" x2="599.4" y2="290.4" stroke="#30363d" stroke-opacity="0.4" stroke-width="0.6"/>
<line x1="641.7" y1="495.7" x2="611.5" y2="316.3" stroke="#30363d" stroke-opacity="0.4" stroke-width="0.6"/>
<line x1="641.7" y1="495.7" x2="620.4" y2="343.4" stroke="#30363d" stroke-opacity="0.4" stroke-width="0.6"/>
<line x1="641.7" y1="495.7" x2="625.7" y2="371.5" stroke="#30363d" stroke-opacity="0.4" stroke-width="0.6"/>
<line x1="611.5" y1="316.3" x2="599.4" y2="290.4" stroke="#30363d" stroke-opacity="0.4" stroke-width="0.6"/>
<line x1="620.4" y1="343.4" x2="611.5" y2="316.3" stroke="#30363d" stroke-opacity="0.4" stroke-width="0.6"/>
<line x1="355.0" y1="635.7" x2="272.7" y2="600.5" stroke="#30363d" stroke-opacity="0.4" stroke-width="0.6"/>
<line x1="355.0" y1="635.7" x2="356.9" y2="174.1" stroke="#30363d" stroke-opacity="0.4" stroke-width="0.6"/>
<line x1="604.3" y1="548.4" x2="183.8" y2="314.4" stroke="#30363d" stroke-opacity="0.4" stroke-width="0.6"/>
<circle cx="690.0" cy="400.0" r="10.0" fill="#DDA0DD" opacity="0.8" filter="url(#glow)"/>
<text x="690.0" y="417.0" text-anchor="middle" fill="#8b949e" font-size="6" font-family="monospace">ProfileView.vue</text>
<circle cx="675.3" cy="434.8" r="9.2" fill="#45B7D1" opacity="0.8" filter="url(#glow)"/>
<text x="675.3" y="451.0" text-anchor="middle" fill="#8b949e" font-size="6" font-family="monospace">refresh-steam-products</text>
<circle cx="663.9" cy="467.8" r="8.8" fill="#FF6B6B" opacity="0.8" filter="url(#glow)"/>
<text x="663.9" y="483.5" text-anchor="middle" fill="#8b949e" font-size="6" font-family="monospace">ProductView.vue</text>
<circle cx="641.7" cy="495.7" r="7.5" fill="#98D8C8" opacity="0.8" filter="url(#glow)"/>
<text x="641.7" y="510.2" text-anchor="middle" fill="#8b949e" font-size="6" font-family="monospace">CatalogView.vue</text>
<circle cx="627.8" cy="525.3" r="7.5" fill="#FF6B6B" opacity="0.8" filter="url(#glow)"/>
<text x="627.8" y="539.8" text-anchor="middle" fill="#8b949e" font-size="6" font-family="monospace">AccountDashboard.vue</text>
<circle cx="604.3" cy="548.4" r="6.8" fill="#4ECDC4" opacity="0.8" filter="url(#glow)"/>
<text x="604.3" y="562.2" text-anchor="middle" fill="#8b949e" font-size="6" font-family="monospace">Клонирование проекта д</text>
<circle cx="582.2" cy="571.1" r="6.5" fill="#FF6B6B" opacity="0.8" filter="url(#glow)"/>
<text x="582.2" y="584.6" text-anchor="middle" fill="#8b949e" font-size="6" font-family="monospace">AdminDashboard.vue</text>
<circle cx="557.8" cy="590.7" r="6.2" fill="#96CEB4" opacity="0.8" filter="url(#glow)"/>
<text x="557.8" y="604.0" text-anchor="middle" fill="#8b949e" font-size="6" font-family="monospace">auth.js</text>
<circle cx="531.3" cy="606.9" r="6.0" fill="#96CEB4" opacity="0.8" filter="url(#glow)"/>
<text x="531.3" y="619.9" text-anchor="middle" fill="#8b949e" font-size="6" font-family="monospace">index.js</text>
<circle cx="502.2" cy="617.2" r="5.5" fill="#555" opacity="0.8" filter="url(#glow)"/>
<circle cx="474.2" cy="628.3" r="5.5" fill="#F7DC6F" opacity="0.8" filter="url(#glow)"/>
<circle cx="445.0" cy="635.7" r="5.5" fill="#96CEB4" opacity="0.8" filter="url(#glow)"/>
<circle cx="415.1" cy="639.5" r="5.5" fill="#FF6B6B" opacity="0.8" filter="url(#glow)"/>
<circle cx="384.9" cy="639.5" r="5.5" fill="#555" opacity="0.8" filter="url(#glow)"/>
<circle cx="355.0" cy="635.7" r="5.5" fill="#FFEAA7" opacity="0.8" filter="url(#glow)"/>
<circle cx="326.6" cy="625.9" r="5.2" fill="#96CEB4" opacity="0.8" filter="url(#glow)"/>
<circle cx="298.9" cy="614.9" r="5.2" fill="#F7DC6F" opacity="0.8" filter="url(#glow)"/>
<circle cx="272.7" cy="600.5" r="5.2" fill="#FFEAA7" opacity="0.8" filter="url(#glow)"/>
<circle cx="250.2" cy="581.1" r="5.0" fill="#45B7D1" opacity="0.8" filter="url(#glow)"/>
<circle cx="228.7" cy="560.9" r="5.0" fill="#96CEB4" opacity="0.8" filter="url(#glow)"/>
<circle cx="209.9" cy="538.1" r="5.0" fill="#96CEB4" opacity="0.8" filter="url(#glow)"/>
<circle cx="194.1" cy="513.2" r="5.0" fill="#FF6B6B" opacity="0.8" filter="url(#glow)"/>
<circle cx="181.5" cy="486.5" r="5.0" fill="#555" opacity="0.8" filter="url(#glow)"/>
<circle cx="172.4" cy="458.4" r="5.0" fill="#96CEB4" opacity="0.8" filter="url(#glow)"/>
<circle cx="169.3" cy="429.1" r="4.8" fill="#96CEB4" opacity="0.8" filter="url(#glow)"/>
<circle cx="167.5" cy="400.0" r="4.8" fill="#FF6B6B" opacity="0.8" filter="url(#glow)"/>
<circle cx="169.3" cy="370.9" r="4.8" fill="#FF6B6B" opacity="0.8" filter="url(#glow)"/>
<circle cx="174.8" cy="342.2" r="4.8" fill="#96CEB4" opacity="0.8" filter="url(#glow)"/>
<circle cx="183.8" cy="314.4" r="4.8" fill="#4ECDC4" opacity="0.8" filter="url(#glow)"/>
<circle cx="198.4" cy="289.2" r="4.5" fill="#555" opacity="0.8" filter="url(#glow)"/>
<circle cx="213.9" cy="264.8" r="4.5" fill="#45B7D1" opacity="0.8" filter="url(#glow)"/>
<circle cx="232.3" cy="242.6" r="4.5" fill="#45B7D1" opacity="0.8" filter="url(#glow)"/>
<circle cx="253.4" cy="222.8" r="4.5" fill="#45B7D1" opacity="0.8" filter="url(#glow)"/>
<circle cx="276.8" cy="205.8" r="4.5" fill="#FF6B6B" opacity="0.8" filter="url(#glow)"/>
<circle cx="302.1" cy="191.9" r="4.5" fill="#96CEB4" opacity="0.8" filter="url(#glow)"/>
<circle cx="328.9" cy="181.3" r="4.5" fill="#F7DC6F" opacity="0.8" filter="url(#glow)"/>
<circle cx="356.9" cy="174.1" r="4.5" fill="#FFEAA7" opacity="0.8" filter="url(#glow)"/>
<circle cx="385.7" cy="172.9" r="4.2" fill="#45B7D1" opacity="0.8" filter="url(#glow)"/>
<circle cx="414.3" cy="172.9" r="4.2" fill="#45B7D1" opacity="0.8" filter="url(#glow)"/>
<circle cx="442.6" cy="176.5" r="4.2" fill="#45B7D1" opacity="0.8" filter="url(#glow)"/>
<circle cx="470.3" cy="183.6" r="4.2" fill="#F7DC6F" opacity="0.8" filter="url(#glow)"/>
<circle cx="496.9" cy="194.2" r="4.2" fill="#FF6B6B" opacity="0.8" filter="url(#glow)"/>
<circle cx="521.9" cy="207.9" r="4.2" fill="#96CEB4" opacity="0.8" filter="url(#glow)"/>
<circle cx="545.0" cy="224.7" r="4.2" fill="#96CEB4" opacity="0.8" filter="url(#glow)"/>
<circle cx="565.8" cy="244.3" r="4.2" fill="#96CEB4" opacity="0.8" filter="url(#glow)"/>
<circle cx="584.1" cy="266.3" r="4.2" fill="#555" opacity="0.8" filter="url(#glow)"/>
<circle cx="599.4" cy="290.4" r="4.2" fill="#98D8C8" opacity="0.8" filter="url(#glow)"/>
<circle cx="611.5" cy="316.3" r="4.2" fill="#98D8C8" opacity="0.8" filter="url(#glow)"/>
<circle cx="620.4" cy="343.4" r="4.2" fill="#98D8C8" opacity="0.8" filter="url(#glow)"/>
<circle cx="625.7" cy="371.5" r="4.2" fill="#98D8C8" opacity="0.8" filter="url(#glow)"/>
<text x="400" y="28" text-anchor="middle" fill="#e6edf3" font-size="13" font-family="sans-serif" font-weight="bold">gameweara.com</text>
<text x="400" y="46" text-anchor="middle" fill="#484f58" font-size="9" font-family="monospace">243 nodes · 286 links · 33 communities</text>
<rect x="15" y="697" width="8" height="8" fill="#FF6B6B" rx="1.5" alpha="0.8"/>
<text x="28" y="704" fill="#6e7681" font-size="7" font-family="monospace">C0: productsStore (39)</text>
<rect x="15" y="709" width="8" height="8" fill="#4ECDC4" rx="1.5" alpha="0.8"/>
<text x="28" y="716" fill="#6e7681" font-size="7" font-family="monospace">C1: code:text (role =  (29)</text>
<rect x="15" y="721" width="8" height="8" fill="#45B7D1" rx="1.5" alpha="0.8"/>
<text x="28" y="728" fill="#6e7681" font-size="7" font-family="monospace">C2: refresh-steam-prod (25)</text>
<rect x="15" y="733" width="8" height="8" fill="#96CEB4" rx="1.5" alpha="0.8"/>
<text x="28" y="740" fill="#6e7681" font-size="7" font-family="monospace">C3: index.js (23)</text>
<rect x="15" y="745" width="8" height="8" fill="#FFEAA7" rx="1.5" alpha="0.8"/>
<text x="28" y="752" fill="#6e7681" font-size="7" font-family="monospace">C4: code:bash (node -  (21)</text>
<rect x="15" y="757" width="8" height="8" fill="#DDA0DD" rx="1.5" alpha="0.8"/>
<text x="28" y="764" fill="#6e7681" font-size="7" font-family="monospace">C5: ProfileView.vue (20)</text>
<rect x="15" y="769" width="8" height="8" fill="#98D8C8" rx="1.5" alpha="0.8"/>
<text x="28" y="776" fill="#6e7681" font-size="7" font-family="monospace">C6: CatalogView.vue (17)</text>
<rect x="15" y="781" width="8" height="8" fill="#F7DC6F" rx="1.5" alpha="0.8"/>
<text x="28" y="788" fill="#6e7681" font-size="7" font-family="monospace">C7: productMeta.js (13)</text>
</svg>