<?xml version="1.0" encoding="UTF-8"?>
<svg xmlns="http://www.w3.org/2000/svg" viewBox="0 0 800 800" width="800" height="800">
<defs><filter id="glow"><feGaussianBlur stdDeviation="1.5" result="coloredBlur"/><feMerge><feMergeNode in="coloredBlur"/><feMergeNode in="SourceGraphic"/></feMerge></filter></defs>
<rect width="800" height="800" fill="#0d1117"/>
<line x1="617.9" y1="344.0" x2="623.2" y2="371.8" stroke="#30363d" stroke-opacity="0.4" stroke-width="0.6"/>
<line x1="667.9" y1="433.8" x2="414.3" y2="172.9" stroke="#30363d" stroke-opacity="0.4" stroke-width="0.6"/>
<line x1="667.9" y1="433.8" x2="170.0" y2="400.0" stroke="#30363d" stroke-opacity="0.4" stroke-width="0.6"/>
<line x1="667.9" y1="433.8" x2="442.6" y2="176.5" stroke="#30363d" stroke-opacity="0.4" stroke-width="0.6"/>
<line x1="667.9" y1="433.8" x2="171.8" y2="371.2" stroke="#30363d" stroke-opacity="0.4" stroke-width="0.6"/>
<line x1="667.9" y1="433.8" x2="470.3" y2="183.6" stroke="#30363d" stroke-opacity="0.4" stroke-width="0.6"/>
<line x1="667.9" y1="433.8" x2="496.9" y2="194.2" stroke="#30363d" stroke-opacity="0.4" stroke-width="0.6"/>
<line x1="667.9" y1="433.8" x2="174.8" y2="457.8" stroke="#30363d" stroke-opacity="0.4" stroke-width="0.6"/>
<line x1="667.9" y1="433.8" x2="521.9" y2="207.9" stroke="#30363d" stroke-opacity="0.4" stroke-width="0.6"/>
<line x1="667.9" y1="433.8" x2="250.2" y2="581.1" stroke="#30363d" stroke-opacity="0.4" stroke-width="0.6"/>
<line x1="667.9" y1="433.8" x2="326.6" y2="625.9" stroke="#30363d" stroke-opacity="0.4" stroke-width="0.6"/>
<line x1="174.8" y1="457.8" x2="414.3" y2="172.9" stroke="#30363d" stroke-opacity="0.4" stroke-width="0.6"/>
<line x1="250.2" y1="581.1" x2="414.3" y2="172.9" stroke="#30363d" stroke-opacity="0.4" stroke-width="0.6"/>
<line x1="470.3" y1="183.6" x2="170.0" y2="400.0" stroke="#30363d" stroke-opacity="0.4" stroke-width="0.6"/>
<line x1="496.9" y1="194.2" x2="170.0" y2="400.0" stroke="#30363d" stroke-opacity="0.4" stroke-width="0.6"/>
<line x1="521.9" y1="207.9" x2="170.0" y2="400.0" stroke="#30363d" stroke-opacity="0.4" stroke-width="0.6"/>
<line x1="171.8" y1="371.2" x2="442.6" y2="176.5" stroke="#30363d" stroke-opacity="0.4" stroke-width="0.6"/>
<line x1="250.2" y1="581.1" x2="442.6" y2="176.5" stroke="#30363d" stroke-opacity="0.4" stroke-width="0.6"/>
<line x1="250.2" y1="581.1" x2="171.8" y2="371.2" stroke="#30363d" stroke-opacity="0.4" stroke-width="0.6"/>
<line x1="326.6" y1="625.9" x2="470.3" y2="183.6" stroke="#30363d" stroke-opacity="0.4" stroke-width="0.6"/>
<line x1="326.6" y1="625.9" x2="496.9" y2="194.2" stroke="#30363d" stroke-opacity="0.4" stroke-width="0.6"/>
<line x1="326.6" y1="625.9" x2="174.8" y2="457.8" stroke="#30363d" stroke-opacity="0.4" stroke-width="0.6"/>
<line x1="250.2" y1="581.1" x2="521.9" y2="207.9" stroke="#30363d" stroke-opacity="0.4" stroke-width="0.6"/>
<line x1="326.6" y1="625.9" x2="250.2" y2="581.1" stroke="#30363d" stroke-opacity="0.4" stroke-width="0.6"/>
<line x1="228.7" y1="560.9" x2="644.1" y2="496.6" stroke="#30363d" stroke-opacity="0.4" stroke-width="0.6"/>
<line x1="228.7" y1="560.9" x2="584.1" y2="572.8" stroke="#30363d" stroke-opacity="0.4" stroke-width="0.6"/>
<line x1="228.7" y1="560.9" x2="612.4" y2="554.3" stroke="#30363d" stroke-opacity="0.4" stroke-width="0.6"/>
<line x1="228.7" y1="560.9" x2="584.1" y2="266.3" stroke="#30363d" stroke-opacity="0.4" stroke-width="0.6"/>
<line x1="531.3" y1="606.9" x2="209.9" y2="538.1" stroke="#30363d" stroke-opacity="0.4" stroke-width="0.6"/>
<line x1="644.1" y1="496.6" x2="531.3" y2="606.9" stroke="#30363d" stroke-opacity="0.4" stroke-width="0.6"/>
<line x1="504.3" y1="621.7" x2="531.3" y2="606.9" stroke="#30363d" stroke-opacity="0.4" stroke-width="0.6"/>
<line x1="475.7" y1="633.0" x2="531.3" y2="606.9" stroke="#30363d" stroke-opacity="0.4" stroke-width="0.6"/>
<line x1="194.1" y1="513.2" x2="531.3" y2="606.9" stroke="#30363d" stroke-opacity="0.4" stroke-width="0.6"/>
<line x1="181.5" y1="486.5" x2="531.3" y2="606.9" stroke="#30363d" stroke-opacity="0.4" stroke-width="0.6"/>
<line x1="644.1" y1="496.6" x2="209.9" y2="538.1" stroke="#30363d" stroke-opacity="0.4" stroke-width="0.6"/>
<line x1="504.3" y1="621.7" x2="209.9" y2="538.1" stroke="#30363d" stroke-opacity="0.4" stroke-width="0.6"/>
<line x1="475.7" y1="633.0" x2="209.9" y2="538.1" stroke="#30363d" stroke-opacity="0.4" stroke-width="0.6"/>
<line x1="194.1" y1="513.2" x2="209.9" y2="538.1" stroke="#30363d" stroke-opacity="0.4" stroke-width="0.6"/>
<line x1="181.5" y1="486.5" x2="209.9" y2="538.1" stroke="#30363d" stroke-opacity="0.4" stroke-width="0.6"/>
<line x1="644.1" y1="496.6" x2="630.0" y2="526.5" stroke="#30363d" stroke-opacity="0.4" stroke-width="0.6"/>
<line x1="504.3" y1="621.7" x2="644.1" y2="496.6" stroke="#30363d" stroke-opacity="0.4" stroke-width="0.6"/>
<line x1="475.7" y1="633.0" x2="644.1" y2="496.6" stroke="#30363d" stroke-opacity="0.4" stroke-width="0.6"/>
<line x1="557.8" y1="590.7" x2="644.1" y2="496.6" stroke="#30363d" stroke-opacity="0.4" stroke-width="0.6"/>
<line x1="445.0" y1="635.7" x2="644.1" y2="496.6" stroke="#30363d" stroke-opacity="0.4" stroke-width="0.6"/>
<line x1="415.1" y1="639.5" x2="644.1" y2="496.6" stroke="#30363d" stroke-opacity="0.4" stroke-width="0.6"/>
<line x1="384.9" y1="639.5" x2="644.1" y2="496.6" stroke="#30363d" stroke-opacity="0.4" stroke-width="0.6"/>
<line x1="355.0" y1="635.7" x2="644.1" y2="496.6" stroke="#30363d" stroke-opacity="0.4" stroke-width="0.6"/>
<line x1="612.4" y1="554.3" x2="644.1" y2="496.6" stroke="#30363d" stroke-opacity="0.4" stroke-width="0.6"/>
<line x1="504.3" y1="621.7" x2="630.0" y2="526.5" stroke="#30363d" stroke-opacity="0.4" stroke-width="0.6"/>
<line x1="475.7" y1="633.0" x2="630.0" y2="526.5" stroke="#30363d" stroke-opacity="0.4" stroke-width="0.6"/>
<line x1="557.8" y1="590.7" x2="630.0" y2="526.5" stroke="#30363d" stroke-opacity="0.4" stroke-width="0.6"/>
<line x1="445.0" y1="635.7" x2="630.0" y2="526.5" stroke="#30363d" stroke-opacity="0.4" stroke-width="0.6"/>
<line x1="415.1" y1="639.5" x2="630.0" y2="526.5" stroke="#30363d" stroke-opacity="0.4" stroke-width="0.6"/>
<line x1="384.9" y1="639.5" x2="630.0" y2="526.5" stroke="#30363d" stroke-opacity="0.4" stroke-width="0.6"/>
<line x1="355.0" y1="635.7" x2="630.0" y2="526.5" stroke="#30363d" stroke-opacity="0.4" stroke-width="0.6"/>
<line x1="612.4" y1="554.3" x2="630.0" y2="526.5" stroke="#30363d" stroke-opacity="0.4" stroke-width="0.6"/>
<line x1="198.4" y1="289.2" x2="630.0" y2="526.5" stroke="#30363d" stroke-opacity="0.4" stroke-width="0.6"/>
<line x1="213.9" y1="264.8" x2="630.0" y2="526.5" stroke="#30363d" stroke-opacity="0.4" stroke-width="0.6"/>
<line x1="298.9" y1="614.9" x2="630.0" y2="526.5" stroke="#30363d" stroke-opacity="0.4" stroke-width="0.6"/>
<line x1="232.3" y1="242.6" x2="630.0" y2="526.5" stroke="#30363d" stroke-opacity="0.4" stroke-width="0.6"/>
<line x1="253.4" y1="222.8" x2="630.0" y2="526.5" stroke="#30363d" stroke-opacity="0.4" stroke-width="0.6"/>
<line x1="302.1" y1="191.9" x2="630.0" y2="526.5" stroke="#30363d" stroke-opacity="0.4" stroke-width="0.6"/>
<line x1="328.9" y1="181.3" x2="630.0" y2="526.5" stroke="#30363d" stroke-opacity="0.4" stroke-width="0.6"/>
<line x1="584.1" y1="266.3" x2="630.0" y2="526.5" stroke="#30363d" stroke-opacity="0.4" stroke-width="0.6"/>
<line x1="584.1" y1="572.8" x2="659.1" y2="466.5" stroke="#30363d" stroke-opacity="0.4" stroke-width="0.6"/>
<line x1="504.3" y1="621.7" x2="584.1" y2="572.8" stroke="#30363d" stroke-opacity="0.4" stroke-width="0.6"/>
<line x1="475.7" y1="633.0" x2="584.1" y2="572.8" stroke="#30363d" stroke-opacity="0.4" stroke-width="0.6"/>
<line x1="194.1" y1="513.2" x2="584.1" y2="572.8" stroke="#30363d" stroke-opacity="0.4" stroke-width="0.6"/>
<line x1="557.8" y1="590.7" x2="584.1" y2="572.8" stroke="#30363d" stroke-opacity="0.4" stroke-width="0.6"/>
<line x1="445.0" y1="635.7" x2="584.1" y2="572.8" stroke="#30363d" stroke-opacity="0.4" stroke-width="0.6"/>
<line x1="415.1" y1="639.5" x2="584.1" y2="572.8" stroke="#30363d" stroke-opacity="0.4" stroke-width="0.6"/>
<line x1="181.5" y1="486.5" x2="584.1" y2="572.8" stroke="#30363d" stroke-opacity="0.4" stroke-width="0.6"/>
<line x1="384.9" y1="639.5" x2="584.1" y2="572.8" stroke="#30363d" stroke-opacity="0.4" stroke-width="0.6"/>
<line x1="355.0" y1="635.7" x2="584.1" y2="572.8" stroke="#30363d" stroke-opacity="0.4" stroke-width="0.6"/>
<line x1="504.3" y1="621.7" x2="659.1" y2="466.5" stroke="#30363d" stroke-opacity="0.4" stroke-width="0.6"/>
<line x1="475.7" y1="633.0" x2="659.1" y2="466.5" stroke="#30363d" stroke-opacity="0.4" stroke-width="0.6"/>
<line x1="194.1" y1="513.2" x2="659.1" y2="466.5" stroke="#30363d" stroke-opacity="0.4" stroke-width="0.6"/>
<line x1="557.8" y1="590.7" x2="659.1" y2="466.5" stroke="#30363d" stroke-opacity="0.4" stroke-width="0.6"/>
<line x1="445.0" y1="635.7" x2="659.1" y2="466.5" stroke="#30363d" stroke-opacity="0.4" stroke-width="0.6"/>
<line x1="415.1" y1="639.5" x2="659.1" y2="466.5" stroke="#30363d" stroke-opacity="0.4" stroke-width="0.6"/>
<line x1="181.5" y1="486.5" x2="659.1" y2="466.5" stroke="#30363d" stroke-opacity="0.4" stroke-width="0.6"/>
<line x1="384.9" y1="639.5" x2="659.1" y2="466.5" stroke="#30363d" stroke-opacity="0.4" stroke-width="0.6"/>
<line x1="355.0" y1="635.7" x2="659.1" y2="466.5" stroke="#30363d" stroke-opacity="0.4" stroke-width="0.6"/>
<line x1="198.4" y1="289.2" x2="659.1" y2="466.5" stroke="#30363d" stroke-opacity="0.4" stroke-width="0.6"/>
<line x1="213.9" y1="264.8" x2="659.1" y2="466.5" stroke="#30363d" stroke-opacity="0.4" stroke-width="0.6"/>
<line x1="545.0" y1="224.7" x2="659.1" y2="466.5" stroke="#30363d" stroke-opacity="0.4" stroke-width="0.6"/>
<line x1="298.9" y1="614.9" x2="659.1" y2="466.5" stroke="#30363d" stroke-opacity="0.4" stroke-width="0.6"/>
<line x1="232.3" y1="242.6" x2="659.1" y2="466.5" stroke="#30363d" stroke-opacity="0.4" stroke-width="0.6"/>
<line x1="253.4" y1="222.8" x2="659.1" y2="466.5" stroke="#30363d" stroke-opacity="0.4" stroke-width="0.6"/>
<line x1="565.8" y1="244.3" x2="659.1" y2="466.5" stroke="#30363d" stroke-opacity="0.4" stroke-width="0.6"/>
<line x1="302.1" y1="191.9" x2="659.1" y2="466.5" stroke="#30363d" stroke-opacity="0.4" stroke-width="0.6"/>
<line x1="328.9" y1="181.3" x2="659.1" y2="466.5" stroke="#30363d" stroke-opacity="0.4" stroke-width="0.6"/>
<line x1="177.2" y1="342.8" x2="186.2" y2="315.3" stroke="#30363d" stroke-opacity="0.4" stroke-width="0.6"/>
<line x1="504.3" y1="621.7" x2="177.2" y2="342.8" stroke="#30363d" stroke-opacity="0.4" stroke-width="0.6"/>
<line x1="475.7" y1="633.0" x2="177.2" y2="342.8" stroke="#30363d" stroke-opacity="0.4" stroke-width="0.6"/>
<line x1="557.8" y1="590.7" x2="177.2" y2="342.8" stroke="#30363d" stroke-opacity="0.4" stroke-width="0.6"/>
<line x1="504.3" y1="621.7" x2="186.2" y2="315.3" stroke="#30363d" stroke-opacity="0.4" stroke-width="0.6"/>
<line x1="475.7" y1="633.0" x2="186.2" y2="315.3" stroke="#30363d" stroke-opacity="0.4" stroke-width="0.6"/>
<line x1="557.8" y1="590.7" x2="186.2" y2="315.3" stroke="#30363d" stroke-opacity="0.4" stroke-width="0.6"/>
<line x1="504.3" y1="621.7" x2="198.4" y2="289.2" stroke="#30363d" stroke-opacity="0.4" stroke-width="0.6"/>
<line x1="612.4" y1="554.3" x2="504.3" y2="621.7" stroke="#30363d" stroke-opacity="0.4" stroke-width="0.6"/>
<line x1="612.4" y1="554.3" x2="198.4" y2="289.2" stroke="#30363d" stroke-opacity="0.4" stroke-width="0.6"/>
<line x1="475.7" y1="633.0" x2="213.9" y2="264.8" stroke="#30363d" stroke-opacity="0.4" stroke-width="0.6"/>
<line x1="612.4" y1="554.3" x2="475.7" y2="633.0" stroke="#30363d" stroke-opacity="0.4" stroke-width="0.6"/>
<line x1="612.4" y1="554.3" x2="213.9" y2="264.8" stroke="#30363d" stroke-opacity="0.4" stroke-width="0.6"/>
<line x1="680.0" y1="400.0" x2="445.0" y2="635.7" stroke="#30363d" stroke-opacity="0.4" stroke-width="0.6"/>
<line x1="680.0" y1="400.0" x2="232.3" y2="242.6" stroke="#30363d" stroke-opacity="0.4" stroke-width="0.6"/>
<line x1="680.0" y1="400.0" x2="276.8" y2="205.8" stroke="#30363d" stroke-opacity="0.4" stroke-width="0.6"/>
<line x1="680.0" y1="400.0" x2="356.9" y2="174.1" stroke="#30363d" stroke-opacity="0.4" stroke-width="0.6"/>
<line x1="680.0" y1="400.0" x2="384.9" y2="639.5" stroke="#30363d" stroke-opacity="0.4" stroke-width="0.6"/>
<line x1="680.0" y1="400.0" x2="302.1" y2="191.9" stroke="#30363d" stroke-opacity="0.4" stroke-width="0.6"/>
<line x1="680.0" y1="400.0" x2="355.0" y2="635.7" stroke="#30363d" stroke-opacity="0.4" stroke-width="0.6"/>
<line x1="680.0" y1="400.0" x2="328.9" y2="181.3" stroke="#30363d" stroke-opacity="0.4" stroke-width="0.6"/>
<line x1="680.0" y1="400.0" x2="181.5" y2="486.5" stroke="#30363d" stroke-opacity="0.4" stroke-width="0.6"/>
<line x1="680.0" y1="400.0" x2="565.8" y2="244.3" stroke="#30363d" stroke-opacity="0.4" stroke-width="0.6"/>
<line x1="680.0" y1="400.0" x2="415.1" y2="639.5" stroke="#30363d" stroke-opacity="0.4" stroke-width="0.6"/>
<line x1="680.0" y1="400.0" x2="253.4" y2="222.8" stroke="#30363d" stroke-opacity="0.4" stroke-width="0.6"/>
<line x1="612.4" y1="554.3" x2="680.0" y2="400.0" stroke="#30363d" stroke-opacity="0.4" stroke-width="0.6"/>
<line x1="194.1" y1="513.2" x2="545.0" y2="224.7" stroke="#30363d" stroke-opacity="0.4" stroke-width="0.6"/>
<line x1="612.4" y1="554.3" x2="194.1" y2="513.2" stroke="#30363d" stroke-opacity="0.4" stroke-width="0.6"/>
<line x1="612.4" y1="554.3" x2="545.0" y2="224.7" stroke="#30363d" stroke-opacity="0.4" stroke-width="0.6"/>
<line x1="557.8" y1="590.7" x2="298.9" y2="614.9" stroke="#30363d" stroke-opacity="0.4" stroke-width="0.6"/>
<line x1="445.0" y1="635.7" x2="557.8" y2="590.7" stroke="#30363d" stroke-opacity="0.4" stroke-width="0.6"/>
<line x1="415.1" y1="639.5" x2="557.8" y2="590.7" stroke="#30363d" stroke-opacity="0.4" stroke-width="0.6"/>
<line x1="384.9" y1="639.5" x2="557.8" y2="590.7" stroke="#30363d" stroke-opacity="0.4" stroke-width="0.6"/>
<line x1="355.0" y1="635.7" x2="557.8" y2="590.7" stroke="#30363d" stroke-opacity="0.4" stroke-width="0.6"/>
<line x1="445.0" y1="635.7" x2="298.9" y2="614.9" stroke="#30363d" stroke-opacity="0.4" stroke-width="0.6"/>
<line x1="415.1" y1="639.5" x2="298.9" y2="614.9" stroke="#30363d" stroke-opacity="0.4" stroke-width="0.6"/>
<line x1="384.9" y1="639.5" x2="298.9" y2="614.9" stroke="#30363d" stroke-opacity="0.4" stroke-width="0.6"/>
<line x1="355.0" y1="635.7" x2="298.9" y2="614.9" stroke="#30363d" stroke-opacity="0.4" stroke-width="0.6"/>
<line x1="445.0" y1="635.7" x2="232.3" y2="242.6" stroke="#30363d" stroke-opacity="0.4" stroke-width="0.6"/>
<line x1="415.1" y1="639.5" x2="253.4" y2="222.8" stroke="#30363d" stroke-opacity="0.4" stroke-width="0.6"/>
<line x1="181.5" y1="486.5" x2="565.8" y2="244.3" stroke="#30363d" stroke-opacity="0.4" stroke-width="0.6"/>
<line x1="384.9" y1="639.5" x2="302.1" y2="191.9" stroke="#30363d" stroke-opacity="0.4" stroke-width="0.6"/>
<line x1="355.0" y1="635.7" x2="328.9" y2="181.3" stroke="#30363d" stroke-opacity="0.4" stroke-width="0.6"/>
<line x1="612.4" y1="554.3" x2="584.1" y2="266.3" stroke="#30363d" stroke-opacity="0.4" stroke-width="0.6"/>
<line x1="272.7" y1="600.5" x2="599.4" y2="290.4" stroke="#30363d" stroke-opacity="0.4" stroke-width="0.6"/>
<line x1="169.3" y1="429.1" x2="385.6" y2="170.5" stroke="#30363d" stroke-opacity="0.4" stroke-width="0.6"/>
<line x1="169.3" y1="429.1" x2="611.5" y2="316.3" stroke="#30363d" stroke-opacity="0.4" stroke-width="0.6"/>
<circle cx="680.0" cy="400.0" r="9.5" fill="#FF6B6B" opacity="0.8" filter="url(#glow)"/>
<text x="680.0" y="416.5" text-anchor="middle" fill="#8b949e" font-size="6" font-family="monospace">LandingPage.jsx</text>
<circle cx="667.9" cy="433.8" r="8.5" fill="#4ECDC4" opacity="0.8" filter="url(#glow)"/>
<text x="667.9" y="449.3" text-anchor="middle" fill="#8b949e" font-size="6" font-family="monospace">deploy.mjs</text>
<circle cx="659.1" cy="466.5" r="8.2" fill="#FF6B6B" opacity="0.8" filter="url(#glow)"/>
<text x="659.1" y="481.8" text-anchor="middle" fill="#8b949e" font-size="6" font-family="monospace">useToast()</text>
<circle cx="644.1" cy="496.6" r="7.8" fill="#96CEB4" opacity="0.8" filter="url(#glow)"/>
<text x="644.1" y="511.4" text-anchor="middle" fill="#8b949e" font-size="6" font-family="monospace">AuthContext.jsx</text>
<circle cx="630.0" cy="526.5" r="7.8" fill="#FF6B6B" opacity="0.8" filter="url(#glow)"/>
<text x="630.0" y="541.2" text-anchor="middle" fill="#8b949e" font-size="6" font-family="monospace">useAuth()</text>
<circle cx="612.4" cy="554.3" r="7.8" fill="#45B7D1" opacity="0.8" filter="url(#glow)"/>
<text x="612.4" y="569.0" text-anchor="middle" fill="#8b949e" font-size="6" font-family="monospace">Router.jsx</text>
<circle cx="584.1" cy="572.8" r="6.8" fill="#FF6B6B" opacity="0.8" filter="url(#glow)"/>
<text x="584.1" y="586.6" text-anchor="middle" fill="#8b949e" font-size="6" font-family="monospace">ToastContext.jsx</text>
<circle cx="557.8" cy="590.7" r="6.2" fill="#FF6B6B" opacity="0.8" filter="url(#glow)"/>
<text x="557.8" y="604.0" text-anchor="middle" fill="#8b949e" font-size="6" font-family="monospace">AuthModal.jsx</text>
<circle cx="531.3" cy="606.9" r="6.0" fill="#96CEB4" opacity="0.8" filter="url(#glow)"/>
<text x="531.3" y="619.9" text-anchor="middle" fill="#8b949e" font-size="6" font-family="monospace">firebase.js</text>
<circle cx="504.3" cy="621.7" r="6.0" fill="#96CEB4" opacity="0.8" filter="url(#glow)"/>
<text x="504.3" y="634.7" text-anchor="middle" fill="#8b949e" font-size="6" font-family="monospace">AdminPanel.jsx</text>
<circle cx="475.7" cy="633.0" r="6.0" fill="#96CEB4" opacity="0.8" filter="url(#glow)"/>
<text x="475.7" y="646.0" text-anchor="middle" fill="#8b949e" font-size="6" font-family="monospace">Dashboard.jsx</text>
<circle cx="445.0" cy="635.7" r="5.5" fill="#FF6B6B" opacity="0.8" filter="url(#glow)"/>
<circle cx="415.1" cy="639.5" r="5.5" fill="#FF6B6B" opacity="0.8" filter="url(#glow)"/>
<circle cx="384.9" cy="639.5" r="5.5" fill="#FF6B6B" opacity="0.8" filter="url(#glow)"/>
<circle cx="355.0" cy="635.7" r="5.5" fill="#FF6B6B" opacity="0.8" filter="url(#glow)"/>
<circle cx="326.6" cy="625.9" r="5.2" fill="#4ECDC4" opacity="0.8" filter="url(#glow)"/>
<circle cx="298.9" cy="614.9" r="5.2" fill="#FF6B6B" opacity="0.8" filter="url(#glow)"/>
<circle cx="272.7" cy="600.5" r="5.2" fill="#FFEAA7" opacity="0.8" filter="url(#glow)"/>
<circle cx="250.2" cy="581.1" r="5.0" fill="#4ECDC4" opacity="0.8" filter="url(#glow)"/>
<circle cx="228.7" cy="560.9" r="5.0" fill="#45B7D1" opacity="0.8" filter="url(#glow)"/>
<circle cx="209.9" cy="538.1" r="5.0" fill="#96CEB4" opacity="0.8" filter="url(#glow)"/>
<circle cx="194.1" cy="513.2" r="5.0" fill="#45B7D1" opacity="0.8" filter="url(#glow)"/>
<circle cx="181.5" cy="486.5" r="5.0" fill="#FF6B6B" opacity="0.8" filter="url(#glow)"/>
<circle cx="174.8" cy="457.8" r="4.8" fill="#4ECDC4" opacity="0.8" filter="url(#glow)"/>
<circle cx="169.3" cy="429.1" r="4.8" fill="#DDA0DD" opacity="0.8" filter="url(#glow)"/>
<circle cx="170.0" cy="400.0" r="4.5" fill="#4ECDC4" opacity="0.8" filter="url(#glow)"/>
<circle cx="171.8" cy="371.2" r="4.5" fill="#4ECDC4" opacity="0.8" filter="url(#glow)"/>
<circle cx="177.2" cy="342.8" r="4.5" fill="#96CEB4" opacity="0.8" filter="url(#glow)"/>
<circle cx="186.2" cy="315.3" r="4.5" fill="#96CEB4" opacity="0.8" filter="url(#glow)"/>
<circle cx="198.4" cy="289.2" r="4.5" fill="#FF6B6B" opacity="0.8" filter="url(#glow)"/>
<circle cx="213.9" cy="264.8" r="4.5" fill="#FF6B6B" opacity="0.8" filter="url(#glow)"/>
<circle cx="232.3" cy="242.6" r="4.5" fill="#FF6B6B" opacity="0.8" filter="url(#glow)"/>
<circle cx="253.4" cy="222.8" r="4.5" fill="#FF6B6B" opacity="0.8" filter="url(#glow)"/>
<circle cx="276.8" cy="205.8" r="4.5" fill="#98D8C8" opacity="0.8" filter="url(#glow)"/>
<circle cx="302.1" cy="191.9" r="4.5" fill="#FF6B6B" opacity="0.8" filter="url(#glow)"/>
<circle cx="328.9" cy="181.3" r="4.5" fill="#FF6B6B" opacity="0.8" filter="url(#glow)"/>
<circle cx="356.9" cy="174.1" r="4.5" fill="#F7DC6F" opacity="0.8" filter="url(#glow)"/>
<circle cx="385.6" cy="170.5" r="4.5" fill="#DDA0DD" opacity="0.8" filter="url(#glow)"/>
<circle cx="414.3" cy="172.9" r="4.2" fill="#4ECDC4" opacity="0.8" filter="url(#glow)"/>
<circle cx="442.6" cy="176.5" r="4.2" fill="#4ECDC4" opacity="0.8" filter="url(#glow)"/>
<circle cx="470.3" cy="183.6" r="4.2" fill="#4ECDC4" opacity="0.8" filter="url(#glow)"/>
<circle cx="496.9" cy="194.2" r="4.2" fill="#4ECDC4" opacity="0.8" filter="url(#glow)"/>
<circle cx="521.9" cy="207.9" r="4.2" fill="#4ECDC4" opacity="0.8" filter="url(#glow)"/>
<circle cx="545.0" cy="224.7" r="4.2" fill="#45B7D1" opacity="0.8" filter="url(#glow)"/>
<circle cx="565.8" cy="244.3" r="4.2" fill="#FF6B6B" opacity="0.8" filter="url(#glow)"/>
<circle cx="584.1" cy="266.3" r="4.2" fill="#45B7D1" opacity="0.8" filter="url(#glow)"/>
<circle cx="599.4" cy="290.4" r="4.2" fill="#FFEAA7" opacity="0.8" filter="url(#glow)"/>
<circle cx="611.5" cy="316.3" r="4.2" fill="#DDA0DD" opacity="0.8" filter="url(#glow)"/>
<circle cx="617.9" cy="344.0" r="4.0" fill="#555" opacity="0.8" filter="url(#glow)"/>
<circle cx="623.2" cy="371.8" r="4.0" fill="#555" opacity="0.8" filter="url(#glow)"/>
<text x="400" y="28" text-anchor="middle" fill="#e6edf3" font-size="13" font-family="sans-serif" font-weight="bold">kitavex</text>
<text x="400" y="46" text-anchor="middle" fill="#484f58" font-size="9" font-family="monospace">113 nodes · 216 links · 14 communities</text>
<rect x="15" y="697" width="8" height="8" fill="#FF6B6B" rx="1.5" alpha="0.8"/>
<text x="28" y="704" fill="#6e7681" font-size="7" font-family="monospace">C0: useAuth() (27)</text>
<rect x="15" y="709" width="8" height="8" fill="#4ECDC4" rx="1.5" alpha="0.8"/>
<text x="28" y="716" fill="#6e7681" font-size="7" font-family="monospace">C1: deploy.mjs (21)</text>
<rect x="15" y="721" width="8" height="8" fill="#45B7D1" rx="1.5" alpha="0.8"/>
<text x="28" y="728" fill="#6e7681" font-size="7" font-family="monospace">C3: main.jsx (13)</text>
<rect x="15" y="733" width="8" height="8" fill="#96CEB4" rx="1.5" alpha="0.8"/>
<text x="28" y="740" fill="#6e7681" font-size="7" font-family="monospace">C2: firebase.js (13)</text>
<rect x="15" y="745" width="8" height="8" fill="#FFEAA7" rx="1.5" alpha="0.8"/>
<text x="28" y="752" fill="#6e7681" font-size="7" font-family="monospace">C4: README.md (12)</text>
<rect x="15" y="757" width="8" height="8" fill="#DDA0DD" rx="1.5" alpha="0.8"/>
<text x="28" y="764" fill="#6e7681" font-size="7" font-family="monospace">C5: DOCUMENTATION.md (11)</text>
<rect x="15" y="769" width="8" height="8" fill="#98D8C8" rx="1.5" alpha="0.8"/>
<text x="28" y="776" fill="#6e7681" font-size="7" font-family="monospace">C6: WhoItsFor.jsx (4)</text>
<rect x="15" y="781" width="8" height="8" fill="#F7DC6F" rx="1.5" alpha="0.8"/>
<text x="28" y="788" fill="#6e7681" font-size="7" font-family="monospace">C7: HowItWorks.jsx (4)</text>
</svg>