<?xml version="1.0" encoding="UTF-8"?>
<svg xmlns="http://www.w3.org/2000/svg" viewBox="0 0 800 800" width="800" height="800">
<defs><filter id="glow"><feGaussianBlur stdDeviation="1.5" result="coloredBlur"/><feMerge><feMergeNode in="coloredBlur"/><feMergeNode in="SourceGraphic"/></feMerge></filter></defs>
<rect width="800" height="800" fill="#0d1117"/>
<line x1="616.4" y1="557.2" x2="625.7" y2="371.5" stroke="#30363d" stroke-opacity="0.4" stroke-width="0.6"/>
<line x1="616.4" y1="557.2" x2="443.1" y2="174.1" stroke="#30363d" stroke-opacity="0.4" stroke-width="0.6"/>
<line x1="616.4" y1="557.2" x2="471.1" y2="181.3" stroke="#30363d" stroke-opacity="0.4" stroke-width="0.6"/>
<line x1="616.4" y1="557.2" x2="230.5" y2="240.8" stroke="#30363d" stroke-opacity="0.4" stroke-width="0.6"/>
<line x1="616.4" y1="557.2" x2="181.5" y2="313.5" stroke="#30363d" stroke-opacity="0.4" stroke-width="0.6"/>
<line x1="616.4" y1="557.2" x2="194.1" y2="286.8" stroke="#30363d" stroke-opacity="0.4" stroke-width="0.6"/>
<line x1="230.5" y1="240.8" x2="625.7" y2="371.5" stroke="#30363d" stroke-opacity="0.4" stroke-width="0.6"/>
<line x1="181.5" y1="313.5" x2="625.7" y2="371.5" stroke="#30363d" stroke-opacity="0.4" stroke-width="0.6"/>
<line x1="181.5" y1="313.5" x2="471.1" y2="181.3" stroke="#30363d" stroke-opacity="0.4" stroke-width="0.6"/>
<line x1="194.1" y1="286.8" x2="230.5" y2="240.8" stroke="#30363d" stroke-opacity="0.4" stroke-width="0.6"/>
<line x1="194.1" y1="286.8" x2="181.5" y2="313.5" stroke="#30363d" stroke-opacity="0.4" stroke-width="0.6"/>
<line x1="693.0" y1="475.2" x2="638.8" y2="531.3" stroke="#30363d" stroke-opacity="0.4" stroke-width="0.6"/>
<line x1="693.0" y1="475.2" x2="523.2" y2="205.8" stroke="#30363d" stroke-opacity="0.4" stroke-width="0.6"/>
<line x1="693.0" y1="475.2" x2="416.0" y2="654.5" stroke="#30363d" stroke-opacity="0.4" stroke-width="0.6"/>
<line x1="693.0" y1="475.2" x2="705.1" y2="438.5" stroke="#30363d" stroke-opacity="0.4" stroke-width="0.6"/>
<line x1="693.0" y1="475.2" x2="324.3" y2="633.0" stroke="#30363d" stroke-opacity="0.4" stroke-width="0.6"/>
<line x1="693.0" y1="475.2" x2="539.3" y2="619.5" stroke="#30363d" stroke-opacity="0.4" stroke-width="0.6"/>
<line x1="693.0" y1="475.2" x2="205.8" y2="541.1" stroke="#30363d" stroke-opacity="0.4" stroke-width="0.6"/>
<line x1="693.0" y1="475.2" x2="170.0" y2="340.9" stroke="#30363d" stroke-opacity="0.4" stroke-width="0.6"/>
<line x1="693.0" y1="475.2" x2="509.6" y2="633.0" stroke="#30363d" stroke-opacity="0.4" stroke-width="0.6"/>
<line x1="693.0" y1="475.2" x2="660.3" y2="503.1" stroke="#30363d" stroke-opacity="0.4" stroke-width="0.6"/>
<line x1="693.0" y1="475.2" x2="164.4" y2="429.8" stroke="#30363d" stroke-opacity="0.4" stroke-width="0.6"/>
<line x1="693.0" y1="475.2" x2="225.0" y2="564.3" stroke="#30363d" stroke-opacity="0.4" stroke-width="0.6"/>
<line x1="693.0" y1="475.2" x2="164.4" y2="370.2" stroke="#30363d" stroke-opacity="0.4" stroke-width="0.6"/>
<line x1="693.0" y1="475.2" x2="162.5" y2="400.0" stroke="#30363d" stroke-opacity="0.4" stroke-width="0.6"/>
<line x1="693.0" y1="475.2" x2="209.9" y2="261.9" stroke="#30363d" stroke-opacity="0.4" stroke-width="0.6"/>
<line x1="693.0" y1="475.2" x2="296.7" y2="619.4" stroke="#30363d" stroke-opacity="0.4" stroke-width="0.6"/>
<line x1="191.9" y1="514.4" x2="509.6" y2="633.0" stroke="#30363d" stroke-opacity="0.4" stroke-width="0.6"/>
<line x1="191.9" y1="514.4" x2="660.3" y2="503.1" stroke="#30363d" stroke-opacity="0.4" stroke-width="0.6"/>
<line x1="191.9" y1="514.4" x2="539.3" y2="619.5" stroke="#30363d" stroke-opacity="0.4" stroke-width="0.6"/>
<line x1="191.9" y1="514.4" x2="205.8" y2="541.1" stroke="#30363d" stroke-opacity="0.4" stroke-width="0.6"/>
<line x1="191.9" y1="514.4" x2="385.4" y2="168.0" stroke="#30363d" stroke-opacity="0.4" stroke-width="0.6"/>
<line x1="416.0" y1="654.5" x2="191.9" y2="514.4" stroke="#30363d" stroke-opacity="0.4" stroke-width="0.6"/>
<line x1="638.8" y1="531.3" x2="509.6" y2="633.0" stroke="#30363d" stroke-opacity="0.4" stroke-width="0.6"/>
<line x1="638.8" y1="531.3" x2="660.3" y2="503.1" stroke="#30363d" stroke-opacity="0.4" stroke-width="0.6"/>
<line x1="638.8" y1="531.3" x2="539.3" y2="619.5" stroke="#30363d" stroke-opacity="0.4" stroke-width="0.6"/>
<line x1="638.8" y1="531.3" x2="205.8" y2="541.1" stroke="#30363d" stroke-opacity="0.4" stroke-width="0.6"/>
<line x1="638.8" y1="531.3" x2="385.4" y2="168.0" stroke="#30363d" stroke-opacity="0.4" stroke-width="0.6"/>
<line x1="638.8" y1="531.3" x2="225.0" y2="564.3" stroke="#30363d" stroke-opacity="0.4" stroke-width="0.6"/>
<line x1="638.8" y1="531.3" x2="164.4" y2="370.2" stroke="#30363d" stroke-opacity="0.4" stroke-width="0.6"/>
<line x1="638.8" y1="531.3" x2="593.2" y2="581.4" stroke="#30363d" stroke-opacity="0.4" stroke-width="0.6"/>
<line x1="638.8" y1="531.3" x2="384.5" y2="647.0" stroke="#30363d" stroke-opacity="0.4" stroke-width="0.6"/>
<line x1="638.8" y1="531.3" x2="301.0" y2="189.6" stroke="#30363d" stroke-opacity="0.4" stroke-width="0.6"/>
<line x1="638.8" y1="531.3" x2="356.4" y2="171.6" stroke="#30363d" stroke-opacity="0.4" stroke-width="0.6"/>
<line x1="638.8" y1="531.3" x2="328.2" y2="178.9" stroke="#30363d" stroke-opacity="0.4" stroke-width="0.6"/>
<line x1="705.1" y1="438.5" x2="251.8" y2="220.9" stroke="#30363d" stroke-opacity="0.4" stroke-width="0.6"/>
<line x1="416.0" y1="654.5" x2="497.9" y2="191.9" stroke="#30363d" stroke-opacity="0.4" stroke-width="0.6"/>
<line x1="523.2" y1="205.8" x2="509.6" y2="633.0" stroke="#30363d" stroke-opacity="0.4" stroke-width="0.6"/>
<line x1="523.2" y1="205.8" x2="660.3" y2="503.1" stroke="#30363d" stroke-opacity="0.4" stroke-width="0.6"/>
<line x1="247.0" y1="584.9" x2="586.1" y2="264.8" stroke="#30363d" stroke-opacity="0.4" stroke-width="0.6"/>
<line x1="247.0" y1="584.9" x2="509.6" y2="633.0" stroke="#30363d" stroke-opacity="0.4" stroke-width="0.6"/>
<line x1="247.0" y1="584.9" x2="660.3" y2="503.1" stroke="#30363d" stroke-opacity="0.4" stroke-width="0.6"/>
<line x1="247.0" y1="584.9" x2="539.3" y2="619.5" stroke="#30363d" stroke-opacity="0.4" stroke-width="0.6"/>
<line x1="247.0" y1="584.9" x2="205.8" y2="541.1" stroke="#30363d" stroke-opacity="0.4" stroke-width="0.6"/>
<line x1="247.0" y1="584.9" x2="385.4" y2="168.0" stroke="#30363d" stroke-opacity="0.4" stroke-width="0.6"/>
<line x1="416.0" y1="654.5" x2="247.0" y2="584.9" stroke="#30363d" stroke-opacity="0.4" stroke-width="0.6"/>
<line x1="416.0" y1="654.5" x2="275.4" y2="203.7" stroke="#30363d" stroke-opacity="0.4" stroke-width="0.6"/>
<line x1="179.2" y1="487.4" x2="509.6" y2="633.0" stroke="#30363d" stroke-opacity="0.4" stroke-width="0.6"/>
<line x1="179.2" y1="487.4" x2="660.3" y2="503.1" stroke="#30363d" stroke-opacity="0.4" stroke-width="0.6"/>
<line x1="179.2" y1="487.4" x2="539.3" y2="619.5" stroke="#30363d" stroke-opacity="0.4" stroke-width="0.6"/>
<line x1="179.2" y1="487.4" x2="170.0" y2="340.9" stroke="#30363d" stroke-opacity="0.4" stroke-width="0.6"/>
<line x1="416.0" y1="654.5" x2="179.2" y2="487.4" stroke="#30363d" stroke-opacity="0.4" stroke-width="0.6"/>
<line x1="170.0" y1="459.1" x2="447.8" y2="650.5" stroke="#30363d" stroke-opacity="0.4" stroke-width="0.6"/>
<line x1="170.0" y1="459.1" x2="757.5" y2="400.0" stroke="#30363d" stroke-opacity="0.4" stroke-width="0.6"/>
<line x1="354.1" y1="640.7" x2="447.8" y2="650.5" stroke="#30363d" stroke-opacity="0.4" stroke-width="0.6"/>
<line x1="354.1" y1="640.7" x2="757.5" y2="400.0" stroke="#30363d" stroke-opacity="0.4" stroke-width="0.6"/>
<line x1="705.1" y1="438.5" x2="354.1" y2="640.7" stroke="#30363d" stroke-opacity="0.4" stroke-width="0.6"/>
<line x1="546.6" y1="222.8" x2="447.8" y2="650.5" stroke="#30363d" stroke-opacity="0.4" stroke-width="0.6"/>
<line x1="546.6" y1="222.8" x2="757.5" y2="400.0" stroke="#30363d" stroke-opacity="0.4" stroke-width="0.6"/>
<line x1="164.4" y1="429.8" x2="447.8" y2="650.5" stroke="#30363d" stroke-opacity="0.4" stroke-width="0.6"/>
<line x1="164.4" y1="429.8" x2="757.5" y2="400.0" stroke="#30363d" stroke-opacity="0.4" stroke-width="0.6"/>
<line x1="384.5" y1="647.0" x2="447.8" y2="650.5" stroke="#30363d" stroke-opacity="0.4" stroke-width="0.6"/>
<line x1="384.5" y1="647.0" x2="757.5" y2="400.0" stroke="#30363d" stroke-opacity="0.4" stroke-width="0.6"/>
<line x1="384.5" y1="647.0" x2="301.0" y2="189.6" stroke="#30363d" stroke-opacity="0.4" stroke-width="0.6"/>
<line x1="384.5" y1="647.0" x2="328.2" y2="178.9" stroke="#30363d" stroke-opacity="0.4" stroke-width="0.6"/>
<line x1="384.5" y1="647.0" x2="356.4" y2="171.6" stroke="#30363d" stroke-opacity="0.4" stroke-width="0.6"/>
<line x1="565.7" y1="600.3" x2="384.5" y2="647.0" stroke="#30363d" stroke-opacity="0.4" stroke-width="0.6"/>
<line x1="705.1" y1="438.5" x2="384.5" y2="647.0" stroke="#30363d" stroke-opacity="0.4" stroke-width="0.6"/>
<line x1="565.7" y1="600.3" x2="301.0" y2="189.6" stroke="#30363d" stroke-opacity="0.4" stroke-width="0.6"/>
<line x1="705.1" y1="438.5" x2="301.0" y2="189.6" stroke="#30363d" stroke-opacity="0.4" stroke-width="0.6"/>
<line x1="301.0" y1="189.6" x2="757.5" y2="400.0" stroke="#30363d" stroke-opacity="0.4" stroke-width="0.6"/>
<line x1="565.7" y1="600.3" x2="328.2" y2="178.9" stroke="#30363d" stroke-opacity="0.4" stroke-width="0.6"/>
<line x1="705.1" y1="438.5" x2="328.2" y2="178.9" stroke="#30363d" stroke-opacity="0.4" stroke-width="0.6"/>
<line x1="328.2" y1="178.9" x2="757.5" y2="400.0" stroke="#30363d" stroke-opacity="0.4" stroke-width="0.6"/>
<line x1="565.7" y1="600.3" x2="356.4" y2="171.6" stroke="#30363d" stroke-opacity="0.4" stroke-width="0.6"/>
<line x1="705.1" y1="438.5" x2="356.4" y2="171.6" stroke="#30363d" stroke-opacity="0.4" stroke-width="0.6"/>
<line x1="356.4" y1="171.6" x2="757.5" y2="400.0" stroke="#30363d" stroke-opacity="0.4" stroke-width="0.6"/>
<line x1="478.8" y1="642.5" x2="447.8" y2="650.5" stroke="#30363d" stroke-opacity="0.4" stroke-width="0.6"/>
<line x1="478.8" y1="642.5" x2="757.5" y2="400.0" stroke="#30363d" stroke-opacity="0.4" stroke-width="0.6"/>
<line x1="478.8" y1="642.5" x2="225.0" y2="564.3" stroke="#30363d" stroke-opacity="0.4" stroke-width="0.6"/>
<line x1="478.8" y1="642.5" x2="164.4" y2="370.2" stroke="#30363d" stroke-opacity="0.4" stroke-width="0.6"/>
<line x1="162.5" y1="400.0" x2="447.8" y2="650.5" stroke="#30363d" stroke-opacity="0.4" stroke-width="0.6"/>
<line x1="162.5" y1="400.0" x2="757.5" y2="400.0" stroke="#30363d" stroke-opacity="0.4" stroke-width="0.6"/>
<line x1="162.5" y1="400.0" x2="209.9" y2="261.9" stroke="#30363d" stroke-opacity="0.4" stroke-width="0.6"/>
<line x1="705.1" y1="438.5" x2="162.5" y2="400.0" stroke="#30363d" stroke-opacity="0.4" stroke-width="0.6"/>
<line x1="324.3" y1="633.0" x2="162.5" y2="400.0" stroke="#30363d" stroke-opacity="0.4" stroke-width="0.6"/>
<line x1="705.1" y1="438.5" x2="209.9" y2="261.9" stroke="#30363d" stroke-opacity="0.4" stroke-width="0.6"/>
<line x1="324.3" y1="633.0" x2="209.9" y2="261.9" stroke="#30363d" stroke-opacity="0.4" stroke-width="0.6"/>
<line x1="209.9" y1="261.9" x2="757.5" y2="400.0" stroke="#30363d" stroke-opacity="0.4" stroke-width="0.6"/>
<line x1="225.0" y1="564.3" x2="447.8" y2="650.5" stroke="#30363d" stroke-opacity="0.4" stroke-width="0.6"/>
<line x1="225.0" y1="564.3" x2="757.5" y2="400.0" stroke="#30363d" stroke-opacity="0.4" stroke-width="0.6"/>
<line x1="225.0" y1="564.3" x2="164.4" y2="370.2" stroke="#30363d" stroke-opacity="0.4" stroke-width="0.6"/>
<line x1="705.1" y1="438.5" x2="225.0" y2="564.3" stroke="#30363d" stroke-opacity="0.4" stroke-width="0.6"/>
<line x1="705.1" y1="438.5" x2="164.4" y2="370.2" stroke="#30363d" stroke-opacity="0.4" stroke-width="0.6"/>
<line x1="164.4" y1="370.2" x2="757.5" y2="400.0" stroke="#30363d" stroke-opacity="0.4" stroke-width="0.6"/>
<line x1="593.2" y1="581.4" x2="447.8" y2="650.5" stroke="#30363d" stroke-opacity="0.4" stroke-width="0.6"/>
<line x1="593.2" y1="581.4" x2="757.5" y2="400.0" stroke="#30363d" stroke-opacity="0.4" stroke-width="0.6"/>
<line x1="567.7" y1="242.6" x2="447.8" y2="650.5" stroke="#30363d" stroke-opacity="0.4" stroke-width="0.6"/>
<line x1="567.7" y1="242.6" x2="757.5" y2="400.0" stroke="#30363d" stroke-opacity="0.4" stroke-width="0.6"/>
<line x1="705.1" y1="438.5" x2="567.7" y2="242.6" stroke="#30363d" stroke-opacity="0.4" stroke-width="0.6"/>
<line x1="296.7" y1="619.4" x2="539.3" y2="619.5" stroke="#30363d" stroke-opacity="0.4" stroke-width="0.6"/>
<line x1="296.7" y1="619.4" x2="205.8" y2="541.1" stroke="#30363d" stroke-opacity="0.4" stroke-width="0.6"/>
<line x1="296.7" y1="619.4" x2="385.4" y2="168.0" stroke="#30363d" stroke-opacity="0.4" stroke-width="0.6"/>
<line x1="296.7" y1="619.4" x2="170.0" y2="340.9" stroke="#30363d" stroke-opacity="0.4" stroke-width="0.6"/>
<line x1="296.7" y1="619.4" x2="509.6" y2="633.0" stroke="#30363d" stroke-opacity="0.4" stroke-width="0.6"/>
<line x1="296.7" y1="619.4" x2="660.3" y2="503.1" stroke="#30363d" stroke-opacity="0.4" stroke-width="0.6"/>
<line x1="565.7" y1="600.3" x2="586.1" y2="264.8" stroke="#30363d" stroke-opacity="0.4" stroke-width="0.6"/>
<line x1="705.1" y1="438.5" x2="586.1" y2="264.8" stroke="#30363d" stroke-opacity="0.4" stroke-width="0.6"/>
<line x1="565.7" y1="600.3" x2="509.6" y2="633.0" stroke="#30363d" stroke-opacity="0.4" stroke-width="0.6"/>
<line x1="565.7" y1="600.3" x2="660.3" y2="503.1" stroke="#30363d" stroke-opacity="0.4" stroke-width="0.6"/>
<line x1="565.7" y1="600.3" x2="539.3" y2="619.5" stroke="#30363d" stroke-opacity="0.4" stroke-width="0.6"/>
<line x1="565.7" y1="600.3" x2="205.8" y2="541.1" stroke="#30363d" stroke-opacity="0.4" stroke-width="0.6"/>
<line x1="705.1" y1="438.5" x2="565.7" y2="600.3" stroke="#30363d" stroke-opacity="0.4" stroke-width="0.6"/>
<line x1="324.3" y1="633.0" x2="565.7" y2="600.3" stroke="#30363d" stroke-opacity="0.4" stroke-width="0.6"/>
<line x1="539.3" y1="619.5" x2="205.8" y2="541.1" stroke="#30363d" stroke-opacity="0.4" stroke-width="0.6"/>
<line x1="539.3" y1="619.5" x2="170.0" y2="340.9" stroke="#30363d" stroke-opacity="0.4" stroke-width="0.6"/>
<line x1="539.3" y1="619.5" x2="385.4" y2="168.0" stroke="#30363d" stroke-opacity="0.4" stroke-width="0.6"/>
<line x1="705.1" y1="438.5" x2="539.3" y2="619.5" stroke="#30363d" stroke-opacity="0.4" stroke-width="0.6"/>
<line x1="324.3" y1="633.0" x2="539.3" y2="619.5" stroke="#30363d" stroke-opacity="0.4" stroke-width="0.6"/>
<line x1="509.6" y1="633.0" x2="539.3" y2="619.5" stroke="#30363d" stroke-opacity="0.4" stroke-width="0.6"/>
<line x1="705.1" y1="438.5" x2="205.8" y2="541.1" stroke="#30363d" stroke-opacity="0.4" stroke-width="0.6"/>
<line x1="705.1" y1="438.5" x2="170.0" y2="340.9" stroke="#30363d" stroke-opacity="0.4" stroke-width="0.6"/>
<line x1="324.3" y1="633.0" x2="170.0" y2="340.9" stroke="#30363d" stroke-opacity="0.4" stroke-width="0.6"/>
<line x1="509.6" y1="633.0" x2="170.0" y2="340.9" stroke="#30363d" stroke-opacity="0.4" stroke-width="0.6"/>
<line x1="447.8" y1="650.5" x2="757.5" y2="400.0" stroke="#30363d" stroke-opacity="0.4" stroke-width="0.6"/>
<line x1="705.1" y1="438.5" x2="509.6" y2="633.0" stroke="#30363d" stroke-opacity="0.4" stroke-width="0.6"/>
<line x1="705.1" y1="438.5" x2="660.3" y2="503.1" stroke="#30363d" stroke-opacity="0.4" stroke-width="0.6"/>
<line x1="705.1" y1="438.5" x2="414.6" y2="168.0" stroke="#30363d" stroke-opacity="0.4" stroke-width="0.6"/>
<line x1="324.3" y1="633.0" x2="509.6" y2="633.0" stroke="#30363d" stroke-opacity="0.4" stroke-width="0.6"/>
<line x1="324.3" y1="633.0" x2="660.3" y2="503.1" stroke="#30363d" stroke-opacity="0.4" stroke-width="0.6"/>
<line x1="509.6" y1="633.0" x2="660.3" y2="503.1" stroke="#30363d" stroke-opacity="0.4" stroke-width="0.6"/>
<line x1="601.6" y1="289.2" x2="613.8" y2="315.3" stroke="#30363d" stroke-opacity="0.4" stroke-width="0.6"/>
<circle cx="757.5" cy="400.0" r="10.0" fill="#FF6B6B" opacity="0.8" filter="url(#glow)"/>
<text x="757.5" y="417.0" text-anchor="middle" fill="#8b949e" font-size="6" font-family="monospace">cn()</text>
<circle cx="705.1" cy="438.5" r="10.0" fill="#45B7D1" opacity="0.8" filter="url(#glow)"/>
<text x="705.1" y="455.5" text-anchor="middle" fill="#8b949e" font-size="6" font-family="monospace">Dashboard.tsx</text>
<circle cx="693.0" cy="475.2" r="10.0" fill="#4ECDC4" opacity="0.8" filter="url(#glow)"/>
<text x="693.0" y="492.2" text-anchor="middle" fill="#8b949e" font-size="6" font-family="monospace">App.tsx</text>
<circle cx="660.3" cy="503.1" r="9.5" fill="#4ECDC4" opacity="0.8" filter="url(#glow)"/>
<text x="660.3" y="519.6" text-anchor="middle" fill="#8b949e" font-size="6" font-family="monospace">useStore</text>
<circle cx="638.8" cy="531.3" r="8.8" fill="#FF6B6B" opacity="0.8" filter="url(#glow)"/>
<text x="638.8" y="547.0" text-anchor="middle" fill="#8b949e" font-size="6" font-family="monospace">Navbar.tsx</text>
<circle cx="616.4" cy="557.2" r="8.2" fill="#96CEB4" opacity="0.8" filter="url(#glow)"/>
<text x="616.4" y="572.5" text-anchor="middle" fill="#8b949e" font-size="6" font-family="monospace">deploy.mjs</text>
<circle cx="593.2" cy="581.4" r="8.0" fill="#FF6B6B" opacity="0.8" filter="url(#glow)"/>
<text x="593.2" y="596.4" text-anchor="middle" fill="#8b949e" font-size="6" font-family="monospace">dropdown-menu.tsx</text>
<circle cx="565.7" cy="600.3" r="7.5" fill="#45B7D1" opacity="0.8" filter="url(#glow)"/>
<text x="565.7" y="614.8" text-anchor="middle" fill="#8b949e" font-size="6" font-family="monospace">DashboardLayout.tsx</text>
<circle cx="539.3" cy="619.5" r="7.5" fill="#4ECDC4" opacity="0.8" filter="url(#glow)"/>
<text x="539.3" y="634.0" text-anchor="middle" fill="#8b949e" font-size="6" font-family="monospace">firebase.ts</text>
<circle cx="509.6" cy="633.0" r="7.2" fill="#4ECDC4" opacity="0.8" filter="url(#glow)"/>
<text x="509.6" y="647.2" text-anchor="middle" fill="#8b949e" font-size="6" font-family="monospace">useStore.ts</text>
<circle cx="478.8" cy="642.5" r="7.0" fill="#FFEAA7" opacity="0.8" filter="url(#glow)"/>
<text x="478.8" y="656.5" text-anchor="middle" fill="#8b949e" font-size="6" font-family="monospace">dialog.tsx</text>
<circle cx="447.8" cy="650.5" r="7.0" fill="#FF6B6B" opacity="0.8" filter="url(#glow)"/>
<text x="447.8" y="664.5" text-anchor="middle" fill="#8b949e" font-size="6" font-family="monospace">utils.ts</text>
<circle cx="416.0" cy="654.5" r="7.0" fill="#DDA0DD" opacity="0.8" filter="url(#glow)"/>
<text x="416.0" y="668.5" text-anchor="middle" fill="#8b949e" font-size="6" font-family="monospace">Home.tsx</text>
<circle cx="384.5" cy="647.0" r="6.2" fill="#FF6B6B" opacity="0.8" filter="url(#glow)"/>
<text x="384.5" y="660.3" text-anchor="middle" fill="#8b949e" font-size="6" font-family="monospace">avatar.tsx</text>
<circle cx="354.1" cy="640.7" r="6.0" fill="#FF6B6B" opacity="0.8" filter="url(#glow)"/>
<text x="354.1" y="653.7" text-anchor="middle" fill="#8b949e" font-size="6" font-family="monospace">card.tsx</text>
<circle cx="324.3" cy="633.0" r="6.0" fill="#45B7D1" opacity="0.8" filter="url(#glow)"/>
<text x="324.3" y="646.0" text-anchor="middle" fill="#8b949e" font-size="6" font-family="monospace">Admin.tsx</text>
<circle cx="296.7" cy="619.4" r="5.8" fill="#4ECDC4" opacity="0.8" filter="url(#glow)"/>
<text x="296.7" y="632.2" text-anchor="middle" fill="#8b949e" font-size="6" font-family="monospace">AuthModal.tsx</text>
<circle cx="271.4" cy="602.6" r="5.5" fill="#98D8C8" opacity="0.8" filter="url(#glow)"/>
<circle cx="247.0" cy="584.9" r="5.5" fill="#4ECDC4" opacity="0.8" filter="url(#glow)"/>
<circle cx="225.0" cy="564.3" r="5.5" fill="#FFEAA7" opacity="0.8" filter="url(#glow)"/>
<circle cx="205.8" cy="541.1" r="5.5" fill="#4ECDC4" opacity="0.8" filter="url(#glow)"/>
<circle cx="191.9" cy="514.4" r="5.2" fill="#4ECDC4" opacity="0.8" filter="url(#glow)"/>
<circle cx="179.2" cy="487.4" r="5.2" fill="#4ECDC4" opacity="0.8" filter="url(#glow)"/>
<circle cx="170.0" cy="459.1" r="5.2" fill="#FF6B6B" opacity="0.8" filter="url(#glow)"/>
<circle cx="164.4" cy="429.8" r="5.2" fill="#555" opacity="0.8" filter="url(#glow)"/>
<circle cx="162.5" cy="400.0" r="5.2" fill="#45B7D1" opacity="0.8" filter="url(#glow)"/>
<circle cx="164.4" cy="370.2" r="5.2" fill="#FFEAA7" opacity="0.8" filter="url(#glow)"/>
<circle cx="170.0" cy="340.9" r="5.2" fill="#4ECDC4" opacity="0.8" filter="url(#glow)"/>
<circle cx="181.5" cy="313.5" r="5.0" fill="#96CEB4" opacity="0.8" filter="url(#glow)"/>
<circle cx="194.1" cy="286.8" r="5.0" fill="#96CEB4" opacity="0.8" filter="url(#glow)"/>
<circle cx="209.9" cy="261.9" r="5.0" fill="#45B7D1" opacity="0.8" filter="url(#glow)"/>
<circle cx="230.5" cy="240.8" r="4.8" fill="#96CEB4" opacity="0.8" filter="url(#glow)"/>
<circle cx="251.8" cy="220.9" r="4.8" fill="#555" opacity="0.8" filter="url(#glow)"/>
<circle cx="275.4" cy="203.7" r="4.8" fill="#DDA0DD" opacity="0.8" filter="url(#glow)"/>
<circle cx="301.0" cy="189.6" r="4.8" fill="#45B7D1" opacity="0.8" filter="url(#glow)"/>
<circle cx="328.2" cy="178.9" r="4.8" fill="#FF6B6B" opacity="0.8" filter="url(#glow)"/>
<circle cx="356.4" cy="171.6" r="4.8" fill="#FF6B6B" opacity="0.8" filter="url(#glow)"/>
<circle cx="385.4" cy="168.0" r="4.8" fill="#4ECDC4" opacity="0.8" filter="url(#glow)"/>
<circle cx="414.6" cy="168.0" r="4.8" fill="#45B7D1" opacity="0.8" filter="url(#glow)"/>
<circle cx="443.1" cy="174.1" r="4.5" fill="#96CEB4" opacity="0.8" filter="url(#glow)"/>
<circle cx="471.1" cy="181.3" r="4.5" fill="#96CEB4" opacity="0.8" filter="url(#glow)"/>
<circle cx="497.9" cy="191.9" r="4.5" fill="#DDA0DD" opacity="0.8" filter="url(#glow)"/>
<circle cx="523.2" cy="205.8" r="4.5" fill="#4ECDC4" opacity="0.8" filter="url(#glow)"/>
<circle cx="546.6" cy="222.8" r="4.5" fill="#FF6B6B" opacity="0.8" filter="url(#glow)"/>
<circle cx="567.7" cy="242.6" r="4.5" fill="#FF6B6B" opacity="0.8" filter="url(#glow)"/>
<circle cx="586.1" cy="264.8" r="4.5" fill="#45B7D1" opacity="0.8" filter="url(#glow)"/>
<circle cx="601.6" cy="289.2" r="4.5" fill="#F7DC6F" opacity="0.8" filter="url(#glow)"/>
<circle cx="613.8" cy="315.3" r="4.5" fill="#F7DC6F" opacity="0.8" filter="url(#glow)"/>
<circle cx="620.4" cy="343.4" r="4.2" fill="#555" opacity="0.8" filter="url(#glow)"/>
<circle cx="625.7" cy="371.5" r="4.2" fill="#96CEB4" opacity="0.8" filter="url(#glow)"/>
<text x="400" y="28" text-anchor="middle" fill="#e6edf3" font-size="13" font-family="sans-serif" font-weight="bold">lensiqa</text>
<text x="400" y="46" text-anchor="middle" fill="#484f58" font-size="9" font-family="monospace">205 nodes · 393 links · 16 communities</text>
<rect x="15" y="697" width="8" height="8" fill="#FF6B6B" rx="1.5" alpha="0.8"/>
<text x="28" y="704" fill="#6e7681" font-size="7" font-family="monospace">C0: Navbar.tsx (50)</text>
<rect x="15" y="709" width="8" height="8" fill="#4ECDC4" rx="1.5" alpha="0.8"/>
<text x="28" y="716" fill="#6e7681" font-size="7" font-family="monospace">C1: App.tsx (43)</text>
<rect x="15" y="721" width="8" height="8" fill="#45B7D1" rx="1.5" alpha="0.8"/>
<text x="28" y="728" fill="#6e7681" font-size="7" font-family="monospace">C2: Avatar() (24)</text>
<rect x="15" y="733" width="8" height="8" fill="#96CEB4" rx="1.5" alpha="0.8"/>
<text x="28" y="740" fill="#6e7681" font-size="7" font-family="monospace">C3: deploy.mjs (20)</text>
<rect x="15" y="745" width="8" height="8" fill="#FFEAA7" rx="1.5" alpha="0.8"/>
<text x="28" y="752" fill="#6e7681" font-size="7" font-family="monospace">C4: dialog.tsx (14)</text>
<rect x="15" y="757" width="8" height="8" fill="#DDA0DD" rx="1.5" alpha="0.8"/>
<text x="28" y="764" fill="#6e7681" font-size="7" font-family="monospace">C5: BentoGrid.tsx (13)</text>
<rect x="15" y="769" width="8" height="8" fill="#98D8C8" rx="1.5" alpha="0.8"/>
<text x="28" y="776" fill="#6e7681" font-size="7" font-family="monospace">C6: safepay-verify.php (9)</text>
<rect x="15" y="781" width="8" height="8" fill="#F7DC6F" rx="1.5" alpha="0.8"/>
<text x="28" y="788" fill="#6e7681" font-size="7" font-family="monospace">C7: image_migration_pl (8)</text>
</svg>