<?xml version="1.0" encoding="UTF-8"?>
<svg xmlns="http://www.w3.org/2000/svg" viewBox="0 0 800 800" width="800" height="800">
<defs><filter id="glow"><feGaussianBlur stdDeviation="1.5" result="coloredBlur"/><feMerge><feMergeNode in="coloredBlur"/><feMergeNode in="SourceGraphic"/></feMerge></filter></defs>
<rect width="800" height="800" fill="#0d1117"/>
<line x1="491.2" y1="680.6" x2="161.2" y2="531.3" stroke="#30363d" stroke-opacity="0.4" stroke-width="0.6"/>
<line x1="782.0" y1="448.3" x2="153.6" y2="302.4" stroke="#30363d" stroke-opacity="0.4" stroke-width="0.6"/>
<line x1="161.2" y1="531.3" x2="782.0" y2="448.3" stroke="#30363d" stroke-opacity="0.4" stroke-width="0.6"/>
<line x1="802.5" y1="400.0" x2="782.0" y2="448.3" stroke="#30363d" stroke-opacity="0.4" stroke-width="0.6"/>
<line x1="562.5" y1="203.5" x2="782.0" y2="448.3" stroke="#30363d" stroke-opacity="0.4" stroke-width="0.6"/>
<line x1="606.3" y1="250.1" x2="782.0" y2="448.3" stroke="#30363d" stroke-opacity="0.4" stroke-width="0.6"/>
<line x1="748.7" y1="489.5" x2="782.0" y2="448.3" stroke="#30363d" stroke-opacity="0.4" stroke-width="0.6"/>
<line x1="637.1" y1="306.1" x2="782.0" y2="448.3" stroke="#30363d" stroke-opacity="0.4" stroke-width="0.6"/>
<line x1="140.9" y1="333.5" x2="782.0" y2="448.3" stroke="#30363d" stroke-opacity="0.4" stroke-width="0.6"/>
<line x1="660.9" y1="589.6" x2="782.0" y2="448.3" stroke="#30363d" stroke-opacity="0.4" stroke-width="0.6"/>
<line x1="192.2" y1="595.1" x2="782.0" y2="448.3" stroke="#30363d" stroke-opacity="0.4" stroke-width="0.6"/>
<line x1="653.0" y1="368.0" x2="782.0" y2="448.3" stroke="#30363d" stroke-opacity="0.4" stroke-width="0.6"/>
<line x1="599.2" y1="640.8" x2="782.0" y2="448.3" stroke="#30363d" stroke-opacity="0.4" stroke-width="0.6"/>
<line x1="720.8" y1="527.0" x2="782.0" y2="448.3" stroke="#30363d" stroke-opacity="0.4" stroke-width="0.6"/>
<line x1="206.8" y1="218.6" x2="782.0" y2="448.3" stroke="#30363d" stroke-opacity="0.4" stroke-width="0.6"/>
<line x1="161.2" y1="531.3" x2="153.6" y2="302.4" stroke="#30363d" stroke-opacity="0.4" stroke-width="0.6"/>
<line x1="562.5" y1="203.5" x2="153.6" y2="302.4" stroke="#30363d" stroke-opacity="0.4" stroke-width="0.6"/>
<line x1="606.3" y1="250.1" x2="153.6" y2="302.4" stroke="#30363d" stroke-opacity="0.4" stroke-width="0.6"/>
<line x1="637.1" y1="306.1" x2="153.6" y2="302.4" stroke="#30363d" stroke-opacity="0.4" stroke-width="0.6"/>
<line x1="140.9" y1="333.5" x2="153.6" y2="302.4" stroke="#30363d" stroke-opacity="0.4" stroke-width="0.6"/>
<line x1="653.0" y1="368.0" x2="153.6" y2="302.4" stroke="#30363d" stroke-opacity="0.4" stroke-width="0.6"/>
<line x1="206.8" y1="218.6" x2="153.6" y2="302.4" stroke="#30363d" stroke-opacity="0.4" stroke-width="0.6"/>
<line x1="161.2" y1="531.3" x2="653.0" y2="368.0" stroke="#30363d" stroke-opacity="0.4" stroke-width="0.6"/>
<line x1="161.2" y1="531.3" x2="479.6" y2="155.1" stroke="#30363d" stroke-opacity="0.4" stroke-width="0.6"/>
<line x1="637.1" y1="306.1" x2="161.2" y2="531.3" stroke="#30363d" stroke-opacity="0.4" stroke-width="0.6"/>
<line x1="802.5" y1="400.0" x2="660.9" y2="589.6" stroke="#30363d" stroke-opacity="0.4" stroke-width="0.6"/>
<line x1="802.5" y1="400.0" x2="192.2" y2="595.1" stroke="#30363d" stroke-opacity="0.4" stroke-width="0.6"/>
<line x1="802.5" y1="400.0" x2="720.8" y2="527.0" stroke="#30363d" stroke-opacity="0.4" stroke-width="0.6"/>
<line x1="802.5" y1="400.0" x2="599.2" y2="640.8" stroke="#30363d" stroke-opacity="0.4" stroke-width="0.6"/>
<line x1="802.5" y1="400.0" x2="185.6" y2="244.2" stroke="#30363d" stroke-opacity="0.4" stroke-width="0.6"/>
<line x1="802.5" y1="400.0" x2="538.0" y2="182.6" stroke="#30363d" stroke-opacity="0.4" stroke-width="0.6"/>
<line x1="802.5" y1="400.0" x2="748.7" y2="489.5" stroke="#30363d" stroke-opacity="0.4" stroke-width="0.6"/>
<line x1="802.5" y1="400.0" x2="259.3" y2="178.4" stroke="#30363d" stroke-opacity="0.4" stroke-width="0.6"/>
<line x1="802.5" y1="400.0" x2="627.8" y2="613.9" stroke="#30363d" stroke-opacity="0.4" stroke-width="0.6"/>
<line x1="562.5" y1="203.5" x2="802.5" y2="400.0" stroke="#30363d" stroke-opacity="0.4" stroke-width="0.6"/>
<line x1="623.5" y1="277.2" x2="802.5" y2="400.0" stroke="#30363d" stroke-opacity="0.4" stroke-width="0.6"/>
<line x1="509.6" y1="167.0" x2="802.5" y2="400.0" stroke="#30363d" stroke-opacity="0.4" stroke-width="0.6"/>
<line x1="383.7" y1="140.5" x2="802.5" y2="400.0" stroke="#30363d" stroke-opacity="0.4" stroke-width="0.6"/>
<line x1="562.5" y1="203.5" x2="627.8" y2="613.9" stroke="#30363d" stroke-opacity="0.4" stroke-width="0.6"/>
<line x1="623.5" y1="277.2" x2="627.8" y2="613.9" stroke="#30363d" stroke-opacity="0.4" stroke-width="0.6"/>
<line x1="509.6" y1="167.0" x2="627.8" y2="613.9" stroke="#30363d" stroke-opacity="0.4" stroke-width="0.6"/>
<line x1="383.7" y1="140.5" x2="627.8" y2="613.9" stroke="#30363d" stroke-opacity="0.4" stroke-width="0.6"/>
<line x1="562.5" y1="203.5" x2="748.7" y2="489.5" stroke="#30363d" stroke-opacity="0.4" stroke-width="0.6"/>
<line x1="637.1" y1="306.1" x2="562.5" y2="203.5" stroke="#30363d" stroke-opacity="0.4" stroke-width="0.6"/>
<line x1="206.8" y1="218.6" x2="562.5" y2="203.5" stroke="#30363d" stroke-opacity="0.4" stroke-width="0.6"/>
<line x1="455.3" y1="689.8" x2="173.5" y2="564.6" stroke="#30363d" stroke-opacity="0.4" stroke-width="0.6"/>
<line x1="173.5" y1="564.6" x2="479.6" y2="155.1" stroke="#30363d" stroke-opacity="0.4" stroke-width="0.6"/>
<line x1="218.3" y1="619.6" x2="173.5" y2="564.6" stroke="#30363d" stroke-opacity="0.4" stroke-width="0.6"/>
<line x1="566.1" y1="661.7" x2="479.6" y2="155.1" stroke="#30363d" stroke-opacity="0.4" stroke-width="0.6"/>
<line x1="566.1" y1="661.7" x2="416.2" y2="143.0" stroke="#30363d" stroke-opacity="0.4" stroke-width="0.6"/>
<line x1="381.8" y1="689.4" x2="566.1" y2="661.7" stroke="#30363d" stroke-opacity="0.4" stroke-width="0.6"/>
<line x1="381.8" y1="689.4" x2="416.2" y2="143.0" stroke="#30363d" stroke-opacity="0.4" stroke-width="0.6"/>
<line x1="381.8" y1="689.4" x2="530.9" y2="678.2" stroke="#30363d" stroke-opacity="0.4" stroke-width="0.6"/>
<line x1="530.9" y1="678.2" x2="232.7" y2="197.7" stroke="#30363d" stroke-opacity="0.4" stroke-width="0.6"/>
<line x1="167.8" y1="272.3" x2="530.9" y2="678.2" stroke="#30363d" stroke-opacity="0.4" stroke-width="0.6"/>
<line x1="218.3" y1="619.6" x2="479.6" y2="155.1" stroke="#30363d" stroke-opacity="0.4" stroke-width="0.6"/>
<line x1="748.7" y1="489.5" x2="606.3" y2="250.1" stroke="#30363d" stroke-opacity="0.4" stroke-width="0.6"/>
<line x1="748.7" y1="489.5" x2="259.3" y2="178.4" stroke="#30363d" stroke-opacity="0.4" stroke-width="0.6"/>
<line x1="623.5" y1="277.2" x2="748.7" y2="489.5" stroke="#30363d" stroke-opacity="0.4" stroke-width="0.6"/>
<line x1="509.6" y1="167.0" x2="748.7" y2="489.5" stroke="#30363d" stroke-opacity="0.4" stroke-width="0.6"/>
<line x1="383.7" y1="140.5" x2="748.7" y2="489.5" stroke="#30363d" stroke-opacity="0.4" stroke-width="0.6"/>
<line x1="660.9" y1="589.6" x2="748.7" y2="489.5" stroke="#30363d" stroke-opacity="0.4" stroke-width="0.6"/>
<line x1="720.8" y1="527.0" x2="748.7" y2="489.5" stroke="#30363d" stroke-opacity="0.4" stroke-width="0.6"/>
<line x1="538.0" y1="182.6" x2="748.7" y2="489.5" stroke="#30363d" stroke-opacity="0.4" stroke-width="0.6"/>
<line x1="623.5" y1="277.2" x2="259.3" y2="178.4" stroke="#30363d" stroke-opacity="0.4" stroke-width="0.6"/>
<line x1="509.6" y1="167.0" x2="259.3" y2="178.4" stroke="#30363d" stroke-opacity="0.4" stroke-width="0.6"/>
<line x1="383.7" y1="140.5" x2="259.3" y2="178.4" stroke="#30363d" stroke-opacity="0.4" stroke-width="0.6"/>
<line x1="660.9" y1="589.6" x2="259.3" y2="178.4" stroke="#30363d" stroke-opacity="0.4" stroke-width="0.6"/>
<line x1="720.8" y1="527.0" x2="259.3" y2="178.4" stroke="#30363d" stroke-opacity="0.4" stroke-width="0.6"/>
<line x1="538.0" y1="182.6" x2="259.3" y2="178.4" stroke="#30363d" stroke-opacity="0.4" stroke-width="0.6"/>
<line x1="623.5" y1="277.2" x2="140.9" y2="333.5" stroke="#30363d" stroke-opacity="0.4" stroke-width="0.6"/>
<line x1="509.6" y1="167.0" x2="140.9" y2="333.5" stroke="#30363d" stroke-opacity="0.4" stroke-width="0.6"/>
<line x1="509.6" y1="167.0" x2="185.6" y2="244.2" stroke="#30363d" stroke-opacity="0.4" stroke-width="0.6"/>
<line x1="383.7" y1="140.5" x2="185.6" y2="244.2" stroke="#30363d" stroke-opacity="0.4" stroke-width="0.6"/>
<line x1="185.6" y1="244.2" x2="647.0" y2="336.6" stroke="#30363d" stroke-opacity="0.4" stroke-width="0.6"/>
<line x1="660.9" y1="589.6" x2="185.6" y2="244.2" stroke="#30363d" stroke-opacity="0.4" stroke-width="0.6"/>
<line x1="192.2" y1="595.1" x2="185.6" y2="244.2" stroke="#30363d" stroke-opacity="0.4" stroke-width="0.6"/>
<line x1="599.2" y1="640.8" x2="185.6" y2="244.2" stroke="#30363d" stroke-opacity="0.4" stroke-width="0.6"/>
<line x1="720.8" y1="527.0" x2="185.6" y2="244.2" stroke="#30363d" stroke-opacity="0.4" stroke-width="0.6"/>
<line x1="660.9" y1="589.6" x2="647.0" y2="336.6" stroke="#30363d" stroke-opacity="0.4" stroke-width="0.6"/>
<line x1="192.2" y1="595.1" x2="647.0" y2="336.6" stroke="#30363d" stroke-opacity="0.4" stroke-width="0.6"/>
<line x1="599.2" y1="640.8" x2="647.0" y2="336.6" stroke="#30363d" stroke-opacity="0.4" stroke-width="0.6"/>
<line x1="720.8" y1="527.0" x2="647.0" y2="336.6" stroke="#30363d" stroke-opacity="0.4" stroke-width="0.6"/>
<line x1="288.2" y1="162.5" x2="647.0" y2="336.6" stroke="#30363d" stroke-opacity="0.4" stroke-width="0.6"/>
<line x1="720.8" y1="527.0" x2="288.2" y2="162.5" stroke="#30363d" stroke-opacity="0.4" stroke-width="0.6"/>
<circle cx="802.5" cy="400.0" r="10.0" fill="#555" opacity="0.8" filter="url(#glow)"/>
<text x="802.5" y="417.0" text-anchor="middle" fill="#8b949e" font-size="6" font-family="monospace">AppSessionContext.tsx</text>
<circle cx="782.0" cy="448.3" r="10.0" fill="#FFEAA7" opacity="0.8" filter="url(#glow)"/>
<text x="782.0" y="465.3" text-anchor="middle" fill="#8b949e" font-size="6" font-family="monospace">types.ts</text>
<circle cx="748.7" cy="489.5" r="10.0" fill="#DDA0DD" opacity="0.8" filter="url(#glow)"/>
<text x="748.7" y="506.5" text-anchor="middle" fill="#8b949e" font-size="6" font-family="monospace">figmaKits.ts</text>
<circle cx="720.8" cy="527.0" r="10.0" fill="#555" opacity="0.8" filter="url(#glow)"/>
<text x="720.8" y="544.0" text-anchor="middle" fill="#8b949e" font-size="6" font-family="monospace">firestoreCommerceStore</text>
<circle cx="697.9" cy="563.8" r="10.0" fill="#96CEB4" opacity="0.8" filter="url(#glow)"/>
<text x="697.9" y="580.8" text-anchor="middle" fill="#8b949e" font-size="6" font-family="monospace">index.js</text>
<circle cx="660.9" cy="589.6" r="10.0" fill="#555" opacity="0.8" filter="url(#glow)"/>
<text x="660.9" y="606.6" text-anchor="middle" fill="#8b949e" font-size="6" font-family="monospace">appSessionStore.ts</text>
<circle cx="627.8" cy="613.9" r="10.0" fill="#555" opacity="0.8" filter="url(#glow)"/>
<text x="627.8" y="630.9" text-anchor="middle" fill="#8b949e" font-size="6" font-family="monospace">useAppSession()</text>
<circle cx="599.2" cy="640.8" r="10.0" fill="#FFEAA7" opacity="0.8" filter="url(#glow)"/>
<text x="599.2" y="657.8" text-anchor="middle" fill="#8b949e" font-size="6" font-family="monospace">firestoreAdminStore.ts</text>
<circle cx="566.1" cy="661.7" r="10.0" fill="#555" opacity="0.8" filter="url(#glow)"/>
<text x="566.1" y="678.7" text-anchor="middle" fill="#8b949e" font-size="6" font-family="monospace">generate-figma-kits.mj</text>
<circle cx="530.9" cy="678.2" r="10.0" fill="#555" opacity="0.8" filter="url(#glow)"/>
<text x="530.9" y="695.2" text-anchor="middle" fill="#8b949e" font-size="6" font-family="monospace">generate-stitch-kits.m</text>
<circle cx="491.2" cy="680.6" r="10.0" fill="#555" opacity="0.8" filter="url(#glow)"/>
<text x="491.2" y="697.6" text-anchor="middle" fill="#8b949e" font-size="6" font-family="monospace">App.tsx</text>
<circle cx="455.3" cy="689.8" r="10.0" fill="#FF6B6B" opacity="0.8" filter="url(#glow)"/>
<text x="455.3" y="706.8" text-anchor="middle" fill="#8b949e" font-size="6" font-family="monospace">refetch-fullres.mjs</text>
<circle cx="418.5" cy="694.4" r="10.0" fill="#555" opacity="0.8" filter="url(#glow)"/>
<text x="418.5" y="711.4" text-anchor="middle" fill="#8b949e" font-size="6" font-family="monospace">screensdesign-refine-a</text>
<circle cx="381.8" cy="689.4" r="10.0" fill="#555" opacity="0.8" filter="url(#glow)"/>
<text x="381.8" y="706.4" text-anchor="middle" fill="#8b949e" font-size="6" font-family="monospace">generate-direct-figma-</text>
<circle cx="345.7" cy="684.9" r="10.0" fill="#555" opacity="0.8" filter="url(#glow)"/>
<text x="345.7" y="701.9" text-anchor="middle" fill="#8b949e" font-size="6" font-family="monospace">index.ts</text>
<circle cx="311.2" cy="673.4" r="10.0" fill="#4ECDC4" opacity="0.8" filter="url(#glow)"/>
<text x="311.2" y="690.4" text-anchor="middle" fill="#8b949e" font-size="6" font-family="monospace">index.ts</text>
<circle cx="277.6" cy="660.1" r="10.0" fill="#555" opacity="0.8" filter="url(#glow)"/>
<text x="277.6" y="677.1" text-anchor="middle" fill="#8b949e" font-size="6" font-family="monospace">enhance-assets-foundry</text>
<circle cx="247.3" cy="640.6" r="10.0" fill="#4ECDC4" opacity="0.8" filter="url(#glow)"/>
<text x="247.3" y="657.6" text-anchor="middle" fill="#8b949e" font-size="6" font-family="monospace">index.ts</text>
<circle cx="218.3" cy="619.6" r="10.0" fill="#FF6B6B" opacity="0.8" filter="url(#glow)"/>
<text x="218.3" y="636.6" text-anchor="middle" fill="#8b949e" font-size="6" font-family="monospace">screensdesign-rescue-a</text>
<circle cx="192.2" cy="595.1" r="10.0" fill="#555" opacity="0.8" filter="url(#glow)"/>
<text x="192.2" y="612.1" text-anchor="middle" fill="#8b949e" font-size="6" font-family="monospace">authBackend.ts</text>
<circle cx="173.5" cy="564.6" r="9.5" fill="#FF6B6B" opacity="0.8" filter="url(#glow)"/>
<text x="173.5" y="581.1" text-anchor="middle" fill="#8b949e" font-size="6" font-family="monospace">fetch-real-assets.mjs</text>
<circle cx="161.2" cy="531.3" r="8.8" fill="#555" opacity="0.8" filter="url(#glow)"/>
<text x="161.2" y="547.0" text-anchor="middle" fill="#8b949e" font-size="6" font-family="monospace">constants.tsx</text>
<circle cx="146.6" cy="500.3" r="8.8" fill="#555" opacity="0.8" filter="url(#glow)"/>
<text x="146.6" y="516.1" text-anchor="middle" fill="#8b949e" font-size="6" font-family="monospace">publish-to-figma.mjs</text>
<circle cx="138.5" cy="467.1" r="8.5" fill="#555" opacity="0.8" filter="url(#glow)"/>
<text x="138.5" y="482.6" text-anchor="middle" fill="#8b949e" font-size="6" font-family="monospace">hostinger-mcp-deploy.m</text>
<circle cx="134.6" cy="433.5" r="8.2" fill="#555" opacity="0.8" filter="url(#glow)"/>
<text x="134.6" y="448.8" text-anchor="middle" fill="#8b949e" font-size="6" font-family="monospace">ci-pipeline-health.mjs</text>
<circle cx="132.5" cy="400.0" r="8.2" fill="#555" opacity="0.8" filter="url(#glow)"/>
<text x="132.5" y="415.2" text-anchor="middle" fill="#8b949e" font-size="6" font-family="monospace">deploy.mjs</text>
<circle cx="134.6" cy="366.5" r="8.2" fill="#555" opacity="0.8" filter="url(#glow)"/>
<text x="134.6" y="381.7" text-anchor="middle" fill="#8b949e" font-size="6" font-family="monospace">screensdesign-publish-</text>
<circle cx="140.9" cy="333.5" r="8.2" fill="#555" opacity="0.8" filter="url(#glow)"/>
<text x="140.9" y="348.7" text-anchor="middle" fill="#8b949e" font-size="6" font-family="monospace">presentationState.ts</text>
<circle cx="153.6" cy="302.4" r="8.0" fill="#45B7D1" opacity="0.8" filter="url(#glow)"/>
<text x="153.6" y="317.4" text-anchor="middle" fill="#8b949e" font-size="6" font-family="monospace">AppItem</text>
<circle cx="167.8" cy="272.3" r="8.0" fill="#555" opacity="0.8" filter="url(#glow)"/>
<text x="167.8" y="287.3" text-anchor="middle" fill="#8b949e" font-size="6" font-family="monospace">generateStitchKits.tes</text>
<circle cx="185.6" cy="244.2" r="8.0" fill="#555" opacity="0.8" filter="url(#glow)"/>
<text x="185.6" y="259.2" text-anchor="middle" fill="#8b949e" font-size="6" font-family="monospace">runtimeConfig.ts</text>
<circle cx="206.8" cy="218.6" r="8.0" fill="#555" opacity="0.8" filter="url(#glow)"/>
<text x="206.8" y="233.6" text-anchor="middle" fill="#8b949e" font-size="6" font-family="monospace">AppDetailsModal.test.t</text>
<circle cx="232.7" cy="197.7" r="7.8" fill="#555" opacity="0.8" filter="url(#glow)"/>
<text x="232.7" y="212.5" text-anchor="middle" fill="#8b949e" font-size="6" font-family="monospace">main()</text>
<circle cx="259.3" cy="178.4" r="7.8" fill="#DDA0DD" opacity="0.8" filter="url(#glow)"/>
<text x="259.3" y="193.1" text-anchor="middle" fill="#8b949e" font-size="6" font-family="monospace">getCreditQuote()</text>
<circle cx="288.2" cy="162.5" r="7.8" fill="#555" opacity="0.8" filter="url(#glow)"/>
<text x="288.2" y="177.2" text-anchor="middle" fill="#8b949e" font-size="6" font-family="monospace">db()</text>
<circle cx="319.7" cy="152.7" r="7.5" fill="#555" opacity="0.8" filter="url(#glow)"/>
<text x="319.7" y="167.2" text-anchor="middle" fill="#8b949e" font-size="6" font-family="monospace">rebuild-figma-kits.mjs</text>
<circle cx="351.3" cy="144.6" r="7.5" fill="#555" opacity="0.8" filter="url(#glow)"/>
<text x="351.3" y="159.1" text-anchor="middle" fill="#8b949e" font-size="6" font-family="monospace">screensdesign-normaliz</text>
<circle cx="383.7" cy="140.5" r="7.5" fill="#DDA0DD" opacity="0.8" filter="url(#glow)"/>
<text x="383.7" y="155.0" text-anchor="middle" fill="#8b949e" font-size="6" font-family="monospace">CreditsPage.tsx</text>
<circle cx="416.2" cy="143.0" r="7.2" fill="#555" opacity="0.8" filter="url(#glow)"/>
<text x="416.2" y="157.3" text-anchor="middle" fill="#8b949e" font-size="6" font-family="monospace">run()</text>
<circle cx="448.3" cy="147.1" r="7.2" fill="#555" opacity="0.8" filter="url(#glow)"/>
<text x="448.3" y="161.3" text-anchor="middle" fill="#8b949e" font-size="6" font-family="monospace">screensdesign-upscale-</text>
<circle cx="479.6" cy="155.1" r="7.2" fill="#555" opacity="0.8" filter="url(#glow)"/>
<text x="479.6" y="169.4" text-anchor="middle" fill="#8b949e" font-size="6" font-family="monospace">catalog.js</text>
<circle cx="509.6" cy="167.0" r="7.2" fill="#DDA0DD" opacity="0.8" filter="url(#glow)"/>
<text x="509.6" y="181.3" text-anchor="middle" fill="#8b949e" font-size="6" font-family="monospace">AccountPage.tsx</text>
<circle cx="538.0" cy="182.6" r="7.2" fill="#555" opacity="0.8" filter="url(#glow)"/>
<text x="538.0" y="196.8" text-anchor="middle" fill="#8b949e" font-size="6" font-family="monospace">safepayService.ts</text>
<circle cx="562.5" cy="203.5" r="7.0" fill="#45B7D1" opacity="0.8" filter="url(#glow)"/>
<text x="562.5" y="217.5" text-anchor="middle" fill="#8b949e" font-size="6" font-family="monospace">AppDetailsModal.tsx</text>
<circle cx="585.9" cy="225.4" r="7.0" fill="#555" opacity="0.8" filter="url(#glow)"/>
<text x="585.9" y="239.4" text-anchor="middle" fill="#8b949e" font-size="6" font-family="monospace">screensdesign-asset-in</text>
<circle cx="606.3" cy="250.1" r="7.0" fill="#45B7D1" opacity="0.8" filter="url(#glow)"/>
<text x="606.3" y="264.1" text-anchor="middle" fill="#8b949e" font-size="6" font-family="monospace">flows.ts</text>
<circle cx="623.5" cy="277.2" r="7.0" fill="#DDA0DD" opacity="0.8" filter="url(#glow)"/>
<text x="623.5" y="291.2" text-anchor="middle" fill="#8b949e" font-size="6" font-family="monospace">FigmaKitDetailPage.tsx</text>
<circle cx="637.1" cy="306.1" r="7.0" fill="#555" opacity="0.8" filter="url(#glow)"/>
<text x="637.1" y="320.1" text-anchor="middle" fill="#8b949e" font-size="6" font-family="monospace">BrowsePage.tsx</text>
<circle cx="647.0" cy="336.6" r="7.0" fill="#555" opacity="0.8" filter="url(#glow)"/>
<text x="647.0" y="350.6" text-anchor="middle" fill="#8b949e" font-size="6" font-family="monospace">assertRuntimeConfigura</text>
<circle cx="653.0" cy="368.0" r="7.0" fill="#555" opacity="0.8" filter="url(#glow)"/>
<text x="653.0" y="382.0" text-anchor="middle" fill="#8b949e" font-size="6" font-family="monospace">assetFactory.ts</text>
<text x="400" y="28" text-anchor="middle" fill="#e6edf3" font-size="13" font-family="sans-serif" font-weight="bold">luxuryui</text>
<text x="400" y="46" text-anchor="middle" fill="#484f58" font-size="9" font-family="monospace">3,602 nodes · 4,375 links · 165 communities</text>
<rect x="15" y="697" width="8" height="8" fill="#FF6B6B" rx="1.5" alpha="0.8"/>
<text x="28" y="704" fill="#6e7681" font-size="7" font-family="monospace">C0: __dirname (66)</text>
<rect x="15" y="709" width="8" height="8" fill="#4ECDC4" rx="1.5" alpha="0.8"/>
<text x="28" y="716" fill="#6e7681" font-size="7" font-family="monospace">C1: requiredEnv() (65)</text>
<rect x="15" y="721" width="8" height="8" fill="#45B7D1" rx="1.5" alpha="0.8"/>
<text x="28" y="728" fill="#6e7681" font-size="7" font-family="monospace">C2: AppItem (52)</text>
<rect x="15" y="733" width="8" height="8" fill="#96CEB4" rx="1.5" alpha="0.8"/>
<text x="28" y="740" fill="#6e7681" font-size="7" font-family="monospace">C3: index.js (49)</text>
<rect x="15" y="745" width="8" height="8" fill="#FFEAA7" rx="1.5" alpha="0.8"/>
<text x="28" y="752" fill="#6e7681" font-size="7" font-family="monospace">C4: types.ts (48)</text>
<rect x="15" y="757" width="8" height="8" fill="#DDA0DD" rx="1.5" alpha="0.8"/>
<text x="28" y="764" fill="#6e7681" font-size="7" font-family="monospace">C5: CreditPackConfig (44)</text>
<rect x="15" y="769" width="8" height="8" fill="#98D8C8" rx="1.5" alpha="0.8"/>
<text x="28" y="776" fill="#6e7681" font-size="7" font-family="monospace">C6: stripe.md (40)</text>
<rect x="15" y="781" width="8" height="8" fill="#F7DC6F" rx="1.5" alpha="0.8"/>
<text x="28" y="788" fill="#6e7681" font-size="7" font-family="monospace">C7: uber.md (39)</text>
</svg>