<?xml version="1.0" encoding="UTF-8"?>
<svg xmlns="http://www.w3.org/2000/svg" viewBox="0 0 800 800" width="800" height="800">
<defs><filter id="glow"><feGaussianBlur stdDeviation="1.5" result="coloredBlur"/><feMerge><feMergeNode in="coloredBlur"/><feMergeNode in="SourceGraphic"/></feMerge></filter></defs>
<rect width="800" height="800" fill="#0d1117"/>
<line x1="665.4" y1="433.5" x2="521.9" y2="207.9" stroke="#30363d" stroke-opacity="0.4" stroke-width="0.6"/>
<line x1="665.4" y1="433.5" x2="171.8" y2="371.2" stroke="#30363d" stroke-opacity="0.4" stroke-width="0.6"/>
<line x1="665.4" y1="433.5" x2="545.0" y2="224.7" stroke="#30363d" stroke-opacity="0.4" stroke-width="0.6"/>
<line x1="665.4" y1="433.5" x2="177.2" y2="342.8" stroke="#30363d" stroke-opacity="0.4" stroke-width="0.6"/>
<line x1="665.4" y1="433.5" x2="565.8" y2="244.3" stroke="#30363d" stroke-opacity="0.4" stroke-width="0.6"/>
<line x1="665.4" y1="433.5" x2="584.1" y2="266.3" stroke="#30363d" stroke-opacity="0.4" stroke-width="0.6"/>
<line x1="665.4" y1="433.5" x2="211.9" y2="536.7" stroke="#30363d" stroke-opacity="0.4" stroke-width="0.6"/>
<line x1="665.4" y1="433.5" x2="599.4" y2="290.4" stroke="#30363d" stroke-opacity="0.4" stroke-width="0.6"/>
<line x1="665.4" y1="433.5" x2="274.1" y2="598.4" stroke="#30363d" stroke-opacity="0.4" stroke-width="0.6"/>
<line x1="665.4" y1="433.5" x2="250.2" y2="581.1" stroke="#30363d" stroke-opacity="0.4" stroke-width="0.6"/>
<line x1="211.9" y1="536.7" x2="521.9" y2="207.9" stroke="#30363d" stroke-opacity="0.4" stroke-width="0.6"/>
<line x1="274.1" y1="598.4" x2="521.9" y2="207.9" stroke="#30363d" stroke-opacity="0.4" stroke-width="0.6"/>
<line x1="565.8" y1="244.3" x2="171.8" y2="371.2" stroke="#30363d" stroke-opacity="0.4" stroke-width="0.6"/>
<line x1="584.1" y1="266.3" x2="171.8" y2="371.2" stroke="#30363d" stroke-opacity="0.4" stroke-width="0.6"/>
<line x1="599.4" y1="290.4" x2="171.8" y2="371.2" stroke="#30363d" stroke-opacity="0.4" stroke-width="0.6"/>
<line x1="177.2" y1="342.8" x2="545.0" y2="224.7" stroke="#30363d" stroke-opacity="0.4" stroke-width="0.6"/>
<line x1="274.1" y1="598.4" x2="545.0" y2="224.7" stroke="#30363d" stroke-opacity="0.4" stroke-width="0.6"/>
<line x1="274.1" y1="598.4" x2="177.2" y2="342.8" stroke="#30363d" stroke-opacity="0.4" stroke-width="0.6"/>
<line x1="250.2" y1="581.1" x2="565.8" y2="244.3" stroke="#30363d" stroke-opacity="0.4" stroke-width="0.6"/>
<line x1="250.2" y1="581.1" x2="584.1" y2="266.3" stroke="#30363d" stroke-opacity="0.4" stroke-width="0.6"/>
<line x1="250.2" y1="581.1" x2="211.9" y2="536.7" stroke="#30363d" stroke-opacity="0.4" stroke-width="0.6"/>
<line x1="274.1" y1="598.4" x2="599.4" y2="290.4" stroke="#30363d" stroke-opacity="0.4" stroke-width="0.6"/>
<line x1="250.2" y1="581.1" x2="274.1" y2="598.4" stroke="#30363d" stroke-opacity="0.4" stroke-width="0.6"/>
<line x1="196.3" y1="512.0" x2="654.3" y2="465.3" stroke="#30363d" stroke-opacity="0.4" stroke-width="0.6"/>
<line x1="196.3" y1="512.0" x2="580.4" y2="569.4" stroke="#30363d" stroke-opacity="0.4" stroke-width="0.6"/>
<line x1="196.3" y1="512.0" x2="228.7" y2="560.9" stroke="#30363d" stroke-opacity="0.4" stroke-width="0.6"/>
<line x1="654.3" y1="465.3" x2="602.3" y2="546.9" stroke="#30363d" stroke-opacity="0.4" stroke-width="0.6"/>
<line x1="654.3" y1="465.3" x2="174.8" y2="457.8" stroke="#30363d" stroke-opacity="0.4" stroke-width="0.6"/>
<line x1="654.3" y1="465.3" x2="443.1" y2="174.1" stroke="#30363d" stroke-opacity="0.4" stroke-width="0.6"/>
<line x1="654.3" y1="465.3" x2="325.8" y2="628.3" stroke="#30363d" stroke-opacity="0.4" stroke-width="0.6"/>
<line x1="654.3" y1="465.3" x2="475.7" y2="633.0" stroke="#30363d" stroke-opacity="0.4" stroke-width="0.6"/>
<line x1="654.3" y1="465.3" x2="415.2" y2="642.0" stroke="#30363d" stroke-opacity="0.4" stroke-width="0.6"/>
<line x1="654.3" y1="465.3" x2="621.3" y2="521.6" stroke="#30363d" stroke-opacity="0.4" stroke-width="0.6"/>
<line x1="654.3" y1="465.3" x2="384.9" y2="639.5" stroke="#30363d" stroke-opacity="0.4" stroke-width="0.6"/>
<line x1="654.3" y1="465.3" x2="356.9" y2="174.1" stroke="#30363d" stroke-opacity="0.4" stroke-width="0.6"/>
<line x1="654.3" y1="465.3" x2="385.6" y2="170.5" stroke="#30363d" stroke-opacity="0.4" stroke-width="0.6"/>
<line x1="654.3" y1="465.3" x2="414.4" y2="170.5" stroke="#30363d" stroke-opacity="0.4" stroke-width="0.6"/>
<line x1="654.3" y1="465.3" x2="504.3" y2="621.7" stroke="#30363d" stroke-opacity="0.4" stroke-width="0.6"/>
<line x1="654.3" y1="465.3" x2="228.7" y2="560.9" stroke="#30363d" stroke-opacity="0.4" stroke-width="0.6"/>
<line x1="580.4" y1="569.4" x2="186.2" y2="315.3" stroke="#30363d" stroke-opacity="0.4" stroke-width="0.6"/>
<line x1="580.4" y1="569.4" x2="198.4" y2="289.2" stroke="#30363d" stroke-opacity="0.4" stroke-width="0.6"/>
<line x1="580.4" y1="569.4" x2="531.3" y2="606.9" stroke="#30363d" stroke-opacity="0.4" stroke-width="0.6"/>
<line x1="580.4" y1="569.4" x2="328.9" y2="181.3" stroke="#30363d" stroke-opacity="0.4" stroke-width="0.6"/>
<line x1="580.4" y1="569.4" x2="169.3" y2="429.1" stroke="#30363d" stroke-opacity="0.4" stroke-width="0.6"/>
<line x1="580.4" y1="569.4" x2="611.5" y2="316.3" stroke="#30363d" stroke-opacity="0.4" stroke-width="0.6"/>
<line x1="580.4" y1="569.4" x2="620.4" y2="343.4" stroke="#30363d" stroke-opacity="0.4" stroke-width="0.6"/>
<line x1="611.5" y1="316.3" x2="620.4" y2="343.4" stroke="#30363d" stroke-opacity="0.4" stroke-width="0.6"/>
<line x1="641.7" y1="495.7" x2="611.5" y2="316.3" stroke="#30363d" stroke-opacity="0.4" stroke-width="0.6"/>
<line x1="641.7" y1="495.7" x2="620.4" y2="343.4" stroke="#30363d" stroke-opacity="0.4" stroke-width="0.6"/>
<line x1="445.4" y1="638.2" x2="625.7" y2="371.5" stroke="#30363d" stroke-opacity="0.4" stroke-width="0.6"/>
<line x1="186.2" y1="315.3" x2="198.4" y2="289.2" stroke="#30363d" stroke-opacity="0.4" stroke-width="0.6"/>
<line x1="504.3" y1="621.7" x2="186.2" y2="315.3" stroke="#30363d" stroke-opacity="0.4" stroke-width="0.6"/>
<line x1="475.7" y1="633.0" x2="186.2" y2="315.3" stroke="#30363d" stroke-opacity="0.4" stroke-width="0.6"/>
<line x1="504.3" y1="621.7" x2="198.4" y2="289.2" stroke="#30363d" stroke-opacity="0.4" stroke-width="0.6"/>
<line x1="475.7" y1="633.0" x2="198.4" y2="289.2" stroke="#30363d" stroke-opacity="0.4" stroke-width="0.6"/>
<line x1="602.3" y1="546.9" x2="213.9" y2="264.8" stroke="#30363d" stroke-opacity="0.4" stroke-width="0.6"/>
<line x1="232.3" y1="242.6" x2="641.7" y2="495.7" stroke="#30363d" stroke-opacity="0.4" stroke-width="0.6"/>
<line x1="232.3" y1="242.6" x2="690.0" y2="400.0" stroke="#30363d" stroke-opacity="0.4" stroke-width="0.6"/>
<line x1="602.3" y1="546.9" x2="232.3" y2="242.6" stroke="#30363d" stroke-opacity="0.4" stroke-width="0.6"/>
<line x1="602.3" y1="546.9" x2="253.4" y2="222.8" stroke="#30363d" stroke-opacity="0.4" stroke-width="0.6"/>
<line x1="602.3" y1="546.9" x2="183.8" y2="485.6" stroke="#30363d" stroke-opacity="0.4" stroke-width="0.6"/>
<line x1="356.9" y1="174.1" x2="183.8" y2="485.6" stroke="#30363d" stroke-opacity="0.4" stroke-width="0.6"/>
<line x1="385.6" y1="170.5" x2="183.8" y2="485.6" stroke="#30363d" stroke-opacity="0.4" stroke-width="0.6"/>
<line x1="414.4" y1="170.5" x2="183.8" y2="485.6" stroke="#30363d" stroke-opacity="0.4" stroke-width="0.6"/>
<line x1="445.4" y1="638.2" x2="641.7" y2="495.7" stroke="#30363d" stroke-opacity="0.4" stroke-width="0.6"/>
<line x1="445.4" y1="638.2" x2="690.0" y2="400.0" stroke="#30363d" stroke-opacity="0.4" stroke-width="0.6"/>
<line x1="602.3" y1="546.9" x2="445.4" y2="638.2" stroke="#30363d" stroke-opacity="0.4" stroke-width="0.6"/>
<line x1="356.9" y1="174.1" x2="445.4" y2="638.2" stroke="#30363d" stroke-opacity="0.4" stroke-width="0.6"/>
<line x1="385.6" y1="170.5" x2="445.4" y2="638.2" stroke="#30363d" stroke-opacity="0.4" stroke-width="0.6"/>
<line x1="414.4" y1="170.5" x2="445.4" y2="638.2" stroke="#30363d" stroke-opacity="0.4" stroke-width="0.6"/>
<line x1="276.8" y1="205.8" x2="641.7" y2="495.7" stroke="#30363d" stroke-opacity="0.4" stroke-width="0.6"/>
<line x1="276.8" y1="205.8" x2="690.0" y2="400.0" stroke="#30363d" stroke-opacity="0.4" stroke-width="0.6"/>
<line x1="602.3" y1="546.9" x2="276.8" y2="205.8" stroke="#30363d" stroke-opacity="0.4" stroke-width="0.6"/>
<line x1="384.9" y1="639.5" x2="641.7" y2="495.7" stroke="#30363d" stroke-opacity="0.4" stroke-width="0.6"/>
<line x1="384.9" y1="639.5" x2="690.0" y2="400.0" stroke="#30363d" stroke-opacity="0.4" stroke-width="0.6"/>
<line x1="384.9" y1="639.5" x2="355.0" y2="635.7" stroke="#30363d" stroke-opacity="0.4" stroke-width="0.6"/>
<line x1="384.9" y1="639.5" x2="557.8" y2="590.7" stroke="#30363d" stroke-opacity="0.4" stroke-width="0.6"/>
<line x1="384.9" y1="639.5" x2="531.3" y2="606.9" stroke="#30363d" stroke-opacity="0.4" stroke-width="0.6"/>
<line x1="384.9" y1="639.5" x2="328.9" y2="181.3" stroke="#30363d" stroke-opacity="0.4" stroke-width="0.6"/>
<line x1="174.8" y1="457.8" x2="302.1" y2="191.9" stroke="#30363d" stroke-opacity="0.4" stroke-width="0.6"/>
<line x1="174.8" y1="457.8" x2="641.7" y2="495.7" stroke="#30363d" stroke-opacity="0.4" stroke-width="0.6"/>
<line x1="174.8" y1="457.8" x2="690.0" y2="400.0" stroke="#30363d" stroke-opacity="0.4" stroke-width="0.6"/>
<line x1="302.1" y1="191.9" x2="641.7" y2="495.7" stroke="#30363d" stroke-opacity="0.4" stroke-width="0.6"/>
<line x1="302.1" y1="191.9" x2="690.0" y2="400.0" stroke="#30363d" stroke-opacity="0.4" stroke-width="0.6"/>
<line x1="641.7" y1="495.7" x2="690.0" y2="400.0" stroke="#30363d" stroke-opacity="0.4" stroke-width="0.6"/>
<line x1="504.3" y1="621.7" x2="641.7" y2="495.7" stroke="#30363d" stroke-opacity="0.4" stroke-width="0.6"/>
<line x1="325.8" y1="628.3" x2="641.7" y2="495.7" stroke="#30363d" stroke-opacity="0.4" stroke-width="0.6"/>
<line x1="415.2" y1="642.0" x2="641.7" y2="495.7" stroke="#30363d" stroke-opacity="0.4" stroke-width="0.6"/>
<line x1="475.7" y1="633.0" x2="641.7" y2="495.7" stroke="#30363d" stroke-opacity="0.4" stroke-width="0.6"/>
<line x1="621.3" y1="521.6" x2="641.7" y2="495.7" stroke="#30363d" stroke-opacity="0.4" stroke-width="0.6"/>
<line x1="443.1" y1="174.1" x2="641.7" y2="495.7" stroke="#30363d" stroke-opacity="0.4" stroke-width="0.6"/>
<line x1="504.3" y1="621.7" x2="690.0" y2="400.0" stroke="#30363d" stroke-opacity="0.4" stroke-width="0.6"/>
<line x1="325.8" y1="628.3" x2="690.0" y2="400.0" stroke="#30363d" stroke-opacity="0.4" stroke-width="0.6"/>
<line x1="415.2" y1="642.0" x2="690.0" y2="400.0" stroke="#30363d" stroke-opacity="0.4" stroke-width="0.6"/>
<line x1="475.7" y1="633.0" x2="690.0" y2="400.0" stroke="#30363d" stroke-opacity="0.4" stroke-width="0.6"/>
<line x1="621.3" y1="521.6" x2="690.0" y2="400.0" stroke="#30363d" stroke-opacity="0.4" stroke-width="0.6"/>
<line x1="443.1" y1="174.1" x2="690.0" y2="400.0" stroke="#30363d" stroke-opacity="0.4" stroke-width="0.6"/>
<line x1="355.0" y1="635.7" x2="557.8" y2="590.7" stroke="#30363d" stroke-opacity="0.4" stroke-width="0.6"/>
<line x1="504.3" y1="621.7" x2="355.0" y2="635.7" stroke="#30363d" stroke-opacity="0.4" stroke-width="0.6"/>
<line x1="415.2" y1="642.0" x2="355.0" y2="635.7" stroke="#30363d" stroke-opacity="0.4" stroke-width="0.6"/>
<line x1="475.7" y1="633.0" x2="355.0" y2="635.7" stroke="#30363d" stroke-opacity="0.4" stroke-width="0.6"/>
<line x1="621.3" y1="521.6" x2="355.0" y2="635.7" stroke="#30363d" stroke-opacity="0.4" stroke-width="0.6"/>
<line x1="504.3" y1="621.7" x2="557.8" y2="590.7" stroke="#30363d" stroke-opacity="0.4" stroke-width="0.6"/>
<line x1="415.2" y1="642.0" x2="557.8" y2="590.7" stroke="#30363d" stroke-opacity="0.4" stroke-width="0.6"/>
<line x1="475.7" y1="633.0" x2="557.8" y2="590.7" stroke="#30363d" stroke-opacity="0.4" stroke-width="0.6"/>
<line x1="621.3" y1="521.6" x2="557.8" y2="590.7" stroke="#30363d" stroke-opacity="0.4" stroke-width="0.6"/>
<line x1="531.3" y1="606.9" x2="328.9" y2="181.3" stroke="#30363d" stroke-opacity="0.4" stroke-width="0.6"/>
<line x1="531.3" y1="606.9" x2="169.3" y2="429.1" stroke="#30363d" stroke-opacity="0.4" stroke-width="0.6"/>
<line x1="504.3" y1="621.7" x2="531.3" y2="606.9" stroke="#30363d" stroke-opacity="0.4" stroke-width="0.6"/>
<line x1="415.2" y1="642.0" x2="531.3" y2="606.9" stroke="#30363d" stroke-opacity="0.4" stroke-width="0.6"/>
<line x1="475.7" y1="633.0" x2="531.3" y2="606.9" stroke="#30363d" stroke-opacity="0.4" stroke-width="0.6"/>
<line x1="415.2" y1="642.0" x2="328.9" y2="181.3" stroke="#30363d" stroke-opacity="0.4" stroke-width="0.6"/>
<line x1="504.3" y1="621.7" x2="169.3" y2="429.1" stroke="#30363d" stroke-opacity="0.4" stroke-width="0.6"/>
<line x1="415.2" y1="642.0" x2="169.3" y2="429.1" stroke="#30363d" stroke-opacity="0.4" stroke-width="0.6"/>
<line x1="475.7" y1="633.0" x2="169.3" y2="429.1" stroke="#30363d" stroke-opacity="0.4" stroke-width="0.6"/>
<line x1="325.8" y1="628.3" x2="621.3" y2="521.6" stroke="#30363d" stroke-opacity="0.4" stroke-width="0.6"/>
<line x1="167.5" y1="400.0" x2="471.1" y2="181.3" stroke="#30363d" stroke-opacity="0.4" stroke-width="0.6"/>
<circle cx="690.0" cy="400.0" r="10.0" fill="#FFEAA7" opacity="0.8" filter="url(#glow)"/>
<text x="690.0" y="417.0" text-anchor="middle" fill="#8b949e" font-size="6" font-family="monospace">useAuth()</text>
<circle cx="665.4" cy="433.5" r="8.2" fill="#FF6B6B" opacity="0.8" filter="url(#glow)"/>
<text x="665.4" y="448.8" text-anchor="middle" fill="#8b949e" font-size="6" font-family="monospace">deploy.mjs</text>
<circle cx="654.3" cy="465.3" r="7.8" fill="#98D8C8" opacity="0.8" filter="url(#glow)"/>
<text x="654.3" y="480.0" text-anchor="middle" fill="#8b949e" font-size="6" font-family="monospace">App.jsx</text>
<circle cx="641.7" cy="495.7" r="7.5" fill="#555" opacity="0.8" filter="url(#glow)"/>
<text x="641.7" y="510.2" text-anchor="middle" fill="#8b949e" font-size="6" font-family="monospace">useAuth.js</text>
<circle cx="621.3" cy="521.6" r="6.8" fill="#555" opacity="0.8" filter="url(#glow)"/>
<text x="621.3" y="535.4" text-anchor="middle" fill="#8b949e" font-size="6" font-family="monospace">DashboardNeural.jsx</text>
<circle cx="602.3" cy="546.9" r="6.5" fill="#4ECDC4" opacity="0.8" filter="url(#glow)"/>
<text x="602.3" y="560.4" text-anchor="middle" fill="#8b949e" font-size="6" font-family="monospace">Landing.jsx</text>
<circle cx="580.4" cy="569.4" r="6.2" fill="#555" opacity="0.8" filter="url(#glow)"/>
<text x="580.4" y="582.7" text-anchor="middle" fill="#8b949e" font-size="6" font-family="monospace">AuthContext.jsx</text>
<circle cx="557.8" cy="590.7" r="6.2" fill="#555" opacity="0.8" filter="url(#glow)"/>
<text x="557.8" y="604.0" text-anchor="middle" fill="#8b949e" font-size="6" font-family="monospace">useToast()</text>
<circle cx="531.3" cy="606.9" r="6.0" fill="#F7DC6F" opacity="0.8" filter="url(#glow)"/>
<text x="531.3" y="619.9" text-anchor="middle" fill="#8b949e" font-size="6" font-family="monospace">firebase.js</text>
<circle cx="504.3" cy="621.7" r="6.0" fill="#F7DC6F" opacity="0.8" filter="url(#glow)"/>
<text x="504.3" y="634.7" text-anchor="middle" fill="#8b949e" font-size="6" font-family="monospace">AdminPanel.jsx</text>
<circle cx="475.7" cy="633.0" r="6.0" fill="#F7DC6F" opacity="0.8" filter="url(#glow)"/>
<text x="475.7" y="646.0" text-anchor="middle" fill="#8b949e" font-size="6" font-family="monospace">DashboardBalance.jsx</text>
<circle cx="445.4" cy="638.2" r="5.8" fill="#45B7D1" opacity="0.8" filter="url(#glow)"/>
<text x="445.4" y="651.0" text-anchor="middle" fill="#8b949e" font-size="6" font-family="monospace">Navbar.jsx</text>
<circle cx="415.2" cy="642.0" r="5.8" fill="#555" opacity="0.8" filter="url(#glow)"/>
<text x="415.2" y="654.8" text-anchor="middle" fill="#8b949e" font-size="6" font-family="monospace">DashboardSettings.jsx</text>
<circle cx="384.9" cy="639.5" r="5.5" fill="#555" opacity="0.8" filter="url(#glow)"/>
<circle cx="355.0" cy="635.7" r="5.5" fill="#555" opacity="0.8" filter="url(#glow)"/>
<circle cx="325.8" cy="628.3" r="5.5" fill="#555" opacity="0.8" filter="url(#glow)"/>
<circle cx="298.9" cy="614.9" r="5.2" fill="#96CEB4" opacity="0.8" filter="url(#glow)"/>
<circle cx="274.1" cy="598.4" r="5.0" fill="#FF6B6B" opacity="0.8" filter="url(#glow)"/>
<circle cx="250.2" cy="581.1" r="5.0" fill="#FF6B6B" opacity="0.8" filter="url(#glow)"/>
<circle cx="228.7" cy="560.9" r="5.0" fill="#98D8C8" opacity="0.8" filter="url(#glow)"/>
<circle cx="211.9" cy="536.7" r="4.8" fill="#FF6B6B" opacity="0.8" filter="url(#glow)"/>
<circle cx="196.3" cy="512.0" r="4.8" fill="#98D8C8" opacity="0.8" filter="url(#glow)"/>
<circle cx="183.8" cy="485.6" r="4.8" fill="#45B7D1" opacity="0.8" filter="url(#glow)"/>
<circle cx="174.8" cy="457.8" r="4.8" fill="#555" opacity="0.8" filter="url(#glow)"/>
<circle cx="169.3" cy="429.1" r="4.8" fill="#F7DC6F" opacity="0.8" filter="url(#glow)"/>
<circle cx="167.5" cy="400.0" r="4.8" fill="#DDA0DD" opacity="0.8" filter="url(#glow)"/>
<circle cx="171.8" cy="371.2" r="4.5" fill="#FF6B6B" opacity="0.8" filter="url(#glow)"/>
<circle cx="177.2" cy="342.8" r="4.5" fill="#FF6B6B" opacity="0.8" filter="url(#glow)"/>
<circle cx="186.2" cy="315.3" r="4.5" fill="#F7DC6F" opacity="0.8" filter="url(#glow)"/>
<circle cx="198.4" cy="289.2" r="4.5" fill="#F7DC6F" opacity="0.8" filter="url(#glow)"/>
<circle cx="213.9" cy="264.8" r="4.5" fill="#4ECDC4" opacity="0.8" filter="url(#glow)"/>
<circle cx="232.3" cy="242.6" r="4.5" fill="#FFEAA7" opacity="0.8" filter="url(#glow)"/>
<circle cx="253.4" cy="222.8" r="4.5" fill="#4ECDC4" opacity="0.8" filter="url(#glow)"/>
<circle cx="276.8" cy="205.8" r="4.5" fill="#FFEAA7" opacity="0.8" filter="url(#glow)"/>
<circle cx="302.1" cy="191.9" r="4.5" fill="#555" opacity="0.8" filter="url(#glow)"/>
<circle cx="328.9" cy="181.3" r="4.5" fill="#555" opacity="0.8" filter="url(#glow)"/>
<circle cx="356.9" cy="174.1" r="4.5" fill="#45B7D1" opacity="0.8" filter="url(#glow)"/>
<circle cx="385.6" cy="170.5" r="4.5" fill="#45B7D1" opacity="0.8" filter="url(#glow)"/>
<circle cx="414.4" cy="170.5" r="4.5" fill="#45B7D1" opacity="0.8" filter="url(#glow)"/>
<circle cx="443.1" cy="174.1" r="4.5" fill="#FFEAA7" opacity="0.8" filter="url(#glow)"/>
<circle cx="471.1" cy="181.3" r="4.5" fill="#DDA0DD" opacity="0.8" filter="url(#glow)"/>
<circle cx="496.9" cy="194.2" r="4.2" fill="#555" opacity="0.8" filter="url(#glow)"/>
<circle cx="521.9" cy="207.9" r="4.2" fill="#FF6B6B" opacity="0.8" filter="url(#glow)"/>
<circle cx="545.0" cy="224.7" r="4.2" fill="#FF6B6B" opacity="0.8" filter="url(#glow)"/>
<circle cx="565.8" cy="244.3" r="4.2" fill="#FF6B6B" opacity="0.8" filter="url(#glow)"/>
<circle cx="584.1" cy="266.3" r="4.2" fill="#FF6B6B" opacity="0.8" filter="url(#glow)"/>
<circle cx="599.4" cy="290.4" r="4.2" fill="#FF6B6B" opacity="0.8" filter="url(#glow)"/>
<circle cx="611.5" cy="316.3" r="4.2" fill="#555" opacity="0.8" filter="url(#glow)"/>
<circle cx="620.4" cy="343.4" r="4.2" fill="#555" opacity="0.8" filter="url(#glow)"/>
<circle cx="625.7" cy="371.5" r="4.2" fill="#45B7D1" opacity="0.8" filter="url(#glow)"/>
<text x="400" y="28" text-anchor="middle" fill="#e6edf3" font-size="13" font-family="sans-serif" font-weight="bold">minivexa</text>
<text x="400" y="46" text-anchor="middle" fill="#484f58" font-size="9" font-family="monospace">143 nodes · 241 links · 18 communities</text>
<rect x="15" y="697" width="8" height="8" fill="#FF6B6B" rx="1.5" alpha="0.8"/>
<text x="28" y="704" fill="#6e7681" font-size="7" font-family="monospace">C0: deploy.mjs (20)</text>
<rect x="15" y="709" width="8" height="8" fill="#4ECDC4" rx="1.5" alpha="0.8"/>
<text x="28" y="716" fill="#6e7681" font-size="7" font-family="monospace">C1: Kinetic.jsx (20)</text>
<rect x="15" y="721" width="8" height="8" fill="#45B7D1" rx="1.5" alpha="0.8"/>
<text x="28" y="728" fill="#6e7681" font-size="7" font-family="monospace">C2: useAnchorLinks.js (12)</text>
<rect x="15" y="733" width="8" height="8" fill="#96CEB4" rx="1.5" alpha="0.8"/>
<text x="28" y="740" fill="#6e7681" font-size="7" font-family="monospace">C3: README.md (12)</text>
<rect x="15" y="745" width="8" height="8" fill="#FFEAA7" rx="1.5" alpha="0.8"/>
<text x="28" y="752" fill="#6e7681" font-size="7" font-family="monospace">C4: Uplink.jsx (11)</text>
<rect x="15" y="757" width="8" height="8" fill="#DDA0DD" rx="1.5" alpha="0.8"/>
<text x="28" y="764" fill="#6e7681" font-size="7" font-family="monospace">C5: DOCUMENTATION.md (11)</text>
<rect x="15" y="769" width="8" height="8" fill="#98D8C8" rx="1.5" alpha="0.8"/>
<text x="28" y="776" fill="#6e7681" font-size="7" font-family="monospace">C6: main.jsx (10)</text>
<rect x="15" y="781" width="8" height="8" fill="#F7DC6F" rx="1.5" alpha="0.8"/>
<text x="28" y="788" fill="#6e7681" font-size="7" font-family="monospace">C8: notifications.js (10)</text>
</svg>