<?xml version="1.0" encoding="UTF-8"?>
<svg xmlns="http://www.w3.org/2000/svg" viewBox="0 0 800 800" width="800" height="800">
<defs><filter id="glow"><feGaussianBlur stdDeviation="1.5" result="coloredBlur"/><feMerge><feMergeNode in="coloredBlur"/><feMergeNode in="SourceGraphic"/></feMerge></filter></defs>
<rect width="800" height="800" fill="#0d1117"/>
<line x1="665.4" y1="433.5" x2="329.7" y2="183.6" stroke="#30363d" stroke-opacity="0.4" stroke-width="0.6"/>
<line x1="665.4" y1="433.5" x2="171.8" y2="371.2" stroke="#30363d" stroke-opacity="0.4" stroke-width="0.6"/>
<line x1="665.4" y1="433.5" x2="357.4" y2="176.5" stroke="#30363d" stroke-opacity="0.4" stroke-width="0.6"/>
<line x1="665.4" y1="433.5" x2="177.2" y2="342.8" stroke="#30363d" stroke-opacity="0.4" stroke-width="0.6"/>
<line x1="665.4" y1="433.5" x2="385.7" y2="172.9" stroke="#30363d" stroke-opacity="0.4" stroke-width="0.6"/>
<line x1="665.4" y1="433.5" x2="414.3" y2="172.9" stroke="#30363d" stroke-opacity="0.4" stroke-width="0.6"/>
<line x1="665.4" y1="433.5" x2="230.5" y2="559.2" stroke="#30363d" stroke-opacity="0.4" stroke-width="0.6"/>
<line x1="665.4" y1="433.5" x2="442.6" y2="176.5" stroke="#30363d" stroke-opacity="0.4" stroke-width="0.6"/>
<line x1="665.4" y1="433.5" x2="327.4" y2="623.5" stroke="#30363d" stroke-opacity="0.4" stroke-width="0.6"/>
<line x1="665.4" y1="433.5" x2="299.9" y2="612.6" stroke="#30363d" stroke-opacity="0.4" stroke-width="0.6"/>
<line x1="230.5" y1="559.2" x2="329.7" y2="183.6" stroke="#30363d" stroke-opacity="0.4" stroke-width="0.6"/>
<line x1="327.4" y1="623.5" x2="329.7" y2="183.6" stroke="#30363d" stroke-opacity="0.4" stroke-width="0.6"/>
<line x1="385.7" y1="172.9" x2="171.8" y2="371.2" stroke="#30363d" stroke-opacity="0.4" stroke-width="0.6"/>
<line x1="414.3" y1="172.9" x2="171.8" y2="371.2" stroke="#30363d" stroke-opacity="0.4" stroke-width="0.6"/>
<line x1="442.6" y1="176.5" x2="171.8" y2="371.2" stroke="#30363d" stroke-opacity="0.4" stroke-width="0.6"/>
<line x1="177.2" y1="342.8" x2="357.4" y2="176.5" stroke="#30363d" stroke-opacity="0.4" stroke-width="0.6"/>
<line x1="327.4" y1="623.5" x2="357.4" y2="176.5" stroke="#30363d" stroke-opacity="0.4" stroke-width="0.6"/>
<line x1="327.4" y1="623.5" x2="177.2" y2="342.8" stroke="#30363d" stroke-opacity="0.4" stroke-width="0.6"/>
<line x1="299.9" y1="612.6" x2="385.7" y2="172.9" stroke="#30363d" stroke-opacity="0.4" stroke-width="0.6"/>
<line x1="299.9" y1="612.6" x2="414.3" y2="172.9" stroke="#30363d" stroke-opacity="0.4" stroke-width="0.6"/>
<line x1="299.9" y1="612.6" x2="230.5" y2="559.2" stroke="#30363d" stroke-opacity="0.4" stroke-width="0.6"/>
<line x1="327.4" y1="623.5" x2="442.6" y2="176.5" stroke="#30363d" stroke-opacity="0.4" stroke-width="0.6"/>
<line x1="299.9" y1="612.6" x2="327.4" y2="623.5" stroke="#30363d" stroke-opacity="0.4" stroke-width="0.6"/>
<line x1="621.3" y1="521.6" x2="580.4" y2="569.4" stroke="#30363d" stroke-opacity="0.4" stroke-width="0.6"/>
<line x1="621.3" y1="521.6" x2="659.1" y2="466.5" stroke="#30363d" stroke-opacity="0.4" stroke-width="0.6"/>
<line x1="621.3" y1="521.6" x2="531.3" y2="606.9" stroke="#30363d" stroke-opacity="0.4" stroke-width="0.6"/>
<line x1="621.3" y1="521.6" x2="503.3" y2="619.4" stroke="#30363d" stroke-opacity="0.4" stroke-width="0.6"/>
<line x1="621.3" y1="521.6" x2="474.2" y2="628.3" stroke="#30363d" stroke-opacity="0.4" stroke-width="0.6"/>
<line x1="470.3" y1="183.6" x2="496.9" y2="194.2" stroke="#30363d" stroke-opacity="0.4" stroke-width="0.6"/>
<line x1="580.4" y1="569.4" x2="470.3" y2="183.6" stroke="#30363d" stroke-opacity="0.4" stroke-width="0.6"/>
<line x1="646.4" y1="497.6" x2="470.3" y2="183.6" stroke="#30363d" stroke-opacity="0.4" stroke-width="0.6"/>
<line x1="580.4" y1="569.4" x2="496.9" y2="194.2" stroke="#30363d" stroke-opacity="0.4" stroke-width="0.6"/>
<line x1="646.4" y1="497.6" x2="496.9" y2="194.2" stroke="#30363d" stroke-opacity="0.4" stroke-width="0.6"/>
<line x1="580.4" y1="569.4" x2="556.2" y2="588.8" stroke="#30363d" stroke-opacity="0.4" stroke-width="0.6"/>
<line x1="580.4" y1="569.4" x2="545.0" y2="224.7" stroke="#30363d" stroke-opacity="0.4" stroke-width="0.6"/>
<line x1="580.4" y1="569.4" x2="274.1" y2="598.4" stroke="#30363d" stroke-opacity="0.4" stroke-width="0.6"/>
<line x1="580.4" y1="569.4" x2="211.9" y2="536.7" stroke="#30363d" stroke-opacity="0.4" stroke-width="0.6"/>
<line x1="580.4" y1="569.4" x2="196.3" y2="512.0" stroke="#30363d" stroke-opacity="0.4" stroke-width="0.6"/>
<line x1="186.2" y1="315.3" x2="521.9" y2="207.9" stroke="#30363d" stroke-opacity="0.4" stroke-width="0.6"/>
<line x1="250.2" y1="581.1" x2="186.2" y2="315.3" stroke="#30363d" stroke-opacity="0.4" stroke-width="0.6"/>
<line x1="604.3" y1="548.4" x2="186.2" y2="315.3" stroke="#30363d" stroke-opacity="0.4" stroke-width="0.6"/>
<line x1="250.2" y1="581.1" x2="521.9" y2="207.9" stroke="#30363d" stroke-opacity="0.4" stroke-width="0.6"/>
<line x1="604.3" y1="548.4" x2="521.9" y2="207.9" stroke="#30363d" stroke-opacity="0.4" stroke-width="0.6"/>
<line x1="556.2" y1="588.8" x2="545.0" y2="224.7" stroke="#30363d" stroke-opacity="0.4" stroke-width="0.6"/>
<line x1="556.2" y1="588.8" x2="274.1" y2="598.4" stroke="#30363d" stroke-opacity="0.4" stroke-width="0.6"/>
<line x1="503.3" y1="619.4" x2="556.2" y2="588.8" stroke="#30363d" stroke-opacity="0.4" stroke-width="0.6"/>
<line x1="445.0" y1="635.7" x2="556.2" y2="588.8" stroke="#30363d" stroke-opacity="0.4" stroke-width="0.6"/>
<line x1="385.1" y1="637.0" x2="556.2" y2="588.8" stroke="#30363d" stroke-opacity="0.4" stroke-width="0.6"/>
<line x1="604.3" y1="548.4" x2="556.2" y2="588.8" stroke="#30363d" stroke-opacity="0.4" stroke-width="0.6"/>
<line x1="385.1" y1="637.0" x2="545.0" y2="224.7" stroke="#30363d" stroke-opacity="0.4" stroke-width="0.6"/>
<line x1="503.3" y1="619.4" x2="274.1" y2="598.4" stroke="#30363d" stroke-opacity="0.4" stroke-width="0.6"/>
<line x1="445.0" y1="635.7" x2="274.1" y2="598.4" stroke="#30363d" stroke-opacity="0.4" stroke-width="0.6"/>
<line x1="385.1" y1="637.0" x2="274.1" y2="598.4" stroke="#30363d" stroke-opacity="0.4" stroke-width="0.6"/>
<line x1="604.3" y1="548.4" x2="274.1" y2="598.4" stroke="#30363d" stroke-opacity="0.4" stroke-width="0.6"/>
<line x1="211.9" y1="536.7" x2="196.3" y2="512.0" stroke="#30363d" stroke-opacity="0.4" stroke-width="0.6"/>
<line x1="503.3" y1="619.4" x2="211.9" y2="536.7" stroke="#30363d" stroke-opacity="0.4" stroke-width="0.6"/>
<line x1="445.0" y1="635.7" x2="211.9" y2="536.7" stroke="#30363d" stroke-opacity="0.4" stroke-width="0.6"/>
<line x1="604.3" y1="548.4" x2="211.9" y2="536.7" stroke="#30363d" stroke-opacity="0.4" stroke-width="0.6"/>
<line x1="503.3" y1="619.4" x2="196.3" y2="512.0" stroke="#30363d" stroke-opacity="0.4" stroke-width="0.6"/>
<line x1="445.0" y1="635.7" x2="196.3" y2="512.0" stroke="#30363d" stroke-opacity="0.4" stroke-width="0.6"/>
<line x1="604.3" y1="548.4" x2="196.3" y2="512.0" stroke="#30363d" stroke-opacity="0.4" stroke-width="0.6"/>
<line x1="198.4" y1="289.2" x2="646.4" y2="497.6" stroke="#30363d" stroke-opacity="0.4" stroke-width="0.6"/>
<line x1="198.4" y1="289.2" x2="700.0" y2="400.0" stroke="#30363d" stroke-opacity="0.4" stroke-width="0.6"/>
<line x1="659.1" y1="466.5" x2="198.4" y2="289.2" stroke="#30363d" stroke-opacity="0.4" stroke-width="0.6"/>
<line x1="183.8" y1="485.6" x2="646.4" y2="497.6" stroke="#30363d" stroke-opacity="0.4" stroke-width="0.6"/>
<line x1="183.8" y1="485.6" x2="700.0" y2="400.0" stroke="#30363d" stroke-opacity="0.4" stroke-width="0.6"/>
<line x1="503.3" y1="619.4" x2="183.8" y2="485.6" stroke="#30363d" stroke-opacity="0.4" stroke-width="0.6"/>
<line x1="531.3" y1="606.9" x2="183.8" y2="485.6" stroke="#30363d" stroke-opacity="0.4" stroke-width="0.6"/>
<line x1="474.2" y1="628.3" x2="565.8" y2="244.3" stroke="#30363d" stroke-opacity="0.4" stroke-width="0.6"/>
<line x1="659.1" y1="466.5" x2="565.8" y2="244.3" stroke="#30363d" stroke-opacity="0.4" stroke-width="0.6"/>
<line x1="174.8" y1="457.8" x2="646.4" y2="497.6" stroke="#30363d" stroke-opacity="0.4" stroke-width="0.6"/>
<line x1="174.8" y1="457.8" x2="700.0" y2="400.0" stroke="#30363d" stroke-opacity="0.4" stroke-width="0.6"/>
<line x1="474.2" y1="628.3" x2="174.8" y2="457.8" stroke="#30363d" stroke-opacity="0.4" stroke-width="0.6"/>
<line x1="659.1" y1="466.5" x2="174.8" y2="457.8" stroke="#30363d" stroke-opacity="0.4" stroke-width="0.6"/>
<line x1="646.4" y1="497.6" x2="700.0" y2="400.0" stroke="#30363d" stroke-opacity="0.4" stroke-width="0.6"/>
<line x1="213.9" y1="264.8" x2="646.4" y2="497.6" stroke="#30363d" stroke-opacity="0.4" stroke-width="0.6"/>
<line x1="232.3" y1="242.6" x2="646.4" y2="497.6" stroke="#30363d" stroke-opacity="0.4" stroke-width="0.6"/>
<line x1="414.9" y1="637.0" x2="646.4" y2="497.6" stroke="#30363d" stroke-opacity="0.4" stroke-width="0.6"/>
<line x1="169.3" y1="429.1" x2="646.4" y2="497.6" stroke="#30363d" stroke-opacity="0.4" stroke-width="0.6"/>
<line x1="253.4" y1="222.8" x2="646.4" y2="497.6" stroke="#30363d" stroke-opacity="0.4" stroke-width="0.6"/>
<line x1="503.3" y1="619.4" x2="646.4" y2="497.6" stroke="#30363d" stroke-opacity="0.4" stroke-width="0.6"/>
<line x1="445.0" y1="635.7" x2="646.4" y2="497.6" stroke="#30363d" stroke-opacity="0.4" stroke-width="0.6"/>
<line x1="250.2" y1="581.1" x2="646.4" y2="497.6" stroke="#30363d" stroke-opacity="0.4" stroke-width="0.6"/>
<line x1="531.3" y1="606.9" x2="646.4" y2="497.6" stroke="#30363d" stroke-opacity="0.4" stroke-width="0.6"/>
<line x1="385.1" y1="637.0" x2="646.4" y2="497.6" stroke="#30363d" stroke-opacity="0.4" stroke-width="0.6"/>
<line x1="604.3" y1="548.4" x2="646.4" y2="497.6" stroke="#30363d" stroke-opacity="0.4" stroke-width="0.6"/>
<line x1="276.8" y1="205.8" x2="646.4" y2="497.6" stroke="#30363d" stroke-opacity="0.4" stroke-width="0.6"/>
<line x1="213.9" y1="264.8" x2="700.0" y2="400.0" stroke="#30363d" stroke-opacity="0.4" stroke-width="0.6"/>
<line x1="232.3" y1="242.6" x2="700.0" y2="400.0" stroke="#30363d" stroke-opacity="0.4" stroke-width="0.6"/>
<line x1="414.9" y1="637.0" x2="700.0" y2="400.0" stroke="#30363d" stroke-opacity="0.4" stroke-width="0.6"/>
<line x1="169.3" y1="429.1" x2="700.0" y2="400.0" stroke="#30363d" stroke-opacity="0.4" stroke-width="0.6"/>
<line x1="253.4" y1="222.8" x2="700.0" y2="400.0" stroke="#30363d" stroke-opacity="0.4" stroke-width="0.6"/>
<line x1="503.3" y1="619.4" x2="700.0" y2="400.0" stroke="#30363d" stroke-opacity="0.4" stroke-width="0.6"/>
<line x1="445.0" y1="635.7" x2="700.0" y2="400.0" stroke="#30363d" stroke-opacity="0.4" stroke-width="0.6"/>
<line x1="250.2" y1="581.1" x2="700.0" y2="400.0" stroke="#30363d" stroke-opacity="0.4" stroke-width="0.6"/>
<line x1="531.3" y1="606.9" x2="700.0" y2="400.0" stroke="#30363d" stroke-opacity="0.4" stroke-width="0.6"/>
<line x1="385.1" y1="637.0" x2="700.0" y2="400.0" stroke="#30363d" stroke-opacity="0.4" stroke-width="0.6"/>
<line x1="604.3" y1="548.4" x2="700.0" y2="400.0" stroke="#30363d" stroke-opacity="0.4" stroke-width="0.6"/>
<line x1="276.8" y1="205.8" x2="700.0" y2="400.0" stroke="#30363d" stroke-opacity="0.4" stroke-width="0.6"/>
<line x1="584.1" y1="266.3" x2="700.0" y2="400.0" stroke="#30363d" stroke-opacity="0.4" stroke-width="0.6"/>
<line x1="599.4" y1="290.4" x2="700.0" y2="400.0" stroke="#30363d" stroke-opacity="0.4" stroke-width="0.6"/>
<line x1="611.5" y1="316.3" x2="700.0" y2="400.0" stroke="#30363d" stroke-opacity="0.4" stroke-width="0.6"/>
<line x1="659.1" y1="466.5" x2="213.9" y2="264.8" stroke="#30363d" stroke-opacity="0.4" stroke-width="0.6"/>
<line x1="659.1" y1="466.5" x2="232.3" y2="242.6" stroke="#30363d" stroke-opacity="0.4" stroke-width="0.6"/>
<line x1="414.9" y1="637.0" x2="584.1" y2="266.3" stroke="#30363d" stroke-opacity="0.4" stroke-width="0.6"/>
<line x1="414.9" y1="637.0" x2="599.4" y2="290.4" stroke="#30363d" stroke-opacity="0.4" stroke-width="0.6"/>
<line x1="659.1" y1="466.5" x2="414.9" y2="637.0" stroke="#30363d" stroke-opacity="0.4" stroke-width="0.6"/>
<line x1="659.1" y1="466.5" x2="584.1" y2="266.3" stroke="#30363d" stroke-opacity="0.4" stroke-width="0.6"/>
<line x1="659.1" y1="466.5" x2="599.4" y2="290.4" stroke="#30363d" stroke-opacity="0.4" stroke-width="0.6"/>
<line x1="169.3" y1="429.1" x2="611.5" y2="316.3" stroke="#30363d" stroke-opacity="0.4" stroke-width="0.6"/>
<line x1="659.1" y1="466.5" x2="169.3" y2="429.1" stroke="#30363d" stroke-opacity="0.4" stroke-width="0.6"/>
<line x1="659.1" y1="466.5" x2="611.5" y2="316.3" stroke="#30363d" stroke-opacity="0.4" stroke-width="0.6"/>
<line x1="659.1" y1="466.5" x2="253.4" y2="222.8" stroke="#30363d" stroke-opacity="0.4" stroke-width="0.6"/>
<line x1="531.3" y1="606.9" x2="445.0" y2="635.7" stroke="#30363d" stroke-opacity="0.4" stroke-width="0.6"/>
<line x1="531.3" y1="606.9" x2="250.2" y2="581.1" stroke="#30363d" stroke-opacity="0.4" stroke-width="0.6"/>
<line x1="531.3" y1="606.9" x2="276.8" y2="205.8" stroke="#30363d" stroke-opacity="0.4" stroke-width="0.6"/>
<line x1="531.3" y1="606.9" x2="385.1" y2="637.0" stroke="#30363d" stroke-opacity="0.4" stroke-width="0.6"/>
<line x1="531.3" y1="606.9" x2="604.3" y2="548.4" stroke="#30363d" stroke-opacity="0.4" stroke-width="0.6"/>
<line x1="355.5" y1="633.3" x2="620.4" y2="343.4" stroke="#30363d" stroke-opacity="0.4" stroke-width="0.6"/>
<line x1="167.5" y1="400.0" x2="302.1" y2="191.9" stroke="#30363d" stroke-opacity="0.4" stroke-width="0.6"/>
<line x1="167.5" y1="400.0" x2="625.7" y2="371.5" stroke="#30363d" stroke-opacity="0.4" stroke-width="0.6"/>
<circle cx="700.0" cy="400.0" r="10.0" fill="#FF6B6B" opacity="0.8" filter="url(#glow)"/>
<text x="700.0" y="417.0" text-anchor="middle" fill="#8b949e" font-size="6" font-family="monospace">useAuth()</text>
<circle cx="665.4" cy="433.5" r="8.2" fill="#4ECDC4" opacity="0.8" filter="url(#glow)"/>
<text x="665.4" y="448.8" text-anchor="middle" fill="#8b949e" font-size="6" font-family="monospace">deploy.mjs</text>
<circle cx="659.1" cy="466.5" r="8.2" fill="#96CEB4" opacity="0.8" filter="url(#glow)"/>
<text x="659.1" y="481.8" text-anchor="middle" fill="#8b949e" font-size="6" font-family="monospace">index.jsx</text>
<circle cx="646.4" cy="497.6" r="8.0" fill="#FF6B6B" opacity="0.8" filter="url(#glow)"/>
<text x="646.4" y="512.6" text-anchor="middle" fill="#8b949e" font-size="6" font-family="monospace">useAuth.js</text>
<circle cx="621.3" cy="521.6" r="6.8" fill="#FFEAA7" opacity="0.8" filter="url(#glow)"/>
<text x="621.3" y="535.4" text-anchor="middle" fill="#8b949e" font-size="6" font-family="monospace">App.jsx</text>
<circle cx="604.3" cy="548.4" r="6.8" fill="#FF6B6B" opacity="0.8" filter="url(#glow)"/>
<text x="604.3" y="562.2" text-anchor="middle" fill="#8b949e" font-size="6" font-family="monospace">Studio.jsx</text>
<circle cx="580.4" cy="569.4" r="6.2" fill="#45B7D1" opacity="0.8" filter="url(#glow)"/>
<text x="580.4" y="582.7" text-anchor="middle" fill="#8b949e" font-size="6" font-family="monospace">AuthProvider.jsx</text>
<circle cx="556.2" cy="588.8" r="6.0" fill="#45B7D1" opacity="0.8" filter="url(#glow)"/>
<text x="556.2" y="601.8" text-anchor="middle" fill="#8b949e" font-size="6" font-family="monospace">firebase.js</text>
<circle cx="531.3" cy="606.9" r="6.0" fill="#FF6B6B" opacity="0.8" filter="url(#glow)"/>
<text x="531.3" y="619.9" text-anchor="middle" fill="#8b949e" font-size="6" font-family="monospace">index.jsx</text>
<circle cx="503.3" cy="619.4" r="5.8" fill="#45B7D1" opacity="0.8" filter="url(#glow)"/>
<text x="503.3" y="632.2" text-anchor="middle" fill="#8b949e" font-size="6" font-family="monospace">index.jsx</text>
<circle cx="474.2" cy="628.3" r="5.5" fill="#FFEAA7" opacity="0.8" filter="url(#glow)"/>
<circle cx="445.0" cy="635.7" r="5.5" fill="#45B7D1" opacity="0.8" filter="url(#glow)"/>
<circle cx="414.9" cy="637.0" r="5.2" fill="#96CEB4" opacity="0.8" filter="url(#glow)"/>
<circle cx="385.1" cy="637.0" r="5.2" fill="#45B7D1" opacity="0.8" filter="url(#glow)"/>
<circle cx="355.5" cy="633.3" r="5.2" fill="#DDA0DD" opacity="0.8" filter="url(#glow)"/>
<circle cx="327.4" cy="623.5" r="5.0" fill="#4ECDC4" opacity="0.8" filter="url(#glow)"/>
<circle cx="299.9" cy="612.6" r="5.0" fill="#4ECDC4" opacity="0.8" filter="url(#glow)"/>
<circle cx="274.1" cy="598.4" r="5.0" fill="#45B7D1" opacity="0.8" filter="url(#glow)"/>
<circle cx="250.2" cy="581.1" r="5.0" fill="#FF6B6B" opacity="0.8" filter="url(#glow)"/>
<circle cx="230.5" cy="559.2" r="4.8" fill="#4ECDC4" opacity="0.8" filter="url(#glow)"/>
<circle cx="211.9" cy="536.7" r="4.8" fill="#45B7D1" opacity="0.8" filter="url(#glow)"/>
<circle cx="196.3" cy="512.0" r="4.8" fill="#45B7D1" opacity="0.8" filter="url(#glow)"/>
<circle cx="183.8" cy="485.6" r="4.8" fill="#FF6B6B" opacity="0.8" filter="url(#glow)"/>
<circle cx="174.8" cy="457.8" r="4.8" fill="#FF6B6B" opacity="0.8" filter="url(#glow)"/>
<circle cx="169.3" cy="429.1" r="4.8" fill="#96CEB4" opacity="0.8" filter="url(#glow)"/>
<circle cx="167.5" cy="400.0" r="4.8" fill="#98D8C8" opacity="0.8" filter="url(#glow)"/>
<circle cx="171.8" cy="371.2" r="4.5" fill="#4ECDC4" opacity="0.8" filter="url(#glow)"/>
<circle cx="177.2" cy="342.8" r="4.5" fill="#4ECDC4" opacity="0.8" filter="url(#glow)"/>
<circle cx="186.2" cy="315.3" r="4.5" fill="#FF6B6B" opacity="0.8" filter="url(#glow)"/>
<circle cx="198.4" cy="289.2" r="4.5" fill="#FF6B6B" opacity="0.8" filter="url(#glow)"/>
<circle cx="213.9" cy="264.8" r="4.5" fill="#FF6B6B" opacity="0.8" filter="url(#glow)"/>
<circle cx="232.3" cy="242.6" r="4.5" fill="#FF6B6B" opacity="0.8" filter="url(#glow)"/>
<circle cx="253.4" cy="222.8" r="4.5" fill="#FF6B6B" opacity="0.8" filter="url(#glow)"/>
<circle cx="276.8" cy="205.8" r="4.5" fill="#FF6B6B" opacity="0.8" filter="url(#glow)"/>
<circle cx="302.1" cy="191.9" r="4.5" fill="#98D8C8" opacity="0.8" filter="url(#glow)"/>
<circle cx="329.7" cy="183.6" r="4.2" fill="#4ECDC4" opacity="0.8" filter="url(#glow)"/>
<circle cx="357.4" cy="176.5" r="4.2" fill="#4ECDC4" opacity="0.8" filter="url(#glow)"/>
<circle cx="385.7" cy="172.9" r="4.2" fill="#4ECDC4" opacity="0.8" filter="url(#glow)"/>
<circle cx="414.3" cy="172.9" r="4.2" fill="#4ECDC4" opacity="0.8" filter="url(#glow)"/>
<circle cx="442.6" cy="176.5" r="4.2" fill="#4ECDC4" opacity="0.8" filter="url(#glow)"/>
<circle cx="470.3" cy="183.6" r="4.2" fill="#FF6B6B" opacity="0.8" filter="url(#glow)"/>
<circle cx="496.9" cy="194.2" r="4.2" fill="#FF6B6B" opacity="0.8" filter="url(#glow)"/>
<circle cx="521.9" cy="207.9" r="4.2" fill="#FF6B6B" opacity="0.8" filter="url(#glow)"/>
<circle cx="545.0" cy="224.7" r="4.2" fill="#45B7D1" opacity="0.8" filter="url(#glow)"/>
<circle cx="565.8" cy="244.3" r="4.2" fill="#FFEAA7" opacity="0.8" filter="url(#glow)"/>
<circle cx="584.1" cy="266.3" r="4.2" fill="#96CEB4" opacity="0.8" filter="url(#glow)"/>
<circle cx="599.4" cy="290.4" r="4.2" fill="#96CEB4" opacity="0.8" filter="url(#glow)"/>
<circle cx="611.5" cy="316.3" r="4.2" fill="#96CEB4" opacity="0.8" filter="url(#glow)"/>
<circle cx="620.4" cy="343.4" r="4.2" fill="#DDA0DD" opacity="0.8" filter="url(#glow)"/>
<circle cx="625.7" cy="371.5" r="4.2" fill="#98D8C8" opacity="0.8" filter="url(#glow)"/>
<text x="400" y="28" text-anchor="middle" fill="#e6edf3" font-size="13" font-family="sans-serif" font-weight="bold">mockenza</text>
<text x="400" y="46" text-anchor="middle" fill="#484f58" font-size="9" font-family="monospace">124 nodes · 217 links · 12 communities</text>
<rect x="15" y="697" width="8" height="8" fill="#FF6B6B" rx="1.5" alpha="0.8"/>
<text x="28" y="704" fill="#6e7681" font-size="7" font-family="monospace">C0: AuthContext.js (29)</text>
<rect x="15" y="709" width="8" height="8" fill="#4ECDC4" rx="1.5" alpha="0.8"/>
<text x="28" y="716" fill="#6e7681" font-size="7" font-family="monospace">C1: deploy.mjs (20)</text>
<rect x="15" y="721" width="8" height="8" fill="#45B7D1" rx="1.5" alpha="0.8"/>
<text x="28" y="728" fill="#6e7681" font-size="7" font-family="monospace">C2: AuthProvider.jsx (18)</text>
<rect x="15" y="733" width="8" height="8" fill="#96CEB4" rx="1.5" alpha="0.8"/>
<text x="28" y="740" fill="#6e7681" font-size="7" font-family="monospace">C3: Problem.jsx (16)</text>
<rect x="15" y="745" width="8" height="8" fill="#FFEAA7" rx="1.5" alpha="0.8"/>
<text x="28" y="752" fill="#6e7681" font-size="7" font-family="monospace">C4: main.jsx (12)</text>
<rect x="15" y="757" width="8" height="8" fill="#DDA0DD" rx="1.5" alpha="0.8"/>
<text x="28" y="764" fill="#6e7681" font-size="7" font-family="monospace">C5: README.md (12)</text>
<rect x="15" y="769" width="8" height="8" fill="#98D8C8" rx="1.5" alpha="0.8"/>
<text x="28" y="776" fill="#6e7681" font-size="7" font-family="monospace">C6: DOCUMENTATION.md (11)</text>
<rect x="15" y="781" width="8" height="8" fill="#F7DC6F" rx="1.5" alpha="0.8"/>
<text x="28" y="788" fill="#6e7681" font-size="7" font-family="monospace">C7: send-email.php (2)</text>
</svg>