<?xml version="1.0" encoding="UTF-8"?>
<svg xmlns="http://www.w3.org/2000/svg" viewBox="0 0 800 800" width="800" height="800">
<defs><filter id="glow"><feGaussianBlur stdDeviation="1.5" result="coloredBlur"/><feMerge><feMergeNode in="coloredBlur"/><feMergeNode in="SourceGraphic"/></feMerge></filter></defs>
<rect width="800" height="800" fill="#0d1117"/>
<line x1="665.4" y1="433.5" x2="179.6" y2="456.6" stroke="#30363d" stroke-opacity="0.4" stroke-width="0.6"/>
<line x1="665.4" y1="433.5" x2="356.9" y2="625.9" stroke="#30363d" stroke-opacity="0.4" stroke-width="0.6"/>
<line x1="665.4" y1="433.5" x2="543.4" y2="226.6" stroke="#30363d" stroke-opacity="0.4" stroke-width="0.6"/>
<line x1="665.4" y1="433.5" x2="564.0" y2="246.0" stroke="#30363d" stroke-opacity="0.4" stroke-width="0.6"/>
<line x1="665.4" y1="433.5" x2="582.0" y2="267.7" stroke="#30363d" stroke-opacity="0.4" stroke-width="0.6"/>
<line x1="665.4" y1="433.5" x2="597.2" y2="291.6" stroke="#30363d" stroke-opacity="0.4" stroke-width="0.6"/>
<line x1="665.4" y1="433.5" x2="174.3" y2="428.5" stroke="#30363d" stroke-opacity="0.4" stroke-width="0.6"/>
<line x1="665.4" y1="433.5" x2="328.9" y2="618.7" stroke="#30363d" stroke-opacity="0.4" stroke-width="0.6"/>
<line x1="665.4" y1="433.5" x2="172.5" y2="400.0" stroke="#30363d" stroke-opacity="0.4" stroke-width="0.6"/>
<line x1="665.4" y1="433.5" x2="174.3" y2="371.5" stroke="#30363d" stroke-opacity="0.4" stroke-width="0.6"/>
<line x1="665.4" y1="433.5" x2="471.8" y2="621.1" stroke="#30363d" stroke-opacity="0.4" stroke-width="0.6"/>
<line x1="665.4" y1="433.5" x2="179.6" y2="343.4" stroke="#30363d" stroke-opacity="0.4" stroke-width="0.6"/>
<line x1="665.4" y1="433.5" x2="549.8" y2="581.1" stroke="#30363d" stroke-opacity="0.4" stroke-width="0.6"/>
<line x1="665.4" y1="433.5" x2="525.9" y2="598.4" stroke="#30363d" stroke-opacity="0.4" stroke-width="0.6"/>
<line x1="471.8" y1="621.1" x2="179.6" y2="456.6" stroke="#30363d" stroke-opacity="0.4" stroke-width="0.6"/>
<line x1="549.8" y1="581.1" x2="179.6" y2="456.6" stroke="#30363d" stroke-opacity="0.4" stroke-width="0.6"/>
<line x1="172.5" y1="400.0" x2="356.9" y2="625.9" stroke="#30363d" stroke-opacity="0.4" stroke-width="0.6"/>
<line x1="174.3" y1="371.5" x2="356.9" y2="625.9" stroke="#30363d" stroke-opacity="0.4" stroke-width="0.6"/>
<line x1="179.6" y1="343.4" x2="356.9" y2="625.9" stroke="#30363d" stroke-opacity="0.4" stroke-width="0.6"/>
<line x1="471.8" y1="621.1" x2="543.4" y2="226.6" stroke="#30363d" stroke-opacity="0.4" stroke-width="0.6"/>
<line x1="525.9" y1="598.4" x2="564.0" y2="246.0" stroke="#30363d" stroke-opacity="0.4" stroke-width="0.6"/>
<line x1="471.8" y1="621.1" x2="582.0" y2="267.7" stroke="#30363d" stroke-opacity="0.4" stroke-width="0.6"/>
<line x1="328.9" y1="618.7" x2="597.2" y2="291.6" stroke="#30363d" stroke-opacity="0.4" stroke-width="0.6"/>
<line x1="328.9" y1="618.7" x2="174.3" y2="428.5" stroke="#30363d" stroke-opacity="0.4" stroke-width="0.6"/>
<line x1="549.8" y1="581.1" x2="174.3" y2="428.5" stroke="#30363d" stroke-opacity="0.4" stroke-width="0.6"/>
<line x1="549.8" y1="581.1" x2="328.9" y2="618.7" stroke="#30363d" stroke-opacity="0.4" stroke-width="0.6"/>
<line x1="525.9" y1="598.4" x2="172.5" y2="400.0" stroke="#30363d" stroke-opacity="0.4" stroke-width="0.6"/>
<line x1="525.9" y1="598.4" x2="174.3" y2="371.5" stroke="#30363d" stroke-opacity="0.4" stroke-width="0.6"/>
<line x1="525.9" y1="598.4" x2="471.8" y2="621.1" stroke="#30363d" stroke-opacity="0.4" stroke-width="0.6"/>
<line x1="549.8" y1="581.1" x2="179.6" y2="343.4" stroke="#30363d" stroke-opacity="0.4" stroke-width="0.6"/>
<line x1="525.9" y1="598.4" x2="549.8" y2="581.1" stroke="#30363d" stroke-opacity="0.4" stroke-width="0.6"/>
<line x1="700.0" y1="400.0" x2="414.3" y2="172.9" stroke="#30363d" stroke-opacity="0.4" stroke-width="0.6"/>
<line x1="700.0" y1="400.0" x2="617.9" y2="344.0" stroke="#30363d" stroke-opacity="0.4" stroke-width="0.6"/>
<line x1="700.0" y1="400.0" x2="623.2" y2="371.8" stroke="#30363d" stroke-opacity="0.4" stroke-width="0.6"/>
<line x1="700.0" y1="400.0" x2="443.6" y2="628.4" stroke="#30363d" stroke-opacity="0.4" stroke-width="0.6"/>
<line x1="700.0" y1="400.0" x2="627.8" y2="490.2" stroke="#30363d" stroke-opacity="0.4" stroke-width="0.6"/>
<line x1="700.0" y1="400.0" x2="198.4" y2="510.8" stroke="#30363d" stroke-opacity="0.4" stroke-width="0.6"/>
<line x1="700.0" y1="400.0" x2="592.1" y2="539.6" stroke="#30363d" stroke-opacity="0.4" stroke-width="0.6"/>
<line x1="700.0" y1="400.0" x2="303.1" y2="194.2" stroke="#30363d" stroke-opacity="0.4" stroke-width="0.6"/>
<line x1="700.0" y1="400.0" x2="302.1" y2="608.1" stroke="#30363d" stroke-opacity="0.4" stroke-width="0.6"/>
<line x1="700.0" y1="400.0" x2="188.5" y2="316.3" stroke="#30363d" stroke-opacity="0.4" stroke-width="0.6"/>
<line x1="700.0" y1="400.0" x2="357.4" y2="176.5" stroke="#30363d" stroke-opacity="0.4" stroke-width="0.6"/>
<line x1="700.0" y1="400.0" x2="234.2" y2="244.3" stroke="#30363d" stroke-opacity="0.4" stroke-width="0.6"/>
<line x1="700.0" y1="400.0" x2="255.0" y2="224.7" stroke="#30363d" stroke-opacity="0.4" stroke-width="0.6"/>
<line x1="700.0" y1="400.0" x2="329.7" y2="183.6" stroke="#30363d" stroke-opacity="0.4" stroke-width="0.6"/>
<line x1="700.0" y1="400.0" x2="200.6" y2="290.4" stroke="#30363d" stroke-opacity="0.4" stroke-width="0.6"/>
<line x1="700.0" y1="400.0" x2="278.1" y2="207.9" stroke="#30363d" stroke-opacity="0.4" stroke-width="0.6"/>
<line x1="700.0" y1="400.0" x2="215.9" y2="266.3" stroke="#30363d" stroke-opacity="0.4" stroke-width="0.6"/>
<line x1="700.0" y1="400.0" x2="385.7" y2="172.9" stroke="#30363d" stroke-opacity="0.4" stroke-width="0.6"/>
<line x1="700.0" y1="400.0" x2="442.6" y2="176.5" stroke="#30363d" stroke-opacity="0.4" stroke-width="0.6"/>
<line x1="700.0" y1="400.0" x2="612.5" y2="516.8" stroke="#30363d" stroke-opacity="0.4" stroke-width="0.6"/>
<line x1="700.0" y1="400.0" x2="276.8" y2="594.2" stroke="#30363d" stroke-opacity="0.4" stroke-width="0.6"/>
<line x1="700.0" y1="400.0" x2="213.9" y2="535.2" stroke="#30363d" stroke-opacity="0.4" stroke-width="0.6"/>
<line x1="700.0" y1="400.0" x2="253.4" y2="577.2" stroke="#30363d" stroke-opacity="0.4" stroke-width="0.6"/>
<line x1="700.0" y1="400.0" x2="414.6" y2="632.0" stroke="#30363d" stroke-opacity="0.4" stroke-width="0.6"/>
<line x1="302.1" y1="608.1" x2="644.6" y2="462.8" stroke="#30363d" stroke-opacity="0.4" stroke-width="0.6"/>
<line x1="188.5" y1="316.3" x2="644.6" y2="462.8" stroke="#30363d" stroke-opacity="0.4" stroke-width="0.6"/>
<line x1="200.6" y1="290.4" x2="644.6" y2="462.8" stroke="#30363d" stroke-opacity="0.4" stroke-width="0.6"/>
<line x1="215.9" y1="266.3" x2="644.6" y2="462.8" stroke="#30363d" stroke-opacity="0.4" stroke-width="0.6"/>
<line x1="234.2" y1="244.3" x2="644.6" y2="462.8" stroke="#30363d" stroke-opacity="0.4" stroke-width="0.6"/>
<line x1="255.0" y1="224.7" x2="644.6" y2="462.8" stroke="#30363d" stroke-opacity="0.4" stroke-width="0.6"/>
<line x1="278.1" y1="207.9" x2="644.6" y2="462.8" stroke="#30363d" stroke-opacity="0.4" stroke-width="0.6"/>
<line x1="303.1" y1="194.2" x2="644.6" y2="462.8" stroke="#30363d" stroke-opacity="0.4" stroke-width="0.6"/>
<line x1="329.7" y1="183.6" x2="644.6" y2="462.8" stroke="#30363d" stroke-opacity="0.4" stroke-width="0.6"/>
<line x1="357.4" y1="176.5" x2="644.6" y2="462.8" stroke="#30363d" stroke-opacity="0.4" stroke-width="0.6"/>
<line x1="385.7" y1="172.9" x2="644.6" y2="462.8" stroke="#30363d" stroke-opacity="0.4" stroke-width="0.6"/>
<line x1="414.3" y1="172.9" x2="644.6" y2="462.8" stroke="#30363d" stroke-opacity="0.4" stroke-width="0.6"/>
<line x1="302.1" y1="608.1" x2="609.2" y2="317.2" stroke="#30363d" stroke-opacity="0.4" stroke-width="0.6"/>
<line x1="443.6" y1="628.4" x2="627.8" y2="490.2" stroke="#30363d" stroke-opacity="0.4" stroke-width="0.6"/>
<line x1="443.6" y1="628.4" x2="198.4" y2="510.8" stroke="#30363d" stroke-opacity="0.4" stroke-width="0.6"/>
<line x1="443.6" y1="628.4" x2="592.1" y2="539.6" stroke="#30363d" stroke-opacity="0.4" stroke-width="0.6"/>
<line x1="276.8" y1="594.2" x2="627.8" y2="490.2" stroke="#30363d" stroke-opacity="0.4" stroke-width="0.6"/>
<line x1="276.8" y1="594.2" x2="592.1" y2="539.6" stroke="#30363d" stroke-opacity="0.4" stroke-width="0.6"/>
<line x1="253.4" y1="577.2" x2="627.8" y2="490.2" stroke="#30363d" stroke-opacity="0.4" stroke-width="0.6"/>
<line x1="253.4" y1="577.2" x2="592.1" y2="539.6" stroke="#30363d" stroke-opacity="0.4" stroke-width="0.6"/>
<line x1="232.3" y1="557.4" x2="500.1" y2="612.6" stroke="#30363d" stroke-opacity="0.4" stroke-width="0.6"/>
<line x1="232.3" y1="557.4" x2="470.3" y2="183.6" stroke="#30363d" stroke-opacity="0.4" stroke-width="0.6"/>
<line x1="612.5" y1="516.8" x2="232.3" y2="557.4" stroke="#30363d" stroke-opacity="0.4" stroke-width="0.6"/>
<line x1="213.9" y1="535.2" x2="627.8" y2="490.2" stroke="#30363d" stroke-opacity="0.4" stroke-width="0.6"/>
<line x1="213.9" y1="535.2" x2="592.1" y2="539.6" stroke="#30363d" stroke-opacity="0.4" stroke-width="0.6"/>
<line x1="612.5" y1="516.8" x2="500.1" y2="612.6" stroke="#30363d" stroke-opacity="0.4" stroke-width="0.6"/>
<line x1="612.5" y1="516.8" x2="470.3" y2="183.6" stroke="#30363d" stroke-opacity="0.4" stroke-width="0.6"/>
<line x1="612.5" y1="516.8" x2="627.8" y2="490.2" stroke="#30363d" stroke-opacity="0.4" stroke-width="0.6"/>
<line x1="612.5" y1="516.8" x2="592.1" y2="539.6" stroke="#30363d" stroke-opacity="0.4" stroke-width="0.6"/>
<line x1="612.5" y1="516.8" x2="198.4" y2="510.8" stroke="#30363d" stroke-opacity="0.4" stroke-width="0.6"/>
<line x1="500.1" y1="612.6" x2="470.3" y2="183.6" stroke="#30363d" stroke-opacity="0.4" stroke-width="0.6"/>
<line x1="627.8" y1="490.2" x2="198.4" y2="510.8" stroke="#30363d" stroke-opacity="0.4" stroke-width="0.6"/>
<line x1="627.8" y1="490.2" x2="592.1" y2="539.6" stroke="#30363d" stroke-opacity="0.4" stroke-width="0.6"/>
<line x1="573.1" y1="562.6" x2="496.9" y2="194.2" stroke="#30363d" stroke-opacity="0.4" stroke-width="0.6"/>
<line x1="385.4" y1="632.0" x2="186.2" y2="484.7" stroke="#30363d" stroke-opacity="0.4" stroke-width="0.6"/>
<line x1="385.4" y1="632.0" x2="521.9" y2="207.9" stroke="#30363d" stroke-opacity="0.4" stroke-width="0.6"/>
<circle cx="700.0" cy="400.0" r="10.0" fill="#4ECDC4" opacity="0.8" filter="url(#glow)"/>
<text x="700.0" y="417.0" text-anchor="middle" fill="#8b949e" font-size="6" font-family="monospace">App.jsx</text>
<circle cx="665.4" cy="433.5" r="8.2" fill="#45B7D1" opacity="0.8" filter="url(#glow)"/>
<text x="665.4" y="448.8" text-anchor="middle" fill="#8b949e" font-size="6" font-family="monospace">deploy.mjs</text>
<circle cx="644.6" cy="462.8" r="6.8" fill="#FF6B6B" opacity="0.8" filter="url(#glow)"/>
<text x="644.6" y="476.5" text-anchor="middle" fill="#8b949e" font-size="6" font-family="monospace">Reveal.jsx</text>
<circle cx="627.8" cy="490.2" r="6.0" fill="#96CEB4" opacity="0.8" filter="url(#glow)"/>
<text x="627.8" y="503.2" text-anchor="middle" fill="#8b949e" font-size="6" font-family="monospace">firebase.js</text>
<circle cx="612.5" cy="516.8" r="5.8" fill="#98D8C8" opacity="0.8" filter="url(#glow)"/>
<text x="612.5" y="529.6" text-anchor="middle" fill="#8b949e" font-size="6" font-family="monospace">Tools.jsx</text>
<circle cx="592.1" cy="539.6" r="5.2" fill="#96CEB4" opacity="0.8" filter="url(#glow)"/>
<circle cx="573.1" cy="562.6" r="5.2" fill="#FFEAA7" opacity="0.8" filter="url(#glow)"/>
<circle cx="549.8" cy="581.1" r="5.0" fill="#45B7D1" opacity="0.8" filter="url(#glow)"/>
<circle cx="525.9" cy="598.4" r="5.0" fill="#45B7D1" opacity="0.8" filter="url(#glow)"/>
<circle cx="500.1" cy="612.6" r="5.0" fill="#98D8C8" opacity="0.8" filter="url(#glow)"/>
<circle cx="471.8" cy="621.1" r="4.8" fill="#45B7D1" opacity="0.8" filter="url(#glow)"/>
<circle cx="443.6" cy="628.4" r="4.8" fill="#96CEB4" opacity="0.8" filter="url(#glow)"/>
<circle cx="414.6" cy="632.0" r="4.8" fill="#4ECDC4" opacity="0.8" filter="url(#glow)"/>
<circle cx="385.4" cy="632.0" r="4.8" fill="#DDA0DD" opacity="0.8" filter="url(#glow)"/>
<circle cx="356.9" cy="625.9" r="4.5" fill="#45B7D1" opacity="0.8" filter="url(#glow)"/>
<circle cx="328.9" cy="618.7" r="4.5" fill="#45B7D1" opacity="0.8" filter="url(#glow)"/>
<circle cx="302.1" cy="608.1" r="4.5" fill="#F7DC6F" opacity="0.8" filter="url(#glow)"/>
<circle cx="276.8" cy="594.2" r="4.5" fill="#96CEB4" opacity="0.8" filter="url(#glow)"/>
<circle cx="253.4" cy="577.2" r="4.5" fill="#96CEB4" opacity="0.8" filter="url(#glow)"/>
<circle cx="232.3" cy="557.4" r="4.5" fill="#98D8C8" opacity="0.8" filter="url(#glow)"/>
<circle cx="213.9" cy="535.2" r="4.5" fill="#96CEB4" opacity="0.8" filter="url(#glow)"/>
<circle cx="198.4" cy="510.8" r="4.5" fill="#96CEB4" opacity="0.8" filter="url(#glow)"/>
<circle cx="186.2" cy="484.7" r="4.5" fill="#DDA0DD" opacity="0.8" filter="url(#glow)"/>
<circle cx="179.6" cy="456.6" r="4.2" fill="#45B7D1" opacity="0.8" filter="url(#glow)"/>
<circle cx="174.3" cy="428.5" r="4.2" fill="#45B7D1" opacity="0.8" filter="url(#glow)"/>
<circle cx="172.5" cy="400.0" r="4.2" fill="#45B7D1" opacity="0.8" filter="url(#glow)"/>
<circle cx="174.3" cy="371.5" r="4.2" fill="#45B7D1" opacity="0.8" filter="url(#glow)"/>
<circle cx="179.6" cy="343.4" r="4.2" fill="#45B7D1" opacity="0.8" filter="url(#glow)"/>
<circle cx="188.5" cy="316.3" r="4.2" fill="#FF6B6B" opacity="0.8" filter="url(#glow)"/>
<circle cx="200.6" cy="290.4" r="4.2" fill="#FF6B6B" opacity="0.8" filter="url(#glow)"/>
<circle cx="215.9" cy="266.3" r="4.2" fill="#FF6B6B" opacity="0.8" filter="url(#glow)"/>
<circle cx="234.2" cy="244.3" r="4.2" fill="#FF6B6B" opacity="0.8" filter="url(#glow)"/>
<circle cx="255.0" cy="224.7" r="4.2" fill="#FF6B6B" opacity="0.8" filter="url(#glow)"/>
<circle cx="278.1" cy="207.9" r="4.2" fill="#FF6B6B" opacity="0.8" filter="url(#glow)"/>
<circle cx="303.1" cy="194.2" r="4.2" fill="#FF6B6B" opacity="0.8" filter="url(#glow)"/>
<circle cx="329.7" cy="183.6" r="4.2" fill="#FF6B6B" opacity="0.8" filter="url(#glow)"/>
<circle cx="357.4" cy="176.5" r="4.2" fill="#FF6B6B" opacity="0.8" filter="url(#glow)"/>
<circle cx="385.7" cy="172.9" r="4.2" fill="#FF6B6B" opacity="0.8" filter="url(#glow)"/>
<circle cx="414.3" cy="172.9" r="4.2" fill="#FF6B6B" opacity="0.8" filter="url(#glow)"/>
<circle cx="442.6" cy="176.5" r="4.2" fill="#4ECDC4" opacity="0.8" filter="url(#glow)"/>
<circle cx="470.3" cy="183.6" r="4.2" fill="#98D8C8" opacity="0.8" filter="url(#glow)"/>
<circle cx="496.9" cy="194.2" r="4.2" fill="#FFEAA7" opacity="0.8" filter="url(#glow)"/>
<circle cx="521.9" cy="207.9" r="4.2" fill="#DDA0DD" opacity="0.8" filter="url(#glow)"/>
<circle cx="543.4" cy="226.6" r="4.0" fill="#45B7D1" opacity="0.8" filter="url(#glow)"/>
<circle cx="564.0" cy="246.0" r="4.0" fill="#45B7D1" opacity="0.8" filter="url(#glow)"/>
<circle cx="582.0" cy="267.7" r="4.0" fill="#45B7D1" opacity="0.8" filter="url(#glow)"/>
<circle cx="597.2" cy="291.6" r="4.0" fill="#45B7D1" opacity="0.8" filter="url(#glow)"/>
<circle cx="609.2" cy="317.2" r="4.0" fill="#F7DC6F" opacity="0.8" filter="url(#glow)"/>
<circle cx="617.9" cy="344.0" r="4.0" fill="#4ECDC4" opacity="0.8" filter="url(#glow)"/>
<circle cx="623.2" cy="371.8" r="4.0" fill="#4ECDC4" opacity="0.8" filter="url(#glow)"/>
<text x="400" y="28" text-anchor="middle" fill="#e6edf3" font-size="13" font-family="sans-serif" font-weight="bold">skillnira</text>
<text x="400" y="46" text-anchor="middle" fill="#484f58" font-size="9" font-family="monospace">119 nodes · 159 links · 13 communities</text>
<rect x="15" y="697" width="8" height="8" fill="#FF6B6B" rx="1.5" alpha="0.8"/>
<text x="28" y="704" fill="#6e7681" font-size="7" font-family="monospace">C0: Reveal.jsx (24)</text>
<rect x="15" y="709" width="8" height="8" fill="#4ECDC4" rx="1.5" alpha="0.8"/>
<text x="28" y="716" fill="#6e7681" font-size="7" font-family="monospace">C1: main.jsx (21)</text>
<rect x="15" y="721" width="8" height="8" fill="#45B7D1" rx="1.5" alpha="0.8"/>
<text x="28" y="728" fill="#6e7681" font-size="7" font-family="monospace">C2: deploy.mjs (20)</text>
<rect x="15" y="733" width="8" height="8" fill="#96CEB4" rx="1.5" alpha="0.8"/>
<text x="28" y="740" fill="#6e7681" font-size="7" font-family="monospace">C3: AuthModal.jsx (13)</text>
<rect x="15" y="745" width="8" height="8" fill="#FFEAA7" rx="1.5" alpha="0.8"/>
<text x="28" y="752" fill="#6e7681" font-size="7" font-family="monospace">C4: README.md (12)</text>
<rect x="15" y="757" width="8" height="8" fill="#DDA0DD" rx="1.5" alpha="0.8"/>
<text x="28" y="764" fill="#6e7681" font-size="7" font-family="monospace">C5: DOCUMENTATION.md (11)</text>
<rect x="15" y="769" width="8" height="8" fill="#98D8C8" rx="1.5" alpha="0.8"/>
<text x="28" y="776" fill="#6e7681" font-size="7" font-family="monospace">C6: DocumentRenderer.j (9)</text>
<rect x="15" y="781" width="8" height="8" fill="#F7DC6F" rx="1.5" alpha="0.8"/>
<text x="28" y="788" fill="#6e7681" font-size="7" font-family="monospace">C7: CountUp.jsx (4)</text>
</svg>