<?xml version="1.0" encoding="UTF-8"?>
<svg xmlns="http://www.w3.org/2000/svg" viewBox="0 0 800 800" width="800" height="800">
<defs><filter id="glow"><feGaussianBlur stdDeviation="1.5" result="coloredBlur"/><feMerge><feMergeNode in="coloredBlur"/><feMergeNode in="SourceGraphic"/></feMerge></filter></defs>
<rect width="800" height="800" fill="#0d1117"/>
<line x1="165.0" y1="400.0" x2="275.4" y2="203.7" stroke="#30363d" stroke-opacity="0.4" stroke-width="0.6"/>
<line x1="503.3" y1="619.4" x2="474.2" y2="628.3" stroke="#30363d" stroke-opacity="0.4" stroke-width="0.6"/>
<line x1="503.3" y1="619.4" x2="328.2" y2="178.9" stroke="#30363d" stroke-opacity="0.4" stroke-width="0.6"/>
<line x1="503.3" y1="619.4" x2="445.0" y2="635.7" stroke="#30363d" stroke-opacity="0.4" stroke-width="0.6"/>
<line x1="503.3" y1="619.4" x2="166.9" y2="370.5" stroke="#30363d" stroke-opacity="0.4" stroke-width="0.6"/>
<line x1="503.3" y1="619.4" x2="326.6" y2="625.9" stroke="#30363d" stroke-opacity="0.4" stroke-width="0.6"/>
<line x1="474.2" y1="628.3" x2="497.9" y2="191.9" stroke="#30363d" stroke-opacity="0.4" stroke-width="0.6"/>
<line x1="474.2" y1="628.3" x2="301.0" y2="189.6" stroke="#30363d" stroke-opacity="0.4" stroke-width="0.6"/>
<line x1="474.2" y1="628.3" x2="523.2" y2="205.8" stroke="#30363d" stroke-opacity="0.4" stroke-width="0.6"/>
<line x1="326.6" y1="625.9" x2="356.4" y2="171.6" stroke="#30363d" stroke-opacity="0.4" stroke-width="0.6"/>
<line x1="326.6" y1="625.9" x2="565.8" y2="244.3" stroke="#30363d" stroke-opacity="0.4" stroke-width="0.6"/>
<line x1="326.6" y1="625.9" x2="584.1" y2="266.3" stroke="#30363d" stroke-opacity="0.4" stroke-width="0.6"/>
<line x1="326.6" y1="625.9" x2="599.4" y2="290.4" stroke="#30363d" stroke-opacity="0.4" stroke-width="0.6"/>
<line x1="660.3" y1="503.1" x2="298.9" y2="614.9" stroke="#30363d" stroke-opacity="0.4" stroke-width="0.6"/>
<line x1="660.3" y1="503.1" x2="172.4" y2="341.6" stroke="#30363d" stroke-opacity="0.4" stroke-width="0.6"/>
<line x1="660.3" y1="503.1" x2="727.5" y2="400.0" stroke="#30363d" stroke-opacity="0.4" stroke-width="0.6"/>
<line x1="660.3" y1="503.1" x2="415.1" y2="639.5" stroke="#30363d" stroke-opacity="0.4" stroke-width="0.6"/>
<line x1="660.3" y1="503.1" x2="611.5" y2="316.3" stroke="#30363d" stroke-opacity="0.4" stroke-width="0.6"/>
<line x1="660.3" y1="503.1" x2="272.7" y2="600.5" stroke="#30363d" stroke-opacity="0.4" stroke-width="0.6"/>
<line x1="660.3" y1="503.1" x2="385.4" y2="168.0" stroke="#30363d" stroke-opacity="0.4" stroke-width="0.6"/>
<line x1="660.3" y1="503.1" x2="625.7" y2="371.5" stroke="#30363d" stroke-opacity="0.4" stroke-width="0.6"/>
<line x1="298.9" y1="614.9" x2="578.6" y2="567.7" stroke="#30363d" stroke-opacity="0.4" stroke-width="0.6"/>
<line x1="611.5" y1="316.3" x2="181.5" y2="313.5" stroke="#30363d" stroke-opacity="0.4" stroke-width="0.6"/>
<line x1="385.4" y1="168.0" x2="620.4" y2="343.4" stroke="#30363d" stroke-opacity="0.4" stroke-width="0.6"/>
<line x1="645.4" y1="534.9" x2="226.9" y2="562.6" stroke="#30363d" stroke-opacity="0.4" stroke-width="0.6"/>
<line x1="645.4" y1="534.9" x2="194.1" y2="286.8" stroke="#30363d" stroke-opacity="0.4" stroke-width="0.6"/>
<line x1="645.4" y1="534.9" x2="724.9" y2="441.0" stroke="#30363d" stroke-opacity="0.4" stroke-width="0.6"/>
<line x1="645.4" y1="534.9" x2="384.9" y2="639.5" stroke="#30363d" stroke-opacity="0.4" stroke-width="0.6"/>
<line x1="645.4" y1="534.9" x2="207.9" y2="539.6" stroke="#30363d" stroke-opacity="0.4" stroke-width="0.6"/>
<line x1="645.4" y1="534.9" x2="414.6" y2="168.0" stroke="#30363d" stroke-opacity="0.4" stroke-width="0.6"/>
<line x1="226.9" y1="562.6" x2="556.2" y2="588.8" stroke="#30363d" stroke-opacity="0.4" stroke-width="0.6"/>
<line x1="620.5" y1="560.2" x2="179.2" y2="487.4" stroke="#30363d" stroke-opacity="0.4" stroke-width="0.6"/>
<line x1="620.5" y1="560.2" x2="228.7" y2="239.1" stroke="#30363d" stroke-opacity="0.4" stroke-width="0.6"/>
<line x1="620.5" y1="560.2" x2="717.2" y2="481.4" stroke="#30363d" stroke-opacity="0.4" stroke-width="0.6"/>
<line x1="620.5" y1="560.2" x2="355.0" y2="635.7" stroke="#30363d" stroke-opacity="0.4" stroke-width="0.6"/>
<line x1="620.5" y1="560.2" x2="170.0" y2="459.1" stroke="#30363d" stroke-opacity="0.4" stroke-width="0.6"/>
<line x1="620.5" y1="560.2" x2="443.6" y2="171.6" stroke="#30363d" stroke-opacity="0.4" stroke-width="0.6"/>
<line x1="179.2" y1="487.4" x2="531.3" y2="606.9" stroke="#30363d" stroke-opacity="0.4" stroke-width="0.6"/>
<circle cx="727.5" cy="400.0" r="10.0" fill="#FF6B6B" opacity="0.8" filter="url(#glow)"/>
<text x="727.5" y="417.0" text-anchor="middle" fill="#8b949e" font-size="6" font-family="monospace">Box Shadows</text>
<circle cx="724.9" cy="441.0" r="10.0" fill="#4ECDC4" opacity="0.8" filter="url(#glow)"/>
<text x="724.9" y="458.0" text-anchor="middle" fill="#8b949e" font-size="6" font-family="monospace">Box Shadows</text>
<circle cx="717.2" cy="481.4" r="10.0" fill="#45B7D1" opacity="0.8" filter="url(#glow)"/>
<text x="717.2" y="498.4" text-anchor="middle" fill="#8b949e" font-size="6" font-family="monospace">Box Shadows</text>
<circle cx="660.3" cy="503.1" r="9.5" fill="#96CEB4" opacity="0.8" filter="url(#glow)"/>
<text x="660.3" y="519.6" text-anchor="middle" fill="#8b949e" font-size="6" font-family="monospace">Design Language: Dark </text>
<circle cx="645.4" cy="534.9" r="9.5" fill="#FFEAA7" opacity="0.8" filter="url(#glow)"/>
<text x="645.4" y="551.4" text-anchor="middle" fill="#8b949e" font-size="6" font-family="monospace">Design Language: Dark </text>
<circle cx="620.5" cy="560.2" r="8.8" fill="#DDA0DD" opacity="0.8" filter="url(#glow)"/>
<text x="620.5" y="575.9" text-anchor="middle" fill="#8b949e" font-size="6" font-family="monospace">Design Language: Dark </text>
<circle cx="578.6" cy="567.7" r="6.0" fill="#555" opacity="0.8" filter="url(#glow)"/>
<text x="578.6" y="580.7" text-anchor="middle" fill="#8b949e" font-size="6" font-family="monospace">Gradients</text>
<circle cx="556.2" cy="588.8" r="6.0" fill="#555" opacity="0.8" filter="url(#glow)"/>
<text x="556.2" y="601.8" text-anchor="middle" fill="#8b949e" font-size="6" font-family="monospace">Gradients</text>
<circle cx="531.3" cy="606.9" r="6.0" fill="#555" opacity="0.8" filter="url(#glow)"/>
<text x="531.3" y="619.9" text-anchor="middle" fill="#8b949e" font-size="6" font-family="monospace">Gradients</text>
<circle cx="503.3" cy="619.4" r="5.8" fill="#98D8C8" opacity="0.8" filter="url(#glow)"/>
<text x="503.3" y="632.2" text-anchor="middle" fill="#8b949e" font-size="6" font-family="monospace">Terrastone — Design Do</text>
<circle cx="474.2" cy="628.3" r="5.5" fill="#F7DC6F" opacity="0.8" filter="url(#glow)"/>
<circle cx="445.0" cy="635.7" r="5.5" fill="#98D8C8" opacity="0.8" filter="url(#glow)"/>
<circle cx="415.1" cy="639.5" r="5.5" fill="#555" opacity="0.8" filter="url(#glow)"/>
<circle cx="384.9" cy="639.5" r="5.5" fill="#555" opacity="0.8" filter="url(#glow)"/>
<circle cx="355.0" cy="635.7" r="5.5" fill="#555" opacity="0.8" filter="url(#glow)"/>
<circle cx="326.6" cy="625.9" r="5.2" fill="#555" opacity="0.8" filter="url(#glow)"/>
<circle cx="298.9" cy="614.9" r="5.2" fill="#555" opacity="0.8" filter="url(#glow)"/>
<circle cx="272.7" cy="600.5" r="5.2" fill="#555" opacity="0.8" filter="url(#glow)"/>
<circle cx="248.6" cy="583.0" r="5.2" fill="#555" opacity="0.8" filter="url(#glow)"/>
<circle cx="226.9" cy="562.6" r="5.2" fill="#555" opacity="0.8" filter="url(#glow)"/>
<circle cx="207.9" cy="539.6" r="5.2" fill="#555" opacity="0.8" filter="url(#glow)"/>
<circle cx="191.9" cy="514.4" r="5.2" fill="#555" opacity="0.8" filter="url(#glow)"/>
<circle cx="179.2" cy="487.4" r="5.2" fill="#555" opacity="0.8" filter="url(#glow)"/>
<circle cx="170.0" cy="459.1" r="5.2" fill="#555" opacity="0.8" filter="url(#glow)"/>
<circle cx="164.4" cy="429.8" r="5.2" fill="#555" opacity="0.8" filter="url(#glow)"/>
<circle cx="165.0" cy="400.0" r="5.0" fill="#555" opacity="0.8" filter="url(#glow)"/>
<circle cx="166.9" cy="370.5" r="5.0" fill="#98D8C8" opacity="0.8" filter="url(#glow)"/>
<circle cx="172.4" cy="341.6" r="5.0" fill="#96CEB4" opacity="0.8" filter="url(#glow)"/>
<circle cx="181.5" cy="313.5" r="5.0" fill="#555" opacity="0.8" filter="url(#glow)"/>
<circle cx="194.1" cy="286.8" r="5.0" fill="#FFEAA7" opacity="0.8" filter="url(#glow)"/>
<circle cx="209.9" cy="261.9" r="5.0" fill="#555" opacity="0.8" filter="url(#glow)"/>
<circle cx="228.7" cy="239.1" r="5.0" fill="#DDA0DD" opacity="0.8" filter="url(#glow)"/>
<circle cx="250.2" cy="218.9" r="5.0" fill="#555" opacity="0.8" filter="url(#glow)"/>
<circle cx="275.4" cy="203.7" r="4.8" fill="#555" opacity="0.8" filter="url(#glow)"/>
<circle cx="301.0" cy="189.6" r="4.8" fill="#F7DC6F" opacity="0.8" filter="url(#glow)"/>
<circle cx="328.2" cy="178.9" r="4.8" fill="#98D8C8" opacity="0.8" filter="url(#glow)"/>
<circle cx="356.4" cy="171.6" r="4.8" fill="#555" opacity="0.8" filter="url(#glow)"/>
<circle cx="385.4" cy="168.0" r="4.8" fill="#555" opacity="0.8" filter="url(#glow)"/>
<circle cx="414.6" cy="168.0" r="4.8" fill="#555" opacity="0.8" filter="url(#glow)"/>
<circle cx="443.6" cy="171.6" r="4.8" fill="#555" opacity="0.8" filter="url(#glow)"/>
<circle cx="471.1" cy="181.3" r="4.5" fill="#555" opacity="0.8" filter="url(#glow)"/>
<circle cx="497.9" cy="191.9" r="4.5" fill="#F7DC6F" opacity="0.8" filter="url(#glow)"/>
<circle cx="523.2" cy="205.8" r="4.5" fill="#F7DC6F" opacity="0.8" filter="url(#glow)"/>
<circle cx="546.6" cy="222.8" r="4.5" fill="#555" opacity="0.8" filter="url(#glow)"/>
<circle cx="565.8" cy="244.3" r="4.2" fill="#555" opacity="0.8" filter="url(#glow)"/>
<circle cx="584.1" cy="266.3" r="4.2" fill="#555" opacity="0.8" filter="url(#glow)"/>
<circle cx="599.4" cy="290.4" r="4.2" fill="#555" opacity="0.8" filter="url(#glow)"/>
<circle cx="611.5" cy="316.3" r="4.2" fill="#555" opacity="0.8" filter="url(#glow)"/>
<circle cx="620.4" cy="343.4" r="4.2" fill="#555" opacity="0.8" filter="url(#glow)"/>
<circle cx="625.7" cy="371.5" r="4.2" fill="#96CEB4" opacity="0.8" filter="url(#glow)"/>
<text x="400" y="28" text-anchor="middle" fill="#e6edf3" font-size="13" font-family="sans-serif" font-weight="bold">Terrastone</text>
<text x="400" y="46" text-anchor="middle" fill="#484f58" font-size="9" font-family="monospace">544 nodes · 530 links · 37 communities</text>
<rect x="15" y="697" width="8" height="8" fill="#FF6B6B" rx="1.5" alpha="0.8"/>
<text x="28" y="704" fill="#6e7681" font-size="7" font-family="monospace">C0: Box Shadows (43)</text>
<rect x="15" y="709" width="8" height="8" fill="#4ECDC4" rx="1.5" alpha="0.8"/>
<text x="28" y="716" fill="#6e7681" font-size="7" font-family="monospace">C1: Box Shadows (43)</text>
<rect x="15" y="721" width="8" height="8" fill="#45B7D1" rx="1.5" alpha="0.8"/>
<text x="28" y="728" fill="#6e7681" font-size="7" font-family="monospace">C2: Box Shadows (43)</text>
<rect x="15" y="733" width="8" height="8" fill="#96CEB4" rx="1.5" alpha="0.8"/>
<text x="28" y="740" fill="#6e7681" font-size="7" font-family="monospace">C3: kingdomofarcane-co (35)</text>
<rect x="15" y="745" width="8" height="8" fill="#FFEAA7" rx="1.5" alpha="0.8"/>
<text x="28" y="752" fill="#6e7681" font-size="7" font-family="monospace">C4: competitor-design- (35)</text>
<rect x="15" y="757" width="8" height="8" fill="#DDA0DD" rx="1.5" alpha="0.8"/>
<text x="28" y="764" fill="#6e7681" font-size="7" font-family="monospace">C5: kingdomofarcane-co (29)</text>
<rect x="15" y="769" width="8" height="8" fill="#98D8C8" rx="1.5" alpha="0.8"/>
<text x="28" y="776" fill="#6e7681" font-size="7" font-family="monospace">C6: design.md (24)</text>
<rect x="15" y="781" width="8" height="8" fill="#F7DC6F" rx="1.5" alpha="0.8"/>
<text x="28" y="788" fill="#6e7681" font-size="7" font-family="monospace">C7: 2. Design Tokens (19)</text>
</svg>