<?xml version="1.0" encoding="UTF-8"?>
<svg xmlns="http://www.w3.org/2000/svg" viewBox="0 0 800 800" width="800" height="800">
<defs><filter id="glow"><feGaussianBlur stdDeviation="1.5" result="coloredBlur"/><feMerge><feMergeNode in="coloredBlur"/><feMergeNode in="SourceGraphic"/></feMerge></filter></defs>
<rect width="800" height="800" fill="#0d1117"/>
<line x1="187.6" y1="554.3" x2="451.1" y2="667.7" stroke="#30363d" stroke-opacity="0.4" stroke-width="0.6"/>
<line x1="187.6" y1="554.3" x2="415.9" y2="148.0" stroke="#30363d" stroke-opacity="0.4" stroke-width="0.6"/>
<line x1="187.6" y1="554.3" x2="485.0" y2="661.5" stroke="#30363d" stroke-opacity="0.4" stroke-width="0.6"/>
<line x1="415.9" y1="148.0" x2="237.5" y2="203.5" stroke="#30363d" stroke-opacity="0.4" stroke-width="0.6"/>
<line x1="140.0" y1="400.0" x2="415.9" y2="148.0" stroke="#30363d" stroke-opacity="0.4" stroke-width="0.6"/>
<line x1="317.3" y1="654.4" x2="415.9" y2="148.0" stroke="#30363d" stroke-opacity="0.4" stroke-width="0.6"/>
<line x1="214.1" y1="225.4" x2="415.9" y2="148.0" stroke="#30363d" stroke-opacity="0.4" stroke-width="0.6"/>
<line x1="447.3" y1="152.0" x2="415.9" y2="148.0" stroke="#30363d" stroke-opacity="0.4" stroke-width="0.6"/>
<line x1="291.4" y1="169.3" x2="415.9" y2="148.0" stroke="#30363d" stroke-opacity="0.4" stroke-width="0.6"/>
<line x1="140.0" y1="400.0" x2="451.1" y2="667.7" stroke="#30363d" stroke-opacity="0.4" stroke-width="0.6"/>
<line x1="140.0" y1="400.0" x2="485.0" y2="661.5" stroke="#30363d" stroke-opacity="0.4" stroke-width="0.6"/>
<line x1="287.2" y1="639.8" x2="237.5" y2="203.5" stroke="#30363d" stroke-opacity="0.4" stroke-width="0.6"/>
<line x1="287.2" y1="639.8" x2="517.1" y2="648.8" stroke="#30363d" stroke-opacity="0.4" stroke-width="0.6"/>
<line x1="287.2" y1="639.8" x2="485.0" y2="661.5" stroke="#30363d" stroke-opacity="0.4" stroke-width="0.6"/>
<line x1="287.2" y1="639.8" x2="451.1" y2="667.7" stroke="#30363d" stroke-opacity="0.4" stroke-width="0.6"/>
<line x1="517.1" y1="648.8" x2="237.5" y2="203.5" stroke="#30363d" stroke-opacity="0.4" stroke-width="0.6"/>
<line x1="317.3" y1="654.4" x2="451.1" y2="667.7" stroke="#30363d" stroke-opacity="0.4" stroke-width="0.6"/>
<line x1="317.3" y1="654.4" x2="237.5" y2="203.5" stroke="#30363d" stroke-opacity="0.4" stroke-width="0.6"/>
<line x1="317.3" y1="654.4" x2="485.0" y2="661.5" stroke="#30363d" stroke-opacity="0.4" stroke-width="0.6"/>
<line x1="451.1" y1="667.7" x2="237.5" y2="203.5" stroke="#30363d" stroke-opacity="0.4" stroke-width="0.6"/>
<line x1="447.3" y1="152.0" x2="451.1" y2="667.7" stroke="#30363d" stroke-opacity="0.4" stroke-width="0.6"/>
<line x1="206.8" y1="581.4" x2="451.1" y2="667.7" stroke="#30363d" stroke-opacity="0.4" stroke-width="0.6"/>
<line x1="214.1" y1="225.4" x2="485.0" y2="661.5" stroke="#30363d" stroke-opacity="0.4" stroke-width="0.6"/>
<line x1="447.3" y1="152.0" x2="485.0" y2="661.5" stroke="#30363d" stroke-opacity="0.4" stroke-width="0.6"/>
<line x1="478.0" y1="159.9" x2="237.5" y2="203.5" stroke="#30363d" stroke-opacity="0.4" stroke-width="0.6"/>
<line x1="258.0" y1="623.7" x2="237.5" y2="203.5" stroke="#30363d" stroke-opacity="0.4" stroke-width="0.6"/>
<line x1="206.8" y1="581.4" x2="237.5" y2="203.5" stroke="#30363d" stroke-opacity="0.4" stroke-width="0.6"/>
<line x1="820.0" y1="400.0" x2="628.5" y2="566.0" stroke="#30363d" stroke-opacity="0.4" stroke-width="0.6"/>
<line x1="820.0" y1="400.0" x2="693.0" y2="475.2" stroke="#30363d" stroke-opacity="0.4" stroke-width="0.6"/>
<line x1="820.0" y1="400.0" x2="535.3" y2="186.8" stroke="#30363d" stroke-opacity="0.4" stroke-width="0.6"/>
<line x1="820.0" y1="400.0" x2="605.9" y2="593.4" stroke="#30363d" stroke-opacity="0.4" stroke-width="0.6"/>
<line x1="820.0" y1="400.0" x2="150.6" y2="336.0" stroke="#30363d" stroke-opacity="0.4" stroke-width="0.6"/>
<line x1="820.0" y1="400.0" x2="576.9" y2="613.8" stroke="#30363d" stroke-opacity="0.4" stroke-width="0.6"/>
<line x1="535.3" y1="186.8" x2="507.5" y2="171.5" stroke="#30363d" stroke-opacity="0.4" stroke-width="0.6"/>
<line x1="560.9" y1="205.4" x2="507.5" y2="171.5" stroke="#30363d" stroke-opacity="0.4" stroke-width="0.6"/>
<line x1="584.1" y1="227.2" x2="507.5" y2="171.5" stroke="#30363d" stroke-opacity="0.4" stroke-width="0.6"/>
<line x1="628.5" y1="566.0" x2="649.7" y2="537.3" stroke="#30363d" stroke-opacity="0.4" stroke-width="0.6"/>
<line x1="628.5" y1="566.0" x2="693.0" y2="475.2" stroke="#30363d" stroke-opacity="0.4" stroke-width="0.6"/>
<line x1="576.9" y1="613.8" x2="628.5" y2="566.0" stroke="#30363d" stroke-opacity="0.4" stroke-width="0.6"/>
<line x1="605.9" y1="593.4" x2="628.5" y2="566.0" stroke="#30363d" stroke-opacity="0.4" stroke-width="0.6"/>
<line x1="150.6" y1="336.0" x2="628.5" y2="566.0" stroke="#30363d" stroke-opacity="0.4" stroke-width="0.6"/>
<line x1="321.2" y1="157.5" x2="628.5" y2="566.0" stroke="#30363d" stroke-opacity="0.4" stroke-width="0.6"/>
<line x1="584.1" y1="227.2" x2="628.5" y2="566.0" stroke="#30363d" stroke-opacity="0.4" stroke-width="0.6"/>
<line x1="576.9" y1="613.8" x2="693.0" y2="475.2" stroke="#30363d" stroke-opacity="0.4" stroke-width="0.6"/>
<line x1="605.9" y1="593.4" x2="693.0" y2="475.2" stroke="#30363d" stroke-opacity="0.4" stroke-width="0.6"/>
<line x1="150.6" y1="336.0" x2="693.0" y2="475.2" stroke="#30363d" stroke-opacity="0.4" stroke-width="0.6"/>
<line x1="321.2" y1="157.5" x2="693.0" y2="475.2" stroke="#30363d" stroke-opacity="0.4" stroke-width="0.6"/>
<line x1="584.1" y1="227.2" x2="693.0" y2="475.2" stroke="#30363d" stroke-opacity="0.4" stroke-width="0.6"/>
<line x1="576.9" y1="613.8" x2="604.3" y2="251.6" stroke="#30363d" stroke-opacity="0.4" stroke-width="0.6"/>
<line x1="576.9" y1="613.8" x2="649.7" y2="537.3" stroke="#30363d" stroke-opacity="0.4" stroke-width="0.6"/>
<line x1="170.0" y1="526.5" x2="548.7" y2="634.3" stroke="#30363d" stroke-opacity="0.4" stroke-width="0.6"/>
<line x1="560.9" y1="205.4" x2="548.7" y2="634.3" stroke="#30363d" stroke-opacity="0.4" stroke-width="0.6"/>
<line x1="321.2" y1="157.5" x2="548.7" y2="634.3" stroke="#30363d" stroke-opacity="0.4" stroke-width="0.6"/>
<line x1="605.9" y1="593.4" x2="649.7" y2="537.3" stroke="#30363d" stroke-opacity="0.4" stroke-width="0.6"/>
<line x1="605.9" y1="593.4" x2="535.3" y2="186.8" stroke="#30363d" stroke-opacity="0.4" stroke-width="0.6"/>
<line x1="535.3" y1="186.8" x2="649.7" y2="537.3" stroke="#30363d" stroke-opacity="0.4" stroke-width="0.6"/>
<line x1="150.6" y1="336.0" x2="535.3" y2="186.8" stroke="#30363d" stroke-opacity="0.4" stroke-width="0.6"/>
<line x1="150.6" y1="336.0" x2="649.7" y2="537.3" stroke="#30363d" stroke-opacity="0.4" stroke-width="0.6"/>
<line x1="150.6" y1="336.0" x2="604.3" y2="251.6" stroke="#30363d" stroke-opacity="0.4" stroke-width="0.6"/>
<line x1="150.6" y1="336.0" x2="584.1" y2="227.2" stroke="#30363d" stroke-opacity="0.4" stroke-width="0.6"/>
<line x1="321.2" y1="157.5" x2="649.7" y2="537.3" stroke="#30363d" stroke-opacity="0.4" stroke-width="0.6"/>
<line x1="321.2" y1="157.5" x2="604.3" y2="251.6" stroke="#30363d" stroke-opacity="0.4" stroke-width="0.6"/>
<line x1="584.1" y1="227.2" x2="649.7" y2="537.3" stroke="#30363d" stroke-opacity="0.4" stroke-width="0.6"/>
<line x1="621.3" y1="278.4" x2="174.4" y2="275.9" stroke="#30363d" stroke-opacity="0.4" stroke-width="0.6"/>
<circle cx="820.0" cy="400.0" r="10.0" fill="#DDA0DD" opacity="0.8" filter="url(#glow)"/>
<text x="820.0" y="417.0" text-anchor="middle" fill="#8b949e" font-size="6" font-family="monospace">App.tsx</text>
<circle cx="702.6" cy="438.2" r="10.0" fill="#98D8C8" opacity="0.8" filter="url(#glow)"/>
<text x="702.6" y="455.2" text-anchor="middle" fill="#8b949e" font-size="6" font-family="monospace">Task 4: Light-mode tok</text>
<circle cx="693.0" cy="475.2" r="10.0" fill="#555" opacity="0.8" filter="url(#glow)"/>
<text x="693.0" y="492.2" text-anchor="middle" fill="#8b949e" font-size="6" font-family="monospace">useAuth()</text>
<circle cx="674.3" cy="508.6" r="10.0" fill="#555" opacity="0.8" filter="url(#glow)"/>
<text x="674.3" y="525.6" text-anchor="middle" fill="#8b949e" font-size="6" font-family="monospace">Task 1: Dashboard Home</text>
<circle cx="649.7" cy="537.3" r="10.0" fill="#555" opacity="0.8" filter="url(#glow)"/>
<text x="649.7" y="554.3" text-anchor="middle" fill="#8b949e" font-size="6" font-family="monospace">db</text>
<circle cx="628.5" cy="566.0" r="9.8" fill="#555" opacity="0.8" filter="url(#glow)"/>
<text x="628.5" y="582.8" text-anchor="middle" fill="#8b949e" font-size="6" font-family="monospace">AuthContext.tsx</text>
<circle cx="605.9" cy="593.4" r="9.8" fill="#555" opacity="0.8" filter="url(#glow)"/>
<text x="605.9" y="610.1" text-anchor="middle" fill="#8b949e" font-size="6" font-family="monospace">Workspace.tsx</text>
<circle cx="576.9" cy="613.8" r="9.2" fill="#555" opacity="0.8" filter="url(#glow)"/>
<text x="576.9" y="630.1" text-anchor="middle" fill="#8b949e" font-size="6" font-family="monospace">AdminPage.tsx</text>
<circle cx="548.7" cy="634.3" r="9.2" fill="#FF6B6B" opacity="0.8" filter="url(#glow)"/>
<text x="548.7" y="650.6" text-anchor="middle" fill="#8b949e" font-size="6" font-family="monospace">workspaceDashboard.ts</text>
<circle cx="517.1" cy="648.8" r="9.0" fill="#555" opacity="0.8" filter="url(#glow)"/>
<text x="517.1" y="664.8" text-anchor="middle" fill="#8b949e" font-size="6" font-family="monospace">email.ts</text>
<circle cx="485.0" cy="661.5" r="9.0" fill="#555" opacity="0.8" filter="url(#glow)"/>
<text x="485.0" y="677.5" text-anchor="middle" fill="#8b949e" font-size="6" font-family="monospace">monitoring.ts</text>
<circle cx="451.1" cy="667.7" r="8.8" fill="#F7DC6F" opacity="0.8" filter="url(#glow)"/>
<text x="451.1" y="683.4" text-anchor="middle" fill="#8b949e" font-size="6" font-family="monospace">paymentOrders.ts</text>
<circle cx="417.1" cy="672.0" r="8.8" fill="#555" opacity="0.8" filter="url(#glow)"/>
<text x="417.1" y="687.7" text-anchor="middle" fill="#8b949e" font-size="6" font-family="monospace">Task 4: Visual token c</text>
<circle cx="382.9" cy="672.0" r="8.8" fill="#555" opacity="0.8" filter="url(#glow)"/>
<text x="382.9" y="687.7" text-anchor="middle" fill="#8b949e" font-size="6" font-family="monospace">Task 6: Visual token c</text>
<circle cx="349.4" cy="665.2" r="8.5" fill="#555" opacity="0.8" filter="url(#glow)"/>
<text x="349.4" y="680.7" text-anchor="middle" fill="#8b949e" font-size="6" font-family="monospace">Task 2: Explore/Catalo</text>
<circle cx="317.3" cy="654.4" r="8.2" fill="#555" opacity="0.8" filter="url(#glow)"/>
<text x="317.3" y="669.7" text-anchor="middle" fill="#8b949e" font-size="6" font-family="monospace">admin.ts</text>
<circle cx="287.2" cy="639.8" r="8.0" fill="#555" opacity="0.8" filter="url(#glow)"/>
<text x="287.2" y="654.8" text-anchor="middle" fill="#8b949e" font-size="6" font-family="monospace">emailTriggers.ts</text>
<circle cx="258.0" cy="623.7" r="8.0" fill="#F7DC6F" opacity="0.8" filter="url(#glow)"/>
<text x="258.0" y="638.7" text-anchor="middle" fill="#8b949e" font-size="6" font-family="monospace">paymentOrders.test.ts</text>
<circle cx="231.1" cy="604.2" r="8.0" fill="#555" opacity="0.8" filter="url(#glow)"/>
<text x="231.1" y="619.2" text-anchor="middle" fill="#8b949e" font-size="6" font-family="monospace">Task 3: AI Tutor — ses</text>
<circle cx="206.8" cy="581.4" r="8.0" fill="#F7DC6F" opacity="0.8" filter="url(#glow)"/>
<text x="206.8" y="596.4" text-anchor="middle" fill="#8b949e" font-size="6" font-family="monospace">paymentOrders.test.ts</text>
<circle cx="187.6" cy="554.3" r="7.8" fill="#F7DC6F" opacity="0.8" filter="url(#glow)"/>
<text x="187.6" y="569.0" text-anchor="middle" fill="#8b949e" font-size="6" font-family="monospace">reconcilePayment.ts</text>
<circle cx="170.0" cy="526.5" r="7.8" fill="#FF6B6B" opacity="0.8" filter="url(#glow)"/>
<text x="170.0" y="541.2" text-anchor="middle" fill="#8b949e" font-size="6" font-family="monospace">workspaceDashboard.tes</text>
<circle cx="155.9" cy="496.6" r="7.8" fill="#555" opacity="0.8" filter="url(#glow)"/>
<text x="155.9" y="511.4" text-anchor="middle" fill="#8b949e" font-size="6" font-family="monospace">Tutivex</text>
<circle cx="145.7" cy="465.3" r="7.8" fill="#555" opacity="0.8" filter="url(#glow)"/>
<text x="145.7" y="480.0" text-anchor="middle" fill="#8b949e" font-size="6" font-family="monospace">Task 5: Visual token c</text>
<circle cx="139.6" cy="432.9" r="7.8" fill="#4ECDC4" opacity="0.8" filter="url(#glow)"/>
<text x="139.6" y="447.6" text-anchor="middle" fill="#8b949e" font-size="6" font-family="monospace">app.ts</text>
<circle cx="140.0" cy="400.0" r="7.5" fill="#F7DC6F" opacity="0.8" filter="url(#glow)"/>
<text x="140.0" y="414.5" text-anchor="middle" fill="#8b949e" font-size="6" font-family="monospace">scheduler.ts</text>
<circle cx="142.1" cy="367.4" r="7.5" fill="#555" opacity="0.8" filter="url(#glow)"/>
<text x="142.1" y="381.9" text-anchor="middle" fill="#8b949e" font-size="6" font-family="monospace">File Structure and Res</text>
<circle cx="150.6" cy="336.0" r="7.2" fill="#555" opacity="0.8" filter="url(#glow)"/>
<text x="150.6" y="350.2" text-anchor="middle" fill="#8b949e" font-size="6" font-family="monospace">CourseDetail.tsx</text>
<circle cx="160.6" cy="305.2" r="7.2" fill="#555" opacity="0.8" filter="url(#glow)"/>
<text x="160.6" y="319.5" text-anchor="middle" fill="#8b949e" font-size="6" font-family="monospace">Functional Requirement</text>
<circle cx="174.4" cy="275.9" r="7.2" fill="#555" opacity="0.8" filter="url(#glow)"/>
<text x="174.4" y="290.2" text-anchor="middle" fill="#8b949e" font-size="6" font-family="monospace">Task 9: `DashboardHome</text>
<circle cx="191.7" cy="248.6" r="7.2" fill="#555" opacity="0.8" filter="url(#glow)"/>
<text x="191.7" y="262.9" text-anchor="middle" fill="#8b949e" font-size="6" font-family="monospace">Dashboard Enrichment D</text>
<circle cx="214.1" cy="225.4" r="7.0" fill="#555" opacity="0.8" filter="url(#glow)"/>
<text x="214.1" y="239.4" text-anchor="middle" fill="#8b949e" font-size="6" font-family="monospace">tutorChat.ts</text>
<circle cx="237.5" cy="203.5" r="7.0" fill="#555" opacity="0.8" filter="url(#glow)"/>
<text x="237.5" y="217.5" text-anchor="middle" fill="#8b949e" font-size="6" font-family="monospace">db</text>
<circle cx="263.4" cy="184.7" r="7.0" fill="#555" opacity="0.8" filter="url(#glow)"/>
<text x="263.4" y="198.7" text-anchor="middle" fill="#8b949e" font-size="6" font-family="monospace">e2e.test.ts</text>
<circle cx="291.4" cy="169.3" r="7.0" fill="#555" opacity="0.8" filter="url(#glow)"/>
<text x="291.4" y="183.3" text-anchor="middle" fill="#8b949e" font-size="6" font-family="monospace">credits.test.ts</text>
<circle cx="321.2" cy="157.5" r="7.0" fill="#FF6B6B" opacity="0.8" filter="url(#glow)"/>
<text x="321.2" y="171.5" text-anchor="middle" fill="#8b949e" font-size="6" font-family="monospace">DashboardExplore.tsx</text>
<circle cx="352.2" cy="149.5" r="7.0" fill="#555" opacity="0.8" filter="url(#glow)"/>
<text x="352.2" y="163.5" text-anchor="middle" fill="#8b949e" font-size="6" font-family="monospace">Tutivex Learner Dashbo</text>
<circle cx="384.1" cy="148.0" r="6.8" fill="#555" opacity="0.8" filter="url(#glow)"/>
<text x="384.1" y="161.7" text-anchor="middle" fill="#8b949e" font-size="6" font-family="monospace">seed-courses.ts</text>
<circle cx="415.9" cy="148.0" r="6.8" fill="#555" opacity="0.8" filter="url(#glow)"/>
<text x="415.9" y="161.7" text-anchor="middle" fill="#8b949e" font-size="6" font-family="monospace">credits.ts</text>
<circle cx="447.3" cy="152.0" r="6.8" fill="#F7DC6F" opacity="0.8" filter="url(#glow)"/>
<text x="447.3" y="165.7" text-anchor="middle" fill="#8b949e" font-size="6" font-family="monospace">webhook.ts</text>
<circle cx="478.0" cy="159.9" r="6.8" fill="#555" opacity="0.8" filter="url(#glow)"/>
<text x="478.0" y="173.6" text-anchor="middle" fill="#8b949e" font-size="6" font-family="monospace">entitlements.test.ts</text>
<circle cx="507.5" cy="171.5" r="6.8" fill="#555" opacity="0.8" filter="url(#glow)"/>
<text x="507.5" y="185.3" text-anchor="middle" fill="#8b949e" font-size="6" font-family="monospace">index.ts</text>
<circle cx="535.3" cy="186.8" r="6.8" fill="#555" opacity="0.8" filter="url(#glow)"/>
<text x="535.3" y="200.6" text-anchor="middle" fill="#8b949e" font-size="6" font-family="monospace">CourseCatalog.tsx</text>
<circle cx="560.9" cy="205.4" r="6.8" fill="#FF6B6B" opacity="0.8" filter="url(#glow)"/>
<text x="560.9" y="219.2" text-anchor="middle" fill="#8b949e" font-size="6" font-family="monospace">PathsSections.tsx</text>
<circle cx="584.1" cy="227.2" r="6.8" fill="#555" opacity="0.8" filter="url(#glow)"/>
<text x="584.1" y="240.9" text-anchor="middle" fill="#8b949e" font-size="6" font-family="monospace">useCourseModules.ts</text>
<circle cx="604.3" cy="251.6" r="6.8" fill="#555" opacity="0.8" filter="url(#glow)"/>
<text x="604.3" y="265.3" text-anchor="middle" fill="#8b949e" font-size="6" font-family="monospace">functions</text>
<circle cx="621.3" cy="278.4" r="6.8" fill="#555" opacity="0.8" filter="url(#glow)"/>
<text x="621.3" y="292.1" text-anchor="middle" fill="#8b949e" font-size="6" font-family="monospace">Backoffice, Light Them</text>
<circle cx="634.8" cy="307.0" r="6.8" fill="#555" opacity="0.8" filter="url(#glow)"/>
<text x="634.8" y="320.8" text-anchor="middle" fill="#8b949e" font-size="6" font-family="monospace">webhook.js</text>
<circle cx="644.6" cy="337.2" r="6.8" fill="#555" opacity="0.8" filter="url(#glow)"/>
<text x="644.6" y="351.0" text-anchor="middle" fill="#8b949e" font-size="6" font-family="monospace">scheduler.js</text>
<circle cx="650.5" cy="368.4" r="6.8" fill="#F7DC6F" opacity="0.8" filter="url(#glow)"/>
<text x="650.5" y="382.1" text-anchor="middle" fill="#8b949e" font-size="6" font-family="monospace">paymentOrders.test.js</text>
<text x="400" y="28" text-anchor="middle" fill="#e6edf3" font-size="13" font-family="sans-serif" font-weight="bold">tutivex</text>
<text x="400" y="46" text-anchor="middle" fill="#484f58" font-size="9" font-family="monospace">1,737 nodes · 2,229 links · 149 communities</text>
<rect x="15" y="697" width="8" height="8" fill="#FF6B6B" rx="1.5" alpha="0.8"/>
<text x="28" y="704" fill="#6e7681" font-size="7" font-family="monospace">C0: SavedPathsSectionP (54)</text>
<rect x="15" y="709" width="8" height="8" fill="#4ECDC4" rx="1.5" alpha="0.8"/>
<text x="28" y="716" fill="#6e7681" font-size="7" font-family="monospace">C1: app (54)</text>
<rect x="15" y="721" width="8" height="8" fill="#45B7D1" rx="1.5" alpha="0.8"/>
<text x="28" y="728" fill="#6e7681" font-size="7" font-family="monospace">C2: code:bash (npm run (49)</text>
<rect x="15" y="733" width="8" height="8" fill="#96CEB4" rx="1.5" alpha="0.8"/>
<text x="28" y="740" fill="#6e7681" font-size="7" font-family="monospace">C3: 2026-05-23-workspa (41)</text>
<rect x="15" y="745" width="8" height="8" fill="#FFEAA7" rx="1.5" alpha="0.8"/>
<text x="28" y="752" fill="#6e7681" font-size="7" font-family="monospace">C4: code:bash (npm exe (40)</text>
<rect x="15" y="757" width="8" height="8" fill="#DDA0DD" rx="1.5" alpha="0.8"/>
<text x="28" y="764" fill="#6e7681" font-size="7" font-family="monospace">C5: ProofBand.tsx (38)</text>
<rect x="15" y="769" width="8" height="8" fill="#98D8C8" rx="1.5" alpha="0.8"/>
<text x="28" y="776" fill="#6e7681" font-size="7" font-family="monospace">C6: code:tsx (classNam (34)</text>
<rect x="15" y="781" width="8" height="8" fill="#F7DC6F" rx="1.5" alpha="0.8"/>
<text x="28" y="788" fill="#6e7681" font-size="7" font-family="monospace">C9: paymentOrders.test (30)</text>
</svg>