<?xml version="1.0" encoding="UTF-8"?>
<svg xmlns="http://www.w3.org/2000/svg" viewBox="0 0 800 800" width="800" height="800">
<defs><filter id="glow"><feGaussianBlur stdDeviation="1.5" result="coloredBlur"/><feMerge><feMergeNode in="coloredBlur"/><feMergeNode in="SourceGraphic"/></feMerge></filter></defs>
<rect width="800" height="800" fill="#0d1117"/>
<line x1="665.4" y1="433.5" x2="234.2" y2="244.3" stroke="#30363d" stroke-opacity="0.4" stroke-width="0.6"/>
<line x1="665.4" y1="433.5" x2="171.8" y2="428.8" stroke="#30363d" stroke-opacity="0.4" stroke-width="0.6"/>
<line x1="665.4" y1="433.5" x2="597.2" y2="291.6" stroke="#30363d" stroke-opacity="0.4" stroke-width="0.6"/>
<line x1="665.4" y1="433.5" x2="609.2" y2="317.2" stroke="#30363d" stroke-opacity="0.4" stroke-width="0.6"/>
<line x1="665.4" y1="433.5" x2="617.9" y2="344.0" stroke="#30363d" stroke-opacity="0.4" stroke-width="0.6"/>
<line x1="665.4" y1="433.5" x2="623.2" y2="371.8" stroke="#30363d" stroke-opacity="0.4" stroke-width="0.6"/>
<line x1="665.4" y1="433.5" x2="255.0" y2="224.7" stroke="#30363d" stroke-opacity="0.4" stroke-width="0.6"/>
<line x1="665.4" y1="433.5" x2="170.0" y2="400.0" stroke="#30363d" stroke-opacity="0.4" stroke-width="0.6"/>
<line x1="665.4" y1="433.5" x2="278.1" y2="207.9" stroke="#30363d" stroke-opacity="0.4" stroke-width="0.6"/>
<line x1="665.4" y1="433.5" x2="303.1" y2="194.2" stroke="#30363d" stroke-opacity="0.4" stroke-width="0.6"/>
<line x1="665.4" y1="433.5" x2="196.3" y2="512.0" stroke="#30363d" stroke-opacity="0.4" stroke-width="0.6"/>
<line x1="665.4" y1="433.5" x2="329.7" y2="183.6" stroke="#30363d" stroke-opacity="0.4" stroke-width="0.6"/>
<line x1="665.4" y1="433.5" x2="274.1" y2="598.4" stroke="#30363d" stroke-opacity="0.4" stroke-width="0.6"/>
<line x1="665.4" y1="433.5" x2="250.2" y2="581.1" stroke="#30363d" stroke-opacity="0.4" stroke-width="0.6"/>
<line x1="196.3" y1="512.0" x2="234.2" y2="244.3" stroke="#30363d" stroke-opacity="0.4" stroke-width="0.6"/>
<line x1="274.1" y1="598.4" x2="234.2" y2="244.3" stroke="#30363d" stroke-opacity="0.4" stroke-width="0.6"/>
<line x1="278.1" y1="207.9" x2="171.8" y2="428.8" stroke="#30363d" stroke-opacity="0.4" stroke-width="0.6"/>
<line x1="303.1" y1="194.2" x2="171.8" y2="428.8" stroke="#30363d" stroke-opacity="0.4" stroke-width="0.6"/>
<line x1="329.7" y1="183.6" x2="171.8" y2="428.8" stroke="#30363d" stroke-opacity="0.4" stroke-width="0.6"/>
<line x1="196.3" y1="512.0" x2="597.2" y2="291.6" stroke="#30363d" stroke-opacity="0.4" stroke-width="0.6"/>
<line x1="250.2" y1="581.1" x2="609.2" y2="317.2" stroke="#30363d" stroke-opacity="0.4" stroke-width="0.6"/>
<line x1="196.3" y1="512.0" x2="617.9" y2="344.0" stroke="#30363d" stroke-opacity="0.4" stroke-width="0.6"/>
<line x1="170.0" y1="400.0" x2="623.2" y2="371.8" stroke="#30363d" stroke-opacity="0.4" stroke-width="0.6"/>
<line x1="170.0" y1="400.0" x2="255.0" y2="224.7" stroke="#30363d" stroke-opacity="0.4" stroke-width="0.6"/>
<line x1="274.1" y1="598.4" x2="255.0" y2="224.7" stroke="#30363d" stroke-opacity="0.4" stroke-width="0.6"/>
<line x1="274.1" y1="598.4" x2="170.0" y2="400.0" stroke="#30363d" stroke-opacity="0.4" stroke-width="0.6"/>
<line x1="250.2" y1="581.1" x2="278.1" y2="207.9" stroke="#30363d" stroke-opacity="0.4" stroke-width="0.6"/>
<line x1="250.2" y1="581.1" x2="303.1" y2="194.2" stroke="#30363d" stroke-opacity="0.4" stroke-width="0.6"/>
<line x1="250.2" y1="581.1" x2="196.3" y2="512.0" stroke="#30363d" stroke-opacity="0.4" stroke-width="0.6"/>
<line x1="274.1" y1="598.4" x2="329.7" y2="183.6" stroke="#30363d" stroke-opacity="0.4" stroke-width="0.6"/>
<line x1="250.2" y1="581.1" x2="274.1" y2="598.4" stroke="#30363d" stroke-opacity="0.4" stroke-width="0.6"/>
<line x1="646.4" y1="497.6" x2="445.0" y2="635.7" stroke="#30363d" stroke-opacity="0.4" stroke-width="0.6"/>
<line x1="646.4" y1="497.6" x2="357.4" y2="176.5" stroke="#30363d" stroke-opacity="0.4" stroke-width="0.6"/>
<line x1="385.7" y1="172.9" x2="646.4" y2="497.6" stroke="#30363d" stroke-opacity="0.4" stroke-width="0.6"/>
<line x1="659.1" y1="466.5" x2="445.0" y2="635.7" stroke="#30363d" stroke-opacity="0.4" stroke-width="0.6"/>
<line x1="385.7" y1="172.9" x2="659.1" y2="466.5" stroke="#30363d" stroke-opacity="0.4" stroke-width="0.6"/>
<line x1="415.1" y1="639.5" x2="171.8" y2="371.2" stroke="#30363d" stroke-opacity="0.4" stroke-width="0.6"/>
<line x1="584.1" y1="572.8" x2="415.1" y2="639.5" stroke="#30363d" stroke-opacity="0.4" stroke-width="0.6"/>
<line x1="326.6" y1="625.9" x2="415.1" y2="639.5" stroke="#30363d" stroke-opacity="0.4" stroke-width="0.6"/>
<line x1="584.1" y1="572.8" x2="171.8" y2="371.2" stroke="#30363d" stroke-opacity="0.4" stroke-width="0.6"/>
<line x1="326.6" y1="625.9" x2="171.8" y2="371.2" stroke="#30363d" stroke-opacity="0.4" stroke-width="0.6"/>
<line x1="584.1" y1="572.8" x2="228.7" y2="560.9" stroke="#30363d" stroke-opacity="0.4" stroke-width="0.6"/>
<line x1="584.1" y1="572.8" x2="414.3" y2="172.9" stroke="#30363d" stroke-opacity="0.4" stroke-width="0.6"/>
<line x1="692.5" y1="400.0" x2="506.4" y2="626.2" stroke="#30363d" stroke-opacity="0.4" stroke-width="0.6"/>
<line x1="692.5" y1="400.0" x2="545.0" y2="224.7" stroke="#30363d" stroke-opacity="0.4" stroke-width="0.6"/>
<line x1="692.5" y1="400.0" x2="535.3" y2="613.2" stroke="#30363d" stroke-opacity="0.4" stroke-width="0.6"/>
<line x1="692.5" y1="400.0" x2="565.8" y2="244.3" stroke="#30363d" stroke-opacity="0.4" stroke-width="0.6"/>
<line x1="692.5" y1="400.0" x2="174.8" y2="457.8" stroke="#30363d" stroke-opacity="0.4" stroke-width="0.6"/>
<line x1="692.5" y1="400.0" x2="298.9" y2="614.9" stroke="#30363d" stroke-opacity="0.4" stroke-width="0.6"/>
<line x1="692.5" y1="400.0" x2="584.1" y2="266.3" stroke="#30363d" stroke-opacity="0.4" stroke-width="0.6"/>
<line x1="692.5" y1="400.0" x2="186.2" y2="315.3" stroke="#30363d" stroke-opacity="0.4" stroke-width="0.6"/>
<line x1="692.5" y1="400.0" x2="198.4" y2="289.2" stroke="#30363d" stroke-opacity="0.4" stroke-width="0.6"/>
<line x1="692.5" y1="400.0" x2="213.9" y2="264.8" stroke="#30363d" stroke-opacity="0.4" stroke-width="0.6"/>
<line x1="692.5" y1="400.0" x2="630.0" y2="526.5" stroke="#30363d" stroke-opacity="0.4" stroke-width="0.6"/>
<line x1="692.5" y1="400.0" x2="610.3" y2="552.8" stroke="#30363d" stroke-opacity="0.4" stroke-width="0.6"/>
<line x1="692.5" y1="400.0" x2="183.8" y2="485.6" stroke="#30363d" stroke-opacity="0.4" stroke-width="0.6"/>
<line x1="692.5" y1="400.0" x2="496.9" y2="194.2" stroke="#30363d" stroke-opacity="0.4" stroke-width="0.6"/>
<line x1="442.6" y1="176.5" x2="692.5" y2="400.0" stroke="#30363d" stroke-opacity="0.4" stroke-width="0.6"/>
<line x1="442.6" y1="176.5" x2="630.0" y2="526.5" stroke="#30363d" stroke-opacity="0.4" stroke-width="0.6"/>
<line x1="474.9" y1="630.6" x2="470.3" y2="183.6" stroke="#30363d" stroke-opacity="0.4" stroke-width="0.6"/>
<line x1="630.0" y1="526.5" x2="474.9" y2="630.6" stroke="#30363d" stroke-opacity="0.4" stroke-width="0.6"/>
<line x1="535.3" y1="613.2" x2="474.9" y2="630.6" stroke="#30363d" stroke-opacity="0.4" stroke-width="0.6"/>
<line x1="355.0" y1="635.7" x2="474.9" y2="630.6" stroke="#30363d" stroke-opacity="0.4" stroke-width="0.6"/>
<line x1="630.0" y1="526.5" x2="470.3" y2="183.6" stroke="#30363d" stroke-opacity="0.4" stroke-width="0.6"/>
<line x1="535.3" y1="613.2" x2="470.3" y2="183.6" stroke="#30363d" stroke-opacity="0.4" stroke-width="0.6"/>
<line x1="630.0" y1="526.5" x2="610.3" y2="552.8" stroke="#30363d" stroke-opacity="0.4" stroke-width="0.6"/>
<line x1="183.8" y1="485.6" x2="630.0" y2="526.5" stroke="#30363d" stroke-opacity="0.4" stroke-width="0.6"/>
<line x1="560.9" y1="594.6" x2="630.0" y2="526.5" stroke="#30363d" stroke-opacity="0.4" stroke-width="0.6"/>
<line x1="506.4" y1="626.2" x2="630.0" y2="526.5" stroke="#30363d" stroke-opacity="0.4" stroke-width="0.6"/>
<line x1="535.3" y1="613.2" x2="630.0" y2="526.5" stroke="#30363d" stroke-opacity="0.4" stroke-width="0.6"/>
<line x1="298.9" y1="614.9" x2="630.0" y2="526.5" stroke="#30363d" stroke-opacity="0.4" stroke-width="0.6"/>
<line x1="183.8" y1="485.6" x2="610.3" y2="552.8" stroke="#30363d" stroke-opacity="0.4" stroke-width="0.6"/>
<line x1="560.9" y1="594.6" x2="610.3" y2="552.8" stroke="#30363d" stroke-opacity="0.4" stroke-width="0.6"/>
<line x1="506.4" y1="626.2" x2="610.3" y2="552.8" stroke="#30363d" stroke-opacity="0.4" stroke-width="0.6"/>
<line x1="535.3" y1="613.2" x2="610.3" y2="552.8" stroke="#30363d" stroke-opacity="0.4" stroke-width="0.6"/>
<line x1="298.9" y1="614.9" x2="610.3" y2="552.8" stroke="#30363d" stroke-opacity="0.4" stroke-width="0.6"/>
<line x1="496.9" y1="194.2" x2="610.3" y2="552.8" stroke="#30363d" stroke-opacity="0.4" stroke-width="0.6"/>
<line x1="384.9" y1="639.5" x2="610.3" y2="552.8" stroke="#30363d" stroke-opacity="0.4" stroke-width="0.6"/>
<line x1="521.9" y1="207.9" x2="610.3" y2="552.8" stroke="#30363d" stroke-opacity="0.4" stroke-width="0.6"/>
<line x1="545.0" y1="224.7" x2="610.3" y2="552.8" stroke="#30363d" stroke-opacity="0.4" stroke-width="0.6"/>
<line x1="565.8" y1="244.3" x2="610.3" y2="552.8" stroke="#30363d" stroke-opacity="0.4" stroke-width="0.6"/>
<line x1="584.1" y1="266.3" x2="610.3" y2="552.8" stroke="#30363d" stroke-opacity="0.4" stroke-width="0.6"/>
<line x1="183.8" y1="485.6" x2="496.9" y2="194.2" stroke="#30363d" stroke-opacity="0.4" stroke-width="0.6"/>
<line x1="506.4" y1="626.2" x2="209.9" y2="538.1" stroke="#30363d" stroke-opacity="0.4" stroke-width="0.6"/>
<line x1="560.9" y1="594.6" x2="384.9" y2="639.5" stroke="#30363d" stroke-opacity="0.4" stroke-width="0.6"/>
<line x1="560.9" y1="594.6" x2="521.9" y2="207.9" stroke="#30363d" stroke-opacity="0.4" stroke-width="0.6"/>
<line x1="174.8" y1="457.8" x2="560.9" y2="594.6" stroke="#30363d" stroke-opacity="0.4" stroke-width="0.6"/>
<line x1="506.4" y1="626.2" x2="560.9" y2="594.6" stroke="#30363d" stroke-opacity="0.4" stroke-width="0.6"/>
<line x1="535.3" y1="613.2" x2="560.9" y2="594.6" stroke="#30363d" stroke-opacity="0.4" stroke-width="0.6"/>
<line x1="186.2" y1="315.3" x2="560.9" y2="594.6" stroke="#30363d" stroke-opacity="0.4" stroke-width="0.6"/>
<line x1="198.4" y1="289.2" x2="560.9" y2="594.6" stroke="#30363d" stroke-opacity="0.4" stroke-width="0.6"/>
<line x1="298.9" y1="614.9" x2="560.9" y2="594.6" stroke="#30363d" stroke-opacity="0.4" stroke-width="0.6"/>
<line x1="213.9" y1="264.8" x2="560.9" y2="594.6" stroke="#30363d" stroke-opacity="0.4" stroke-width="0.6"/>
<line x1="174.8" y1="457.8" x2="384.9" y2="639.5" stroke="#30363d" stroke-opacity="0.4" stroke-width="0.6"/>
<line x1="506.4" y1="626.2" x2="384.9" y2="639.5" stroke="#30363d" stroke-opacity="0.4" stroke-width="0.6"/>
<line x1="186.2" y1="315.3" x2="384.9" y2="639.5" stroke="#30363d" stroke-opacity="0.4" stroke-width="0.6"/>
<line x1="198.4" y1="289.2" x2="384.9" y2="639.5" stroke="#30363d" stroke-opacity="0.4" stroke-width="0.6"/>
<line x1="298.9" y1="614.9" x2="384.9" y2="639.5" stroke="#30363d" stroke-opacity="0.4" stroke-width="0.6"/>
<line x1="213.9" y1="264.8" x2="384.9" y2="639.5" stroke="#30363d" stroke-opacity="0.4" stroke-width="0.6"/>
<line x1="535.3" y1="613.2" x2="521.9" y2="207.9" stroke="#30363d" stroke-opacity="0.4" stroke-width="0.6"/>
<line x1="506.4" y1="626.2" x2="545.0" y2="224.7" stroke="#30363d" stroke-opacity="0.4" stroke-width="0.6"/>
<line x1="535.3" y1="613.2" x2="355.0" y2="635.7" stroke="#30363d" stroke-opacity="0.4" stroke-width="0.6"/>
<line x1="535.3" y1="613.2" x2="565.8" y2="244.3" stroke="#30363d" stroke-opacity="0.4" stroke-width="0.6"/>
<line x1="298.9" y1="614.9" x2="584.1" y2="266.3" stroke="#30363d" stroke-opacity="0.4" stroke-width="0.6"/>
<circle cx="692.5" cy="400.0" r="10.0" fill="#FF6B6B" opacity="0.8" filter="url(#glow)"/>
<text x="692.5" y="417.0" text-anchor="middle" fill="#8b949e" font-size="6" font-family="monospace">App.tsx</text>
<circle cx="665.4" cy="433.5" r="8.2" fill="#96CEB4" opacity="0.8" filter="url(#glow)"/>
<text x="665.4" y="448.8" text-anchor="middle" fill="#8b949e" font-size="6" font-family="monospace">deploy.mjs</text>
<circle cx="659.1" cy="466.5" r="8.2" fill="#FFEAA7" opacity="0.8" filter="url(#glow)"/>
<text x="659.1" y="481.8" text-anchor="middle" fill="#8b949e" font-size="6" font-family="monospace">safepay.js</text>
<circle cx="646.4" cy="497.6" r="8.0" fill="#DDA0DD" opacity="0.8" filter="url(#glow)"/>
<text x="646.4" y="512.6" text-anchor="middle" fill="#8b949e" font-size="6" font-family="monospace">digitalocean.js</text>
<circle cx="630.0" cy="526.5" r="7.8" fill="#45B7D1" opacity="0.8" filter="url(#glow)"/>
<text x="630.0" y="541.2" text-anchor="middle" fill="#8b949e" font-size="6" font-family="monospace">AuthContext.tsx</text>
<circle cx="610.3" cy="552.8" r="7.5" fill="#FF6B6B" opacity="0.8" filter="url(#glow)"/>
<text x="610.3" y="567.3" text-anchor="middle" fill="#8b949e" font-size="6" font-family="monospace">useAuth()</text>
<circle cx="584.1" cy="572.8" r="6.8" fill="#4ECDC4" opacity="0.8" filter="url(#glow)"/>
<text x="584.1" y="586.6" text-anchor="middle" fill="#8b949e" font-size="6" font-family="monospace">digitalocean.ts</text>
<circle cx="560.9" cy="594.6" r="6.8" fill="#FF6B6B" opacity="0.8" filter="url(#glow)"/>
<text x="560.9" y="608.3" text-anchor="middle" fill="#8b949e" font-size="6" font-family="monospace">Navigation.tsx</text>
<circle cx="535.3" cy="613.2" r="6.8" fill="#45B7D1" opacity="0.8" filter="url(#glow)"/>
<text x="535.3" y="626.9" text-anchor="middle" fill="#8b949e" font-size="6" font-family="monospace">DashboardView.tsx</text>
<circle cx="506.4" cy="626.2" r="6.5" fill="#98D8C8" opacity="0.8" filter="url(#glow)"/>
<text x="506.4" y="639.7" text-anchor="middle" fill="#8b949e" font-size="6" font-family="monospace">LandingView.tsx</text>
<circle cx="474.9" cy="630.6" r="5.8" fill="#45B7D1" opacity="0.8" filter="url(#glow)"/>
<text x="474.9" y="643.4" text-anchor="middle" fill="#8b949e" font-size="6" font-family="monospace">firebase.ts</text>
<circle cx="445.0" cy="635.7" r="5.5" fill="#F7DC6F" opacity="0.8" filter="url(#glow)"/>
<circle cx="415.1" cy="639.5" r="5.5" fill="#4ECDC4" opacity="0.8" filter="url(#glow)"/>
<circle cx="384.9" cy="639.5" r="5.5" fill="#FF6B6B" opacity="0.8" filter="url(#glow)"/>
<circle cx="355.0" cy="635.7" r="5.5" fill="#45B7D1" opacity="0.8" filter="url(#glow)"/>
<circle cx="326.6" cy="625.9" r="5.2" fill="#4ECDC4" opacity="0.8" filter="url(#glow)"/>
<circle cx="298.9" cy="614.9" r="5.2" fill="#FF6B6B" opacity="0.8" filter="url(#glow)"/>
<circle cx="274.1" cy="598.4" r="5.0" fill="#96CEB4" opacity="0.8" filter="url(#glow)"/>
<circle cx="250.2" cy="581.1" r="5.0" fill="#96CEB4" opacity="0.8" filter="url(#glow)"/>
<circle cx="228.7" cy="560.9" r="5.0" fill="#4ECDC4" opacity="0.8" filter="url(#glow)"/>
<circle cx="209.9" cy="538.1" r="5.0" fill="#98D8C8" opacity="0.8" filter="url(#glow)"/>
<circle cx="196.3" cy="512.0" r="4.8" fill="#96CEB4" opacity="0.8" filter="url(#glow)"/>
<circle cx="183.8" cy="485.6" r="4.8" fill="#FF6B6B" opacity="0.8" filter="url(#glow)"/>
<circle cx="174.8" cy="457.8" r="4.8" fill="#FF6B6B" opacity="0.8" filter="url(#glow)"/>
<circle cx="171.8" cy="428.8" r="4.5" fill="#96CEB4" opacity="0.8" filter="url(#glow)"/>
<circle cx="170.0" cy="400.0" r="4.5" fill="#96CEB4" opacity="0.8" filter="url(#glow)"/>
<circle cx="171.8" cy="371.2" r="4.5" fill="#4ECDC4" opacity="0.8" filter="url(#glow)"/>
<circle cx="177.2" cy="342.8" r="4.5" fill="#555" opacity="0.8" filter="url(#glow)"/>
<circle cx="186.2" cy="315.3" r="4.5" fill="#FF6B6B" opacity="0.8" filter="url(#glow)"/>
<circle cx="198.4" cy="289.2" r="4.5" fill="#FF6B6B" opacity="0.8" filter="url(#glow)"/>
<circle cx="213.9" cy="264.8" r="4.5" fill="#FF6B6B" opacity="0.8" filter="url(#glow)"/>
<circle cx="234.2" cy="244.3" r="4.2" fill="#96CEB4" opacity="0.8" filter="url(#glow)"/>
<circle cx="255.0" cy="224.7" r="4.2" fill="#96CEB4" opacity="0.8" filter="url(#glow)"/>
<circle cx="278.1" cy="207.9" r="4.2" fill="#96CEB4" opacity="0.8" filter="url(#glow)"/>
<circle cx="303.1" cy="194.2" r="4.2" fill="#96CEB4" opacity="0.8" filter="url(#glow)"/>
<circle cx="329.7" cy="183.6" r="4.2" fill="#96CEB4" opacity="0.8" filter="url(#glow)"/>
<circle cx="357.4" cy="176.5" r="4.2" fill="#DDA0DD" opacity="0.8" filter="url(#glow)"/>
<circle cx="385.7" cy="172.9" r="4.2" fill="#FFEAA7" opacity="0.8" filter="url(#glow)"/>
<circle cx="414.3" cy="172.9" r="4.2" fill="#4ECDC4" opacity="0.8" filter="url(#glow)"/>
<circle cx="442.6" cy="176.5" r="4.2" fill="#45B7D1" opacity="0.8" filter="url(#glow)"/>
<circle cx="470.3" cy="183.6" r="4.2" fill="#45B7D1" opacity="0.8" filter="url(#glow)"/>
<circle cx="496.9" cy="194.2" r="4.2" fill="#FF6B6B" opacity="0.8" filter="url(#glow)"/>
<circle cx="521.9" cy="207.9" r="4.2" fill="#FF6B6B" opacity="0.8" filter="url(#glow)"/>
<circle cx="545.0" cy="224.7" r="4.2" fill="#98D8C8" opacity="0.8" filter="url(#glow)"/>
<circle cx="565.8" cy="244.3" r="4.2" fill="#FF6B6B" opacity="0.8" filter="url(#glow)"/>
<circle cx="584.1" cy="266.3" r="4.2" fill="#FF6B6B" opacity="0.8" filter="url(#glow)"/>
<circle cx="597.2" cy="291.6" r="4.0" fill="#96CEB4" opacity="0.8" filter="url(#glow)"/>
<circle cx="609.2" cy="317.2" r="4.0" fill="#96CEB4" opacity="0.8" filter="url(#glow)"/>
<circle cx="617.9" cy="344.0" r="4.0" fill="#96CEB4" opacity="0.8" filter="url(#glow)"/>
<circle cx="623.2" cy="371.8" r="4.0" fill="#96CEB4" opacity="0.8" filter="url(#glow)"/>
<text x="400" y="28" text-anchor="middle" fill="#e6edf3" font-size="13" font-family="sans-serif" font-weight="bold">webqora</text>
<text x="400" y="46" text-anchor="middle" fill="#484f58" font-size="9" font-family="monospace">167 nodes · 249 links · 14 communities</text>
<rect x="15" y="697" width="8" height="8" fill="#FF6B6B" rx="1.5" alpha="0.8"/>
<text x="28" y="704" fill="#6e7681" font-size="7" font-family="monospace">C0: App.tsx (33)</text>
<rect x="15" y="709" width="8" height="8" fill="#4ECDC4" rx="1.5" alpha="0.8"/>
<text x="28" y="716" fill="#6e7681" font-size="7" font-family="monospace">C1: email.ts (25)</text>
<rect x="15" y="721" width="8" height="8" fill="#45B7D1" rx="1.5" alpha="0.8"/>
<text x="28" y="728" fill="#6e7681" font-size="7" font-family="monospace">C2: main.tsx (23)</text>
<rect x="15" y="733" width="8" height="8" fill="#96CEB4" rx="1.5" alpha="0.8"/>
<text x="28" y="740" fill="#6e7681" font-size="7" font-family="monospace">C3: deploy.mjs (20)</text>
<rect x="15" y="745" width="8" height="8" fill="#FFEAA7" rx="1.5" alpha="0.8"/>
<text x="28" y="752" fill="#6e7681" font-size="7" font-family="monospace">C4: admin (20)</text>
<rect x="15" y="757" width="8" height="8" fill="#DDA0DD" rx="1.5" alpha="0.8"/>
<text x="28" y="764" fill="#6e7681" font-size="7" font-family="monospace">C5: digitalocean.js (17)</text>
<rect x="15" y="769" width="8" height="8" fill="#98D8C8" rx="1.5" alpha="0.8"/>
<text x="28" y="776" fill="#6e7681" font-size="7" font-family="monospace">C6: Cards.tsx (8)</text>
<rect x="15" y="781" width="8" height="8" fill="#F7DC6F" rx="1.5" alpha="0.8"/>
<text x="28" y="788" fill="#6e7681" font-size="7" font-family="monospace">C7: email.js (7)</text>
</svg>