<?xml version="1.0" encoding="UTF-8"?>
<svg xmlns="http://www.w3.org/2000/svg" viewBox="0 0 800 800" width="800" height="800">
<defs><filter id="glow"><feGaussianBlur stdDeviation="1.5" result="coloredBlur"/><feMerge><feMergeNode in="coloredBlur"/><feMergeNode in="SourceGraphic"/></feMerge></filter></defs>
<rect width="800" height="800" fill="#0d1117"/>
<line x1="648.7" y1="498.5" x2="565.8" y2="244.3" stroke="#30363d" stroke-opacity="0.4" stroke-width="0.6"/>
<line x1="648.7" y1="498.5" x2="328.9" y2="181.3" stroke="#30363d" stroke-opacity="0.4" stroke-width="0.6"/>
<line x1="648.7" y1="498.5" x2="584.1" y2="266.3" stroke="#30363d" stroke-opacity="0.4" stroke-width="0.6"/>
<line x1="648.7" y1="498.5" x2="356.9" y2="174.1" stroke="#30363d" stroke-opacity="0.4" stroke-width="0.6"/>
<line x1="648.7" y1="498.5" x2="599.4" y2="290.4" stroke="#30363d" stroke-opacity="0.4" stroke-width="0.6"/>
<line x1="648.7" y1="498.5" x2="611.5" y2="316.3" stroke="#30363d" stroke-opacity="0.4" stroke-width="0.6"/>
<line x1="648.7" y1="498.5" x2="196.3" y2="288.0" stroke="#30363d" stroke-opacity="0.4" stroke-width="0.6"/>
<line x1="648.7" y1="498.5" x2="620.4" y2="343.4" stroke="#30363d" stroke-opacity="0.4" stroke-width="0.6"/>
<line x1="648.7" y1="498.5" x2="166.9" y2="429.5" stroke="#30363d" stroke-opacity="0.4" stroke-width="0.6"/>
<line x1="648.7" y1="498.5" x2="165.0" y2="400.0" stroke="#30363d" stroke-opacity="0.4" stroke-width="0.6"/>
<line x1="196.3" y1="288.0" x2="565.8" y2="244.3" stroke="#30363d" stroke-opacity="0.4" stroke-width="0.6"/>
<line x1="166.9" y1="429.5" x2="565.8" y2="244.3" stroke="#30363d" stroke-opacity="0.4" stroke-width="0.6"/>
<line x1="599.4" y1="290.4" x2="328.9" y2="181.3" stroke="#30363d" stroke-opacity="0.4" stroke-width="0.6"/>
<line x1="611.5" y1="316.3" x2="328.9" y2="181.3" stroke="#30363d" stroke-opacity="0.4" stroke-width="0.6"/>
<line x1="620.4" y1="343.4" x2="328.9" y2="181.3" stroke="#30363d" stroke-opacity="0.4" stroke-width="0.6"/>
<line x1="356.9" y1="174.1" x2="584.1" y2="266.3" stroke="#30363d" stroke-opacity="0.4" stroke-width="0.6"/>
<line x1="166.9" y1="429.5" x2="584.1" y2="266.3" stroke="#30363d" stroke-opacity="0.4" stroke-width="0.6"/>
<line x1="166.9" y1="429.5" x2="356.9" y2="174.1" stroke="#30363d" stroke-opacity="0.4" stroke-width="0.6"/>
<line x1="165.0" y1="400.0" x2="599.4" y2="290.4" stroke="#30363d" stroke-opacity="0.4" stroke-width="0.6"/>
<line x1="165.0" y1="400.0" x2="611.5" y2="316.3" stroke="#30363d" stroke-opacity="0.4" stroke-width="0.6"/>
<line x1="165.0" y1="400.0" x2="196.3" y2="288.0" stroke="#30363d" stroke-opacity="0.4" stroke-width="0.6"/>
<line x1="166.9" y1="429.5" x2="620.4" y2="343.4" stroke="#30363d" stroke-opacity="0.4" stroke-width="0.6"/>
<line x1="165.0" y1="400.0" x2="166.9" y2="429.5" stroke="#30363d" stroke-opacity="0.4" stroke-width="0.6"/>
<line x1="248.6" y1="583.0" x2="672.8" y2="434.5" stroke="#30363d" stroke-opacity="0.4" stroke-width="0.6"/>
<line x1="248.6" y1="583.0" x2="666.4" y2="468.4" stroke="#30363d" stroke-opacity="0.4" stroke-width="0.6"/>
<line x1="248.6" y1="583.0" x2="476.5" y2="635.4" stroke="#30363d" stroke-opacity="0.4" stroke-width="0.6"/>
<line x1="248.6" y1="583.0" x2="445.9" y2="640.7" stroke="#30363d" stroke-opacity="0.4" stroke-width="0.6"/>
<line x1="672.8" y1="434.5" x2="207.9" y2="539.6" stroke="#30363d" stroke-opacity="0.4" stroke-width="0.6"/>
<line x1="672.8" y1="434.5" x2="564.1" y2="598.4" stroke="#30363d" stroke-opacity="0.4" stroke-width="0.6"/>
<line x1="672.8" y1="434.5" x2="230.5" y2="240.8" stroke="#30363d" stroke-opacity="0.4" stroke-width="0.6"/>
<line x1="672.8" y1="434.5" x2="523.2" y2="205.8" stroke="#30363d" stroke-opacity="0.4" stroke-width="0.6"/>
<line x1="672.8" y1="434.5" x2="634.4" y2="528.9" stroke="#30363d" stroke-opacity="0.4" stroke-width="0.6"/>
<line x1="672.8" y1="434.5" x2="610.3" y2="552.8" stroke="#30363d" stroke-opacity="0.4" stroke-width="0.6"/>
<line x1="672.8" y1="434.5" x2="271.4" y2="602.6" stroke="#30363d" stroke-opacity="0.4" stroke-width="0.6"/>
<line x1="672.8" y1="434.5" x2="415.4" y2="644.5" stroke="#30363d" stroke-opacity="0.4" stroke-width="0.6"/>
<line x1="672.8" y1="434.5" x2="297.8" y2="617.2" stroke="#30363d" stroke-opacity="0.4" stroke-width="0.6"/>
<line x1="672.8" y1="434.5" x2="181.5" y2="313.5" stroke="#30363d" stroke-opacity="0.4" stroke-width="0.6"/>
<line x1="672.8" y1="434.5" x2="275.4" y2="203.7" stroke="#30363d" stroke-opacity="0.4" stroke-width="0.6"/>
<line x1="672.8" y1="434.5" x2="414.4" y2="170.5" stroke="#30363d" stroke-opacity="0.4" stroke-width="0.6"/>
<line x1="535.3" y1="613.2" x2="385.6" y2="170.5" stroke="#30363d" stroke-opacity="0.4" stroke-width="0.6"/>
<line x1="535.3" y1="613.2" x2="355.0" y2="635.7" stroke="#30363d" stroke-opacity="0.4" stroke-width="0.6"/>
<line x1="666.4" y1="468.4" x2="535.3" y2="613.2" stroke="#30363d" stroke-opacity="0.4" stroke-width="0.6"/>
<line x1="179.2" y1="487.4" x2="535.3" y2="613.2" stroke="#30363d" stroke-opacity="0.4" stroke-width="0.6"/>
<line x1="325.8" y1="628.3" x2="535.3" y2="613.2" stroke="#30363d" stroke-opacity="0.4" stroke-width="0.6"/>
<line x1="275.4" y1="203.7" x2="535.3" y2="613.2" stroke="#30363d" stroke-opacity="0.4" stroke-width="0.6"/>
<line x1="297.8" y1="617.2" x2="535.3" y2="613.2" stroke="#30363d" stroke-opacity="0.4" stroke-width="0.6"/>
<line x1="271.4" y1="602.6" x2="535.3" y2="613.2" stroke="#30363d" stroke-opacity="0.4" stroke-width="0.6"/>
<line x1="415.4" y1="644.5" x2="535.3" y2="613.2" stroke="#30363d" stroke-opacity="0.4" stroke-width="0.6"/>
<line x1="610.3" y1="552.8" x2="535.3" y2="613.2" stroke="#30363d" stroke-opacity="0.4" stroke-width="0.6"/>
<line x1="666.4" y1="468.4" x2="385.6" y2="170.5" stroke="#30363d" stroke-opacity="0.4" stroke-width="0.6"/>
<line x1="179.2" y1="487.4" x2="385.6" y2="170.5" stroke="#30363d" stroke-opacity="0.4" stroke-width="0.6"/>
<line x1="415.4" y1="644.5" x2="385.6" y2="170.5" stroke="#30363d" stroke-opacity="0.4" stroke-width="0.6"/>
<line x1="666.4" y1="468.4" x2="355.0" y2="635.7" stroke="#30363d" stroke-opacity="0.4" stroke-width="0.6"/>
<line x1="325.8" y1="628.3" x2="355.0" y2="635.7" stroke="#30363d" stroke-opacity="0.4" stroke-width="0.6"/>
<line x1="275.4" y1="203.7" x2="355.0" y2="635.7" stroke="#30363d" stroke-opacity="0.4" stroke-width="0.6"/>
<line x1="297.8" y1="617.2" x2="355.0" y2="635.7" stroke="#30363d" stroke-opacity="0.4" stroke-width="0.6"/>
<line x1="271.4" y1="602.6" x2="355.0" y2="635.7" stroke="#30363d" stroke-opacity="0.4" stroke-width="0.6"/>
<line x1="415.4" y1="644.5" x2="355.0" y2="635.7" stroke="#30363d" stroke-opacity="0.4" stroke-width="0.6"/>
<line x1="610.3" y1="552.8" x2="355.0" y2="635.7" stroke="#30363d" stroke-opacity="0.4" stroke-width="0.6"/>
<line x1="666.4" y1="468.4" x2="692.5" y2="400.0" stroke="#30363d" stroke-opacity="0.4" stroke-width="0.6"/>
<line x1="207.9" y1="539.6" x2="666.4" y2="468.4" stroke="#30363d" stroke-opacity="0.4" stroke-width="0.6"/>
<line x1="191.9" y1="514.4" x2="666.4" y2="468.4" stroke="#30363d" stroke-opacity="0.4" stroke-width="0.6"/>
<line x1="166.9" y1="370.5" x2="666.4" y2="468.4" stroke="#30363d" stroke-opacity="0.4" stroke-width="0.6"/>
<line x1="172.4" y1="341.6" x2="666.4" y2="468.4" stroke="#30363d" stroke-opacity="0.4" stroke-width="0.6"/>
<line x1="230.5" y1="240.8" x2="666.4" y2="468.4" stroke="#30363d" stroke-opacity="0.4" stroke-width="0.6"/>
<line x1="443.1" y1="174.1" x2="666.4" y2="468.4" stroke="#30363d" stroke-opacity="0.4" stroke-width="0.6"/>
<line x1="325.8" y1="628.3" x2="666.4" y2="468.4" stroke="#30363d" stroke-opacity="0.4" stroke-width="0.6"/>
<line x1="297.8" y1="617.2" x2="666.4" y2="468.4" stroke="#30363d" stroke-opacity="0.4" stroke-width="0.6"/>
<line x1="271.4" y1="602.6" x2="666.4" y2="468.4" stroke="#30363d" stroke-opacity="0.4" stroke-width="0.6"/>
<line x1="634.4" y1="528.9" x2="666.4" y2="468.4" stroke="#30363d" stroke-opacity="0.4" stroke-width="0.6"/>
<line x1="415.4" y1="644.5" x2="666.4" y2="468.4" stroke="#30363d" stroke-opacity="0.4" stroke-width="0.6"/>
<line x1="523.2" y1="205.8" x2="666.4" y2="468.4" stroke="#30363d" stroke-opacity="0.4" stroke-width="0.6"/>
<line x1="610.3" y1="552.8" x2="666.4" y2="468.4" stroke="#30363d" stroke-opacity="0.4" stroke-width="0.6"/>
<line x1="181.5" y1="313.5" x2="666.4" y2="468.4" stroke="#30363d" stroke-opacity="0.4" stroke-width="0.6"/>
<line x1="207.9" y1="539.6" x2="692.5" y2="400.0" stroke="#30363d" stroke-opacity="0.4" stroke-width="0.6"/>
<line x1="191.9" y1="514.4" x2="692.5" y2="400.0" stroke="#30363d" stroke-opacity="0.4" stroke-width="0.6"/>
<line x1="166.9" y1="370.5" x2="692.5" y2="400.0" stroke="#30363d" stroke-opacity="0.4" stroke-width="0.6"/>
<line x1="172.4" y1="341.6" x2="692.5" y2="400.0" stroke="#30363d" stroke-opacity="0.4" stroke-width="0.6"/>
<line x1="230.5" y1="240.8" x2="692.5" y2="400.0" stroke="#30363d" stroke-opacity="0.4" stroke-width="0.6"/>
<line x1="443.1" y1="174.1" x2="692.5" y2="400.0" stroke="#30363d" stroke-opacity="0.4" stroke-width="0.6"/>
<line x1="325.8" y1="628.3" x2="692.5" y2="400.0" stroke="#30363d" stroke-opacity="0.4" stroke-width="0.6"/>
<line x1="297.8" y1="617.2" x2="692.5" y2="400.0" stroke="#30363d" stroke-opacity="0.4" stroke-width="0.6"/>
<line x1="271.4" y1="602.6" x2="692.5" y2="400.0" stroke="#30363d" stroke-opacity="0.4" stroke-width="0.6"/>
<line x1="634.4" y1="528.9" x2="692.5" y2="400.0" stroke="#30363d" stroke-opacity="0.4" stroke-width="0.6"/>
<line x1="415.4" y1="644.5" x2="692.5" y2="400.0" stroke="#30363d" stroke-opacity="0.4" stroke-width="0.6"/>
<line x1="523.2" y1="205.8" x2="692.5" y2="400.0" stroke="#30363d" stroke-opacity="0.4" stroke-width="0.6"/>
<line x1="610.3" y1="552.8" x2="692.5" y2="400.0" stroke="#30363d" stroke-opacity="0.4" stroke-width="0.6"/>
<line x1="181.5" y1="313.5" x2="692.5" y2="400.0" stroke="#30363d" stroke-opacity="0.4" stroke-width="0.6"/>
<line x1="625.7" y1="371.5" x2="692.5" y2="400.0" stroke="#30363d" stroke-opacity="0.4" stroke-width="0.6"/>
<line x1="251.8" y1="220.9" x2="692.5" y2="400.0" stroke="#30363d" stroke-opacity="0.4" stroke-width="0.6"/>
<line x1="497.9" y1="191.9" x2="692.5" y2="400.0" stroke="#30363d" stroke-opacity="0.4" stroke-width="0.6"/>
<line x1="476.5" y1="635.4" x2="587.7" y2="576.3" stroke="#30363d" stroke-opacity="0.4" stroke-width="0.6"/>
<line x1="179.2" y1="487.4" x2="476.5" y2="635.4" stroke="#30363d" stroke-opacity="0.4" stroke-width="0.6"/>
<line x1="325.8" y1="628.3" x2="476.5" y2="635.4" stroke="#30363d" stroke-opacity="0.4" stroke-width="0.6"/>
<line x1="297.8" y1="617.2" x2="476.5" y2="635.4" stroke="#30363d" stroke-opacity="0.4" stroke-width="0.6"/>
<line x1="271.4" y1="602.6" x2="476.5" y2="635.4" stroke="#30363d" stroke-opacity="0.4" stroke-width="0.6"/>
<line x1="634.4" y1="528.9" x2="476.5" y2="635.4" stroke="#30363d" stroke-opacity="0.4" stroke-width="0.6"/>
<line x1="415.4" y1="644.5" x2="476.5" y2="635.4" stroke="#30363d" stroke-opacity="0.4" stroke-width="0.6"/>
<line x1="610.3" y1="552.8" x2="476.5" y2="635.4" stroke="#30363d" stroke-opacity="0.4" stroke-width="0.6"/>
<line x1="179.2" y1="487.4" x2="587.7" y2="576.3" stroke="#30363d" stroke-opacity="0.4" stroke-width="0.6"/>
<line x1="325.8" y1="628.3" x2="587.7" y2="576.3" stroke="#30363d" stroke-opacity="0.4" stroke-width="0.6"/>
<line x1="297.8" y1="617.2" x2="587.7" y2="576.3" stroke="#30363d" stroke-opacity="0.4" stroke-width="0.6"/>
<line x1="271.4" y1="602.6" x2="587.7" y2="576.3" stroke="#30363d" stroke-opacity="0.4" stroke-width="0.6"/>
<line x1="634.4" y1="528.9" x2="587.7" y2="576.3" stroke="#30363d" stroke-opacity="0.4" stroke-width="0.6"/>
<line x1="415.4" y1="644.5" x2="587.7" y2="576.3" stroke="#30363d" stroke-opacity="0.4" stroke-width="0.6"/>
<line x1="610.3" y1="552.8" x2="587.7" y2="576.3" stroke="#30363d" stroke-opacity="0.4" stroke-width="0.6"/>
<line x1="251.8" y1="220.9" x2="587.7" y2="576.3" stroke="#30363d" stroke-opacity="0.4" stroke-width="0.6"/>
<line x1="497.9" y1="191.9" x2="587.7" y2="576.3" stroke="#30363d" stroke-opacity="0.4" stroke-width="0.6"/>
<line x1="445.9" y1="640.7" x2="507.5" y2="628.5" stroke="#30363d" stroke-opacity="0.4" stroke-width="0.6"/>
<line x1="207.9" y1="539.6" x2="445.9" y2="640.7" stroke="#30363d" stroke-opacity="0.4" stroke-width="0.6"/>
<line x1="414.4" y1="170.5" x2="445.9" y2="640.7" stroke="#30363d" stroke-opacity="0.4" stroke-width="0.6"/>
<line x1="191.9" y1="514.4" x2="445.9" y2="640.7" stroke="#30363d" stroke-opacity="0.4" stroke-width="0.6"/>
<line x1="166.9" y1="370.5" x2="445.9" y2="640.7" stroke="#30363d" stroke-opacity="0.4" stroke-width="0.6"/>
<line x1="172.4" y1="341.6" x2="445.9" y2="640.7" stroke="#30363d" stroke-opacity="0.4" stroke-width="0.6"/>
<line x1="181.5" y1="313.5" x2="445.9" y2="640.7" stroke="#30363d" stroke-opacity="0.4" stroke-width="0.6"/>
<line x1="207.9" y1="539.6" x2="507.5" y2="628.5" stroke="#30363d" stroke-opacity="0.4" stroke-width="0.6"/>
<line x1="414.4" y1="170.5" x2="507.5" y2="628.5" stroke="#30363d" stroke-opacity="0.4" stroke-width="0.6"/>
<line x1="191.9" y1="514.4" x2="507.5" y2="628.5" stroke="#30363d" stroke-opacity="0.4" stroke-width="0.6"/>
<line x1="166.9" y1="370.5" x2="507.5" y2="628.5" stroke="#30363d" stroke-opacity="0.4" stroke-width="0.6"/>
<line x1="172.4" y1="341.6" x2="507.5" y2="628.5" stroke="#30363d" stroke-opacity="0.4" stroke-width="0.6"/>
<line x1="181.5" y1="313.5" x2="507.5" y2="628.5" stroke="#30363d" stroke-opacity="0.4" stroke-width="0.6"/>
<line x1="625.7" y1="371.5" x2="507.5" y2="628.5" stroke="#30363d" stroke-opacity="0.4" stroke-width="0.6"/>
<line x1="610.3" y1="552.8" x2="226.9" y2="562.6" stroke="#30363d" stroke-opacity="0.4" stroke-width="0.6"/>
<line x1="207.9" y1="539.6" x2="179.2" y2="487.4" stroke="#30363d" stroke-opacity="0.4" stroke-width="0.6"/>
<line x1="207.9" y1="539.6" x2="625.7" y2="371.5" stroke="#30363d" stroke-opacity="0.4" stroke-width="0.6"/>
<line x1="384.8" y1="642.0" x2="211.9" y2="263.3" stroke="#30363d" stroke-opacity="0.4" stroke-width="0.6"/>
<line x1="275.4" y1="203.7" x2="384.8" y2="642.0" stroke="#30363d" stroke-opacity="0.4" stroke-width="0.6"/>
<line x1="634.4" y1="528.9" x2="384.8" y2="642.0" stroke="#30363d" stroke-opacity="0.4" stroke-width="0.6"/>
<line x1="610.3" y1="552.8" x2="384.8" y2="642.0" stroke="#30363d" stroke-opacity="0.4" stroke-width="0.6"/>
<line x1="564.1" y1="598.4" x2="191.9" y2="514.4" stroke="#30363d" stroke-opacity="0.4" stroke-width="0.6"/>
<line x1="564.1" y1="598.4" x2="166.9" y2="370.5" stroke="#30363d" stroke-opacity="0.4" stroke-width="0.6"/>
<line x1="564.1" y1="598.4" x2="172.4" y2="341.6" stroke="#30363d" stroke-opacity="0.4" stroke-width="0.6"/>
<line x1="230.5" y1="240.8" x2="443.1" y2="174.1" stroke="#30363d" stroke-opacity="0.4" stroke-width="0.6"/>
<line x1="325.8" y1="628.3" x2="251.8" y2="220.9" stroke="#30363d" stroke-opacity="0.4" stroke-width="0.6"/>
<line x1="634.4" y1="528.9" x2="325.8" y2="628.3" stroke="#30363d" stroke-opacity="0.4" stroke-width="0.6"/>
<line x1="634.4" y1="528.9" x2="251.8" y2="220.9" stroke="#30363d" stroke-opacity="0.4" stroke-width="0.6"/>
<line x1="497.9" y1="191.9" x2="251.8" y2="220.9" stroke="#30363d" stroke-opacity="0.4" stroke-width="0.6"/>
<line x1="634.4" y1="528.9" x2="471.1" y2="181.3" stroke="#30363d" stroke-opacity="0.4" stroke-width="0.6"/>
<line x1="610.3" y1="552.8" x2="471.1" y2="181.3" stroke="#30363d" stroke-opacity="0.4" stroke-width="0.6"/>
<line x1="634.4" y1="528.9" x2="497.9" y2="191.9" stroke="#30363d" stroke-opacity="0.4" stroke-width="0.6"/>
<line x1="301.0" y1="189.6" x2="546.6" y2="222.8" stroke="#30363d" stroke-opacity="0.4" stroke-width="0.6"/>
<circle cx="692.5" cy="400.0" r="10.0" fill="#FF6B6B" opacity="0.8" filter="url(#glow)"/>
<text x="692.5" y="417.0" text-anchor="middle" fill="#8b949e" font-size="6" font-family="monospace">useAuth()</text>
<circle cx="672.8" cy="434.5" r="9.0" fill="#96CEB4" opacity="0.8" filter="url(#glow)"/>
<text x="672.8" y="450.5" text-anchor="middle" fill="#8b949e" font-size="6" font-family="monospace">App.jsx</text>
<circle cx="666.4" cy="468.4" r="9.0" fill="#FF6B6B" opacity="0.8" filter="url(#glow)"/>
<text x="666.4" y="484.4" text-anchor="middle" fill="#8b949e" font-size="6" font-family="monospace">AuthContext.jsx</text>
<circle cx="648.7" cy="498.5" r="8.2" fill="#45B7D1" opacity="0.8" filter="url(#glow)"/>
<text x="648.7" y="513.7" text-anchor="middle" fill="#8b949e" font-size="6" font-family="monospace">deploy.mjs</text>
<circle cx="634.4" cy="528.9" r="8.2" fill="#FF6B6B" opacity="0.8" filter="url(#glow)"/>
<text x="634.4" y="544.1" text-anchor="middle" fill="#8b949e" font-size="6" font-family="monospace">MyDNA.jsx</text>
<circle cx="610.3" cy="552.8" r="7.5" fill="#DDA0DD" opacity="0.8" filter="url(#glow)"/>
<text x="610.3" y="567.3" text-anchor="middle" fill="#8b949e" font-size="6" font-family="monospace">NodeBuilder.jsx</text>
<circle cx="587.7" cy="576.3" r="7.2" fill="#FF6B6B" opacity="0.8" filter="url(#glow)"/>
<text x="587.7" y="590.5" text-anchor="middle" fill="#8b949e" font-size="6" font-family="monospace">useToast()</text>
<circle cx="564.1" cy="598.4" r="7.2" fill="#4ECDC4" opacity="0.8" filter="url(#glow)"/>
<text x="564.1" y="612.7" text-anchor="middle" fill="#8b949e" font-size="6" font-family="monospace">Landing.jsx</text>
<circle cx="535.3" cy="613.2" r="6.8" fill="#FF6B6B" opacity="0.8" filter="url(#glow)"/>
<text x="535.3" y="626.9" text-anchor="middle" fill="#8b949e" font-size="6" font-family="monospace">firebase.js</text>
<circle cx="507.5" cy="628.5" r="6.8" fill="#FFEAA7" opacity="0.8" filter="url(#glow)"/>
<text x="507.5" y="642.2" text-anchor="middle" fill="#8b949e" font-size="6" font-family="monospace">useUI()</text>
<circle cx="476.5" cy="635.4" r="6.2" fill="#FF6B6B" opacity="0.8" filter="url(#glow)"/>
<text x="476.5" y="648.6" text-anchor="middle" fill="#8b949e" font-size="6" font-family="monospace">ToastContext.jsx</text>
<circle cx="445.9" cy="640.7" r="6.0" fill="#FFEAA7" opacity="0.8" filter="url(#glow)"/>
<text x="445.9" y="653.7" text-anchor="middle" fill="#8b949e" font-size="6" font-family="monospace">UIContext.jsx</text>
<circle cx="415.4" cy="644.5" r="6.0" fill="#FF6B6B" opacity="0.8" filter="url(#glow)"/>
<text x="415.4" y="657.5" text-anchor="middle" fill="#8b949e" font-size="6" font-family="monospace">Settings.jsx</text>
<circle cx="384.8" cy="642.0" r="5.8" fill="#555" opacity="0.8" filter="url(#glow)"/>
<text x="384.8" y="654.8" text-anchor="middle" fill="#8b949e" font-size="6" font-family="monospace">TemplateSelector.jsx</text>
<circle cx="355.0" cy="635.7" r="5.5" fill="#FF6B6B" opacity="0.8" filter="url(#glow)"/>
<circle cx="325.8" cy="628.3" r="5.5" fill="#FF6B6B" opacity="0.8" filter="url(#glow)"/>
<circle cx="297.8" cy="617.2" r="5.5" fill="#FF6B6B" opacity="0.8" filter="url(#glow)"/>
<circle cx="271.4" cy="602.6" r="5.5" fill="#FF6B6B" opacity="0.8" filter="url(#glow)"/>
<circle cx="248.6" cy="583.0" r="5.2" fill="#FF6B6B" opacity="0.8" filter="url(#glow)"/>
<circle cx="226.9" cy="562.6" r="5.2" fill="#DDA0DD" opacity="0.8" filter="url(#glow)"/>
<circle cx="207.9" cy="539.6" r="5.2" fill="#FFEAA7" opacity="0.8" filter="url(#glow)"/>
<circle cx="191.9" cy="514.4" r="5.2" fill="#FFEAA7" opacity="0.8" filter="url(#glow)"/>
<circle cx="179.2" cy="487.4" r="5.2" fill="#FF6B6B" opacity="0.8" filter="url(#glow)"/>
<circle cx="170.0" cy="459.1" r="5.2" fill="#98D8C8" opacity="0.8" filter="url(#glow)"/>
<circle cx="166.9" cy="429.5" r="5.0" fill="#45B7D1" opacity="0.8" filter="url(#glow)"/>
<circle cx="165.0" cy="400.0" r="5.0" fill="#45B7D1" opacity="0.8" filter="url(#glow)"/>
<circle cx="166.9" cy="370.5" r="5.0" fill="#FFEAA7" opacity="0.8" filter="url(#glow)"/>
<circle cx="172.4" cy="341.6" r="5.0" fill="#FFEAA7" opacity="0.8" filter="url(#glow)"/>
<circle cx="181.5" cy="313.5" r="5.0" fill="#FFEAA7" opacity="0.8" filter="url(#glow)"/>
<circle cx="196.3" cy="288.0" r="4.8" fill="#45B7D1" opacity="0.8" filter="url(#glow)"/>
<circle cx="211.9" cy="263.3" r="4.8" fill="#555" opacity="0.8" filter="url(#glow)"/>
<circle cx="230.5" cy="240.8" r="4.8" fill="#FF6B6B" opacity="0.8" filter="url(#glow)"/>
<circle cx="251.8" cy="220.9" r="4.8" fill="#FF6B6B" opacity="0.8" filter="url(#glow)"/>
<circle cx="275.4" cy="203.7" r="4.8" fill="#FF6B6B" opacity="0.8" filter="url(#glow)"/>
<circle cx="301.0" cy="189.6" r="4.8" fill="#F7DC6F" opacity="0.8" filter="url(#glow)"/>
<circle cx="328.9" cy="181.3" r="4.5" fill="#45B7D1" opacity="0.8" filter="url(#glow)"/>
<circle cx="356.9" cy="174.1" r="4.5" fill="#45B7D1" opacity="0.8" filter="url(#glow)"/>
<circle cx="385.6" cy="170.5" r="4.5" fill="#FF6B6B" opacity="0.8" filter="url(#glow)"/>
<circle cx="414.4" cy="170.5" r="4.5" fill="#FFEAA7" opacity="0.8" filter="url(#glow)"/>
<circle cx="443.1" cy="174.1" r="4.5" fill="#FF6B6B" opacity="0.8" filter="url(#glow)"/>
<circle cx="471.1" cy="181.3" r="4.5" fill="#DDA0DD" opacity="0.8" filter="url(#glow)"/>
<circle cx="497.9" cy="191.9" r="4.5" fill="#FF6B6B" opacity="0.8" filter="url(#glow)"/>
<circle cx="523.2" cy="205.8" r="4.5" fill="#FF6B6B" opacity="0.8" filter="url(#glow)"/>
<circle cx="546.6" cy="222.8" r="4.5" fill="#F7DC6F" opacity="0.8" filter="url(#glow)"/>
<circle cx="565.8" cy="244.3" r="4.2" fill="#45B7D1" opacity="0.8" filter="url(#glow)"/>
<circle cx="584.1" cy="266.3" r="4.2" fill="#45B7D1" opacity="0.8" filter="url(#glow)"/>
<circle cx="599.4" cy="290.4" r="4.2" fill="#45B7D1" opacity="0.8" filter="url(#glow)"/>
<circle cx="611.5" cy="316.3" r="4.2" fill="#45B7D1" opacity="0.8" filter="url(#glow)"/>
<circle cx="620.4" cy="343.4" r="4.2" fill="#45B7D1" opacity="0.8" filter="url(#glow)"/>
<circle cx="625.7" cy="371.5" r="4.2" fill="#FFEAA7" opacity="0.8" filter="url(#glow)"/>
<text x="400" y="28" text-anchor="middle" fill="#e6edf3" font-size="13" font-family="sans-serif" font-weight="bold">worknira</text>
<text x="400" y="46" text-anchor="middle" fill="#484f58" font-size="9" font-family="monospace">188 nodes · 310 links · 22 communities</text>
<rect x="15" y="697" width="8" height="8" fill="#FF6B6B" rx="1.5" alpha="0.8"/>
<text x="28" y="704" fill="#6e7681" font-size="7" font-family="monospace">C0: main.jsx (46)</text>
<rect x="15" y="709" width="8" height="8" fill="#4ECDC4" rx="1.5" alpha="0.8"/>
<text x="28" y="716" fill="#6e7681" font-size="7" font-family="monospace">C1: Stats.jsx (23)</text>
<rect x="15" y="721" width="8" height="8" fill="#45B7D1" rx="1.5" alpha="0.8"/>
<text x="28" y="728" fill="#6e7681" font-size="7" font-family="monospace">C2: deploy.mjs (20)</text>
<rect x="15" y="733" width="8" height="8" fill="#96CEB4" rx="1.5" alpha="0.8"/>
<text x="28" y="740" fill="#6e7681" font-size="7" font-family="monospace">C3: App.jsx (17)</text>
<rect x="15" y="745" width="8" height="8" fill="#FFEAA7" rx="1.5" alpha="0.8"/>
<text x="28" y="752" fill="#6e7681" font-size="7" font-family="monospace">C4: UIContext.jsx (16)</text>
<rect x="15" y="757" width="8" height="8" fill="#DDA0DD" rx="1.5" alpha="0.8"/>
<text x="28" y="764" fill="#6e7681" font-size="7" font-family="monospace">C5: aiSynthesizer.js (12)</text>
<rect x="15" y="769" width="8" height="8" fill="#98D8C8" rx="1.5" alpha="0.8"/>
<text x="28" y="776" fill="#6e7681" font-size="7" font-family="monospace">C6: README.md (12)</text>
<rect x="15" y="781" width="8" height="8" fill="#F7DC6F" rx="1.5" alpha="0.8"/>
<text x="28" y="788" fill="#6e7681" font-size="7" font-family="monospace">C7: DOCUMENTATION.md (11)</text>
</svg>